G04 #@! TF.GenerationSoftware,KiCad,Pcbnew,(5.0.1)-3*
G04 #@! TF.CreationDate,2020-04-19T15:50:42-04:00*
G04 #@! TF.ProjectId,frontPanel_100mm,66726F6E7450616E656C5F3130306D6D,rev?*
G04 #@! TF.SameCoordinates,Original*
G04 #@! TF.FileFunction,Soldermask,Bot*
G04 #@! TF.FilePolarity,Negative*
%FSLAX46Y46*%
G04 Gerber Fmt 4.6, Leading zero omitted, Abs format (unit mm)*
G04 Created by KiCad (PCBNEW (5.0.1)-3) date 4/19/2020 3:50:42 PM*
%MOMM*%
%LPD*%
G01*
G04 APERTURE LIST*
%ADD10C,0.100000*%
G04 APERTURE END LIST*
D10*
G36*
X177781000Y-92521000D02*
X176679000Y-92521000D01*
X176679000Y-89419000D01*
X177781000Y-89419000D01*
X177781000Y-92521000D01*
X177781000Y-92521000D01*
G37*
G36*
X147301000Y-92521000D02*
X146199000Y-92521000D01*
X146199000Y-89419000D01*
X147301000Y-89419000D01*
X147301000Y-92521000D01*
X147301000Y-92521000D01*
G37*
G36*
X172701000Y-92521000D02*
X171599000Y-92521000D01*
X171599000Y-89419000D01*
X172701000Y-89419000D01*
X172701000Y-92521000D01*
X172701000Y-92521000D01*
G37*
G36*
X170161000Y-92521000D02*
X169059000Y-92521000D01*
X169059000Y-89419000D01*
X170161000Y-89419000D01*
X170161000Y-92521000D01*
X170161000Y-92521000D01*
G37*
G36*
X167621000Y-92521000D02*
X166519000Y-92521000D01*
X166519000Y-89419000D01*
X167621000Y-89419000D01*
X167621000Y-92521000D01*
X167621000Y-92521000D01*
G37*
G36*
X165081000Y-92521000D02*
X163979000Y-92521000D01*
X163979000Y-89419000D01*
X165081000Y-89419000D01*
X165081000Y-92521000D01*
X165081000Y-92521000D01*
G37*
G36*
X162541000Y-92521000D02*
X161439000Y-92521000D01*
X161439000Y-89419000D01*
X162541000Y-89419000D01*
X162541000Y-92521000D01*
X162541000Y-92521000D01*
G37*
G36*
X160001000Y-92521000D02*
X158899000Y-92521000D01*
X158899000Y-89419000D01*
X160001000Y-89419000D01*
X160001000Y-92521000D01*
X160001000Y-92521000D01*
G37*
G36*
X157461000Y-92521000D02*
X156359000Y-92521000D01*
X156359000Y-89419000D01*
X157461000Y-89419000D01*
X157461000Y-92521000D01*
X157461000Y-92521000D01*
G37*
G36*
X154921000Y-92521000D02*
X153819000Y-92521000D01*
X153819000Y-89419000D01*
X154921000Y-89419000D01*
X154921000Y-92521000D01*
X154921000Y-92521000D01*
G37*
G36*
X152381000Y-92521000D02*
X151279000Y-92521000D01*
X151279000Y-89419000D01*
X152381000Y-89419000D01*
X152381000Y-92521000D01*
X152381000Y-92521000D01*
G37*
G36*
X149841000Y-92521000D02*
X148739000Y-92521000D01*
X148739000Y-89419000D01*
X149841000Y-89419000D01*
X149841000Y-92521000D01*
X149841000Y-92521000D01*
G37*
G36*
X175241000Y-92521000D02*
X174139000Y-92521000D01*
X174139000Y-89419000D01*
X175241000Y-89419000D01*
X175241000Y-92521000D01*
X175241000Y-92521000D01*
G37*
G36*
X142221000Y-92521000D02*
X141119000Y-92521000D01*
X141119000Y-89419000D01*
X142221000Y-89419000D01*
X142221000Y-92521000D01*
X142221000Y-92521000D01*
G37*
G36*
X144761000Y-92521000D02*
X143659000Y-92521000D01*
X143659000Y-89419000D01*
X144761000Y-89419000D01*
X144761000Y-92521000D01*
X144761000Y-92521000D01*
G37*
G36*
X116821000Y-92521000D02*
X115719000Y-92521000D01*
X115719000Y-89419000D01*
X116821000Y-89419000D01*
X116821000Y-92521000D01*
X116821000Y-92521000D01*
G37*
G36*
X119361000Y-92521000D02*
X118259000Y-92521000D01*
X118259000Y-89419000D01*
X119361000Y-89419000D01*
X119361000Y-92521000D01*
X119361000Y-92521000D01*
G37*
G36*
X121901000Y-92521000D02*
X120799000Y-92521000D01*
X120799000Y-89419000D01*
X121901000Y-89419000D01*
X121901000Y-92521000D01*
X121901000Y-92521000D01*
G37*
G36*
X124441000Y-92521000D02*
X123339000Y-92521000D01*
X123339000Y-89419000D01*
X124441000Y-89419000D01*
X124441000Y-92521000D01*
X124441000Y-92521000D01*
G37*
G36*
X126981000Y-92521000D02*
X125879000Y-92521000D01*
X125879000Y-89419000D01*
X126981000Y-89419000D01*
X126981000Y-92521000D01*
X126981000Y-92521000D01*
G37*
G36*
X129521000Y-92521000D02*
X128419000Y-92521000D01*
X128419000Y-89419000D01*
X129521000Y-89419000D01*
X129521000Y-92521000D01*
X129521000Y-92521000D01*
G37*
G36*
X132061000Y-92521000D02*
X130959000Y-92521000D01*
X130959000Y-89419000D01*
X132061000Y-89419000D01*
X132061000Y-92521000D01*
X132061000Y-92521000D01*
G37*
G36*
X134601000Y-92521000D02*
X133499000Y-92521000D01*
X133499000Y-89419000D01*
X134601000Y-89419000D01*
X134601000Y-92521000D01*
X134601000Y-92521000D01*
G37*
G36*
X137141000Y-92521000D02*
X136039000Y-92521000D01*
X136039000Y-89419000D01*
X137141000Y-89419000D01*
X137141000Y-92521000D01*
X137141000Y-92521000D01*
G37*
G36*
X139681000Y-92521000D02*
X138579000Y-92521000D01*
X138579000Y-89419000D01*
X139681000Y-89419000D01*
X139681000Y-92521000D01*
X139681000Y-92521000D01*
G37*
G36*
X167621000Y-87481000D02*
X166519000Y-87481000D01*
X166519000Y-84379000D01*
X167621000Y-84379000D01*
X167621000Y-87481000D01*
X167621000Y-87481000D01*
G37*
G36*
X165081000Y-87481000D02*
X163979000Y-87481000D01*
X163979000Y-84379000D01*
X165081000Y-84379000D01*
X165081000Y-87481000D01*
X165081000Y-87481000D01*
G37*
G36*
X162541000Y-87481000D02*
X161439000Y-87481000D01*
X161439000Y-84379000D01*
X162541000Y-84379000D01*
X162541000Y-87481000D01*
X162541000Y-87481000D01*
G37*
G36*
X160001000Y-87481000D02*
X158899000Y-87481000D01*
X158899000Y-84379000D01*
X160001000Y-84379000D01*
X160001000Y-87481000D01*
X160001000Y-87481000D01*
G37*
G36*
X137141000Y-87481000D02*
X136039000Y-87481000D01*
X136039000Y-84379000D01*
X137141000Y-84379000D01*
X137141000Y-87481000D01*
X137141000Y-87481000D01*
G37*
G36*
X154921000Y-87481000D02*
X153819000Y-87481000D01*
X153819000Y-84379000D01*
X154921000Y-84379000D01*
X154921000Y-87481000D01*
X154921000Y-87481000D01*
G37*
G36*
X152381000Y-87481000D02*
X151279000Y-87481000D01*
X151279000Y-84379000D01*
X152381000Y-84379000D01*
X152381000Y-87481000D01*
X152381000Y-87481000D01*
G37*
G36*
X149841000Y-87481000D02*
X148739000Y-87481000D01*
X148739000Y-84379000D01*
X149841000Y-84379000D01*
X149841000Y-87481000D01*
X149841000Y-87481000D01*
G37*
G36*
X147301000Y-87481000D02*
X146199000Y-87481000D01*
X146199000Y-84379000D01*
X147301000Y-84379000D01*
X147301000Y-87481000D01*
X147301000Y-87481000D01*
G37*
G36*
X144761000Y-87481000D02*
X143659000Y-87481000D01*
X143659000Y-84379000D01*
X144761000Y-84379000D01*
X144761000Y-87481000D01*
X144761000Y-87481000D01*
G37*
G36*
X142221000Y-87481000D02*
X141119000Y-87481000D01*
X141119000Y-84379000D01*
X142221000Y-84379000D01*
X142221000Y-87481000D01*
X142221000Y-87481000D01*
G37*
G36*
X139681000Y-87481000D02*
X138579000Y-87481000D01*
X138579000Y-84379000D01*
X139681000Y-84379000D01*
X139681000Y-87481000D01*
X139681000Y-87481000D01*
G37*
G36*
X157461000Y-87481000D02*
X156359000Y-87481000D01*
X156359000Y-84379000D01*
X157461000Y-84379000D01*
X157461000Y-87481000D01*
X157461000Y-87481000D01*
G37*
G36*
X175241000Y-87481000D02*
X174139000Y-87481000D01*
X174139000Y-84379000D01*
X175241000Y-84379000D01*
X175241000Y-87481000D01*
X175241000Y-87481000D01*
G37*
G36*
X172701000Y-87481000D02*
X171599000Y-87481000D01*
X171599000Y-84379000D01*
X172701000Y-84379000D01*
X172701000Y-87481000D01*
X172701000Y-87481000D01*
G37*
G36*
X129521000Y-87481000D02*
X128419000Y-87481000D01*
X128419000Y-84379000D01*
X129521000Y-84379000D01*
X129521000Y-87481000D01*
X129521000Y-87481000D01*
G37*
G36*
X126981000Y-87481000D02*
X125879000Y-87481000D01*
X125879000Y-84379000D01*
X126981000Y-84379000D01*
X126981000Y-87481000D01*
X126981000Y-87481000D01*
G37*
G36*
X119361000Y-87481000D02*
X118259000Y-87481000D01*
X118259000Y-84379000D01*
X119361000Y-84379000D01*
X119361000Y-87481000D01*
X119361000Y-87481000D01*
G37*
G36*
X132061000Y-87481000D02*
X130959000Y-87481000D01*
X130959000Y-84379000D01*
X132061000Y-84379000D01*
X132061000Y-87481000D01*
X132061000Y-87481000D01*
G37*
G36*
X177781000Y-87481000D02*
X176679000Y-87481000D01*
X176679000Y-84379000D01*
X177781000Y-84379000D01*
X177781000Y-87481000D01*
X177781000Y-87481000D01*
G37*
G36*
X124441000Y-87481000D02*
X123339000Y-87481000D01*
X123339000Y-84379000D01*
X124441000Y-84379000D01*
X124441000Y-87481000D01*
X124441000Y-87481000D01*
G37*
G36*
X134601000Y-87481000D02*
X133499000Y-87481000D01*
X133499000Y-84379000D01*
X134601000Y-84379000D01*
X134601000Y-87481000D01*
X134601000Y-87481000D01*
G37*
G36*
X116821000Y-87481000D02*
X115719000Y-87481000D01*
X115719000Y-84379000D01*
X116821000Y-84379000D01*
X116821000Y-87481000D01*
X116821000Y-87481000D01*
G37*
G36*
X170161000Y-87481000D02*
X169059000Y-87481000D01*
X169059000Y-84379000D01*
X170161000Y-84379000D01*
X170161000Y-87481000D01*
X170161000Y-87481000D01*
G37*
G36*
X121901000Y-87481000D02*
X120799000Y-87481000D01*
X120799000Y-84379000D01*
X121901000Y-84379000D01*
X121901000Y-87481000D01*
X121901000Y-87481000D01*
G37*
G36*
X125292626Y-77827037D02*
X125401297Y-77860002D01*
X125462466Y-77878557D01*
X125618989Y-77962221D01*
X125756186Y-78074814D01*
X125834087Y-78169738D01*
X125868778Y-78212009D01*
X125868779Y-78212011D01*
X125952443Y-78368533D01*
X125969616Y-78425147D01*
X126003963Y-78538373D01*
X126003963Y-78538375D01*
X126017000Y-78670740D01*
X126017000Y-79009259D01*
X126014011Y-79039607D01*
X126003963Y-79141626D01*
X125952443Y-79311466D01*
X125868778Y-79467991D01*
X125868777Y-79467992D01*
X125756186Y-79605186D01*
X125661251Y-79683096D01*
X125618991Y-79717778D01*
X125618989Y-79717779D01*
X125462467Y-79801443D01*
X125421734Y-79813799D01*
X125292627Y-79852963D01*
X125116000Y-79870359D01*
X124939374Y-79852963D01*
X124810267Y-79813799D01*
X124769534Y-79801443D01*
X124613012Y-79717779D01*
X124613010Y-79717778D01*
X124475816Y-79605186D01*
X124475812Y-79605183D01*
X124363222Y-79467992D01*
X124279557Y-79311467D01*
X124242354Y-79188824D01*
X124228037Y-79141627D01*
X124215000Y-79009258D01*
X124215000Y-78670743D01*
X124228037Y-78538374D01*
X124279557Y-78368535D01*
X124279557Y-78368534D01*
X124363221Y-78212011D01*
X124475814Y-78074814D01*
X124577271Y-77991552D01*
X124613009Y-77962222D01*
X124630913Y-77952652D01*
X124769533Y-77878557D01*
X124830702Y-77860002D01*
X124939373Y-77827037D01*
X125116000Y-77809641D01*
X125292626Y-77827037D01*
X125292626Y-77827037D01*
G37*
G36*
X127792626Y-77827037D02*
X127901297Y-77860002D01*
X127962466Y-77878557D01*
X128118989Y-77962221D01*
X128256186Y-78074814D01*
X128334087Y-78169738D01*
X128368778Y-78212009D01*
X128368779Y-78212011D01*
X128452443Y-78368533D01*
X128469616Y-78425147D01*
X128503963Y-78538373D01*
X128503963Y-78538375D01*
X128517000Y-78670740D01*
X128517000Y-79009259D01*
X128514011Y-79039607D01*
X128503963Y-79141626D01*
X128452443Y-79311466D01*
X128368778Y-79467991D01*
X128368777Y-79467992D01*
X128256186Y-79605186D01*
X128161251Y-79683096D01*
X128118991Y-79717778D01*
X128118989Y-79717779D01*
X127962467Y-79801443D01*
X127921734Y-79813799D01*
X127792627Y-79852963D01*
X127616000Y-79870359D01*
X127439374Y-79852963D01*
X127310267Y-79813799D01*
X127269534Y-79801443D01*
X127113012Y-79717779D01*
X127113010Y-79717778D01*
X126975816Y-79605186D01*
X126975812Y-79605183D01*
X126863222Y-79467992D01*
X126779557Y-79311467D01*
X126742354Y-79188824D01*
X126728037Y-79141627D01*
X126715000Y-79009258D01*
X126715000Y-78670743D01*
X126728037Y-78538374D01*
X126779557Y-78368535D01*
X126779557Y-78368534D01*
X126863221Y-78212011D01*
X126975814Y-78074814D01*
X127077271Y-77991552D01*
X127113009Y-77962222D01*
X127130913Y-77952652D01*
X127269533Y-77878557D01*
X127330702Y-77860002D01*
X127439373Y-77827037D01*
X127616000Y-77809641D01*
X127792626Y-77827037D01*
X127792626Y-77827037D01*
G37*
G36*
X113326626Y-77827037D02*
X113435297Y-77860002D01*
X113496466Y-77878557D01*
X113652989Y-77962221D01*
X113790186Y-78074814D01*
X113868087Y-78169738D01*
X113902778Y-78212009D01*
X113902779Y-78212011D01*
X113986443Y-78368533D01*
X114003616Y-78425147D01*
X114037963Y-78538373D01*
X114037963Y-78538375D01*
X114051000Y-78670740D01*
X114051000Y-79009259D01*
X114048011Y-79039607D01*
X114037963Y-79141626D01*
X113986443Y-79311466D01*
X113902778Y-79467991D01*
X113902777Y-79467992D01*
X113790186Y-79605186D01*
X113695251Y-79683096D01*
X113652991Y-79717778D01*
X113652989Y-79717779D01*
X113496467Y-79801443D01*
X113455734Y-79813799D01*
X113326627Y-79852963D01*
X113150000Y-79870359D01*
X112973374Y-79852963D01*
X112844267Y-79813799D01*
X112803534Y-79801443D01*
X112647012Y-79717779D01*
X112647010Y-79717778D01*
X112509816Y-79605186D01*
X112509812Y-79605183D01*
X112397222Y-79467992D01*
X112313557Y-79311467D01*
X112276354Y-79188824D01*
X112262037Y-79141627D01*
X112249000Y-79009258D01*
X112249000Y-78670743D01*
X112262037Y-78538374D01*
X112313557Y-78368535D01*
X112313557Y-78368534D01*
X112397221Y-78212011D01*
X112509814Y-78074814D01*
X112611271Y-77991552D01*
X112647009Y-77962222D01*
X112664913Y-77952652D01*
X112803533Y-77878557D01*
X112864702Y-77860002D01*
X112973373Y-77827037D01*
X113150000Y-77809641D01*
X113326626Y-77827037D01*
X113326626Y-77827037D01*
G37*
G36*
X115826626Y-77827037D02*
X115935297Y-77860002D01*
X115996466Y-77878557D01*
X116152989Y-77962221D01*
X116290186Y-78074814D01*
X116368087Y-78169738D01*
X116402778Y-78212009D01*
X116402779Y-78212011D01*
X116486443Y-78368533D01*
X116503616Y-78425147D01*
X116537963Y-78538373D01*
X116537963Y-78538375D01*
X116551000Y-78670740D01*
X116551000Y-79009259D01*
X116548011Y-79039607D01*
X116537963Y-79141626D01*
X116486443Y-79311466D01*
X116402778Y-79467991D01*
X116402777Y-79467992D01*
X116290186Y-79605186D01*
X116195251Y-79683096D01*
X116152991Y-79717778D01*
X116152989Y-79717779D01*
X115996467Y-79801443D01*
X115955734Y-79813799D01*
X115826627Y-79852963D01*
X115650000Y-79870359D01*
X115473374Y-79852963D01*
X115344267Y-79813799D01*
X115303534Y-79801443D01*
X115147012Y-79717779D01*
X115147010Y-79717778D01*
X115009816Y-79605186D01*
X115009812Y-79605183D01*
X114897222Y-79467992D01*
X114813557Y-79311467D01*
X114776354Y-79188824D01*
X114762037Y-79141627D01*
X114749000Y-79009258D01*
X114749000Y-78670743D01*
X114762037Y-78538374D01*
X114813557Y-78368535D01*
X114813557Y-78368534D01*
X114897221Y-78212011D01*
X115009814Y-78074814D01*
X115111271Y-77991552D01*
X115147009Y-77962222D01*
X115164913Y-77952652D01*
X115303533Y-77878557D01*
X115364702Y-77860002D01*
X115473373Y-77827037D01*
X115650000Y-77809641D01*
X115826626Y-77827037D01*
X115826626Y-77827037D01*
G37*
G36*
X156724626Y-77827037D02*
X156833297Y-77860002D01*
X156894466Y-77878557D01*
X157050989Y-77962221D01*
X157188186Y-78074814D01*
X157266087Y-78169738D01*
X157300778Y-78212009D01*
X157300779Y-78212011D01*
X157384443Y-78368533D01*
X157401616Y-78425147D01*
X157435963Y-78538373D01*
X157435963Y-78538375D01*
X157449000Y-78670740D01*
X157449000Y-79009259D01*
X157446011Y-79039607D01*
X157435963Y-79141626D01*
X157384443Y-79311466D01*
X157300778Y-79467991D01*
X157300777Y-79467992D01*
X157188186Y-79605186D01*
X157093251Y-79683096D01*
X157050991Y-79717778D01*
X157050989Y-79717779D01*
X156894467Y-79801443D01*
X156853734Y-79813799D01*
X156724627Y-79852963D01*
X156548000Y-79870359D01*
X156371374Y-79852963D01*
X156242267Y-79813799D01*
X156201534Y-79801443D01*
X156045012Y-79717779D01*
X156045010Y-79717778D01*
X155907816Y-79605186D01*
X155907812Y-79605183D01*
X155795222Y-79467992D01*
X155711557Y-79311467D01*
X155674354Y-79188824D01*
X155660037Y-79141627D01*
X155647000Y-79009258D01*
X155647000Y-78670743D01*
X155660037Y-78538374D01*
X155711557Y-78368535D01*
X155711557Y-78368534D01*
X155795221Y-78212011D01*
X155907814Y-78074814D01*
X156009271Y-77991552D01*
X156045009Y-77962222D01*
X156062913Y-77952652D01*
X156201533Y-77878557D01*
X156262702Y-77860002D01*
X156371373Y-77827037D01*
X156548000Y-77809641D01*
X156724626Y-77827037D01*
X156724626Y-77827037D01*
G37*
G36*
X144758626Y-77827037D02*
X144867297Y-77860002D01*
X144928466Y-77878557D01*
X145084989Y-77962221D01*
X145222186Y-78074814D01*
X145300087Y-78169738D01*
X145334778Y-78212009D01*
X145334779Y-78212011D01*
X145418443Y-78368533D01*
X145435616Y-78425147D01*
X145469963Y-78538373D01*
X145469963Y-78538375D01*
X145483000Y-78670740D01*
X145483000Y-79009259D01*
X145480011Y-79039607D01*
X145469963Y-79141626D01*
X145418443Y-79311466D01*
X145334778Y-79467991D01*
X145334777Y-79467992D01*
X145222186Y-79605186D01*
X145127251Y-79683096D01*
X145084991Y-79717778D01*
X145084989Y-79717779D01*
X144928467Y-79801443D01*
X144887734Y-79813799D01*
X144758627Y-79852963D01*
X144582000Y-79870359D01*
X144405374Y-79852963D01*
X144276267Y-79813799D01*
X144235534Y-79801443D01*
X144079012Y-79717779D01*
X144079010Y-79717778D01*
X143941816Y-79605186D01*
X143941812Y-79605183D01*
X143829222Y-79467992D01*
X143745557Y-79311467D01*
X143708354Y-79188824D01*
X143694037Y-79141627D01*
X143681000Y-79009258D01*
X143681000Y-78670743D01*
X143694037Y-78538374D01*
X143745557Y-78368535D01*
X143745557Y-78368534D01*
X143829221Y-78212011D01*
X143941814Y-78074814D01*
X144043271Y-77991552D01*
X144079009Y-77962222D01*
X144096913Y-77952652D01*
X144235533Y-77878557D01*
X144296702Y-77860002D01*
X144405373Y-77827037D01*
X144582000Y-77809641D01*
X144758626Y-77827037D01*
X144758626Y-77827037D01*
G37*
G36*
X130292626Y-77827037D02*
X130401297Y-77860002D01*
X130462466Y-77878557D01*
X130618989Y-77962221D01*
X130756186Y-78074814D01*
X130834087Y-78169738D01*
X130868778Y-78212009D01*
X130868779Y-78212011D01*
X130952443Y-78368533D01*
X130969616Y-78425147D01*
X131003963Y-78538373D01*
X131003963Y-78538375D01*
X131017000Y-78670740D01*
X131017000Y-79009259D01*
X131014011Y-79039607D01*
X131003963Y-79141626D01*
X130952443Y-79311466D01*
X130868778Y-79467991D01*
X130868777Y-79467992D01*
X130756186Y-79605186D01*
X130661251Y-79683096D01*
X130618991Y-79717778D01*
X130618989Y-79717779D01*
X130462467Y-79801443D01*
X130421734Y-79813799D01*
X130292627Y-79852963D01*
X130116000Y-79870359D01*
X129939374Y-79852963D01*
X129810267Y-79813799D01*
X129769534Y-79801443D01*
X129613012Y-79717779D01*
X129613010Y-79717778D01*
X129475816Y-79605186D01*
X129475812Y-79605183D01*
X129363222Y-79467992D01*
X129279557Y-79311467D01*
X129242354Y-79188824D01*
X129228037Y-79141627D01*
X129215000Y-79009258D01*
X129215000Y-78670743D01*
X129228037Y-78538374D01*
X129279557Y-78368535D01*
X129279557Y-78368534D01*
X129363221Y-78212011D01*
X129475814Y-78074814D01*
X129577271Y-77991552D01*
X129613009Y-77962222D01*
X129630913Y-77952652D01*
X129769533Y-77878557D01*
X129830702Y-77860002D01*
X129939373Y-77827037D01*
X130116000Y-77809641D01*
X130292626Y-77827037D01*
X130292626Y-77827037D01*
G37*
G36*
X185656626Y-77827037D02*
X185765297Y-77860002D01*
X185826466Y-77878557D01*
X185982989Y-77962221D01*
X186120186Y-78074814D01*
X186198087Y-78169738D01*
X186232778Y-78212009D01*
X186232779Y-78212011D01*
X186316443Y-78368533D01*
X186333616Y-78425147D01*
X186367963Y-78538373D01*
X186367963Y-78538375D01*
X186381000Y-78670740D01*
X186381000Y-79009259D01*
X186378011Y-79039607D01*
X186367963Y-79141626D01*
X186316443Y-79311466D01*
X186232778Y-79467991D01*
X186232777Y-79467992D01*
X186120186Y-79605186D01*
X186025251Y-79683096D01*
X185982991Y-79717778D01*
X185982989Y-79717779D01*
X185826467Y-79801443D01*
X185785734Y-79813799D01*
X185656627Y-79852963D01*
X185480000Y-79870359D01*
X185303374Y-79852963D01*
X185174267Y-79813799D01*
X185133534Y-79801443D01*
X184977012Y-79717779D01*
X184977010Y-79717778D01*
X184839816Y-79605186D01*
X184839812Y-79605183D01*
X184727222Y-79467992D01*
X184643557Y-79311467D01*
X184606354Y-79188824D01*
X184592037Y-79141627D01*
X184579000Y-79009258D01*
X184579000Y-78670743D01*
X184592037Y-78538374D01*
X184643557Y-78368535D01*
X184643557Y-78368534D01*
X184727221Y-78212011D01*
X184839814Y-78074814D01*
X184941271Y-77991552D01*
X184977009Y-77962222D01*
X184994913Y-77952652D01*
X185133533Y-77878557D01*
X185194702Y-77860002D01*
X185303373Y-77827037D01*
X185480000Y-77809641D01*
X185656626Y-77827037D01*
X185656626Y-77827037D01*
G37*
G36*
X183156626Y-77827037D02*
X183265297Y-77860002D01*
X183326466Y-77878557D01*
X183482989Y-77962221D01*
X183620186Y-78074814D01*
X183698087Y-78169738D01*
X183732778Y-78212009D01*
X183732779Y-78212011D01*
X183816443Y-78368533D01*
X183833616Y-78425147D01*
X183867963Y-78538373D01*
X183867963Y-78538375D01*
X183881000Y-78670740D01*
X183881000Y-79009259D01*
X183878011Y-79039607D01*
X183867963Y-79141626D01*
X183816443Y-79311466D01*
X183732778Y-79467991D01*
X183732777Y-79467992D01*
X183620186Y-79605186D01*
X183525251Y-79683096D01*
X183482991Y-79717778D01*
X183482989Y-79717779D01*
X183326467Y-79801443D01*
X183285734Y-79813799D01*
X183156627Y-79852963D01*
X182980000Y-79870359D01*
X182803374Y-79852963D01*
X182674267Y-79813799D01*
X182633534Y-79801443D01*
X182477012Y-79717779D01*
X182477010Y-79717778D01*
X182339816Y-79605186D01*
X182339812Y-79605183D01*
X182227222Y-79467992D01*
X182143557Y-79311467D01*
X182106354Y-79188824D01*
X182092037Y-79141627D01*
X182079000Y-79009258D01*
X182079000Y-78670743D01*
X182092037Y-78538374D01*
X182143557Y-78368535D01*
X182143557Y-78368534D01*
X182227221Y-78212011D01*
X182339814Y-78074814D01*
X182441271Y-77991552D01*
X182477009Y-77962222D01*
X182494913Y-77952652D01*
X182633533Y-77878557D01*
X182694702Y-77860002D01*
X182803373Y-77827037D01*
X182980000Y-77809641D01*
X183156626Y-77827037D01*
X183156626Y-77827037D01*
G37*
G36*
X173690626Y-77827037D02*
X173799297Y-77860002D01*
X173860466Y-77878557D01*
X174016989Y-77962221D01*
X174154186Y-78074814D01*
X174232087Y-78169738D01*
X174266778Y-78212009D01*
X174266779Y-78212011D01*
X174350443Y-78368533D01*
X174367616Y-78425147D01*
X174401963Y-78538373D01*
X174401963Y-78538375D01*
X174415000Y-78670740D01*
X174415000Y-79009259D01*
X174412011Y-79039607D01*
X174401963Y-79141626D01*
X174350443Y-79311466D01*
X174266778Y-79467991D01*
X174266777Y-79467992D01*
X174154186Y-79605186D01*
X174059251Y-79683096D01*
X174016991Y-79717778D01*
X174016989Y-79717779D01*
X173860467Y-79801443D01*
X173819734Y-79813799D01*
X173690627Y-79852963D01*
X173514000Y-79870359D01*
X173337374Y-79852963D01*
X173208267Y-79813799D01*
X173167534Y-79801443D01*
X173011012Y-79717779D01*
X173011010Y-79717778D01*
X172873816Y-79605186D01*
X172873812Y-79605183D01*
X172761222Y-79467992D01*
X172677557Y-79311467D01*
X172640354Y-79188824D01*
X172626037Y-79141627D01*
X172613000Y-79009258D01*
X172613000Y-78670743D01*
X172626037Y-78538374D01*
X172677557Y-78368535D01*
X172677557Y-78368534D01*
X172761221Y-78212011D01*
X172873814Y-78074814D01*
X172975271Y-77991552D01*
X173011009Y-77962222D01*
X173028913Y-77952652D01*
X173167533Y-77878557D01*
X173228702Y-77860002D01*
X173337373Y-77827037D01*
X173514000Y-77809641D01*
X173690626Y-77827037D01*
X173690626Y-77827037D01*
G37*
G36*
X171190626Y-77827037D02*
X171299297Y-77860002D01*
X171360466Y-77878557D01*
X171516989Y-77962221D01*
X171654186Y-78074814D01*
X171732087Y-78169738D01*
X171766778Y-78212009D01*
X171766779Y-78212011D01*
X171850443Y-78368533D01*
X171867616Y-78425147D01*
X171901963Y-78538373D01*
X171901963Y-78538375D01*
X171915000Y-78670740D01*
X171915000Y-79009259D01*
X171912011Y-79039607D01*
X171901963Y-79141626D01*
X171850443Y-79311466D01*
X171766778Y-79467991D01*
X171766777Y-79467992D01*
X171654186Y-79605186D01*
X171559251Y-79683096D01*
X171516991Y-79717778D01*
X171516989Y-79717779D01*
X171360467Y-79801443D01*
X171319734Y-79813799D01*
X171190627Y-79852963D01*
X171014000Y-79870359D01*
X170837374Y-79852963D01*
X170708267Y-79813799D01*
X170667534Y-79801443D01*
X170511012Y-79717779D01*
X170511010Y-79717778D01*
X170373816Y-79605186D01*
X170373812Y-79605183D01*
X170261222Y-79467992D01*
X170177557Y-79311467D01*
X170140354Y-79188824D01*
X170126037Y-79141627D01*
X170113000Y-79009258D01*
X170113000Y-78670743D01*
X170126037Y-78538374D01*
X170177557Y-78368535D01*
X170177557Y-78368534D01*
X170261221Y-78212011D01*
X170373814Y-78074814D01*
X170475271Y-77991552D01*
X170511009Y-77962222D01*
X170528913Y-77952652D01*
X170667533Y-77878557D01*
X170728702Y-77860002D01*
X170837373Y-77827037D01*
X171014000Y-77809641D01*
X171190626Y-77827037D01*
X171190626Y-77827037D01*
G37*
G36*
X168690626Y-77827037D02*
X168799297Y-77860002D01*
X168860466Y-77878557D01*
X169016989Y-77962221D01*
X169154186Y-78074814D01*
X169232087Y-78169738D01*
X169266778Y-78212009D01*
X169266779Y-78212011D01*
X169350443Y-78368533D01*
X169367616Y-78425147D01*
X169401963Y-78538373D01*
X169401963Y-78538375D01*
X169415000Y-78670740D01*
X169415000Y-79009259D01*
X169412011Y-79039607D01*
X169401963Y-79141626D01*
X169350443Y-79311466D01*
X169266778Y-79467991D01*
X169266777Y-79467992D01*
X169154186Y-79605186D01*
X169059251Y-79683096D01*
X169016991Y-79717778D01*
X169016989Y-79717779D01*
X168860467Y-79801443D01*
X168819734Y-79813799D01*
X168690627Y-79852963D01*
X168514000Y-79870359D01*
X168337374Y-79852963D01*
X168208267Y-79813799D01*
X168167534Y-79801443D01*
X168011012Y-79717779D01*
X168011010Y-79717778D01*
X167873816Y-79605186D01*
X167873812Y-79605183D01*
X167761222Y-79467992D01*
X167677557Y-79311467D01*
X167640354Y-79188824D01*
X167626037Y-79141627D01*
X167613000Y-79009258D01*
X167613000Y-78670743D01*
X167626037Y-78538374D01*
X167677557Y-78368535D01*
X167677557Y-78368534D01*
X167761221Y-78212011D01*
X167873814Y-78074814D01*
X167975271Y-77991552D01*
X168011009Y-77962222D01*
X168028913Y-77952652D01*
X168167533Y-77878557D01*
X168228702Y-77860002D01*
X168337373Y-77827037D01*
X168514000Y-77809641D01*
X168690626Y-77827037D01*
X168690626Y-77827037D01*
G37*
G36*
X159224626Y-77827037D02*
X159333297Y-77860002D01*
X159394466Y-77878557D01*
X159550989Y-77962221D01*
X159688186Y-78074814D01*
X159766087Y-78169738D01*
X159800778Y-78212009D01*
X159800779Y-78212011D01*
X159884443Y-78368533D01*
X159901616Y-78425147D01*
X159935963Y-78538373D01*
X159935963Y-78538375D01*
X159949000Y-78670740D01*
X159949000Y-79009259D01*
X159946011Y-79039607D01*
X159935963Y-79141626D01*
X159884443Y-79311466D01*
X159800778Y-79467991D01*
X159800777Y-79467992D01*
X159688186Y-79605186D01*
X159593251Y-79683096D01*
X159550991Y-79717778D01*
X159550989Y-79717779D01*
X159394467Y-79801443D01*
X159353734Y-79813799D01*
X159224627Y-79852963D01*
X159048000Y-79870359D01*
X158871374Y-79852963D01*
X158742267Y-79813799D01*
X158701534Y-79801443D01*
X158545012Y-79717779D01*
X158545010Y-79717778D01*
X158407816Y-79605186D01*
X158407812Y-79605183D01*
X158295222Y-79467992D01*
X158211557Y-79311467D01*
X158174354Y-79188824D01*
X158160037Y-79141627D01*
X158147000Y-79009258D01*
X158147000Y-78670743D01*
X158160037Y-78538374D01*
X158211557Y-78368535D01*
X158211557Y-78368534D01*
X158295221Y-78212011D01*
X158407814Y-78074814D01*
X158509271Y-77991552D01*
X158545009Y-77962222D01*
X158562913Y-77952652D01*
X158701533Y-77878557D01*
X158762702Y-77860002D01*
X158871373Y-77827037D01*
X159048000Y-77809641D01*
X159224626Y-77827037D01*
X159224626Y-77827037D01*
G37*
G36*
X154224626Y-77827037D02*
X154333297Y-77860002D01*
X154394466Y-77878557D01*
X154550989Y-77962221D01*
X154688186Y-78074814D01*
X154766087Y-78169738D01*
X154800778Y-78212009D01*
X154800779Y-78212011D01*
X154884443Y-78368533D01*
X154901616Y-78425147D01*
X154935963Y-78538373D01*
X154935963Y-78538375D01*
X154949000Y-78670740D01*
X154949000Y-79009259D01*
X154946011Y-79039607D01*
X154935963Y-79141626D01*
X154884443Y-79311466D01*
X154800778Y-79467991D01*
X154800777Y-79467992D01*
X154688186Y-79605186D01*
X154593251Y-79683096D01*
X154550991Y-79717778D01*
X154550989Y-79717779D01*
X154394467Y-79801443D01*
X154353734Y-79813799D01*
X154224627Y-79852963D01*
X154048000Y-79870359D01*
X153871374Y-79852963D01*
X153742267Y-79813799D01*
X153701534Y-79801443D01*
X153545012Y-79717779D01*
X153545010Y-79717778D01*
X153407816Y-79605186D01*
X153407812Y-79605183D01*
X153295222Y-79467992D01*
X153211557Y-79311467D01*
X153174354Y-79188824D01*
X153160037Y-79141627D01*
X153147000Y-79009258D01*
X153147000Y-78670743D01*
X153160037Y-78538374D01*
X153211557Y-78368535D01*
X153211557Y-78368534D01*
X153295221Y-78212011D01*
X153407814Y-78074814D01*
X153509271Y-77991552D01*
X153545009Y-77962222D01*
X153562913Y-77952652D01*
X153701533Y-77878557D01*
X153762702Y-77860002D01*
X153871373Y-77827037D01*
X154048000Y-77809641D01*
X154224626Y-77827037D01*
X154224626Y-77827037D01*
G37*
G36*
X110826626Y-77827037D02*
X110935297Y-77860002D01*
X110996466Y-77878557D01*
X111152989Y-77962221D01*
X111290186Y-78074814D01*
X111368087Y-78169738D01*
X111402778Y-78212009D01*
X111402779Y-78212011D01*
X111486443Y-78368533D01*
X111503616Y-78425147D01*
X111537963Y-78538373D01*
X111537963Y-78538375D01*
X111551000Y-78670740D01*
X111551000Y-79009259D01*
X111548011Y-79039607D01*
X111537963Y-79141626D01*
X111486443Y-79311466D01*
X111402778Y-79467991D01*
X111402777Y-79467992D01*
X111290186Y-79605186D01*
X111195251Y-79683096D01*
X111152991Y-79717778D01*
X111152989Y-79717779D01*
X110996467Y-79801443D01*
X110955734Y-79813799D01*
X110826627Y-79852963D01*
X110650000Y-79870359D01*
X110473374Y-79852963D01*
X110344267Y-79813799D01*
X110303534Y-79801443D01*
X110147012Y-79717779D01*
X110147010Y-79717778D01*
X110009816Y-79605186D01*
X110009812Y-79605183D01*
X109897222Y-79467992D01*
X109813557Y-79311467D01*
X109776354Y-79188824D01*
X109762037Y-79141627D01*
X109749000Y-79009258D01*
X109749000Y-78670743D01*
X109762037Y-78538374D01*
X109813557Y-78368535D01*
X109813557Y-78368534D01*
X109897221Y-78212011D01*
X110009814Y-78074814D01*
X110111271Y-77991552D01*
X110147009Y-77962222D01*
X110164913Y-77952652D01*
X110303533Y-77878557D01*
X110364702Y-77860002D01*
X110473373Y-77827037D01*
X110650000Y-77809641D01*
X110826626Y-77827037D01*
X110826626Y-77827037D01*
G37*
G36*
X142258626Y-77827037D02*
X142367297Y-77860002D01*
X142428466Y-77878557D01*
X142584989Y-77962221D01*
X142722186Y-78074814D01*
X142800087Y-78169738D01*
X142834778Y-78212009D01*
X142834779Y-78212011D01*
X142918443Y-78368533D01*
X142935616Y-78425147D01*
X142969963Y-78538373D01*
X142969963Y-78538375D01*
X142983000Y-78670740D01*
X142983000Y-79009259D01*
X142980011Y-79039607D01*
X142969963Y-79141626D01*
X142918443Y-79311466D01*
X142834778Y-79467991D01*
X142834777Y-79467992D01*
X142722186Y-79605186D01*
X142627251Y-79683096D01*
X142584991Y-79717778D01*
X142584989Y-79717779D01*
X142428467Y-79801443D01*
X142387734Y-79813799D01*
X142258627Y-79852963D01*
X142082000Y-79870359D01*
X141905374Y-79852963D01*
X141776267Y-79813799D01*
X141735534Y-79801443D01*
X141579012Y-79717779D01*
X141579010Y-79717778D01*
X141441816Y-79605186D01*
X141441812Y-79605183D01*
X141329222Y-79467992D01*
X141245557Y-79311467D01*
X141208354Y-79188824D01*
X141194037Y-79141627D01*
X141181000Y-79009258D01*
X141181000Y-78670743D01*
X141194037Y-78538374D01*
X141245557Y-78368535D01*
X141245557Y-78368534D01*
X141329221Y-78212011D01*
X141441814Y-78074814D01*
X141543271Y-77991552D01*
X141579009Y-77962222D01*
X141596913Y-77952652D01*
X141735533Y-77878557D01*
X141796702Y-77860002D01*
X141905373Y-77827037D01*
X142082000Y-77809641D01*
X142258626Y-77827037D01*
X142258626Y-77827037D01*
G37*
G36*
X139758626Y-77827037D02*
X139867297Y-77860002D01*
X139928466Y-77878557D01*
X140084989Y-77962221D01*
X140222186Y-78074814D01*
X140300087Y-78169738D01*
X140334778Y-78212009D01*
X140334779Y-78212011D01*
X140418443Y-78368533D01*
X140435616Y-78425147D01*
X140469963Y-78538373D01*
X140469963Y-78538375D01*
X140483000Y-78670740D01*
X140483000Y-79009259D01*
X140480011Y-79039607D01*
X140469963Y-79141626D01*
X140418443Y-79311466D01*
X140334778Y-79467991D01*
X140334777Y-79467992D01*
X140222186Y-79605186D01*
X140127251Y-79683096D01*
X140084991Y-79717778D01*
X140084989Y-79717779D01*
X139928467Y-79801443D01*
X139887734Y-79813799D01*
X139758627Y-79852963D01*
X139582000Y-79870359D01*
X139405374Y-79852963D01*
X139276267Y-79813799D01*
X139235534Y-79801443D01*
X139079012Y-79717779D01*
X139079010Y-79717778D01*
X138941816Y-79605186D01*
X138941812Y-79605183D01*
X138829222Y-79467992D01*
X138745557Y-79311467D01*
X138708354Y-79188824D01*
X138694037Y-79141627D01*
X138681000Y-79009258D01*
X138681000Y-78670743D01*
X138694037Y-78538374D01*
X138745557Y-78368535D01*
X138745557Y-78368534D01*
X138829221Y-78212011D01*
X138941814Y-78074814D01*
X139043271Y-77991552D01*
X139079009Y-77962222D01*
X139096913Y-77952652D01*
X139235533Y-77878557D01*
X139296702Y-77860002D01*
X139405373Y-77827037D01*
X139582000Y-77809641D01*
X139758626Y-77827037D01*
X139758626Y-77827037D01*
G37*
G36*
X123374600Y-77817989D02*
X123407649Y-77828014D01*
X123438106Y-77844294D01*
X123464799Y-77866201D01*
X123486706Y-77892894D01*
X123502986Y-77923351D01*
X123513011Y-77956400D01*
X123517000Y-77996904D01*
X123517000Y-79683096D01*
X123513011Y-79723600D01*
X123502986Y-79756649D01*
X123486706Y-79787106D01*
X123464799Y-79813799D01*
X123438106Y-79835706D01*
X123407649Y-79851986D01*
X123374600Y-79862011D01*
X123334096Y-79866000D01*
X121897904Y-79866000D01*
X121857400Y-79862011D01*
X121824351Y-79851986D01*
X121793894Y-79835706D01*
X121767201Y-79813799D01*
X121745294Y-79787106D01*
X121729014Y-79756649D01*
X121718989Y-79723600D01*
X121715000Y-79683096D01*
X121715000Y-77996904D01*
X121718989Y-77956400D01*
X121729014Y-77923351D01*
X121745294Y-77892894D01*
X121767201Y-77866201D01*
X121793894Y-77844294D01*
X121824351Y-77828014D01*
X121857400Y-77817989D01*
X121897904Y-77814000D01*
X123334096Y-77814000D01*
X123374600Y-77817989D01*
X123374600Y-77817989D01*
G37*
G36*
X137840600Y-77817989D02*
X137873649Y-77828014D01*
X137904106Y-77844294D01*
X137930799Y-77866201D01*
X137952706Y-77892894D01*
X137968986Y-77923351D01*
X137979011Y-77956400D01*
X137983000Y-77996904D01*
X137983000Y-79683096D01*
X137979011Y-79723600D01*
X137968986Y-79756649D01*
X137952706Y-79787106D01*
X137930799Y-79813799D01*
X137904106Y-79835706D01*
X137873649Y-79851986D01*
X137840600Y-79862011D01*
X137800096Y-79866000D01*
X136363904Y-79866000D01*
X136323400Y-79862011D01*
X136290351Y-79851986D01*
X136259894Y-79835706D01*
X136233201Y-79813799D01*
X136211294Y-79787106D01*
X136195014Y-79756649D01*
X136184989Y-79723600D01*
X136181000Y-79683096D01*
X136181000Y-77996904D01*
X136184989Y-77956400D01*
X136195014Y-77923351D01*
X136211294Y-77892894D01*
X136233201Y-77866201D01*
X136259894Y-77844294D01*
X136290351Y-77828014D01*
X136323400Y-77817989D01*
X136363904Y-77814000D01*
X137800096Y-77814000D01*
X137840600Y-77817989D01*
X137840600Y-77817989D01*
G37*
G36*
X181238600Y-77817989D02*
X181271649Y-77828014D01*
X181302106Y-77844294D01*
X181328799Y-77866201D01*
X181350706Y-77892894D01*
X181366986Y-77923351D01*
X181377011Y-77956400D01*
X181381000Y-77996904D01*
X181381000Y-79683096D01*
X181377011Y-79723600D01*
X181366986Y-79756649D01*
X181350706Y-79787106D01*
X181328799Y-79813799D01*
X181302106Y-79835706D01*
X181271649Y-79851986D01*
X181238600Y-79862011D01*
X181198096Y-79866000D01*
X179761904Y-79866000D01*
X179721400Y-79862011D01*
X179688351Y-79851986D01*
X179657894Y-79835706D01*
X179631201Y-79813799D01*
X179609294Y-79787106D01*
X179593014Y-79756649D01*
X179582989Y-79723600D01*
X179579000Y-79683096D01*
X179579000Y-77996904D01*
X179582989Y-77956400D01*
X179593014Y-77923351D01*
X179609294Y-77892894D01*
X179631201Y-77866201D01*
X179657894Y-77844294D01*
X179688351Y-77828014D01*
X179721400Y-77817989D01*
X179761904Y-77814000D01*
X181198096Y-77814000D01*
X181238600Y-77817989D01*
X181238600Y-77817989D01*
G37*
G36*
X108908600Y-77817989D02*
X108941649Y-77828014D01*
X108972106Y-77844294D01*
X108998799Y-77866201D01*
X109020706Y-77892894D01*
X109036986Y-77923351D01*
X109047011Y-77956400D01*
X109051000Y-77996904D01*
X109051000Y-79683096D01*
X109047011Y-79723600D01*
X109036986Y-79756649D01*
X109020706Y-79787106D01*
X108998799Y-79813799D01*
X108972106Y-79835706D01*
X108941649Y-79851986D01*
X108908600Y-79862011D01*
X108868096Y-79866000D01*
X107431904Y-79866000D01*
X107391400Y-79862011D01*
X107358351Y-79851986D01*
X107327894Y-79835706D01*
X107301201Y-79813799D01*
X107279294Y-79787106D01*
X107263014Y-79756649D01*
X107252989Y-79723600D01*
X107249000Y-79683096D01*
X107249000Y-77996904D01*
X107252989Y-77956400D01*
X107263014Y-77923351D01*
X107279294Y-77892894D01*
X107301201Y-77866201D01*
X107327894Y-77844294D01*
X107358351Y-77828014D01*
X107391400Y-77817989D01*
X107431904Y-77814000D01*
X108868096Y-77814000D01*
X108908600Y-77817989D01*
X108908600Y-77817989D01*
G37*
G36*
X152306600Y-77817989D02*
X152339649Y-77828014D01*
X152370106Y-77844294D01*
X152396799Y-77866201D01*
X152418706Y-77892894D01*
X152434986Y-77923351D01*
X152445011Y-77956400D01*
X152449000Y-77996904D01*
X152449000Y-79683096D01*
X152445011Y-79723600D01*
X152434986Y-79756649D01*
X152418706Y-79787106D01*
X152396799Y-79813799D01*
X152370106Y-79835706D01*
X152339649Y-79851986D01*
X152306600Y-79862011D01*
X152266096Y-79866000D01*
X150829904Y-79866000D01*
X150789400Y-79862011D01*
X150756351Y-79851986D01*
X150725894Y-79835706D01*
X150699201Y-79813799D01*
X150677294Y-79787106D01*
X150661014Y-79756649D01*
X150650989Y-79723600D01*
X150647000Y-79683096D01*
X150647000Y-77996904D01*
X150650989Y-77956400D01*
X150661014Y-77923351D01*
X150677294Y-77892894D01*
X150699201Y-77866201D01*
X150725894Y-77844294D01*
X150756351Y-77828014D01*
X150789400Y-77817989D01*
X150829904Y-77814000D01*
X152266096Y-77814000D01*
X152306600Y-77817989D01*
X152306600Y-77817989D01*
G37*
G36*
X166772600Y-77817989D02*
X166805649Y-77828014D01*
X166836106Y-77844294D01*
X166862799Y-77866201D01*
X166884706Y-77892894D01*
X166900986Y-77923351D01*
X166911011Y-77956400D01*
X166915000Y-77996904D01*
X166915000Y-79683096D01*
X166911011Y-79723600D01*
X166900986Y-79756649D01*
X166884706Y-79787106D01*
X166862799Y-79813799D01*
X166836106Y-79835706D01*
X166805649Y-79851986D01*
X166772600Y-79862011D01*
X166732096Y-79866000D01*
X165295904Y-79866000D01*
X165255400Y-79862011D01*
X165222351Y-79851986D01*
X165191894Y-79835706D01*
X165165201Y-79813799D01*
X165143294Y-79787106D01*
X165127014Y-79756649D01*
X165116989Y-79723600D01*
X165113000Y-79683096D01*
X165113000Y-77996904D01*
X165116989Y-77956400D01*
X165127014Y-77923351D01*
X165143294Y-77892894D01*
X165165201Y-77866201D01*
X165191894Y-77844294D01*
X165222351Y-77828014D01*
X165255400Y-77817989D01*
X165295904Y-77814000D01*
X166732096Y-77814000D01*
X166772600Y-77817989D01*
X166772600Y-77817989D01*
G37*
G36*
X188476198Y-75619954D02*
X188488450Y-75620556D01*
X188506869Y-75620556D01*
X188529149Y-75622750D01*
X188613236Y-75639476D01*
X188634655Y-75645974D01*
X188713871Y-75678785D01*
X188733607Y-75689335D01*
X188804897Y-75736969D01*
X188822208Y-75751176D01*
X188882824Y-75811792D01*
X188897031Y-75829103D01*
X188944665Y-75900393D01*
X188955215Y-75920129D01*
X188988026Y-75999345D01*
X188994524Y-76020764D01*
X189011250Y-76104851D01*
X189013444Y-76127131D01*
X189013444Y-76145550D01*
X189014046Y-76157802D01*
X189015852Y-76176140D01*
X189015852Y-76713860D01*
X189014263Y-76729999D01*
X189009853Y-76744534D01*
X189004393Y-76757717D01*
X188999613Y-76781751D01*
X188999613Y-76806255D01*
X189004394Y-76830288D01*
X189013772Y-76852927D01*
X189015000Y-76854765D01*
X189015000Y-78086053D01*
X189008526Y-78098165D01*
X189001413Y-78121614D01*
X188999011Y-78146000D01*
X189001413Y-78170386D01*
X189007917Y-78188564D01*
X189007773Y-78188608D01*
X189014263Y-78210001D01*
X189015852Y-78226140D01*
X189015852Y-78763861D01*
X189014046Y-78782198D01*
X189013444Y-78794450D01*
X189013444Y-78812869D01*
X189011250Y-78835149D01*
X188994524Y-78919236D01*
X188988026Y-78940655D01*
X188955215Y-79019871D01*
X188944665Y-79039607D01*
X188897031Y-79110897D01*
X188882824Y-79128208D01*
X188822208Y-79188824D01*
X188804897Y-79203031D01*
X188733607Y-79250665D01*
X188713871Y-79261215D01*
X188634655Y-79294026D01*
X188613236Y-79300524D01*
X188529149Y-79317250D01*
X188506869Y-79319444D01*
X188488450Y-79319444D01*
X188476198Y-79320046D01*
X188457861Y-79321852D01*
X187970139Y-79321852D01*
X187951802Y-79320046D01*
X187939550Y-79319444D01*
X187921131Y-79319444D01*
X187898851Y-79317250D01*
X187814764Y-79300524D01*
X187793345Y-79294026D01*
X187714129Y-79261215D01*
X187694393Y-79250665D01*
X187623103Y-79203031D01*
X187605792Y-79188824D01*
X187545176Y-79128208D01*
X187530969Y-79110897D01*
X187483335Y-79039607D01*
X187472785Y-79019871D01*
X187439974Y-78940655D01*
X187433476Y-78919236D01*
X187416750Y-78835149D01*
X187414556Y-78812869D01*
X187414556Y-78794450D01*
X187413954Y-78782198D01*
X187412148Y-78763861D01*
X187412148Y-78226140D01*
X187413737Y-78210001D01*
X187418147Y-78195466D01*
X187423607Y-78182283D01*
X187428387Y-78158249D01*
X187428387Y-78133745D01*
X187423606Y-78109712D01*
X187414228Y-78087073D01*
X187413000Y-78085235D01*
X187413000Y-76853947D01*
X187419474Y-76841835D01*
X187426587Y-76818386D01*
X187428989Y-76794000D01*
X187426587Y-76769614D01*
X187420083Y-76751436D01*
X187420227Y-76751392D01*
X187413737Y-76729999D01*
X187412148Y-76713860D01*
X187412148Y-76176140D01*
X187413954Y-76157802D01*
X187414556Y-76145550D01*
X187414556Y-76127131D01*
X187416750Y-76104851D01*
X187433476Y-76020764D01*
X187439974Y-75999345D01*
X187472785Y-75920129D01*
X187483335Y-75900393D01*
X187530969Y-75829103D01*
X187545176Y-75811792D01*
X187605792Y-75751176D01*
X187623103Y-75736969D01*
X187694393Y-75689335D01*
X187714129Y-75678785D01*
X187793345Y-75645974D01*
X187814764Y-75639476D01*
X187898851Y-75622750D01*
X187921131Y-75620556D01*
X187939550Y-75620556D01*
X187951802Y-75619954D01*
X187970140Y-75618148D01*
X188457860Y-75618148D01*
X188476198Y-75619954D01*
X188476198Y-75619954D01*
G37*
G36*
X189339591Y-73878085D02*
X189373569Y-73888393D01*
X189404887Y-73905133D01*
X189432339Y-73927661D01*
X189454867Y-73955113D01*
X189471607Y-73986431D01*
X189481915Y-74020409D01*
X189486000Y-74061890D01*
X189486000Y-74738110D01*
X189481915Y-74779591D01*
X189471607Y-74813569D01*
X189454867Y-74844887D01*
X189432339Y-74872339D01*
X189404887Y-74894867D01*
X189373569Y-74911607D01*
X189339591Y-74921915D01*
X189298110Y-74926000D01*
X188696890Y-74926000D01*
X188655409Y-74921915D01*
X188621431Y-74911607D01*
X188590113Y-74894867D01*
X188562661Y-74872339D01*
X188540133Y-74844887D01*
X188523393Y-74813569D01*
X188513085Y-74779591D01*
X188509000Y-74738110D01*
X188509000Y-74061890D01*
X188513085Y-74020409D01*
X188523393Y-73986431D01*
X188540133Y-73955113D01*
X188562661Y-73927661D01*
X188590113Y-73905133D01*
X188621431Y-73888393D01*
X188655409Y-73878085D01*
X188696890Y-73874000D01*
X189298110Y-73874000D01*
X189339591Y-73878085D01*
X189339591Y-73878085D01*
G37*
G36*
X187764591Y-73878085D02*
X187798569Y-73888393D01*
X187829887Y-73905133D01*
X187857339Y-73927661D01*
X187879867Y-73955113D01*
X187896607Y-73986431D01*
X187906915Y-74020409D01*
X187911000Y-74061890D01*
X187911000Y-74738110D01*
X187906915Y-74779591D01*
X187896607Y-74813569D01*
X187879867Y-74844887D01*
X187857339Y-74872339D01*
X187829887Y-74894867D01*
X187798569Y-74911607D01*
X187764591Y-74921915D01*
X187723110Y-74926000D01*
X187121890Y-74926000D01*
X187080409Y-74921915D01*
X187046431Y-74911607D01*
X187015113Y-74894867D01*
X186987661Y-74872339D01*
X186965133Y-74844887D01*
X186948393Y-74813569D01*
X186938085Y-74779591D01*
X186934000Y-74738110D01*
X186934000Y-74061890D01*
X186938085Y-74020409D01*
X186948393Y-73986431D01*
X186965133Y-73955113D01*
X186987661Y-73927661D01*
X187015113Y-73905133D01*
X187046431Y-73888393D01*
X187080409Y-73878085D01*
X187121890Y-73874000D01*
X187723110Y-73874000D01*
X187764591Y-73878085D01*
X187764591Y-73878085D01*
G37*
G36*
X188476198Y-66459954D02*
X188488450Y-66460556D01*
X188506869Y-66460556D01*
X188529149Y-66462750D01*
X188613236Y-66479476D01*
X188634655Y-66485974D01*
X188713871Y-66518785D01*
X188733607Y-66529335D01*
X188804897Y-66576969D01*
X188822208Y-66591176D01*
X188882824Y-66651792D01*
X188897031Y-66669103D01*
X188944665Y-66740393D01*
X188955215Y-66760129D01*
X188988026Y-66839345D01*
X188994524Y-66860764D01*
X189011250Y-66944851D01*
X189013444Y-66967131D01*
X189013444Y-66985550D01*
X189014046Y-66997802D01*
X189015852Y-67016140D01*
X189015852Y-67553860D01*
X189014263Y-67569999D01*
X189009853Y-67584534D01*
X189004393Y-67597717D01*
X188999613Y-67621751D01*
X188999613Y-67646255D01*
X189004394Y-67670288D01*
X189013772Y-67692927D01*
X189015000Y-67694765D01*
X189015000Y-68926053D01*
X189008526Y-68938165D01*
X189001413Y-68961614D01*
X188999011Y-68986000D01*
X189001413Y-69010386D01*
X189007917Y-69028564D01*
X189007773Y-69028608D01*
X189014263Y-69050001D01*
X189015852Y-69066140D01*
X189015852Y-69603861D01*
X189014046Y-69622198D01*
X189013444Y-69634450D01*
X189013444Y-69652869D01*
X189011250Y-69675149D01*
X188994524Y-69759236D01*
X188988026Y-69780655D01*
X188955215Y-69859871D01*
X188944665Y-69879607D01*
X188897031Y-69950897D01*
X188882824Y-69968208D01*
X188822208Y-70028824D01*
X188804897Y-70043031D01*
X188733607Y-70090665D01*
X188713871Y-70101215D01*
X188634655Y-70134026D01*
X188613236Y-70140524D01*
X188529149Y-70157250D01*
X188506869Y-70159444D01*
X188488450Y-70159444D01*
X188476198Y-70160046D01*
X188457861Y-70161852D01*
X187970139Y-70161852D01*
X187951802Y-70160046D01*
X187939550Y-70159444D01*
X187921131Y-70159444D01*
X187898851Y-70157250D01*
X187814764Y-70140524D01*
X187793345Y-70134026D01*
X187714129Y-70101215D01*
X187694393Y-70090665D01*
X187623103Y-70043031D01*
X187605792Y-70028824D01*
X187545176Y-69968208D01*
X187530969Y-69950897D01*
X187483335Y-69879607D01*
X187472785Y-69859871D01*
X187439974Y-69780655D01*
X187433476Y-69759236D01*
X187416750Y-69675149D01*
X187414556Y-69652869D01*
X187414556Y-69634450D01*
X187413954Y-69622198D01*
X187412148Y-69603861D01*
X187412148Y-69066140D01*
X187413737Y-69050001D01*
X187418147Y-69035466D01*
X187423607Y-69022283D01*
X187428387Y-68998249D01*
X187428387Y-68973745D01*
X187423606Y-68949712D01*
X187414228Y-68927073D01*
X187413000Y-68925235D01*
X187413000Y-67693947D01*
X187419474Y-67681835D01*
X187426587Y-67658386D01*
X187428989Y-67634000D01*
X187426587Y-67609614D01*
X187420083Y-67591436D01*
X187420227Y-67591392D01*
X187413737Y-67569999D01*
X187412148Y-67553860D01*
X187412148Y-67016140D01*
X187413954Y-66997802D01*
X187414556Y-66985550D01*
X187414556Y-66967131D01*
X187416750Y-66944851D01*
X187433476Y-66860764D01*
X187439974Y-66839345D01*
X187472785Y-66760129D01*
X187483335Y-66740393D01*
X187530969Y-66669103D01*
X187545176Y-66651792D01*
X187605792Y-66591176D01*
X187623103Y-66576969D01*
X187694393Y-66529335D01*
X187714129Y-66518785D01*
X187793345Y-66485974D01*
X187814764Y-66479476D01*
X187898851Y-66462750D01*
X187921131Y-66460556D01*
X187939550Y-66460556D01*
X187951802Y-66459954D01*
X187970140Y-66458148D01*
X188457860Y-66458148D01*
X188476198Y-66459954D01*
X188476198Y-66459954D01*
G37*
G36*
X185656626Y-66982037D02*
X185769049Y-67016140D01*
X185826466Y-67033557D01*
X185982989Y-67117221D01*
X186120186Y-67229814D01*
X186203448Y-67331271D01*
X186232778Y-67367009D01*
X186232779Y-67367011D01*
X186316443Y-67523533D01*
X186325642Y-67553860D01*
X186367963Y-67693373D01*
X186381000Y-67825742D01*
X186381000Y-68164257D01*
X186367963Y-68296626D01*
X186316443Y-68466466D01*
X186232778Y-68622991D01*
X186232777Y-68622992D01*
X186120186Y-68760186D01*
X186025251Y-68838096D01*
X185982991Y-68872778D01*
X185982989Y-68872779D01*
X185826467Y-68956443D01*
X185785734Y-68968799D01*
X185656627Y-69007963D01*
X185480000Y-69025359D01*
X185303374Y-69007963D01*
X185174267Y-68968799D01*
X185133534Y-68956443D01*
X184977012Y-68872779D01*
X184977010Y-68872778D01*
X184839816Y-68760186D01*
X184839812Y-68760183D01*
X184727222Y-68622992D01*
X184643557Y-68466467D01*
X184626384Y-68409853D01*
X184592037Y-68296627D01*
X184579000Y-68164258D01*
X184579000Y-67825743D01*
X184592037Y-67693374D01*
X184643557Y-67523535D01*
X184643557Y-67523534D01*
X184727221Y-67367011D01*
X184839814Y-67229814D01*
X184941271Y-67146552D01*
X184977009Y-67117222D01*
X184994913Y-67107652D01*
X185133533Y-67033557D01*
X185190950Y-67016140D01*
X185303373Y-66982037D01*
X185480000Y-66964641D01*
X185656626Y-66982037D01*
X185656626Y-66982037D01*
G37*
G36*
X110826626Y-66982037D02*
X110939049Y-67016140D01*
X110996466Y-67033557D01*
X111152989Y-67117221D01*
X111290186Y-67229814D01*
X111373448Y-67331271D01*
X111402778Y-67367009D01*
X111402779Y-67367011D01*
X111486443Y-67523533D01*
X111495642Y-67553860D01*
X111537963Y-67693373D01*
X111551000Y-67825742D01*
X111551000Y-68164257D01*
X111537963Y-68296626D01*
X111486443Y-68466466D01*
X111402778Y-68622991D01*
X111402777Y-68622992D01*
X111290186Y-68760186D01*
X111195251Y-68838096D01*
X111152991Y-68872778D01*
X111152989Y-68872779D01*
X110996467Y-68956443D01*
X110955734Y-68968799D01*
X110826627Y-69007963D01*
X110650000Y-69025359D01*
X110473374Y-69007963D01*
X110344267Y-68968799D01*
X110303534Y-68956443D01*
X110147012Y-68872779D01*
X110147010Y-68872778D01*
X110009816Y-68760186D01*
X110009812Y-68760183D01*
X109897222Y-68622992D01*
X109813557Y-68466467D01*
X109796384Y-68409853D01*
X109762037Y-68296627D01*
X109749000Y-68164258D01*
X109749000Y-67825743D01*
X109762037Y-67693374D01*
X109813557Y-67523535D01*
X109813557Y-67523534D01*
X109897221Y-67367011D01*
X110009814Y-67229814D01*
X110111271Y-67146552D01*
X110147009Y-67117222D01*
X110164913Y-67107652D01*
X110303533Y-67033557D01*
X110360950Y-67016140D01*
X110473373Y-66982037D01*
X110650000Y-66964641D01*
X110826626Y-66982037D01*
X110826626Y-66982037D01*
G37*
G36*
X183156626Y-66982037D02*
X183269049Y-67016140D01*
X183326466Y-67033557D01*
X183482989Y-67117221D01*
X183620186Y-67229814D01*
X183703448Y-67331271D01*
X183732778Y-67367009D01*
X183732779Y-67367011D01*
X183816443Y-67523533D01*
X183825642Y-67553860D01*
X183867963Y-67693373D01*
X183881000Y-67825742D01*
X183881000Y-68164257D01*
X183867963Y-68296626D01*
X183816443Y-68466466D01*
X183732778Y-68622991D01*
X183732777Y-68622992D01*
X183620186Y-68760186D01*
X183525251Y-68838096D01*
X183482991Y-68872778D01*
X183482989Y-68872779D01*
X183326467Y-68956443D01*
X183285734Y-68968799D01*
X183156627Y-69007963D01*
X182980000Y-69025359D01*
X182803374Y-69007963D01*
X182674267Y-68968799D01*
X182633534Y-68956443D01*
X182477012Y-68872779D01*
X182477010Y-68872778D01*
X182339816Y-68760186D01*
X182339812Y-68760183D01*
X182227222Y-68622992D01*
X182143557Y-68466467D01*
X182126384Y-68409853D01*
X182092037Y-68296627D01*
X182079000Y-68164258D01*
X182079000Y-67825743D01*
X182092037Y-67693374D01*
X182143557Y-67523535D01*
X182143557Y-67523534D01*
X182227221Y-67367011D01*
X182339814Y-67229814D01*
X182441271Y-67146552D01*
X182477009Y-67117222D01*
X182494913Y-67107652D01*
X182633533Y-67033557D01*
X182690950Y-67016140D01*
X182803373Y-66982037D01*
X182980000Y-66964641D01*
X183156626Y-66982037D01*
X183156626Y-66982037D01*
G37*
G36*
X113326626Y-66982037D02*
X113439049Y-67016140D01*
X113496466Y-67033557D01*
X113652989Y-67117221D01*
X113790186Y-67229814D01*
X113873448Y-67331271D01*
X113902778Y-67367009D01*
X113902779Y-67367011D01*
X113986443Y-67523533D01*
X113995642Y-67553860D01*
X114037963Y-67693373D01*
X114051000Y-67825742D01*
X114051000Y-68164257D01*
X114037963Y-68296626D01*
X113986443Y-68466466D01*
X113902778Y-68622991D01*
X113902777Y-68622992D01*
X113790186Y-68760186D01*
X113695251Y-68838096D01*
X113652991Y-68872778D01*
X113652989Y-68872779D01*
X113496467Y-68956443D01*
X113455734Y-68968799D01*
X113326627Y-69007963D01*
X113150000Y-69025359D01*
X112973374Y-69007963D01*
X112844267Y-68968799D01*
X112803534Y-68956443D01*
X112647012Y-68872779D01*
X112647010Y-68872778D01*
X112509816Y-68760186D01*
X112509812Y-68760183D01*
X112397222Y-68622992D01*
X112313557Y-68466467D01*
X112296384Y-68409853D01*
X112262037Y-68296627D01*
X112249000Y-68164258D01*
X112249000Y-67825743D01*
X112262037Y-67693374D01*
X112313557Y-67523535D01*
X112313557Y-67523534D01*
X112397221Y-67367011D01*
X112509814Y-67229814D01*
X112611271Y-67146552D01*
X112647009Y-67117222D01*
X112664913Y-67107652D01*
X112803533Y-67033557D01*
X112860950Y-67016140D01*
X112973373Y-66982037D01*
X113150000Y-66964641D01*
X113326626Y-66982037D01*
X113326626Y-66982037D01*
G37*
G36*
X115826626Y-66982037D02*
X115939049Y-67016140D01*
X115996466Y-67033557D01*
X116152989Y-67117221D01*
X116290186Y-67229814D01*
X116373448Y-67331271D01*
X116402778Y-67367009D01*
X116402779Y-67367011D01*
X116486443Y-67523533D01*
X116495642Y-67553860D01*
X116537963Y-67693373D01*
X116551000Y-67825742D01*
X116551000Y-68164257D01*
X116537963Y-68296626D01*
X116486443Y-68466466D01*
X116402778Y-68622991D01*
X116402777Y-68622992D01*
X116290186Y-68760186D01*
X116195251Y-68838096D01*
X116152991Y-68872778D01*
X116152989Y-68872779D01*
X115996467Y-68956443D01*
X115955734Y-68968799D01*
X115826627Y-69007963D01*
X115650000Y-69025359D01*
X115473374Y-69007963D01*
X115344267Y-68968799D01*
X115303534Y-68956443D01*
X115147012Y-68872779D01*
X115147010Y-68872778D01*
X115009816Y-68760186D01*
X115009812Y-68760183D01*
X114897222Y-68622992D01*
X114813557Y-68466467D01*
X114796384Y-68409853D01*
X114762037Y-68296627D01*
X114749000Y-68164258D01*
X114749000Y-67825743D01*
X114762037Y-67693374D01*
X114813557Y-67523535D01*
X114813557Y-67523534D01*
X114897221Y-67367011D01*
X115009814Y-67229814D01*
X115111271Y-67146552D01*
X115147009Y-67117222D01*
X115164913Y-67107652D01*
X115303533Y-67033557D01*
X115360950Y-67016140D01*
X115473373Y-66982037D01*
X115650000Y-66964641D01*
X115826626Y-66982037D01*
X115826626Y-66982037D01*
G37*
G36*
X130292626Y-66982037D02*
X130405049Y-67016140D01*
X130462466Y-67033557D01*
X130618989Y-67117221D01*
X130756186Y-67229814D01*
X130839448Y-67331271D01*
X130868778Y-67367009D01*
X130868779Y-67367011D01*
X130952443Y-67523533D01*
X130961642Y-67553860D01*
X131003963Y-67693373D01*
X131017000Y-67825742D01*
X131017000Y-68164257D01*
X131003963Y-68296626D01*
X130952443Y-68466466D01*
X130868778Y-68622991D01*
X130868777Y-68622992D01*
X130756186Y-68760186D01*
X130661251Y-68838096D01*
X130618991Y-68872778D01*
X130618989Y-68872779D01*
X130462467Y-68956443D01*
X130421734Y-68968799D01*
X130292627Y-69007963D01*
X130116000Y-69025359D01*
X129939374Y-69007963D01*
X129810267Y-68968799D01*
X129769534Y-68956443D01*
X129613012Y-68872779D01*
X129613010Y-68872778D01*
X129475816Y-68760186D01*
X129475812Y-68760183D01*
X129363222Y-68622992D01*
X129279557Y-68466467D01*
X129262384Y-68409853D01*
X129228037Y-68296627D01*
X129215000Y-68164258D01*
X129215000Y-67825743D01*
X129228037Y-67693374D01*
X129279557Y-67523535D01*
X129279557Y-67523534D01*
X129363221Y-67367011D01*
X129475814Y-67229814D01*
X129577271Y-67146552D01*
X129613009Y-67117222D01*
X129630913Y-67107652D01*
X129769533Y-67033557D01*
X129826950Y-67016140D01*
X129939373Y-66982037D01*
X130116000Y-66964641D01*
X130292626Y-66982037D01*
X130292626Y-66982037D01*
G37*
G36*
X127792626Y-66982037D02*
X127905049Y-67016140D01*
X127962466Y-67033557D01*
X128118989Y-67117221D01*
X128256186Y-67229814D01*
X128339448Y-67331271D01*
X128368778Y-67367009D01*
X128368779Y-67367011D01*
X128452443Y-67523533D01*
X128461642Y-67553860D01*
X128503963Y-67693373D01*
X128517000Y-67825742D01*
X128517000Y-68164257D01*
X128503963Y-68296626D01*
X128452443Y-68466466D01*
X128368778Y-68622991D01*
X128368777Y-68622992D01*
X128256186Y-68760186D01*
X128161251Y-68838096D01*
X128118991Y-68872778D01*
X128118989Y-68872779D01*
X127962467Y-68956443D01*
X127921734Y-68968799D01*
X127792627Y-69007963D01*
X127616000Y-69025359D01*
X127439374Y-69007963D01*
X127310267Y-68968799D01*
X127269534Y-68956443D01*
X127113012Y-68872779D01*
X127113010Y-68872778D01*
X126975816Y-68760186D01*
X126975812Y-68760183D01*
X126863222Y-68622992D01*
X126779557Y-68466467D01*
X126762384Y-68409853D01*
X126728037Y-68296627D01*
X126715000Y-68164258D01*
X126715000Y-67825743D01*
X126728037Y-67693374D01*
X126779557Y-67523535D01*
X126779557Y-67523534D01*
X126863221Y-67367011D01*
X126975814Y-67229814D01*
X127077271Y-67146552D01*
X127113009Y-67117222D01*
X127130913Y-67107652D01*
X127269533Y-67033557D01*
X127326950Y-67016140D01*
X127439373Y-66982037D01*
X127616000Y-66964641D01*
X127792626Y-66982037D01*
X127792626Y-66982037D01*
G37*
G36*
X173690626Y-66982037D02*
X173803049Y-67016140D01*
X173860466Y-67033557D01*
X174016989Y-67117221D01*
X174154186Y-67229814D01*
X174237448Y-67331271D01*
X174266778Y-67367009D01*
X174266779Y-67367011D01*
X174350443Y-67523533D01*
X174359642Y-67553860D01*
X174401963Y-67693373D01*
X174415000Y-67825742D01*
X174415000Y-68164257D01*
X174401963Y-68296626D01*
X174350443Y-68466466D01*
X174266778Y-68622991D01*
X174266777Y-68622992D01*
X174154186Y-68760186D01*
X174059251Y-68838096D01*
X174016991Y-68872778D01*
X174016989Y-68872779D01*
X173860467Y-68956443D01*
X173819734Y-68968799D01*
X173690627Y-69007963D01*
X173514000Y-69025359D01*
X173337374Y-69007963D01*
X173208267Y-68968799D01*
X173167534Y-68956443D01*
X173011012Y-68872779D01*
X173011010Y-68872778D01*
X172873816Y-68760186D01*
X172873812Y-68760183D01*
X172761222Y-68622992D01*
X172677557Y-68466467D01*
X172660384Y-68409853D01*
X172626037Y-68296627D01*
X172613000Y-68164258D01*
X172613000Y-67825743D01*
X172626037Y-67693374D01*
X172677557Y-67523535D01*
X172677557Y-67523534D01*
X172761221Y-67367011D01*
X172873814Y-67229814D01*
X172975271Y-67146552D01*
X173011009Y-67117222D01*
X173028913Y-67107652D01*
X173167533Y-67033557D01*
X173224950Y-67016140D01*
X173337373Y-66982037D01*
X173514000Y-66964641D01*
X173690626Y-66982037D01*
X173690626Y-66982037D01*
G37*
G36*
X168690626Y-66982037D02*
X168803049Y-67016140D01*
X168860466Y-67033557D01*
X169016989Y-67117221D01*
X169154186Y-67229814D01*
X169237448Y-67331271D01*
X169266778Y-67367009D01*
X169266779Y-67367011D01*
X169350443Y-67523533D01*
X169359642Y-67553860D01*
X169401963Y-67693373D01*
X169415000Y-67825742D01*
X169415000Y-68164257D01*
X169401963Y-68296626D01*
X169350443Y-68466466D01*
X169266778Y-68622991D01*
X169266777Y-68622992D01*
X169154186Y-68760186D01*
X169059251Y-68838096D01*
X169016991Y-68872778D01*
X169016989Y-68872779D01*
X168860467Y-68956443D01*
X168819734Y-68968799D01*
X168690627Y-69007963D01*
X168514000Y-69025359D01*
X168337374Y-69007963D01*
X168208267Y-68968799D01*
X168167534Y-68956443D01*
X168011012Y-68872779D01*
X168011010Y-68872778D01*
X167873816Y-68760186D01*
X167873812Y-68760183D01*
X167761222Y-68622992D01*
X167677557Y-68466467D01*
X167660384Y-68409853D01*
X167626037Y-68296627D01*
X167613000Y-68164258D01*
X167613000Y-67825743D01*
X167626037Y-67693374D01*
X167677557Y-67523535D01*
X167677557Y-67523534D01*
X167761221Y-67367011D01*
X167873814Y-67229814D01*
X167975271Y-67146552D01*
X168011009Y-67117222D01*
X168028913Y-67107652D01*
X168167533Y-67033557D01*
X168224950Y-67016140D01*
X168337373Y-66982037D01*
X168514000Y-66964641D01*
X168690626Y-66982037D01*
X168690626Y-66982037D01*
G37*
G36*
X154224626Y-66982037D02*
X154337049Y-67016140D01*
X154394466Y-67033557D01*
X154550989Y-67117221D01*
X154688186Y-67229814D01*
X154771448Y-67331271D01*
X154800778Y-67367009D01*
X154800779Y-67367011D01*
X154884443Y-67523533D01*
X154893642Y-67553860D01*
X154935963Y-67693373D01*
X154949000Y-67825742D01*
X154949000Y-68164257D01*
X154935963Y-68296626D01*
X154884443Y-68466466D01*
X154800778Y-68622991D01*
X154800777Y-68622992D01*
X154688186Y-68760186D01*
X154593251Y-68838096D01*
X154550991Y-68872778D01*
X154550989Y-68872779D01*
X154394467Y-68956443D01*
X154353734Y-68968799D01*
X154224627Y-69007963D01*
X154048000Y-69025359D01*
X153871374Y-69007963D01*
X153742267Y-68968799D01*
X153701534Y-68956443D01*
X153545012Y-68872779D01*
X153545010Y-68872778D01*
X153407816Y-68760186D01*
X153407812Y-68760183D01*
X153295222Y-68622992D01*
X153211557Y-68466467D01*
X153194384Y-68409853D01*
X153160037Y-68296627D01*
X153147000Y-68164258D01*
X153147000Y-67825743D01*
X153160037Y-67693374D01*
X153211557Y-67523535D01*
X153211557Y-67523534D01*
X153295221Y-67367011D01*
X153407814Y-67229814D01*
X153509271Y-67146552D01*
X153545009Y-67117222D01*
X153562913Y-67107652D01*
X153701533Y-67033557D01*
X153758950Y-67016140D01*
X153871373Y-66982037D01*
X154048000Y-66964641D01*
X154224626Y-66982037D01*
X154224626Y-66982037D01*
G37*
G36*
X156724626Y-66982037D02*
X156837049Y-67016140D01*
X156894466Y-67033557D01*
X157050989Y-67117221D01*
X157188186Y-67229814D01*
X157271448Y-67331271D01*
X157300778Y-67367009D01*
X157300779Y-67367011D01*
X157384443Y-67523533D01*
X157393642Y-67553860D01*
X157435963Y-67693373D01*
X157449000Y-67825742D01*
X157449000Y-68164257D01*
X157435963Y-68296626D01*
X157384443Y-68466466D01*
X157300778Y-68622991D01*
X157300777Y-68622992D01*
X157188186Y-68760186D01*
X157093251Y-68838096D01*
X157050991Y-68872778D01*
X157050989Y-68872779D01*
X156894467Y-68956443D01*
X156853734Y-68968799D01*
X156724627Y-69007963D01*
X156548000Y-69025359D01*
X156371374Y-69007963D01*
X156242267Y-68968799D01*
X156201534Y-68956443D01*
X156045012Y-68872779D01*
X156045010Y-68872778D01*
X155907816Y-68760186D01*
X155907812Y-68760183D01*
X155795222Y-68622992D01*
X155711557Y-68466467D01*
X155694384Y-68409853D01*
X155660037Y-68296627D01*
X155647000Y-68164258D01*
X155647000Y-67825743D01*
X155660037Y-67693374D01*
X155711557Y-67523535D01*
X155711557Y-67523534D01*
X155795221Y-67367011D01*
X155907814Y-67229814D01*
X156009271Y-67146552D01*
X156045009Y-67117222D01*
X156062913Y-67107652D01*
X156201533Y-67033557D01*
X156258950Y-67016140D01*
X156371373Y-66982037D01*
X156548000Y-66964641D01*
X156724626Y-66982037D01*
X156724626Y-66982037D01*
G37*
G36*
X159224626Y-66982037D02*
X159337049Y-67016140D01*
X159394466Y-67033557D01*
X159550989Y-67117221D01*
X159688186Y-67229814D01*
X159771448Y-67331271D01*
X159800778Y-67367009D01*
X159800779Y-67367011D01*
X159884443Y-67523533D01*
X159893642Y-67553860D01*
X159935963Y-67693373D01*
X159949000Y-67825742D01*
X159949000Y-68164257D01*
X159935963Y-68296626D01*
X159884443Y-68466466D01*
X159800778Y-68622991D01*
X159800777Y-68622992D01*
X159688186Y-68760186D01*
X159593251Y-68838096D01*
X159550991Y-68872778D01*
X159550989Y-68872779D01*
X159394467Y-68956443D01*
X159353734Y-68968799D01*
X159224627Y-69007963D01*
X159048000Y-69025359D01*
X158871374Y-69007963D01*
X158742267Y-68968799D01*
X158701534Y-68956443D01*
X158545012Y-68872779D01*
X158545010Y-68872778D01*
X158407816Y-68760186D01*
X158407812Y-68760183D01*
X158295222Y-68622992D01*
X158211557Y-68466467D01*
X158194384Y-68409853D01*
X158160037Y-68296627D01*
X158147000Y-68164258D01*
X158147000Y-67825743D01*
X158160037Y-67693374D01*
X158211557Y-67523535D01*
X158211557Y-67523534D01*
X158295221Y-67367011D01*
X158407814Y-67229814D01*
X158509271Y-67146552D01*
X158545009Y-67117222D01*
X158562913Y-67107652D01*
X158701533Y-67033557D01*
X158758950Y-67016140D01*
X158871373Y-66982037D01*
X159048000Y-66964641D01*
X159224626Y-66982037D01*
X159224626Y-66982037D01*
G37*
G36*
X144758626Y-66982037D02*
X144871049Y-67016140D01*
X144928466Y-67033557D01*
X145084989Y-67117221D01*
X145222186Y-67229814D01*
X145305448Y-67331271D01*
X145334778Y-67367009D01*
X145334779Y-67367011D01*
X145418443Y-67523533D01*
X145427642Y-67553860D01*
X145469963Y-67693373D01*
X145483000Y-67825742D01*
X145483000Y-68164257D01*
X145469963Y-68296626D01*
X145418443Y-68466466D01*
X145334778Y-68622991D01*
X145334777Y-68622992D01*
X145222186Y-68760186D01*
X145127251Y-68838096D01*
X145084991Y-68872778D01*
X145084989Y-68872779D01*
X144928467Y-68956443D01*
X144887734Y-68968799D01*
X144758627Y-69007963D01*
X144582000Y-69025359D01*
X144405374Y-69007963D01*
X144276267Y-68968799D01*
X144235534Y-68956443D01*
X144079012Y-68872779D01*
X144079010Y-68872778D01*
X143941816Y-68760186D01*
X143941812Y-68760183D01*
X143829222Y-68622992D01*
X143745557Y-68466467D01*
X143728384Y-68409853D01*
X143694037Y-68296627D01*
X143681000Y-68164258D01*
X143681000Y-67825743D01*
X143694037Y-67693374D01*
X143745557Y-67523535D01*
X143745557Y-67523534D01*
X143829221Y-67367011D01*
X143941814Y-67229814D01*
X144043271Y-67146552D01*
X144079009Y-67117222D01*
X144096913Y-67107652D01*
X144235533Y-67033557D01*
X144292950Y-67016140D01*
X144405373Y-66982037D01*
X144582000Y-66964641D01*
X144758626Y-66982037D01*
X144758626Y-66982037D01*
G37*
G36*
X142258626Y-66982037D02*
X142371049Y-67016140D01*
X142428466Y-67033557D01*
X142584989Y-67117221D01*
X142722186Y-67229814D01*
X142805448Y-67331271D01*
X142834778Y-67367009D01*
X142834779Y-67367011D01*
X142918443Y-67523533D01*
X142927642Y-67553860D01*
X142969963Y-67693373D01*
X142983000Y-67825742D01*
X142983000Y-68164257D01*
X142969963Y-68296626D01*
X142918443Y-68466466D01*
X142834778Y-68622991D01*
X142834777Y-68622992D01*
X142722186Y-68760186D01*
X142627251Y-68838096D01*
X142584991Y-68872778D01*
X142584989Y-68872779D01*
X142428467Y-68956443D01*
X142387734Y-68968799D01*
X142258627Y-69007963D01*
X142082000Y-69025359D01*
X141905374Y-69007963D01*
X141776267Y-68968799D01*
X141735534Y-68956443D01*
X141579012Y-68872779D01*
X141579010Y-68872778D01*
X141441816Y-68760186D01*
X141441812Y-68760183D01*
X141329222Y-68622992D01*
X141245557Y-68466467D01*
X141228384Y-68409853D01*
X141194037Y-68296627D01*
X141181000Y-68164258D01*
X141181000Y-67825743D01*
X141194037Y-67693374D01*
X141245557Y-67523535D01*
X141245557Y-67523534D01*
X141329221Y-67367011D01*
X141441814Y-67229814D01*
X141543271Y-67146552D01*
X141579009Y-67117222D01*
X141596913Y-67107652D01*
X141735533Y-67033557D01*
X141792950Y-67016140D01*
X141905373Y-66982037D01*
X142082000Y-66964641D01*
X142258626Y-66982037D01*
X142258626Y-66982037D01*
G37*
G36*
X139758626Y-66982037D02*
X139871049Y-67016140D01*
X139928466Y-67033557D01*
X140084989Y-67117221D01*
X140222186Y-67229814D01*
X140305448Y-67331271D01*
X140334778Y-67367009D01*
X140334779Y-67367011D01*
X140418443Y-67523533D01*
X140427642Y-67553860D01*
X140469963Y-67693373D01*
X140483000Y-67825742D01*
X140483000Y-68164257D01*
X140469963Y-68296626D01*
X140418443Y-68466466D01*
X140334778Y-68622991D01*
X140334777Y-68622992D01*
X140222186Y-68760186D01*
X140127251Y-68838096D01*
X140084991Y-68872778D01*
X140084989Y-68872779D01*
X139928467Y-68956443D01*
X139887734Y-68968799D01*
X139758627Y-69007963D01*
X139582000Y-69025359D01*
X139405374Y-69007963D01*
X139276267Y-68968799D01*
X139235534Y-68956443D01*
X139079012Y-68872779D01*
X139079010Y-68872778D01*
X138941816Y-68760186D01*
X138941812Y-68760183D01*
X138829222Y-68622992D01*
X138745557Y-68466467D01*
X138728384Y-68409853D01*
X138694037Y-68296627D01*
X138681000Y-68164258D01*
X138681000Y-67825743D01*
X138694037Y-67693374D01*
X138745557Y-67523535D01*
X138745557Y-67523534D01*
X138829221Y-67367011D01*
X138941814Y-67229814D01*
X139043271Y-67146552D01*
X139079009Y-67117222D01*
X139096913Y-67107652D01*
X139235533Y-67033557D01*
X139292950Y-67016140D01*
X139405373Y-66982037D01*
X139582000Y-66964641D01*
X139758626Y-66982037D01*
X139758626Y-66982037D01*
G37*
G36*
X125292626Y-66982037D02*
X125405049Y-67016140D01*
X125462466Y-67033557D01*
X125618989Y-67117221D01*
X125756186Y-67229814D01*
X125839448Y-67331271D01*
X125868778Y-67367009D01*
X125868779Y-67367011D01*
X125952443Y-67523533D01*
X125961642Y-67553860D01*
X126003963Y-67693373D01*
X126017000Y-67825742D01*
X126017000Y-68164257D01*
X126003963Y-68296626D01*
X125952443Y-68466466D01*
X125868778Y-68622991D01*
X125868777Y-68622992D01*
X125756186Y-68760186D01*
X125661251Y-68838096D01*
X125618991Y-68872778D01*
X125618989Y-68872779D01*
X125462467Y-68956443D01*
X125421734Y-68968799D01*
X125292627Y-69007963D01*
X125116000Y-69025359D01*
X124939374Y-69007963D01*
X124810267Y-68968799D01*
X124769534Y-68956443D01*
X124613012Y-68872779D01*
X124613010Y-68872778D01*
X124475816Y-68760186D01*
X124475812Y-68760183D01*
X124363222Y-68622992D01*
X124279557Y-68466467D01*
X124262384Y-68409853D01*
X124228037Y-68296627D01*
X124215000Y-68164258D01*
X124215000Y-67825743D01*
X124228037Y-67693374D01*
X124279557Y-67523535D01*
X124279557Y-67523534D01*
X124363221Y-67367011D01*
X124475814Y-67229814D01*
X124577271Y-67146552D01*
X124613009Y-67117222D01*
X124630913Y-67107652D01*
X124769533Y-67033557D01*
X124826950Y-67016140D01*
X124939373Y-66982037D01*
X125116000Y-66964641D01*
X125292626Y-66982037D01*
X125292626Y-66982037D01*
G37*
G36*
X171190626Y-66982037D02*
X171303049Y-67016140D01*
X171360466Y-67033557D01*
X171516989Y-67117221D01*
X171654186Y-67229814D01*
X171737448Y-67331271D01*
X171766778Y-67367009D01*
X171766779Y-67367011D01*
X171850443Y-67523533D01*
X171859642Y-67553860D01*
X171901963Y-67693373D01*
X171915000Y-67825742D01*
X171915000Y-68164257D01*
X171901963Y-68296626D01*
X171850443Y-68466466D01*
X171766778Y-68622991D01*
X171766777Y-68622992D01*
X171654186Y-68760186D01*
X171559251Y-68838096D01*
X171516991Y-68872778D01*
X171516989Y-68872779D01*
X171360467Y-68956443D01*
X171319734Y-68968799D01*
X171190627Y-69007963D01*
X171014000Y-69025359D01*
X170837374Y-69007963D01*
X170708267Y-68968799D01*
X170667534Y-68956443D01*
X170511012Y-68872779D01*
X170511010Y-68872778D01*
X170373816Y-68760186D01*
X170373812Y-68760183D01*
X170261222Y-68622992D01*
X170177557Y-68466467D01*
X170160384Y-68409853D01*
X170126037Y-68296627D01*
X170113000Y-68164258D01*
X170113000Y-67825743D01*
X170126037Y-67693374D01*
X170177557Y-67523535D01*
X170177557Y-67523534D01*
X170261221Y-67367011D01*
X170373814Y-67229814D01*
X170475271Y-67146552D01*
X170511009Y-67117222D01*
X170528913Y-67107652D01*
X170667533Y-67033557D01*
X170724950Y-67016140D01*
X170837373Y-66982037D01*
X171014000Y-66964641D01*
X171190626Y-66982037D01*
X171190626Y-66982037D01*
G37*
G36*
X152306600Y-66972989D02*
X152339649Y-66983014D01*
X152370106Y-66999294D01*
X152396799Y-67021201D01*
X152418706Y-67047894D01*
X152434986Y-67078351D01*
X152445011Y-67111400D01*
X152449000Y-67151904D01*
X152449000Y-68838096D01*
X152445011Y-68878600D01*
X152434986Y-68911649D01*
X152418706Y-68942106D01*
X152396799Y-68968799D01*
X152370106Y-68990706D01*
X152339649Y-69006986D01*
X152306600Y-69017011D01*
X152266096Y-69021000D01*
X150829904Y-69021000D01*
X150789400Y-69017011D01*
X150756351Y-69006986D01*
X150725894Y-68990706D01*
X150699201Y-68968799D01*
X150677294Y-68942106D01*
X150661014Y-68911649D01*
X150650989Y-68878600D01*
X150647000Y-68838096D01*
X150647000Y-67151904D01*
X150650989Y-67111400D01*
X150661014Y-67078351D01*
X150677294Y-67047894D01*
X150699201Y-67021201D01*
X150725894Y-66999294D01*
X150756351Y-66983014D01*
X150789400Y-66972989D01*
X150829904Y-66969000D01*
X152266096Y-66969000D01*
X152306600Y-66972989D01*
X152306600Y-66972989D01*
G37*
G36*
X108908600Y-66972989D02*
X108941649Y-66983014D01*
X108972106Y-66999294D01*
X108998799Y-67021201D01*
X109020706Y-67047894D01*
X109036986Y-67078351D01*
X109047011Y-67111400D01*
X109051000Y-67151904D01*
X109051000Y-68838096D01*
X109047011Y-68878600D01*
X109036986Y-68911649D01*
X109020706Y-68942106D01*
X108998799Y-68968799D01*
X108972106Y-68990706D01*
X108941649Y-69006986D01*
X108908600Y-69017011D01*
X108868096Y-69021000D01*
X107431904Y-69021000D01*
X107391400Y-69017011D01*
X107358351Y-69006986D01*
X107327894Y-68990706D01*
X107301201Y-68968799D01*
X107279294Y-68942106D01*
X107263014Y-68911649D01*
X107252989Y-68878600D01*
X107249000Y-68838096D01*
X107249000Y-67151904D01*
X107252989Y-67111400D01*
X107263014Y-67078351D01*
X107279294Y-67047894D01*
X107301201Y-67021201D01*
X107327894Y-66999294D01*
X107358351Y-66983014D01*
X107391400Y-66972989D01*
X107431904Y-66969000D01*
X108868096Y-66969000D01*
X108908600Y-66972989D01*
X108908600Y-66972989D01*
G37*
G36*
X137840600Y-66972989D02*
X137873649Y-66983014D01*
X137904106Y-66999294D01*
X137930799Y-67021201D01*
X137952706Y-67047894D01*
X137968986Y-67078351D01*
X137979011Y-67111400D01*
X137983000Y-67151904D01*
X137983000Y-68838096D01*
X137979011Y-68878600D01*
X137968986Y-68911649D01*
X137952706Y-68942106D01*
X137930799Y-68968799D01*
X137904106Y-68990706D01*
X137873649Y-69006986D01*
X137840600Y-69017011D01*
X137800096Y-69021000D01*
X136363904Y-69021000D01*
X136323400Y-69017011D01*
X136290351Y-69006986D01*
X136259894Y-68990706D01*
X136233201Y-68968799D01*
X136211294Y-68942106D01*
X136195014Y-68911649D01*
X136184989Y-68878600D01*
X136181000Y-68838096D01*
X136181000Y-67151904D01*
X136184989Y-67111400D01*
X136195014Y-67078351D01*
X136211294Y-67047894D01*
X136233201Y-67021201D01*
X136259894Y-66999294D01*
X136290351Y-66983014D01*
X136323400Y-66972989D01*
X136363904Y-66969000D01*
X137800096Y-66969000D01*
X137840600Y-66972989D01*
X137840600Y-66972989D01*
G37*
G36*
X166772600Y-66972989D02*
X166805649Y-66983014D01*
X166836106Y-66999294D01*
X166862799Y-67021201D01*
X166884706Y-67047894D01*
X166900986Y-67078351D01*
X166911011Y-67111400D01*
X166915000Y-67151904D01*
X166915000Y-68838096D01*
X166911011Y-68878600D01*
X166900986Y-68911649D01*
X166884706Y-68942106D01*
X166862799Y-68968799D01*
X166836106Y-68990706D01*
X166805649Y-69006986D01*
X166772600Y-69017011D01*
X166732096Y-69021000D01*
X165295904Y-69021000D01*
X165255400Y-69017011D01*
X165222351Y-69006986D01*
X165191894Y-68990706D01*
X165165201Y-68968799D01*
X165143294Y-68942106D01*
X165127014Y-68911649D01*
X165116989Y-68878600D01*
X165113000Y-68838096D01*
X165113000Y-67151904D01*
X165116989Y-67111400D01*
X165127014Y-67078351D01*
X165143294Y-67047894D01*
X165165201Y-67021201D01*
X165191894Y-66999294D01*
X165222351Y-66983014D01*
X165255400Y-66972989D01*
X165295904Y-66969000D01*
X166732096Y-66969000D01*
X166772600Y-66972989D01*
X166772600Y-66972989D01*
G37*
G36*
X181238600Y-66972989D02*
X181271649Y-66983014D01*
X181302106Y-66999294D01*
X181328799Y-67021201D01*
X181350706Y-67047894D01*
X181366986Y-67078351D01*
X181377011Y-67111400D01*
X181381000Y-67151904D01*
X181381000Y-68838096D01*
X181377011Y-68878600D01*
X181366986Y-68911649D01*
X181350706Y-68942106D01*
X181328799Y-68968799D01*
X181302106Y-68990706D01*
X181271649Y-69006986D01*
X181238600Y-69017011D01*
X181198096Y-69021000D01*
X179761904Y-69021000D01*
X179721400Y-69017011D01*
X179688351Y-69006986D01*
X179657894Y-68990706D01*
X179631201Y-68968799D01*
X179609294Y-68942106D01*
X179593014Y-68911649D01*
X179582989Y-68878600D01*
X179579000Y-68838096D01*
X179579000Y-67151904D01*
X179582989Y-67111400D01*
X179593014Y-67078351D01*
X179609294Y-67047894D01*
X179631201Y-67021201D01*
X179657894Y-66999294D01*
X179688351Y-66983014D01*
X179721400Y-66972989D01*
X179761904Y-66969000D01*
X181198096Y-66969000D01*
X181238600Y-66972989D01*
X181238600Y-66972989D01*
G37*
G36*
X123374600Y-66972989D02*
X123407649Y-66983014D01*
X123438106Y-66999294D01*
X123464799Y-67021201D01*
X123486706Y-67047894D01*
X123502986Y-67078351D01*
X123513011Y-67111400D01*
X123517000Y-67151904D01*
X123517000Y-68838096D01*
X123513011Y-68878600D01*
X123502986Y-68911649D01*
X123486706Y-68942106D01*
X123464799Y-68968799D01*
X123438106Y-68990706D01*
X123407649Y-69006986D01*
X123374600Y-69017011D01*
X123334096Y-69021000D01*
X121897904Y-69021000D01*
X121857400Y-69017011D01*
X121824351Y-69006986D01*
X121793894Y-68990706D01*
X121767201Y-68968799D01*
X121745294Y-68942106D01*
X121729014Y-68911649D01*
X121718989Y-68878600D01*
X121715000Y-68838096D01*
X121715000Y-67151904D01*
X121718989Y-67111400D01*
X121729014Y-67078351D01*
X121745294Y-67047894D01*
X121767201Y-67021201D01*
X121793894Y-66999294D01*
X121824351Y-66983014D01*
X121857400Y-66972989D01*
X121897904Y-66969000D01*
X123334096Y-66969000D01*
X123374600Y-66972989D01*
X123374600Y-66972989D01*
G37*
G36*
X187768591Y-64608085D02*
X187802569Y-64618393D01*
X187833887Y-64635133D01*
X187861339Y-64657661D01*
X187883867Y-64685113D01*
X187900607Y-64716431D01*
X187910915Y-64750409D01*
X187915000Y-64791890D01*
X187915000Y-65468110D01*
X187910915Y-65509591D01*
X187900607Y-65543569D01*
X187883867Y-65574887D01*
X187861339Y-65602339D01*
X187833887Y-65624867D01*
X187802569Y-65641607D01*
X187768591Y-65651915D01*
X187727110Y-65656000D01*
X187125890Y-65656000D01*
X187084409Y-65651915D01*
X187050431Y-65641607D01*
X187019113Y-65624867D01*
X186991661Y-65602339D01*
X186969133Y-65574887D01*
X186952393Y-65543569D01*
X186942085Y-65509591D01*
X186938000Y-65468110D01*
X186938000Y-64791890D01*
X186942085Y-64750409D01*
X186952393Y-64716431D01*
X186969133Y-64685113D01*
X186991661Y-64657661D01*
X187019113Y-64635133D01*
X187050431Y-64618393D01*
X187084409Y-64608085D01*
X187125890Y-64604000D01*
X187727110Y-64604000D01*
X187768591Y-64608085D01*
X187768591Y-64608085D01*
G37*
G36*
X189343591Y-64608085D02*
X189377569Y-64618393D01*
X189408887Y-64635133D01*
X189436339Y-64657661D01*
X189458867Y-64685113D01*
X189475607Y-64716431D01*
X189485915Y-64750409D01*
X189490000Y-64791890D01*
X189490000Y-65468110D01*
X189485915Y-65509591D01*
X189475607Y-65543569D01*
X189458867Y-65574887D01*
X189436339Y-65602339D01*
X189408887Y-65624867D01*
X189377569Y-65641607D01*
X189343591Y-65651915D01*
X189302110Y-65656000D01*
X188700890Y-65656000D01*
X188659409Y-65651915D01*
X188625431Y-65641607D01*
X188594113Y-65624867D01*
X188566661Y-65602339D01*
X188544133Y-65574887D01*
X188527393Y-65543569D01*
X188517085Y-65509591D01*
X188513000Y-65468110D01*
X188513000Y-64791890D01*
X188517085Y-64750409D01*
X188527393Y-64716431D01*
X188544133Y-64685113D01*
X188566661Y-64657661D01*
X188594113Y-64635133D01*
X188625431Y-64618393D01*
X188659409Y-64608085D01*
X188700890Y-64604000D01*
X189302110Y-64604000D01*
X189343591Y-64608085D01*
X189343591Y-64608085D01*
G37*
G36*
X165656626Y-56137037D02*
X165769852Y-56171384D01*
X165826466Y-56188557D01*
X165982989Y-56272221D01*
X166120186Y-56384814D01*
X166203448Y-56486271D01*
X166232778Y-56522009D01*
X166232779Y-56522011D01*
X166316443Y-56678533D01*
X166333616Y-56735147D01*
X166367963Y-56848373D01*
X166381000Y-56980742D01*
X166381000Y-57319257D01*
X166367963Y-57451626D01*
X166316443Y-57621466D01*
X166232778Y-57777991D01*
X166232777Y-57777992D01*
X166120186Y-57915186D01*
X166025251Y-57993096D01*
X165982991Y-58027778D01*
X165982989Y-58027779D01*
X165826467Y-58111443D01*
X165785734Y-58123799D01*
X165656627Y-58162963D01*
X165480000Y-58180359D01*
X165303374Y-58162963D01*
X165174267Y-58123799D01*
X165133534Y-58111443D01*
X164977012Y-58027779D01*
X164977010Y-58027778D01*
X164839816Y-57915186D01*
X164839812Y-57915183D01*
X164727222Y-57777992D01*
X164643557Y-57621467D01*
X164626384Y-57564853D01*
X164592037Y-57451627D01*
X164579000Y-57319258D01*
X164579000Y-56980743D01*
X164592037Y-56848374D01*
X164643557Y-56678535D01*
X164643557Y-56678534D01*
X164727221Y-56522011D01*
X164839814Y-56384814D01*
X164941271Y-56301552D01*
X164977009Y-56272222D01*
X164994913Y-56262652D01*
X165133533Y-56188557D01*
X165190147Y-56171384D01*
X165303373Y-56137037D01*
X165480000Y-56119641D01*
X165656626Y-56137037D01*
X165656626Y-56137037D01*
G37*
G36*
X168156626Y-56137037D02*
X168269852Y-56171384D01*
X168326466Y-56188557D01*
X168482989Y-56272221D01*
X168620186Y-56384814D01*
X168703448Y-56486271D01*
X168732778Y-56522009D01*
X168732779Y-56522011D01*
X168816443Y-56678533D01*
X168833616Y-56735147D01*
X168867963Y-56848373D01*
X168881000Y-56980742D01*
X168881000Y-57319257D01*
X168867963Y-57451626D01*
X168816443Y-57621466D01*
X168732778Y-57777991D01*
X168732777Y-57777992D01*
X168620186Y-57915186D01*
X168525251Y-57993096D01*
X168482991Y-58027778D01*
X168482989Y-58027779D01*
X168326467Y-58111443D01*
X168285734Y-58123799D01*
X168156627Y-58162963D01*
X167980000Y-58180359D01*
X167803374Y-58162963D01*
X167674267Y-58123799D01*
X167633534Y-58111443D01*
X167477012Y-58027779D01*
X167477010Y-58027778D01*
X167339816Y-57915186D01*
X167339812Y-57915183D01*
X167227222Y-57777992D01*
X167143557Y-57621467D01*
X167126384Y-57564853D01*
X167092037Y-57451627D01*
X167079000Y-57319258D01*
X167079000Y-56980743D01*
X167092037Y-56848374D01*
X167143557Y-56678535D01*
X167143557Y-56678534D01*
X167227221Y-56522011D01*
X167339814Y-56384814D01*
X167441271Y-56301552D01*
X167477009Y-56272222D01*
X167494913Y-56262652D01*
X167633533Y-56188557D01*
X167690147Y-56171384D01*
X167803373Y-56137037D01*
X167980000Y-56119641D01*
X168156626Y-56137037D01*
X168156626Y-56137037D01*
G37*
G36*
X170656626Y-56137037D02*
X170769852Y-56171384D01*
X170826466Y-56188557D01*
X170982989Y-56272221D01*
X171120186Y-56384814D01*
X171203448Y-56486271D01*
X171232778Y-56522009D01*
X171232779Y-56522011D01*
X171316443Y-56678533D01*
X171333616Y-56735147D01*
X171367963Y-56848373D01*
X171381000Y-56980742D01*
X171381000Y-57319257D01*
X171367963Y-57451626D01*
X171316443Y-57621466D01*
X171232778Y-57777991D01*
X171232777Y-57777992D01*
X171120186Y-57915186D01*
X171025251Y-57993096D01*
X170982991Y-58027778D01*
X170982989Y-58027779D01*
X170826467Y-58111443D01*
X170785734Y-58123799D01*
X170656627Y-58162963D01*
X170480000Y-58180359D01*
X170303374Y-58162963D01*
X170174267Y-58123799D01*
X170133534Y-58111443D01*
X169977012Y-58027779D01*
X169977010Y-58027778D01*
X169839816Y-57915186D01*
X169839812Y-57915183D01*
X169727222Y-57777992D01*
X169643557Y-57621467D01*
X169626384Y-57564853D01*
X169592037Y-57451627D01*
X169579000Y-57319258D01*
X169579000Y-56980743D01*
X169592037Y-56848374D01*
X169643557Y-56678535D01*
X169643557Y-56678534D01*
X169727221Y-56522011D01*
X169839814Y-56384814D01*
X169941271Y-56301552D01*
X169977009Y-56272222D01*
X169994913Y-56262652D01*
X170133533Y-56188557D01*
X170190147Y-56171384D01*
X170303373Y-56137037D01*
X170480000Y-56119641D01*
X170656626Y-56137037D01*
X170656626Y-56137037D01*
G37*
G36*
X173156626Y-56137037D02*
X173269852Y-56171384D01*
X173326466Y-56188557D01*
X173482989Y-56272221D01*
X173620186Y-56384814D01*
X173703448Y-56486271D01*
X173732778Y-56522009D01*
X173732779Y-56522011D01*
X173816443Y-56678533D01*
X173833616Y-56735147D01*
X173867963Y-56848373D01*
X173881000Y-56980742D01*
X173881000Y-57319257D01*
X173867963Y-57451626D01*
X173816443Y-57621466D01*
X173732778Y-57777991D01*
X173732777Y-57777992D01*
X173620186Y-57915186D01*
X173525251Y-57993096D01*
X173482991Y-58027778D01*
X173482989Y-58027779D01*
X173326467Y-58111443D01*
X173285734Y-58123799D01*
X173156627Y-58162963D01*
X172980000Y-58180359D01*
X172803374Y-58162963D01*
X172674267Y-58123799D01*
X172633534Y-58111443D01*
X172477012Y-58027779D01*
X172477010Y-58027778D01*
X172339816Y-57915186D01*
X172339812Y-57915183D01*
X172227222Y-57777992D01*
X172143557Y-57621467D01*
X172126384Y-57564853D01*
X172092037Y-57451627D01*
X172079000Y-57319258D01*
X172079000Y-56980743D01*
X172092037Y-56848374D01*
X172143557Y-56678535D01*
X172143557Y-56678534D01*
X172227221Y-56522011D01*
X172339814Y-56384814D01*
X172441271Y-56301552D01*
X172477009Y-56272222D01*
X172494913Y-56262652D01*
X172633533Y-56188557D01*
X172690147Y-56171384D01*
X172803373Y-56137037D01*
X172980000Y-56119641D01*
X173156626Y-56137037D01*
X173156626Y-56137037D01*
G37*
G36*
X118326626Y-56137037D02*
X118439852Y-56171384D01*
X118496466Y-56188557D01*
X118652989Y-56272221D01*
X118790186Y-56384814D01*
X118873448Y-56486271D01*
X118902778Y-56522009D01*
X118902779Y-56522011D01*
X118986443Y-56678533D01*
X119003616Y-56735147D01*
X119037963Y-56848373D01*
X119051000Y-56980742D01*
X119051000Y-57319257D01*
X119037963Y-57451626D01*
X118986443Y-57621466D01*
X118902778Y-57777991D01*
X118902777Y-57777992D01*
X118790186Y-57915186D01*
X118695251Y-57993096D01*
X118652991Y-58027778D01*
X118652989Y-58027779D01*
X118496467Y-58111443D01*
X118455734Y-58123799D01*
X118326627Y-58162963D01*
X118150000Y-58180359D01*
X117973374Y-58162963D01*
X117844267Y-58123799D01*
X117803534Y-58111443D01*
X117647012Y-58027779D01*
X117647010Y-58027778D01*
X117509816Y-57915186D01*
X117509812Y-57915183D01*
X117397222Y-57777992D01*
X117313557Y-57621467D01*
X117296384Y-57564853D01*
X117262037Y-57451627D01*
X117249000Y-57319258D01*
X117249000Y-56980743D01*
X117262037Y-56848374D01*
X117313557Y-56678535D01*
X117313557Y-56678534D01*
X117397221Y-56522011D01*
X117509814Y-56384814D01*
X117611271Y-56301552D01*
X117647009Y-56272222D01*
X117664913Y-56262652D01*
X117803533Y-56188557D01*
X117860147Y-56171384D01*
X117973373Y-56137037D01*
X118150000Y-56119641D01*
X118326626Y-56137037D01*
X118326626Y-56137037D01*
G37*
G36*
X175656626Y-56137037D02*
X175769852Y-56171384D01*
X175826466Y-56188557D01*
X175982989Y-56272221D01*
X176120186Y-56384814D01*
X176203448Y-56486271D01*
X176232778Y-56522009D01*
X176232779Y-56522011D01*
X176316443Y-56678533D01*
X176333616Y-56735147D01*
X176367963Y-56848373D01*
X176381000Y-56980742D01*
X176381000Y-57319257D01*
X176367963Y-57451626D01*
X176316443Y-57621466D01*
X176232778Y-57777991D01*
X176232777Y-57777992D01*
X176120186Y-57915186D01*
X176025251Y-57993096D01*
X175982991Y-58027778D01*
X175982989Y-58027779D01*
X175826467Y-58111443D01*
X175785734Y-58123799D01*
X175656627Y-58162963D01*
X175480000Y-58180359D01*
X175303374Y-58162963D01*
X175174267Y-58123799D01*
X175133534Y-58111443D01*
X174977012Y-58027779D01*
X174977010Y-58027778D01*
X174839816Y-57915186D01*
X174839812Y-57915183D01*
X174727222Y-57777992D01*
X174643557Y-57621467D01*
X174626384Y-57564853D01*
X174592037Y-57451627D01*
X174579000Y-57319258D01*
X174579000Y-56980743D01*
X174592037Y-56848374D01*
X174643557Y-56678535D01*
X174643557Y-56678534D01*
X174727221Y-56522011D01*
X174839814Y-56384814D01*
X174941271Y-56301552D01*
X174977009Y-56272222D01*
X174994913Y-56262652D01*
X175133533Y-56188557D01*
X175190147Y-56171384D01*
X175303373Y-56137037D01*
X175480000Y-56119641D01*
X175656626Y-56137037D01*
X175656626Y-56137037D01*
G37*
G36*
X178156626Y-56137037D02*
X178269852Y-56171384D01*
X178326466Y-56188557D01*
X178482989Y-56272221D01*
X178620186Y-56384814D01*
X178703448Y-56486271D01*
X178732778Y-56522009D01*
X178732779Y-56522011D01*
X178816443Y-56678533D01*
X178833616Y-56735147D01*
X178867963Y-56848373D01*
X178881000Y-56980742D01*
X178881000Y-57319257D01*
X178867963Y-57451626D01*
X178816443Y-57621466D01*
X178732778Y-57777991D01*
X178732777Y-57777992D01*
X178620186Y-57915186D01*
X178525251Y-57993096D01*
X178482991Y-58027778D01*
X178482989Y-58027779D01*
X178326467Y-58111443D01*
X178285734Y-58123799D01*
X178156627Y-58162963D01*
X177980000Y-58180359D01*
X177803374Y-58162963D01*
X177674267Y-58123799D01*
X177633534Y-58111443D01*
X177477012Y-58027779D01*
X177477010Y-58027778D01*
X177339816Y-57915186D01*
X177339812Y-57915183D01*
X177227222Y-57777992D01*
X177143557Y-57621467D01*
X177126384Y-57564853D01*
X177092037Y-57451627D01*
X177079000Y-57319258D01*
X177079000Y-56980743D01*
X177092037Y-56848374D01*
X177143557Y-56678535D01*
X177143557Y-56678534D01*
X177227221Y-56522011D01*
X177339814Y-56384814D01*
X177441271Y-56301552D01*
X177477009Y-56272222D01*
X177494913Y-56262652D01*
X177633533Y-56188557D01*
X177690147Y-56171384D01*
X177803373Y-56137037D01*
X177980000Y-56119641D01*
X178156626Y-56137037D01*
X178156626Y-56137037D01*
G37*
G36*
X180656626Y-56137037D02*
X180769852Y-56171384D01*
X180826466Y-56188557D01*
X180982989Y-56272221D01*
X181120186Y-56384814D01*
X181203448Y-56486271D01*
X181232778Y-56522009D01*
X181232779Y-56522011D01*
X181316443Y-56678533D01*
X181333616Y-56735147D01*
X181367963Y-56848373D01*
X181381000Y-56980742D01*
X181381000Y-57319257D01*
X181367963Y-57451626D01*
X181316443Y-57621466D01*
X181232778Y-57777991D01*
X181232777Y-57777992D01*
X181120186Y-57915186D01*
X181025251Y-57993096D01*
X180982991Y-58027778D01*
X180982989Y-58027779D01*
X180826467Y-58111443D01*
X180785734Y-58123799D01*
X180656627Y-58162963D01*
X180480000Y-58180359D01*
X180303374Y-58162963D01*
X180174267Y-58123799D01*
X180133534Y-58111443D01*
X179977012Y-58027779D01*
X179977010Y-58027778D01*
X179839816Y-57915186D01*
X179839812Y-57915183D01*
X179727222Y-57777992D01*
X179643557Y-57621467D01*
X179626384Y-57564853D01*
X179592037Y-57451627D01*
X179579000Y-57319258D01*
X179579000Y-56980743D01*
X179592037Y-56848374D01*
X179643557Y-56678535D01*
X179643557Y-56678534D01*
X179727221Y-56522011D01*
X179839814Y-56384814D01*
X179941271Y-56301552D01*
X179977009Y-56272222D01*
X179994913Y-56262652D01*
X180133533Y-56188557D01*
X180190147Y-56171384D01*
X180303373Y-56137037D01*
X180480000Y-56119641D01*
X180656626Y-56137037D01*
X180656626Y-56137037D01*
G37*
G36*
X183156626Y-56137037D02*
X183269852Y-56171384D01*
X183326466Y-56188557D01*
X183482989Y-56272221D01*
X183620186Y-56384814D01*
X183703448Y-56486271D01*
X183732778Y-56522009D01*
X183732779Y-56522011D01*
X183816443Y-56678533D01*
X183833616Y-56735147D01*
X183867963Y-56848373D01*
X183881000Y-56980742D01*
X183881000Y-57319257D01*
X183867963Y-57451626D01*
X183816443Y-57621466D01*
X183732778Y-57777991D01*
X183732777Y-57777992D01*
X183620186Y-57915186D01*
X183525251Y-57993096D01*
X183482991Y-58027778D01*
X183482989Y-58027779D01*
X183326467Y-58111443D01*
X183285734Y-58123799D01*
X183156627Y-58162963D01*
X182980000Y-58180359D01*
X182803374Y-58162963D01*
X182674267Y-58123799D01*
X182633534Y-58111443D01*
X182477012Y-58027779D01*
X182477010Y-58027778D01*
X182339816Y-57915186D01*
X182339812Y-57915183D01*
X182227222Y-57777992D01*
X182143557Y-57621467D01*
X182126384Y-57564853D01*
X182092037Y-57451627D01*
X182079000Y-57319258D01*
X182079000Y-56980743D01*
X182092037Y-56848374D01*
X182143557Y-56678535D01*
X182143557Y-56678534D01*
X182227221Y-56522011D01*
X182339814Y-56384814D01*
X182441271Y-56301552D01*
X182477009Y-56272222D01*
X182494913Y-56262652D01*
X182633533Y-56188557D01*
X182690147Y-56171384D01*
X182803373Y-56137037D01*
X182980000Y-56119641D01*
X183156626Y-56137037D01*
X183156626Y-56137037D01*
G37*
G36*
X110826626Y-56137037D02*
X110939852Y-56171384D01*
X110996466Y-56188557D01*
X111152989Y-56272221D01*
X111290186Y-56384814D01*
X111373448Y-56486271D01*
X111402778Y-56522009D01*
X111402779Y-56522011D01*
X111486443Y-56678533D01*
X111503616Y-56735147D01*
X111537963Y-56848373D01*
X111551000Y-56980742D01*
X111551000Y-57319257D01*
X111537963Y-57451626D01*
X111486443Y-57621466D01*
X111402778Y-57777991D01*
X111402777Y-57777992D01*
X111290186Y-57915186D01*
X111195251Y-57993096D01*
X111152991Y-58027778D01*
X111152989Y-58027779D01*
X110996467Y-58111443D01*
X110955734Y-58123799D01*
X110826627Y-58162963D01*
X110650000Y-58180359D01*
X110473374Y-58162963D01*
X110344267Y-58123799D01*
X110303534Y-58111443D01*
X110147012Y-58027779D01*
X110147010Y-58027778D01*
X110009816Y-57915186D01*
X110009812Y-57915183D01*
X109897222Y-57777992D01*
X109813557Y-57621467D01*
X109796384Y-57564853D01*
X109762037Y-57451627D01*
X109749000Y-57319258D01*
X109749000Y-56980743D01*
X109762037Y-56848374D01*
X109813557Y-56678535D01*
X109813557Y-56678534D01*
X109897221Y-56522011D01*
X110009814Y-56384814D01*
X110111271Y-56301552D01*
X110147009Y-56272222D01*
X110164913Y-56262652D01*
X110303533Y-56188557D01*
X110360147Y-56171384D01*
X110473373Y-56137037D01*
X110650000Y-56119641D01*
X110826626Y-56137037D01*
X110826626Y-56137037D01*
G37*
G36*
X153213292Y-56137037D02*
X153326518Y-56171384D01*
X153383132Y-56188557D01*
X153539655Y-56272221D01*
X153676852Y-56384814D01*
X153760114Y-56486271D01*
X153789444Y-56522009D01*
X153789445Y-56522011D01*
X153873109Y-56678533D01*
X153890282Y-56735147D01*
X153924629Y-56848373D01*
X153937666Y-56980742D01*
X153937666Y-57319257D01*
X153924629Y-57451626D01*
X153873109Y-57621466D01*
X153789444Y-57777991D01*
X153789443Y-57777992D01*
X153676852Y-57915186D01*
X153581917Y-57993096D01*
X153539657Y-58027778D01*
X153539655Y-58027779D01*
X153383133Y-58111443D01*
X153342400Y-58123799D01*
X153213293Y-58162963D01*
X153036666Y-58180359D01*
X152860040Y-58162963D01*
X152730933Y-58123799D01*
X152690200Y-58111443D01*
X152533678Y-58027779D01*
X152533676Y-58027778D01*
X152396482Y-57915186D01*
X152396478Y-57915183D01*
X152283888Y-57777992D01*
X152200223Y-57621467D01*
X152183050Y-57564853D01*
X152148703Y-57451627D01*
X152135666Y-57319258D01*
X152135666Y-56980743D01*
X152148703Y-56848374D01*
X152200223Y-56678535D01*
X152200223Y-56678534D01*
X152283887Y-56522011D01*
X152396480Y-56384814D01*
X152497937Y-56301552D01*
X152533675Y-56272222D01*
X152551579Y-56262652D01*
X152690199Y-56188557D01*
X152746813Y-56171384D01*
X152860039Y-56137037D01*
X153036666Y-56119641D01*
X153213292Y-56137037D01*
X153213292Y-56137037D01*
G37*
G36*
X143269959Y-56137037D02*
X143383185Y-56171384D01*
X143439799Y-56188557D01*
X143596322Y-56272221D01*
X143733519Y-56384814D01*
X143816781Y-56486271D01*
X143846111Y-56522009D01*
X143846112Y-56522011D01*
X143929776Y-56678533D01*
X143946949Y-56735147D01*
X143981296Y-56848373D01*
X143994333Y-56980742D01*
X143994333Y-57319257D01*
X143981296Y-57451626D01*
X143929776Y-57621466D01*
X143846111Y-57777991D01*
X143846110Y-57777992D01*
X143733519Y-57915186D01*
X143638584Y-57993096D01*
X143596324Y-58027778D01*
X143596322Y-58027779D01*
X143439800Y-58111443D01*
X143399067Y-58123799D01*
X143269960Y-58162963D01*
X143093333Y-58180359D01*
X142916707Y-58162963D01*
X142787600Y-58123799D01*
X142746867Y-58111443D01*
X142590345Y-58027779D01*
X142590343Y-58027778D01*
X142453149Y-57915186D01*
X142453145Y-57915183D01*
X142340555Y-57777992D01*
X142256890Y-57621467D01*
X142239717Y-57564853D01*
X142205370Y-57451627D01*
X142192333Y-57319258D01*
X142192333Y-56980743D01*
X142205370Y-56848374D01*
X142256890Y-56678535D01*
X142256890Y-56678534D01*
X142340554Y-56522011D01*
X142453147Y-56384814D01*
X142554604Y-56301552D01*
X142590342Y-56272222D01*
X142608246Y-56262652D01*
X142746866Y-56188557D01*
X142803480Y-56171384D01*
X142916706Y-56137037D01*
X143093333Y-56119641D01*
X143269959Y-56137037D01*
X143269959Y-56137037D01*
G37*
G36*
X185656626Y-56137037D02*
X185769852Y-56171384D01*
X185826466Y-56188557D01*
X185982989Y-56272221D01*
X186120186Y-56384814D01*
X186203448Y-56486271D01*
X186232778Y-56522009D01*
X186232779Y-56522011D01*
X186316443Y-56678533D01*
X186333616Y-56735147D01*
X186367963Y-56848373D01*
X186381000Y-56980742D01*
X186381000Y-57319257D01*
X186367963Y-57451626D01*
X186316443Y-57621466D01*
X186232778Y-57777991D01*
X186232777Y-57777992D01*
X186120186Y-57915186D01*
X186025251Y-57993096D01*
X185982991Y-58027778D01*
X185982989Y-58027779D01*
X185826467Y-58111443D01*
X185785734Y-58123799D01*
X185656627Y-58162963D01*
X185480000Y-58180359D01*
X185303374Y-58162963D01*
X185174267Y-58123799D01*
X185133534Y-58111443D01*
X184977012Y-58027779D01*
X184977010Y-58027778D01*
X184839816Y-57915186D01*
X184839812Y-57915183D01*
X184727222Y-57777992D01*
X184643557Y-57621467D01*
X184626384Y-57564853D01*
X184592037Y-57451627D01*
X184579000Y-57319258D01*
X184579000Y-56980743D01*
X184592037Y-56848374D01*
X184643557Y-56678535D01*
X184643557Y-56678534D01*
X184727221Y-56522011D01*
X184839814Y-56384814D01*
X184941271Y-56301552D01*
X184977009Y-56272222D01*
X184994913Y-56262652D01*
X185133533Y-56188557D01*
X185190147Y-56171384D01*
X185303373Y-56137037D01*
X185480000Y-56119641D01*
X185656626Y-56137037D01*
X185656626Y-56137037D01*
G37*
G36*
X128326626Y-56137037D02*
X128439852Y-56171384D01*
X128496466Y-56188557D01*
X128652989Y-56272221D01*
X128790186Y-56384814D01*
X128873448Y-56486271D01*
X128902778Y-56522009D01*
X128902779Y-56522011D01*
X128986443Y-56678533D01*
X129003616Y-56735147D01*
X129037963Y-56848373D01*
X129051000Y-56980742D01*
X129051000Y-57319257D01*
X129037963Y-57451626D01*
X128986443Y-57621466D01*
X128902778Y-57777991D01*
X128902777Y-57777992D01*
X128790186Y-57915186D01*
X128695251Y-57993096D01*
X128652991Y-58027778D01*
X128652989Y-58027779D01*
X128496467Y-58111443D01*
X128455734Y-58123799D01*
X128326627Y-58162963D01*
X128150000Y-58180359D01*
X127973374Y-58162963D01*
X127844267Y-58123799D01*
X127803534Y-58111443D01*
X127647012Y-58027779D01*
X127647010Y-58027778D01*
X127509816Y-57915186D01*
X127509812Y-57915183D01*
X127397222Y-57777992D01*
X127313557Y-57621467D01*
X127296384Y-57564853D01*
X127262037Y-57451627D01*
X127249000Y-57319258D01*
X127249000Y-56980743D01*
X127262037Y-56848374D01*
X127313557Y-56678535D01*
X127313557Y-56678534D01*
X127397221Y-56522011D01*
X127509814Y-56384814D01*
X127611271Y-56301552D01*
X127647009Y-56272222D01*
X127664913Y-56262652D01*
X127803533Y-56188557D01*
X127860147Y-56171384D01*
X127973373Y-56137037D01*
X128150000Y-56119641D01*
X128326626Y-56137037D01*
X128326626Y-56137037D01*
G37*
G36*
X125826626Y-56137037D02*
X125939852Y-56171384D01*
X125996466Y-56188557D01*
X126152989Y-56272221D01*
X126290186Y-56384814D01*
X126373448Y-56486271D01*
X126402778Y-56522009D01*
X126402779Y-56522011D01*
X126486443Y-56678533D01*
X126503616Y-56735147D01*
X126537963Y-56848373D01*
X126551000Y-56980742D01*
X126551000Y-57319257D01*
X126537963Y-57451626D01*
X126486443Y-57621466D01*
X126402778Y-57777991D01*
X126402777Y-57777992D01*
X126290186Y-57915186D01*
X126195251Y-57993096D01*
X126152991Y-58027778D01*
X126152989Y-58027779D01*
X125996467Y-58111443D01*
X125955734Y-58123799D01*
X125826627Y-58162963D01*
X125650000Y-58180359D01*
X125473374Y-58162963D01*
X125344267Y-58123799D01*
X125303534Y-58111443D01*
X125147012Y-58027779D01*
X125147010Y-58027778D01*
X125009816Y-57915186D01*
X125009812Y-57915183D01*
X124897222Y-57777992D01*
X124813557Y-57621467D01*
X124796384Y-57564853D01*
X124762037Y-57451627D01*
X124749000Y-57319258D01*
X124749000Y-56980743D01*
X124762037Y-56848374D01*
X124813557Y-56678535D01*
X124813557Y-56678534D01*
X124897221Y-56522011D01*
X125009814Y-56384814D01*
X125111271Y-56301552D01*
X125147009Y-56272222D01*
X125164913Y-56262652D01*
X125303533Y-56188557D01*
X125360147Y-56171384D01*
X125473373Y-56137037D01*
X125650000Y-56119641D01*
X125826626Y-56137037D01*
X125826626Y-56137037D01*
G37*
G36*
X123326626Y-56137037D02*
X123439852Y-56171384D01*
X123496466Y-56188557D01*
X123652989Y-56272221D01*
X123790186Y-56384814D01*
X123873448Y-56486271D01*
X123902778Y-56522009D01*
X123902779Y-56522011D01*
X123986443Y-56678533D01*
X124003616Y-56735147D01*
X124037963Y-56848373D01*
X124051000Y-56980742D01*
X124051000Y-57319257D01*
X124037963Y-57451626D01*
X123986443Y-57621466D01*
X123902778Y-57777991D01*
X123902777Y-57777992D01*
X123790186Y-57915186D01*
X123695251Y-57993096D01*
X123652991Y-58027778D01*
X123652989Y-58027779D01*
X123496467Y-58111443D01*
X123455734Y-58123799D01*
X123326627Y-58162963D01*
X123150000Y-58180359D01*
X122973374Y-58162963D01*
X122844267Y-58123799D01*
X122803534Y-58111443D01*
X122647012Y-58027779D01*
X122647010Y-58027778D01*
X122509816Y-57915186D01*
X122509812Y-57915183D01*
X122397222Y-57777992D01*
X122313557Y-57621467D01*
X122296384Y-57564853D01*
X122262037Y-57451627D01*
X122249000Y-57319258D01*
X122249000Y-56980743D01*
X122262037Y-56848374D01*
X122313557Y-56678535D01*
X122313557Y-56678534D01*
X122397221Y-56522011D01*
X122509814Y-56384814D01*
X122611271Y-56301552D01*
X122647009Y-56272222D01*
X122664913Y-56262652D01*
X122803533Y-56188557D01*
X122860147Y-56171384D01*
X122973373Y-56137037D01*
X123150000Y-56119641D01*
X123326626Y-56137037D01*
X123326626Y-56137037D01*
G37*
G36*
X120826626Y-56137037D02*
X120939852Y-56171384D01*
X120996466Y-56188557D01*
X121152989Y-56272221D01*
X121290186Y-56384814D01*
X121373448Y-56486271D01*
X121402778Y-56522009D01*
X121402779Y-56522011D01*
X121486443Y-56678533D01*
X121503616Y-56735147D01*
X121537963Y-56848373D01*
X121551000Y-56980742D01*
X121551000Y-57319257D01*
X121537963Y-57451626D01*
X121486443Y-57621466D01*
X121402778Y-57777991D01*
X121402777Y-57777992D01*
X121290186Y-57915186D01*
X121195251Y-57993096D01*
X121152991Y-58027778D01*
X121152989Y-58027779D01*
X120996467Y-58111443D01*
X120955734Y-58123799D01*
X120826627Y-58162963D01*
X120650000Y-58180359D01*
X120473374Y-58162963D01*
X120344267Y-58123799D01*
X120303534Y-58111443D01*
X120147012Y-58027779D01*
X120147010Y-58027778D01*
X120009816Y-57915186D01*
X120009812Y-57915183D01*
X119897222Y-57777992D01*
X119813557Y-57621467D01*
X119796384Y-57564853D01*
X119762037Y-57451627D01*
X119749000Y-57319258D01*
X119749000Y-56980743D01*
X119762037Y-56848374D01*
X119813557Y-56678535D01*
X119813557Y-56678534D01*
X119897221Y-56522011D01*
X120009814Y-56384814D01*
X120111271Y-56301552D01*
X120147009Y-56272222D01*
X120164913Y-56262652D01*
X120303533Y-56188557D01*
X120360147Y-56171384D01*
X120473373Y-56137037D01*
X120650000Y-56119641D01*
X120826626Y-56137037D01*
X120826626Y-56137037D01*
G37*
G36*
X115826626Y-56137037D02*
X115939852Y-56171384D01*
X115996466Y-56188557D01*
X116152989Y-56272221D01*
X116290186Y-56384814D01*
X116373448Y-56486271D01*
X116402778Y-56522009D01*
X116402779Y-56522011D01*
X116486443Y-56678533D01*
X116503616Y-56735147D01*
X116537963Y-56848373D01*
X116551000Y-56980742D01*
X116551000Y-57319257D01*
X116537963Y-57451626D01*
X116486443Y-57621466D01*
X116402778Y-57777991D01*
X116402777Y-57777992D01*
X116290186Y-57915186D01*
X116195251Y-57993096D01*
X116152991Y-58027778D01*
X116152989Y-58027779D01*
X115996467Y-58111443D01*
X115955734Y-58123799D01*
X115826627Y-58162963D01*
X115650000Y-58180359D01*
X115473374Y-58162963D01*
X115344267Y-58123799D01*
X115303534Y-58111443D01*
X115147012Y-58027779D01*
X115147010Y-58027778D01*
X115009816Y-57915186D01*
X115009812Y-57915183D01*
X114897222Y-57777992D01*
X114813557Y-57621467D01*
X114796384Y-57564853D01*
X114762037Y-57451627D01*
X114749000Y-57319258D01*
X114749000Y-56980743D01*
X114762037Y-56848374D01*
X114813557Y-56678535D01*
X114813557Y-56678534D01*
X114897221Y-56522011D01*
X115009814Y-56384814D01*
X115111271Y-56301552D01*
X115147009Y-56272222D01*
X115164913Y-56262652D01*
X115303533Y-56188557D01*
X115360147Y-56171384D01*
X115473373Y-56137037D01*
X115650000Y-56119641D01*
X115826626Y-56137037D01*
X115826626Y-56137037D01*
G37*
G36*
X113326626Y-56137037D02*
X113439852Y-56171384D01*
X113496466Y-56188557D01*
X113652989Y-56272221D01*
X113790186Y-56384814D01*
X113873448Y-56486271D01*
X113902778Y-56522009D01*
X113902779Y-56522011D01*
X113986443Y-56678533D01*
X114003616Y-56735147D01*
X114037963Y-56848373D01*
X114051000Y-56980742D01*
X114051000Y-57319257D01*
X114037963Y-57451626D01*
X113986443Y-57621466D01*
X113902778Y-57777991D01*
X113902777Y-57777992D01*
X113790186Y-57915186D01*
X113695251Y-57993096D01*
X113652991Y-58027778D01*
X113652989Y-58027779D01*
X113496467Y-58111443D01*
X113455734Y-58123799D01*
X113326627Y-58162963D01*
X113150000Y-58180359D01*
X112973374Y-58162963D01*
X112844267Y-58123799D01*
X112803534Y-58111443D01*
X112647012Y-58027779D01*
X112647010Y-58027778D01*
X112509816Y-57915186D01*
X112509812Y-57915183D01*
X112397222Y-57777992D01*
X112313557Y-57621467D01*
X112296384Y-57564853D01*
X112262037Y-57451627D01*
X112249000Y-57319258D01*
X112249000Y-56980743D01*
X112262037Y-56848374D01*
X112313557Y-56678535D01*
X112313557Y-56678534D01*
X112397221Y-56522011D01*
X112509814Y-56384814D01*
X112611271Y-56301552D01*
X112647009Y-56272222D01*
X112664913Y-56262652D01*
X112803533Y-56188557D01*
X112860147Y-56171384D01*
X112973373Y-56137037D01*
X113150000Y-56119641D01*
X113326626Y-56137037D01*
X113326626Y-56137037D01*
G37*
G36*
X130826626Y-56137037D02*
X130939852Y-56171384D01*
X130996466Y-56188557D01*
X131152989Y-56272221D01*
X131290186Y-56384814D01*
X131373448Y-56486271D01*
X131402778Y-56522009D01*
X131402779Y-56522011D01*
X131486443Y-56678533D01*
X131503616Y-56735147D01*
X131537963Y-56848373D01*
X131551000Y-56980742D01*
X131551000Y-57319257D01*
X131537963Y-57451626D01*
X131486443Y-57621466D01*
X131402778Y-57777991D01*
X131402777Y-57777992D01*
X131290186Y-57915186D01*
X131195251Y-57993096D01*
X131152991Y-58027778D01*
X131152989Y-58027779D01*
X130996467Y-58111443D01*
X130955734Y-58123799D01*
X130826627Y-58162963D01*
X130650000Y-58180359D01*
X130473374Y-58162963D01*
X130344267Y-58123799D01*
X130303534Y-58111443D01*
X130147012Y-58027779D01*
X130147010Y-58027778D01*
X130009816Y-57915186D01*
X130009812Y-57915183D01*
X129897222Y-57777992D01*
X129813557Y-57621467D01*
X129796384Y-57564853D01*
X129762037Y-57451627D01*
X129749000Y-57319258D01*
X129749000Y-56980743D01*
X129762037Y-56848374D01*
X129813557Y-56678535D01*
X129813557Y-56678534D01*
X129897221Y-56522011D01*
X130009814Y-56384814D01*
X130111271Y-56301552D01*
X130147009Y-56272222D01*
X130164913Y-56262652D01*
X130303533Y-56188557D01*
X130360147Y-56171384D01*
X130473373Y-56137037D01*
X130650000Y-56119641D01*
X130826626Y-56137037D01*
X130826626Y-56137037D01*
G37*
G36*
X140769959Y-56137037D02*
X140883185Y-56171384D01*
X140939799Y-56188557D01*
X141096322Y-56272221D01*
X141233519Y-56384814D01*
X141316781Y-56486271D01*
X141346111Y-56522009D01*
X141346112Y-56522011D01*
X141429776Y-56678533D01*
X141446949Y-56735147D01*
X141481296Y-56848373D01*
X141494333Y-56980742D01*
X141494333Y-57319257D01*
X141481296Y-57451626D01*
X141429776Y-57621466D01*
X141346111Y-57777991D01*
X141346110Y-57777992D01*
X141233519Y-57915186D01*
X141138584Y-57993096D01*
X141096324Y-58027778D01*
X141096322Y-58027779D01*
X140939800Y-58111443D01*
X140899067Y-58123799D01*
X140769960Y-58162963D01*
X140593333Y-58180359D01*
X140416707Y-58162963D01*
X140287600Y-58123799D01*
X140246867Y-58111443D01*
X140090345Y-58027779D01*
X140090343Y-58027778D01*
X139953149Y-57915186D01*
X139953145Y-57915183D01*
X139840555Y-57777992D01*
X139756890Y-57621467D01*
X139739717Y-57564853D01*
X139705370Y-57451627D01*
X139692333Y-57319258D01*
X139692333Y-56980743D01*
X139705370Y-56848374D01*
X139756890Y-56678535D01*
X139756890Y-56678534D01*
X139840554Y-56522011D01*
X139953147Y-56384814D01*
X140054604Y-56301552D01*
X140090342Y-56272222D01*
X140108246Y-56262652D01*
X140246866Y-56188557D01*
X140303480Y-56171384D01*
X140416706Y-56137037D01*
X140593333Y-56119641D01*
X140769959Y-56137037D01*
X140769959Y-56137037D01*
G37*
G36*
X155713292Y-56137037D02*
X155826518Y-56171384D01*
X155883132Y-56188557D01*
X156039655Y-56272221D01*
X156176852Y-56384814D01*
X156260114Y-56486271D01*
X156289444Y-56522009D01*
X156289445Y-56522011D01*
X156373109Y-56678533D01*
X156390282Y-56735147D01*
X156424629Y-56848373D01*
X156437666Y-56980742D01*
X156437666Y-57319257D01*
X156424629Y-57451626D01*
X156373109Y-57621466D01*
X156289444Y-57777991D01*
X156289443Y-57777992D01*
X156176852Y-57915186D01*
X156081917Y-57993096D01*
X156039657Y-58027778D01*
X156039655Y-58027779D01*
X155883133Y-58111443D01*
X155842400Y-58123799D01*
X155713293Y-58162963D01*
X155536666Y-58180359D01*
X155360040Y-58162963D01*
X155230933Y-58123799D01*
X155190200Y-58111443D01*
X155033678Y-58027779D01*
X155033676Y-58027778D01*
X154896482Y-57915186D01*
X154896478Y-57915183D01*
X154783888Y-57777992D01*
X154700223Y-57621467D01*
X154683050Y-57564853D01*
X154648703Y-57451627D01*
X154635666Y-57319258D01*
X154635666Y-56980743D01*
X154648703Y-56848374D01*
X154700223Y-56678535D01*
X154700223Y-56678534D01*
X154783887Y-56522011D01*
X154896480Y-56384814D01*
X154997937Y-56301552D01*
X155033675Y-56272222D01*
X155051579Y-56262652D01*
X155190199Y-56188557D01*
X155246813Y-56171384D01*
X155360039Y-56137037D01*
X155536666Y-56119641D01*
X155713292Y-56137037D01*
X155713292Y-56137037D01*
G37*
G36*
X108908600Y-56127989D02*
X108941649Y-56138014D01*
X108972106Y-56154294D01*
X108998799Y-56176201D01*
X109020706Y-56202894D01*
X109036986Y-56233351D01*
X109047011Y-56266400D01*
X109051000Y-56306904D01*
X109051000Y-57993096D01*
X109047011Y-58033600D01*
X109036986Y-58066649D01*
X109020706Y-58097106D01*
X108998799Y-58123799D01*
X108972106Y-58145706D01*
X108941649Y-58161986D01*
X108908600Y-58172011D01*
X108868096Y-58176000D01*
X107431904Y-58176000D01*
X107391400Y-58172011D01*
X107358351Y-58161986D01*
X107327894Y-58145706D01*
X107301201Y-58123799D01*
X107279294Y-58097106D01*
X107263014Y-58066649D01*
X107252989Y-58033600D01*
X107249000Y-57993096D01*
X107249000Y-56306904D01*
X107252989Y-56266400D01*
X107263014Y-56233351D01*
X107279294Y-56202894D01*
X107301201Y-56176201D01*
X107327894Y-56154294D01*
X107358351Y-56138014D01*
X107391400Y-56127989D01*
X107431904Y-56124000D01*
X108868096Y-56124000D01*
X108908600Y-56127989D01*
X108908600Y-56127989D01*
G37*
G36*
X151295266Y-56127989D02*
X151328315Y-56138014D01*
X151358772Y-56154294D01*
X151385465Y-56176201D01*
X151407372Y-56202894D01*
X151423652Y-56233351D01*
X151433677Y-56266400D01*
X151437666Y-56306904D01*
X151437666Y-57993096D01*
X151433677Y-58033600D01*
X151423652Y-58066649D01*
X151407372Y-58097106D01*
X151385465Y-58123799D01*
X151358772Y-58145706D01*
X151328315Y-58161986D01*
X151295266Y-58172011D01*
X151254762Y-58176000D01*
X149818570Y-58176000D01*
X149778066Y-58172011D01*
X149745017Y-58161986D01*
X149714560Y-58145706D01*
X149687867Y-58123799D01*
X149665960Y-58097106D01*
X149649680Y-58066649D01*
X149639655Y-58033600D01*
X149635666Y-57993096D01*
X149635666Y-56306904D01*
X149639655Y-56266400D01*
X149649680Y-56233351D01*
X149665960Y-56202894D01*
X149687867Y-56176201D01*
X149714560Y-56154294D01*
X149745017Y-56138014D01*
X149778066Y-56127989D01*
X149818570Y-56124000D01*
X151254762Y-56124000D01*
X151295266Y-56127989D01*
X151295266Y-56127989D01*
G37*
G36*
X163738600Y-56127989D02*
X163771649Y-56138014D01*
X163802106Y-56154294D01*
X163828799Y-56176201D01*
X163850706Y-56202894D01*
X163866986Y-56233351D01*
X163877011Y-56266400D01*
X163881000Y-56306904D01*
X163881000Y-57993096D01*
X163877011Y-58033600D01*
X163866986Y-58066649D01*
X163850706Y-58097106D01*
X163828799Y-58123799D01*
X163802106Y-58145706D01*
X163771649Y-58161986D01*
X163738600Y-58172011D01*
X163698096Y-58176000D01*
X162261904Y-58176000D01*
X162221400Y-58172011D01*
X162188351Y-58161986D01*
X162157894Y-58145706D01*
X162131201Y-58123799D01*
X162109294Y-58097106D01*
X162093014Y-58066649D01*
X162082989Y-58033600D01*
X162079000Y-57993096D01*
X162079000Y-56306904D01*
X162082989Y-56266400D01*
X162093014Y-56233351D01*
X162109294Y-56202894D01*
X162131201Y-56176201D01*
X162157894Y-56154294D01*
X162188351Y-56138014D01*
X162221400Y-56127989D01*
X162261904Y-56124000D01*
X163698096Y-56124000D01*
X163738600Y-56127989D01*
X163738600Y-56127989D01*
G37*
G36*
X138851933Y-56127989D02*
X138884982Y-56138014D01*
X138915439Y-56154294D01*
X138942132Y-56176201D01*
X138964039Y-56202894D01*
X138980319Y-56233351D01*
X138990344Y-56266400D01*
X138994333Y-56306904D01*
X138994333Y-57993096D01*
X138990344Y-58033600D01*
X138980319Y-58066649D01*
X138964039Y-58097106D01*
X138942132Y-58123799D01*
X138915439Y-58145706D01*
X138884982Y-58161986D01*
X138851933Y-58172011D01*
X138811429Y-58176000D01*
X137375237Y-58176000D01*
X137334733Y-58172011D01*
X137301684Y-58161986D01*
X137271227Y-58145706D01*
X137244534Y-58123799D01*
X137222627Y-58097106D01*
X137206347Y-58066649D01*
X137196322Y-58033600D01*
X137192333Y-57993096D01*
X137192333Y-56306904D01*
X137196322Y-56266400D01*
X137206347Y-56233351D01*
X137222627Y-56202894D01*
X137244534Y-56176201D01*
X137271227Y-56154294D01*
X137301684Y-56138014D01*
X137334733Y-56127989D01*
X137375237Y-56124000D01*
X138811429Y-56124000D01*
X138851933Y-56127989D01*
X138851933Y-56127989D01*
G37*
G36*
X107399999Y-51949737D02*
X107414534Y-51954147D01*
X107427717Y-51959607D01*
X107451751Y-51964387D01*
X107476255Y-51964387D01*
X107500288Y-51959606D01*
X107522927Y-51950228D01*
X107524765Y-51949000D01*
X108756053Y-51949000D01*
X108768165Y-51955474D01*
X108791614Y-51962587D01*
X108816000Y-51964989D01*
X108840386Y-51962587D01*
X108858564Y-51956083D01*
X108858608Y-51956227D01*
X108880001Y-51949737D01*
X108896140Y-51948148D01*
X109433860Y-51948148D01*
X109452198Y-51949954D01*
X109464450Y-51950556D01*
X109482869Y-51950556D01*
X109505149Y-51952750D01*
X109589236Y-51969476D01*
X109610655Y-51975974D01*
X109689871Y-52008785D01*
X109709607Y-52019335D01*
X109780897Y-52066969D01*
X109798208Y-52081176D01*
X109858824Y-52141792D01*
X109873031Y-52159103D01*
X109920665Y-52230393D01*
X109931215Y-52250129D01*
X109964026Y-52329345D01*
X109970524Y-52350764D01*
X109987250Y-52434851D01*
X109989444Y-52457131D01*
X109989444Y-52475550D01*
X109990046Y-52487802D01*
X109991852Y-52506140D01*
X109991852Y-52993861D01*
X109990046Y-53012198D01*
X109989444Y-53024450D01*
X109989444Y-53042869D01*
X109987250Y-53065149D01*
X109970524Y-53149236D01*
X109964026Y-53170655D01*
X109931215Y-53249871D01*
X109920665Y-53269607D01*
X109873031Y-53340897D01*
X109858824Y-53358208D01*
X109798208Y-53418824D01*
X109780897Y-53433031D01*
X109709607Y-53480665D01*
X109689871Y-53491215D01*
X109610655Y-53524026D01*
X109589236Y-53530524D01*
X109505149Y-53547250D01*
X109482869Y-53549444D01*
X109464450Y-53549444D01*
X109452198Y-53550046D01*
X109433861Y-53551852D01*
X108896140Y-53551852D01*
X108880001Y-53550263D01*
X108865466Y-53545853D01*
X108852283Y-53540393D01*
X108828249Y-53535613D01*
X108803745Y-53535613D01*
X108779712Y-53540394D01*
X108757073Y-53549772D01*
X108755235Y-53551000D01*
X107523947Y-53551000D01*
X107511835Y-53544526D01*
X107488386Y-53537413D01*
X107464000Y-53535011D01*
X107439614Y-53537413D01*
X107421436Y-53543917D01*
X107421392Y-53543773D01*
X107399999Y-53550263D01*
X107383860Y-53551852D01*
X106846139Y-53551852D01*
X106827802Y-53550046D01*
X106815550Y-53549444D01*
X106797131Y-53549444D01*
X106774851Y-53547250D01*
X106690764Y-53530524D01*
X106669345Y-53524026D01*
X106590129Y-53491215D01*
X106570393Y-53480665D01*
X106499103Y-53433031D01*
X106481792Y-53418824D01*
X106421176Y-53358208D01*
X106406969Y-53340897D01*
X106359335Y-53269607D01*
X106348785Y-53249871D01*
X106315974Y-53170655D01*
X106309476Y-53149236D01*
X106292750Y-53065149D01*
X106290556Y-53042869D01*
X106290556Y-53024450D01*
X106289954Y-53012198D01*
X106288148Y-52993861D01*
X106288148Y-52506140D01*
X106289954Y-52487802D01*
X106290556Y-52475550D01*
X106290556Y-52457131D01*
X106292750Y-52434851D01*
X106309476Y-52350764D01*
X106315974Y-52329345D01*
X106348785Y-52250129D01*
X106359335Y-52230393D01*
X106406969Y-52159103D01*
X106421176Y-52141792D01*
X106481792Y-52081176D01*
X106499103Y-52066969D01*
X106570393Y-52019335D01*
X106590129Y-52008785D01*
X106669345Y-51975974D01*
X106690764Y-51969476D01*
X106774851Y-51952750D01*
X106797131Y-51950556D01*
X106815550Y-51950556D01*
X106827802Y-51949954D01*
X106846140Y-51948148D01*
X107383860Y-51948148D01*
X107399999Y-51949737D01*
X107399999Y-51949737D01*
G37*
G36*
X184779999Y-51664737D02*
X184794534Y-51669147D01*
X184807717Y-51674607D01*
X184831751Y-51679387D01*
X184856255Y-51679387D01*
X184880288Y-51674606D01*
X184902927Y-51665228D01*
X184904765Y-51664000D01*
X186136053Y-51664000D01*
X186148165Y-51670474D01*
X186171614Y-51677587D01*
X186196000Y-51679989D01*
X186220386Y-51677587D01*
X186238564Y-51671083D01*
X186238608Y-51671227D01*
X186260001Y-51664737D01*
X186276140Y-51663148D01*
X186813860Y-51663148D01*
X186832198Y-51664954D01*
X186844450Y-51665556D01*
X186862869Y-51665556D01*
X186885149Y-51667750D01*
X186969236Y-51684476D01*
X186990655Y-51690974D01*
X187069871Y-51723785D01*
X187089607Y-51734335D01*
X187160897Y-51781969D01*
X187178208Y-51796176D01*
X187238824Y-51856792D01*
X187253031Y-51874103D01*
X187300665Y-51945393D01*
X187311215Y-51965129D01*
X187344026Y-52044345D01*
X187350524Y-52065764D01*
X187367250Y-52149851D01*
X187369444Y-52172131D01*
X187369444Y-52190550D01*
X187370046Y-52202802D01*
X187371852Y-52221140D01*
X187371852Y-52708861D01*
X187370046Y-52727198D01*
X187369444Y-52739450D01*
X187369444Y-52757869D01*
X187367250Y-52780149D01*
X187350524Y-52864236D01*
X187344026Y-52885655D01*
X187311215Y-52964871D01*
X187300665Y-52984607D01*
X187253031Y-53055897D01*
X187238824Y-53073208D01*
X187178208Y-53133824D01*
X187160897Y-53148031D01*
X187089607Y-53195665D01*
X187069871Y-53206215D01*
X186990655Y-53239026D01*
X186969236Y-53245524D01*
X186885149Y-53262250D01*
X186862869Y-53264444D01*
X186844450Y-53264444D01*
X186832198Y-53265046D01*
X186813861Y-53266852D01*
X186276140Y-53266852D01*
X186260001Y-53265263D01*
X186245466Y-53260853D01*
X186232283Y-53255393D01*
X186208249Y-53250613D01*
X186183745Y-53250613D01*
X186159712Y-53255394D01*
X186137073Y-53264772D01*
X186135235Y-53266000D01*
X184903947Y-53266000D01*
X184891835Y-53259526D01*
X184868386Y-53252413D01*
X184844000Y-53250011D01*
X184819614Y-53252413D01*
X184801436Y-53258917D01*
X184801392Y-53258773D01*
X184779999Y-53265263D01*
X184763860Y-53266852D01*
X184226139Y-53266852D01*
X184207802Y-53265046D01*
X184195550Y-53264444D01*
X184177131Y-53264444D01*
X184154851Y-53262250D01*
X184070764Y-53245524D01*
X184049345Y-53239026D01*
X183970129Y-53206215D01*
X183950393Y-53195665D01*
X183879103Y-53148031D01*
X183861792Y-53133824D01*
X183801176Y-53073208D01*
X183786969Y-53055897D01*
X183739335Y-52984607D01*
X183728785Y-52964871D01*
X183695974Y-52885655D01*
X183689476Y-52864236D01*
X183672750Y-52780149D01*
X183670556Y-52757869D01*
X183670556Y-52739450D01*
X183669954Y-52727198D01*
X183668148Y-52708861D01*
X183668148Y-52221140D01*
X183669954Y-52202802D01*
X183670556Y-52190550D01*
X183670556Y-52172131D01*
X183672750Y-52149851D01*
X183689476Y-52065764D01*
X183695974Y-52044345D01*
X183728785Y-51965129D01*
X183739335Y-51945393D01*
X183786969Y-51874103D01*
X183801176Y-51856792D01*
X183861792Y-51796176D01*
X183879103Y-51781969D01*
X183950393Y-51734335D01*
X183970129Y-51723785D01*
X184049345Y-51690974D01*
X184070764Y-51684476D01*
X184154851Y-51667750D01*
X184177131Y-51665556D01*
X184195550Y-51665556D01*
X184207802Y-51664954D01*
X184226140Y-51663148D01*
X184763860Y-51663148D01*
X184779999Y-51664737D01*
X184779999Y-51664737D01*
G37*
M02*
