M48
;DRILL file {KiCad (5.0.1)-3} date 4/19/2020 3:50:45 PM
;FORMAT={-:-/ absolute / inch / decimal}
FMAT,2
INCH,TZ
T1C0.0157
T2C0.0374
%
G90
G05
M72
T1
X4.1343Y-2.0232
X4.1839Y-2.1815
X4.1843Y-2.3594
X4.3925Y-2.0232
X4.4646Y-3.6374
X4.5134Y-2.3634
X4.5181Y-2.7882
X4.5276Y-3.3831
X4.5276Y-3.5815
X4.6276Y-2.6157
X4.7378Y-3.0551
X4.739Y-2.5878
X4.7602Y-3.1996
X4.7882Y-2.3488
X4.9272Y-2.7535
X4.9693Y-2.3358
X5.0268Y-2.3724
X5.1236Y-2.8142
X5.3165Y-2.7181
X5.5402Y-3.1654
X5.5433Y-3.2323
X5.678Y-2.3724
X5.6795Y-3.237
X5.7091Y-2.1815
X5.7098Y-2.2492
X5.7244Y-2.3358
X5.7276Y-3.4573
X5.7276Y-3.5073
X5.8382Y-3.4573
X5.8382Y-3.5073
X5.8575Y-2.3492
X5.8878Y-3.1756
X5.8917Y-2.6866
X5.9776Y-3.2035
X6.0303Y-2.7594
X6.1689Y-2.365
X6.215Y-2.6047
X6.224Y-2.7921
X6.3177Y-2.6067
X6.7268Y-2.5831
X6.7969Y-2.8067
X6.8437Y-2.7799
X6.8654Y-3.174
X6.872Y-2.7421
X6.9531Y-2.3803
X7.0118Y-2.8075
X7.0276Y-3.3831
X7.0276Y-3.5815
X7.0307Y-3.0319
X7.0335Y-2.5925
X7.0406Y-2.7469
X7.0433Y-3.174
X7.1602Y-2.0232
X7.26Y-3.03
X7.3051Y-2.7795
X7.3669Y-3.2126
X7.4606Y-2.0232
T2
X4.2579Y-2.677
X4.3563Y-2.677
X4.4547Y-2.677
X4.5531Y-2.677
X5.9665Y-3.1039
X6.0649Y-3.1039
X6.1633Y-3.1039
X6.2617Y-3.1039
X4.2579Y-3.1039
X4.3563Y-3.1039
X4.4547Y-3.1039
X4.5531Y-3.1039
X6.4165Y-2.25
X6.515Y-2.25
X6.6134Y-2.25
X6.7118Y-2.25
X6.8102Y-2.25
X6.9087Y-2.25
X7.0071Y-2.25
X7.1055Y-2.25
X7.2039Y-2.25
X7.3024Y-2.25
X7.1055Y-3.1039
X7.2039Y-3.1039
X7.3024Y-3.1039
X5.9665Y-2.677
X6.0649Y-2.677
X6.1633Y-2.677
X6.2617Y-2.677
X5.4367Y-2.25
X5.5352Y-2.25
X5.6336Y-2.25
X7.1055Y-2.677
X7.2039Y-2.677
X7.3024Y-2.677
X6.536Y-2.677
X6.6344Y-2.677
X6.7328Y-2.677
X6.8313Y-2.677
X5.3969Y-3.1039
X5.4954Y-3.1039
X5.5938Y-3.1039
X5.6922Y-3.1039
X5.9266Y-2.25
X6.0251Y-2.25
X6.1235Y-2.25
X6.536Y-3.1039
X6.6344Y-3.1039
X6.7328Y-3.1039
X6.8313Y-3.1039
X4.2579Y-2.25
X4.3563Y-2.25
X4.4547Y-2.25
X4.5531Y-2.25
X4.6516Y-2.25
X4.75Y-2.25
X4.8484Y-2.25
X4.9469Y-2.25
X5.0453Y-2.25
X5.1437Y-2.25
X5.3969Y-2.677
X5.4954Y-2.677
X5.5938Y-2.677
X5.6922Y-2.677
X4.8274Y-2.677
X4.9258Y-2.677
X5.0243Y-2.677
X5.1227Y-2.677
X4.8274Y-3.1039
X4.9258Y-3.1039
X5.0243Y-3.1039
X5.1227Y-3.1039
T0
M30
