G04 #@! TF.GenerationSoftware,KiCad,Pcbnew,(5.0.1)-3*
G04 #@! TF.CreationDate,2020-04-19T15:50:42-04:00*
G04 #@! TF.ProjectId,frontPanel_100mm,66726F6E7450616E656C5F3130306D6D,rev?*
G04 #@! TF.SameCoordinates,Original*
G04 #@! TF.FileFunction,Legend,Bot*
G04 #@! TF.FilePolarity,Positive*
%FSLAX46Y46*%
G04 Gerber Fmt 4.6, Leading zero omitted, Abs format (unit mm)*
G04 Created by KiCad (PCBNEW (5.0.1)-3) date 4/19/2020 3:50:42 PM*
%MOMM*%
%LPD*%
G01*
G04 APERTURE LIST*
%ADD10C,0.150000*%
%ADD11C,0.120000*%
%ADD12C,0.010000*%
G04 APERTURE END LIST*
D10*
X109615238Y-53942380D02*
X110091428Y-53942380D01*
X110139047Y-54418571D01*
X110091428Y-54370952D01*
X109996190Y-54323333D01*
X109758095Y-54323333D01*
X109662857Y-54370952D01*
X109615238Y-54418571D01*
X109567619Y-54513809D01*
X109567619Y-54751904D01*
X109615238Y-54847142D01*
X109662857Y-54894761D01*
X109758095Y-54942380D01*
X109996190Y-54942380D01*
X110091428Y-54894761D01*
X110139047Y-54847142D01*
X109234285Y-54275714D02*
X108996190Y-54942380D01*
X108758095Y-54275714D01*
X107710476Y-53942380D02*
X107091428Y-53942380D01*
X107424761Y-54323333D01*
X107281904Y-54323333D01*
X107186666Y-54370952D01*
X107139047Y-54418571D01*
X107091428Y-54513809D01*
X107091428Y-54751904D01*
X107139047Y-54847142D01*
X107186666Y-54894761D01*
X107281904Y-54942380D01*
X107567619Y-54942380D01*
X107662857Y-54894761D01*
X107710476Y-54847142D01*
X106662857Y-54847142D02*
X106615238Y-54894761D01*
X106662857Y-54942380D01*
X106710476Y-54894761D01*
X106662857Y-54847142D01*
X106662857Y-54942380D01*
X106281904Y-53942380D02*
X105662857Y-53942380D01*
X105996190Y-54323333D01*
X105853333Y-54323333D01*
X105758095Y-54370952D01*
X105710476Y-54418571D01*
X105662857Y-54513809D01*
X105662857Y-54751904D01*
X105710476Y-54847142D01*
X105758095Y-54894761D01*
X105853333Y-54942380D01*
X106139047Y-54942380D01*
X106234285Y-54894761D01*
X106281904Y-54847142D01*
X105329523Y-54275714D02*
X105091428Y-54942380D01*
X104853333Y-54275714D01*
X188396666Y-54222380D02*
X187777619Y-54222380D01*
X188110952Y-54603333D01*
X187968095Y-54603333D01*
X187872857Y-54650952D01*
X187825238Y-54698571D01*
X187777619Y-54793809D01*
X187777619Y-55031904D01*
X187825238Y-55127142D01*
X187872857Y-55174761D01*
X187968095Y-55222380D01*
X188253809Y-55222380D01*
X188349047Y-55174761D01*
X188396666Y-55127142D01*
X187349047Y-55127142D02*
X187301428Y-55174761D01*
X187349047Y-55222380D01*
X187396666Y-55174761D01*
X187349047Y-55127142D01*
X187349047Y-55222380D01*
X186968095Y-54222380D02*
X186349047Y-54222380D01*
X186682380Y-54603333D01*
X186539523Y-54603333D01*
X186444285Y-54650952D01*
X186396666Y-54698571D01*
X186349047Y-54793809D01*
X186349047Y-55031904D01*
X186396666Y-55127142D01*
X186444285Y-55174761D01*
X186539523Y-55222380D01*
X186825238Y-55222380D01*
X186920476Y-55174761D01*
X186968095Y-55127142D01*
X186015714Y-54555714D02*
X185777619Y-55222380D01*
X185539523Y-54555714D01*
X183920476Y-54222380D02*
X184396666Y-54222380D01*
X184444285Y-54698571D01*
X184396666Y-54650952D01*
X184301428Y-54603333D01*
X184063333Y-54603333D01*
X183968095Y-54650952D01*
X183920476Y-54698571D01*
X183872857Y-54793809D01*
X183872857Y-55031904D01*
X183920476Y-55127142D01*
X183968095Y-55174761D01*
X184063333Y-55222380D01*
X184301428Y-55222380D01*
X184396666Y-55174761D01*
X184444285Y-55127142D01*
X183539523Y-54555714D02*
X183301428Y-55222380D01*
X183063333Y-54555714D01*
X171580000Y-76860595D02*
X171627619Y-76955833D01*
X171627619Y-77098690D01*
X171580000Y-77241547D01*
X171484761Y-77336785D01*
X171389523Y-77384404D01*
X171199047Y-77432023D01*
X171056190Y-77432023D01*
X170865714Y-77384404D01*
X170770476Y-77336785D01*
X170675238Y-77241547D01*
X170627619Y-77098690D01*
X170627619Y-77003452D01*
X170675238Y-76860595D01*
X170722857Y-76812976D01*
X171056190Y-76812976D01*
X171056190Y-77003452D01*
X171675238Y-75670119D02*
X170389523Y-76527261D01*
X171627619Y-75479642D02*
X170627619Y-75146309D01*
X171627619Y-74812976D01*
X171620000Y-65914643D02*
X171667619Y-66009881D01*
X171667619Y-66152738D01*
X171620000Y-66295595D01*
X171524761Y-66390833D01*
X171429523Y-66438452D01*
X171239047Y-66486071D01*
X171096190Y-66486071D01*
X170905714Y-66438452D01*
X170810476Y-66390833D01*
X170715238Y-66295595D01*
X170667619Y-66152738D01*
X170667619Y-66057500D01*
X170715238Y-65914643D01*
X170762857Y-65867024D01*
X171096190Y-65867024D01*
X171096190Y-66057500D01*
X171715238Y-64724167D02*
X170429523Y-65581309D01*
X171667619Y-64533690D02*
X170667619Y-64200357D01*
X171667619Y-63867024D01*
X168433333Y-66486071D02*
X168433333Y-66009881D01*
X168147619Y-66581309D02*
X169147619Y-66247976D01*
X168147619Y-65914643D01*
X169147619Y-65724167D02*
X169147619Y-65152738D01*
X168147619Y-65438452D02*
X169147619Y-65438452D01*
X169147619Y-64628928D02*
X169147619Y-64438452D01*
X169100000Y-64343214D01*
X169004761Y-64247976D01*
X168814285Y-64200357D01*
X168480952Y-64200357D01*
X168290476Y-64247976D01*
X168195238Y-64343214D01*
X168147619Y-64438452D01*
X168147619Y-64628928D01*
X168195238Y-64724167D01*
X168290476Y-64819405D01*
X168480952Y-64867024D01*
X168814285Y-64867024D01*
X169004761Y-64819405D01*
X169100000Y-64724167D01*
X169147619Y-64628928D01*
X168147619Y-63247976D02*
X168147619Y-63819405D01*
X168147619Y-63533690D02*
X169147619Y-63533690D01*
X169004761Y-63628928D01*
X168909523Y-63724167D01*
X168861904Y-63819405D01*
X168363333Y-77432023D02*
X168363333Y-76955833D01*
X168077619Y-77527261D02*
X169077619Y-77193928D01*
X168077619Y-76860595D01*
X169077619Y-76670119D02*
X169077619Y-76098690D01*
X168077619Y-76384404D02*
X169077619Y-76384404D01*
X169077619Y-75574880D02*
X169077619Y-75384404D01*
X169030000Y-75289166D01*
X168934761Y-75193928D01*
X168744285Y-75146309D01*
X168410952Y-75146309D01*
X168220476Y-75193928D01*
X168125238Y-75289166D01*
X168077619Y-75384404D01*
X168077619Y-75574880D01*
X168125238Y-75670119D01*
X168220476Y-75765357D01*
X168410952Y-75812976D01*
X168744285Y-75812976D01*
X168934761Y-75765357D01*
X169030000Y-75670119D01*
X169077619Y-75574880D01*
X168982380Y-74765357D02*
X169030000Y-74717738D01*
X169077619Y-74622500D01*
X169077619Y-74384404D01*
X169030000Y-74289166D01*
X168982380Y-74241547D01*
X168887142Y-74193928D01*
X168791904Y-74193928D01*
X168649047Y-74241547D01*
X168077619Y-74812976D01*
X168077619Y-74193928D01*
X182587619Y-76860595D02*
X182587619Y-77432023D01*
X182587619Y-77146309D02*
X183587619Y-77146309D01*
X183444761Y-77241547D01*
X183349523Y-77336785D01*
X183301904Y-77432023D01*
X183587619Y-76527261D02*
X182587619Y-76289166D01*
X183301904Y-76098690D01*
X182587619Y-75908214D01*
X183587619Y-75670119D01*
X182587619Y-75289166D02*
X183587619Y-75289166D01*
X182587619Y-74241547D02*
X183063809Y-74574880D01*
X182587619Y-74812976D02*
X183587619Y-74812976D01*
X183587619Y-74432023D01*
X183540000Y-74336785D01*
X183492380Y-74289166D01*
X183397142Y-74241547D01*
X183254285Y-74241547D01*
X183159047Y-74289166D01*
X183111428Y-74336785D01*
X183063809Y-74432023D01*
X183063809Y-74812976D01*
X183111428Y-73812976D02*
X183111428Y-73479642D01*
X182587619Y-73336785D02*
X182587619Y-73812976D01*
X183587619Y-73812976D01*
X183587619Y-73336785D01*
X125033333Y-77432023D02*
X125033333Y-76955833D01*
X124747619Y-77527261D02*
X125747619Y-77193928D01*
X124747619Y-76860595D01*
X124747619Y-76527261D02*
X125747619Y-76527261D01*
X124747619Y-76051071D02*
X125747619Y-76051071D01*
X124747619Y-75479642D01*
X125747619Y-75479642D01*
X125747619Y-75098690D02*
X125747619Y-74479642D01*
X125366666Y-74812976D01*
X125366666Y-74670119D01*
X125319047Y-74574880D01*
X125271428Y-74527261D01*
X125176190Y-74479642D01*
X124938095Y-74479642D01*
X124842857Y-74527261D01*
X124795238Y-74574880D01*
X124747619Y-74670119D01*
X124747619Y-74955833D01*
X124795238Y-75051071D01*
X124842857Y-75098690D01*
X127473333Y-77432023D02*
X127473333Y-76955833D01*
X127187619Y-77527261D02*
X128187619Y-77193928D01*
X127187619Y-76860595D01*
X127187619Y-76527261D02*
X128187619Y-76527261D01*
X127187619Y-76051071D02*
X128187619Y-76051071D01*
X127187619Y-75479642D01*
X128187619Y-75479642D01*
X127854285Y-74574880D02*
X127187619Y-74574880D01*
X128235238Y-74812976D02*
X127520952Y-75051071D01*
X127520952Y-74432023D01*
X122503333Y-77432023D02*
X122503333Y-76955833D01*
X122217619Y-77527261D02*
X123217619Y-77193928D01*
X122217619Y-76860595D01*
X123217619Y-76670119D02*
X122217619Y-76336785D01*
X123217619Y-76003452D01*
X122598571Y-75670119D02*
X122598571Y-74908214D01*
X122217619Y-75289166D02*
X122979523Y-75289166D01*
X125093333Y-66486071D02*
X125093333Y-66009881D01*
X124807619Y-66581309D02*
X125807619Y-66247976D01*
X124807619Y-65914643D01*
X124807619Y-65581309D02*
X125807619Y-65581309D01*
X124807619Y-65105119D02*
X125807619Y-65105119D01*
X124807619Y-64533690D01*
X125807619Y-64533690D01*
X125807619Y-64152738D02*
X125807619Y-63533690D01*
X125426666Y-63867024D01*
X125426666Y-63724167D01*
X125379047Y-63628928D01*
X125331428Y-63581309D01*
X125236190Y-63533690D01*
X124998095Y-63533690D01*
X124902857Y-63581309D01*
X124855238Y-63628928D01*
X124807619Y-63724167D01*
X124807619Y-64009881D01*
X124855238Y-64105119D01*
X124902857Y-64152738D01*
X122563333Y-66486071D02*
X122563333Y-66009881D01*
X122277619Y-66581309D02*
X123277619Y-66247976D01*
X122277619Y-65914643D01*
X123277619Y-65724167D02*
X122277619Y-65390833D01*
X123277619Y-65057500D01*
X122658571Y-64724167D02*
X122658571Y-63962262D01*
X122277619Y-64343214D02*
X123039523Y-64343214D01*
X127533333Y-66486071D02*
X127533333Y-66009881D01*
X127247619Y-66581309D02*
X128247619Y-66247976D01*
X127247619Y-65914643D01*
X127247619Y-65581309D02*
X128247619Y-65581309D01*
X127247619Y-65105119D02*
X128247619Y-65105119D01*
X127247619Y-64533690D01*
X128247619Y-64533690D01*
X127914285Y-63628928D02*
X127247619Y-63628928D01*
X128295238Y-63867024D02*
X127580952Y-64105119D01*
X127580952Y-63486071D01*
X153953333Y-77432023D02*
X153953333Y-76955833D01*
X153667619Y-77527261D02*
X154667619Y-77193928D01*
X153667619Y-76860595D01*
X154667619Y-76336785D02*
X154667619Y-76146309D01*
X154620000Y-76051071D01*
X154524761Y-75955833D01*
X154334285Y-75908214D01*
X154000952Y-75908214D01*
X153810476Y-75955833D01*
X153715238Y-76051071D01*
X153667619Y-76146309D01*
X153667619Y-76336785D01*
X153715238Y-76432023D01*
X153810476Y-76527261D01*
X154000952Y-76574880D01*
X154334285Y-76574880D01*
X154524761Y-76527261D01*
X154620000Y-76432023D01*
X154667619Y-76336785D01*
X154667619Y-75479642D02*
X153858095Y-75479642D01*
X153762857Y-75432023D01*
X153715238Y-75384404D01*
X153667619Y-75289166D01*
X153667619Y-75098690D01*
X153715238Y-75003452D01*
X153762857Y-74955833D01*
X153858095Y-74908214D01*
X154667619Y-74908214D01*
X154667619Y-74574880D02*
X154667619Y-74003452D01*
X153667619Y-74289166D02*
X154667619Y-74289166D01*
X154572380Y-73717738D02*
X154620000Y-73670119D01*
X154667619Y-73574880D01*
X154667619Y-73336785D01*
X154620000Y-73241547D01*
X154572380Y-73193928D01*
X154477142Y-73146309D01*
X154381904Y-73146309D01*
X154239047Y-73193928D01*
X153667619Y-73765357D01*
X153667619Y-73146309D01*
X151423333Y-77432023D02*
X151423333Y-76955833D01*
X151137619Y-77527261D02*
X152137619Y-77193928D01*
X151137619Y-76860595D01*
X152137619Y-76336785D02*
X152137619Y-76146309D01*
X152090000Y-76051071D01*
X151994761Y-75955833D01*
X151804285Y-75908214D01*
X151470952Y-75908214D01*
X151280476Y-75955833D01*
X151185238Y-76051071D01*
X151137619Y-76146309D01*
X151137619Y-76336785D01*
X151185238Y-76432023D01*
X151280476Y-76527261D01*
X151470952Y-76574880D01*
X151804285Y-76574880D01*
X151994761Y-76527261D01*
X152090000Y-76432023D01*
X152137619Y-76336785D01*
X152137619Y-75479642D02*
X151328095Y-75479642D01*
X151232857Y-75432023D01*
X151185238Y-75384404D01*
X151137619Y-75289166D01*
X151137619Y-75098690D01*
X151185238Y-75003452D01*
X151232857Y-74955833D01*
X151328095Y-74908214D01*
X152137619Y-74908214D01*
X152137619Y-74574880D02*
X152137619Y-74003452D01*
X151137619Y-74289166D02*
X152137619Y-74289166D01*
X151137619Y-73146309D02*
X151137619Y-73717738D01*
X151137619Y-73432023D02*
X152137619Y-73432023D01*
X151994761Y-73527261D01*
X151899523Y-73622500D01*
X151851904Y-73717738D01*
X156393333Y-77432023D02*
X156393333Y-76955833D01*
X156107619Y-77527261D02*
X157107619Y-77193928D01*
X156107619Y-76860595D01*
X157107619Y-76336785D02*
X157107619Y-76146309D01*
X157060000Y-76051071D01*
X156964761Y-75955833D01*
X156774285Y-75908214D01*
X156440952Y-75908214D01*
X156250476Y-75955833D01*
X156155238Y-76051071D01*
X156107619Y-76146309D01*
X156107619Y-76336785D01*
X156155238Y-76432023D01*
X156250476Y-76527261D01*
X156440952Y-76574880D01*
X156774285Y-76574880D01*
X156964761Y-76527261D01*
X157060000Y-76432023D01*
X157107619Y-76336785D01*
X157107619Y-75479642D02*
X156298095Y-75479642D01*
X156202857Y-75432023D01*
X156155238Y-75384404D01*
X156107619Y-75289166D01*
X156107619Y-75098690D01*
X156155238Y-75003452D01*
X156202857Y-74955833D01*
X156298095Y-74908214D01*
X157107619Y-74908214D01*
X157107619Y-74574880D02*
X157107619Y-74003452D01*
X156107619Y-74289166D02*
X157107619Y-74289166D01*
X157107619Y-73765357D02*
X157107619Y-73146309D01*
X156726666Y-73479642D01*
X156726666Y-73336785D01*
X156679047Y-73241547D01*
X156631428Y-73193928D01*
X156536190Y-73146309D01*
X156298095Y-73146309D01*
X156202857Y-73193928D01*
X156155238Y-73241547D01*
X156107619Y-73336785D01*
X156107619Y-73622500D01*
X156155238Y-73717738D01*
X156202857Y-73765357D01*
X136457619Y-77406904D02*
X137457619Y-77406904D01*
X137457619Y-77025952D01*
X137410000Y-76930713D01*
X137362380Y-76883094D01*
X137267142Y-76835475D01*
X137124285Y-76835475D01*
X137029047Y-76883094D01*
X136981428Y-76930713D01*
X136933809Y-77025952D01*
X136933809Y-77406904D01*
X137457619Y-76502142D02*
X136457619Y-76264047D01*
X137171904Y-76073571D01*
X136457619Y-75883094D01*
X137457619Y-75644999D01*
X136457619Y-75264047D02*
X137457619Y-75264047D01*
X136743333Y-74930713D01*
X137457619Y-74597380D01*
X136457619Y-74597380D01*
X136457619Y-73597380D02*
X136457619Y-74168809D01*
X136457619Y-73883094D02*
X137457619Y-73883094D01*
X137314761Y-73978332D01*
X137219523Y-74073571D01*
X137171904Y-74168809D01*
X141567619Y-77406904D02*
X142567619Y-77406904D01*
X142567619Y-77025952D01*
X142520000Y-76930713D01*
X142472380Y-76883094D01*
X142377142Y-76835475D01*
X142234285Y-76835475D01*
X142139047Y-76883094D01*
X142091428Y-76930713D01*
X142043809Y-77025952D01*
X142043809Y-77406904D01*
X142567619Y-76502142D02*
X141567619Y-76264047D01*
X142281904Y-76073571D01*
X141567619Y-75883094D01*
X142567619Y-75644999D01*
X141567619Y-75264047D02*
X142567619Y-75264047D01*
X141853333Y-74930713D01*
X142567619Y-74597380D01*
X141567619Y-74597380D01*
X142567619Y-74216428D02*
X142567619Y-73597380D01*
X142186666Y-73930713D01*
X142186666Y-73787856D01*
X142139047Y-73692618D01*
X142091428Y-73644999D01*
X141996190Y-73597380D01*
X141758095Y-73597380D01*
X141662857Y-73644999D01*
X141615238Y-73692618D01*
X141567619Y-73787856D01*
X141567619Y-74073571D01*
X141615238Y-74168809D01*
X141662857Y-74216428D01*
X139027619Y-77406904D02*
X140027619Y-77406904D01*
X140027619Y-77025952D01*
X139980000Y-76930713D01*
X139932380Y-76883094D01*
X139837142Y-76835475D01*
X139694285Y-76835475D01*
X139599047Y-76883094D01*
X139551428Y-76930713D01*
X139503809Y-77025952D01*
X139503809Y-77406904D01*
X140027619Y-76502142D02*
X139027619Y-76264047D01*
X139741904Y-76073571D01*
X139027619Y-75883094D01*
X140027619Y-75644999D01*
X139027619Y-75264047D02*
X140027619Y-75264047D01*
X139313333Y-74930713D01*
X140027619Y-74597380D01*
X139027619Y-74597380D01*
X139932380Y-74168809D02*
X139980000Y-74121190D01*
X140027619Y-74025952D01*
X140027619Y-73787856D01*
X139980000Y-73692618D01*
X139932380Y-73644999D01*
X139837142Y-73597380D01*
X139741904Y-73597380D01*
X139599047Y-73644999D01*
X139027619Y-74216428D01*
X139027619Y-73597380D01*
X136527619Y-66460952D02*
X137527619Y-66460952D01*
X137527619Y-66080000D01*
X137480000Y-65984761D01*
X137432380Y-65937142D01*
X137337142Y-65889523D01*
X137194285Y-65889523D01*
X137099047Y-65937142D01*
X137051428Y-65984761D01*
X137003809Y-66080000D01*
X137003809Y-66460952D01*
X137527619Y-65556190D02*
X136527619Y-65318095D01*
X137241904Y-65127619D01*
X136527619Y-64937142D01*
X137527619Y-64699047D01*
X136527619Y-64318095D02*
X137527619Y-64318095D01*
X136813333Y-63984761D01*
X137527619Y-63651428D01*
X136527619Y-63651428D01*
X137194285Y-62746666D02*
X136527619Y-62746666D01*
X137575238Y-62984761D02*
X136860952Y-63222857D01*
X136860952Y-62603809D01*
X139097619Y-66460952D02*
X140097619Y-66460952D01*
X140097619Y-66080000D01*
X140050000Y-65984761D01*
X140002380Y-65937142D01*
X139907142Y-65889523D01*
X139764285Y-65889523D01*
X139669047Y-65937142D01*
X139621428Y-65984761D01*
X139573809Y-66080000D01*
X139573809Y-66460952D01*
X140097619Y-65556190D02*
X139097619Y-65318095D01*
X139811904Y-65127619D01*
X139097619Y-64937142D01*
X140097619Y-64699047D01*
X139097619Y-64318095D02*
X140097619Y-64318095D01*
X139383333Y-63984761D01*
X140097619Y-63651428D01*
X139097619Y-63651428D01*
X140097619Y-62699047D02*
X140097619Y-63175238D01*
X139621428Y-63222857D01*
X139669047Y-63175238D01*
X139716666Y-63080000D01*
X139716666Y-62841904D01*
X139669047Y-62746666D01*
X139621428Y-62699047D01*
X139526190Y-62651428D01*
X139288095Y-62651428D01*
X139192857Y-62699047D01*
X139145238Y-62746666D01*
X139097619Y-62841904D01*
X139097619Y-63080000D01*
X139145238Y-63175238D01*
X139192857Y-63222857D01*
X141637619Y-66460952D02*
X142637619Y-66460952D01*
X142637619Y-66080000D01*
X142590000Y-65984761D01*
X142542380Y-65937142D01*
X142447142Y-65889523D01*
X142304285Y-65889523D01*
X142209047Y-65937142D01*
X142161428Y-65984761D01*
X142113809Y-66080000D01*
X142113809Y-66460952D01*
X142637619Y-65556190D02*
X141637619Y-65318095D01*
X142351904Y-65127619D01*
X141637619Y-64937142D01*
X142637619Y-64699047D01*
X141637619Y-64318095D02*
X142637619Y-64318095D01*
X141923333Y-63984761D01*
X142637619Y-63651428D01*
X141637619Y-63651428D01*
X142637619Y-62746666D02*
X142637619Y-62937142D01*
X142590000Y-63032380D01*
X142542380Y-63080000D01*
X142399523Y-63175238D01*
X142209047Y-63222857D01*
X141828095Y-63222857D01*
X141732857Y-63175238D01*
X141685238Y-63127619D01*
X141637619Y-63032380D01*
X141637619Y-62841904D01*
X141685238Y-62746666D01*
X141732857Y-62699047D01*
X141828095Y-62651428D01*
X142066190Y-62651428D01*
X142161428Y-62699047D01*
X142209047Y-62746666D01*
X142256666Y-62841904D01*
X142256666Y-63032380D01*
X142209047Y-63127619D01*
X142161428Y-63175238D01*
X142066190Y-63222857D01*
X182697619Y-65914643D02*
X182697619Y-66486071D01*
X182697619Y-66200357D02*
X183697619Y-66200357D01*
X183554761Y-66295595D01*
X183459523Y-66390833D01*
X183411904Y-66486071D01*
X183697619Y-65581309D02*
X182697619Y-65343214D01*
X183411904Y-65152738D01*
X182697619Y-64962262D01*
X183697619Y-64724167D01*
X182697619Y-64343214D02*
X183697619Y-64343214D01*
X182697619Y-63295595D02*
X183173809Y-63628928D01*
X182697619Y-63867024D02*
X183697619Y-63867024D01*
X183697619Y-63486071D01*
X183650000Y-63390833D01*
X183602380Y-63343214D01*
X183507142Y-63295595D01*
X183364285Y-63295595D01*
X183269047Y-63343214D01*
X183221428Y-63390833D01*
X183173809Y-63486071D01*
X183173809Y-63867024D01*
X183221428Y-62867024D02*
X183221428Y-62533690D01*
X182697619Y-62390833D02*
X182697619Y-62867024D01*
X183697619Y-62867024D01*
X183697619Y-62390833D01*
X156393333Y-66486071D02*
X156393333Y-66009881D01*
X156107619Y-66581309D02*
X157107619Y-66247976D01*
X156107619Y-65914643D01*
X157107619Y-65390833D02*
X157107619Y-65200357D01*
X157060000Y-65105119D01*
X156964761Y-65009881D01*
X156774285Y-64962262D01*
X156440952Y-64962262D01*
X156250476Y-65009881D01*
X156155238Y-65105119D01*
X156107619Y-65200357D01*
X156107619Y-65390833D01*
X156155238Y-65486071D01*
X156250476Y-65581309D01*
X156440952Y-65628928D01*
X156774285Y-65628928D01*
X156964761Y-65581309D01*
X157060000Y-65486071D01*
X157107619Y-65390833D01*
X157107619Y-64533690D02*
X156298095Y-64533690D01*
X156202857Y-64486071D01*
X156155238Y-64438452D01*
X156107619Y-64343214D01*
X156107619Y-64152738D01*
X156155238Y-64057500D01*
X156202857Y-64009881D01*
X156298095Y-63962262D01*
X157107619Y-63962262D01*
X157107619Y-63628928D02*
X157107619Y-63057500D01*
X156107619Y-63343214D02*
X157107619Y-63343214D01*
X157107619Y-62295595D02*
X157107619Y-62486071D01*
X157060000Y-62581309D01*
X157012380Y-62628928D01*
X156869523Y-62724167D01*
X156679047Y-62771786D01*
X156298095Y-62771786D01*
X156202857Y-62724167D01*
X156155238Y-62676548D01*
X156107619Y-62581309D01*
X156107619Y-62390833D01*
X156155238Y-62295595D01*
X156202857Y-62247976D01*
X156298095Y-62200357D01*
X156536190Y-62200357D01*
X156631428Y-62247976D01*
X156679047Y-62295595D01*
X156726666Y-62390833D01*
X156726666Y-62581309D01*
X156679047Y-62676548D01*
X156631428Y-62724167D01*
X156536190Y-62771786D01*
X153953333Y-66486071D02*
X153953333Y-66009881D01*
X153667619Y-66581309D02*
X154667619Y-66247976D01*
X153667619Y-65914643D01*
X154667619Y-65390833D02*
X154667619Y-65200357D01*
X154620000Y-65105119D01*
X154524761Y-65009881D01*
X154334285Y-64962262D01*
X154000952Y-64962262D01*
X153810476Y-65009881D01*
X153715238Y-65105119D01*
X153667619Y-65200357D01*
X153667619Y-65390833D01*
X153715238Y-65486071D01*
X153810476Y-65581309D01*
X154000952Y-65628928D01*
X154334285Y-65628928D01*
X154524761Y-65581309D01*
X154620000Y-65486071D01*
X154667619Y-65390833D01*
X154667619Y-64533690D02*
X153858095Y-64533690D01*
X153762857Y-64486071D01*
X153715238Y-64438452D01*
X153667619Y-64343214D01*
X153667619Y-64152738D01*
X153715238Y-64057500D01*
X153762857Y-64009881D01*
X153858095Y-63962262D01*
X154667619Y-63962262D01*
X154667619Y-63628928D02*
X154667619Y-63057500D01*
X153667619Y-63343214D02*
X154667619Y-63343214D01*
X154667619Y-62247976D02*
X154667619Y-62724167D01*
X154191428Y-62771786D01*
X154239047Y-62724167D01*
X154286666Y-62628928D01*
X154286666Y-62390833D01*
X154239047Y-62295595D01*
X154191428Y-62247976D01*
X154096190Y-62200357D01*
X153858095Y-62200357D01*
X153762857Y-62247976D01*
X153715238Y-62295595D01*
X153667619Y-62390833D01*
X153667619Y-62628928D01*
X153715238Y-62724167D01*
X153762857Y-62771786D01*
X151423333Y-66486071D02*
X151423333Y-66009881D01*
X151137619Y-66581309D02*
X152137619Y-66247976D01*
X151137619Y-65914643D01*
X152137619Y-65390833D02*
X152137619Y-65200357D01*
X152090000Y-65105119D01*
X151994761Y-65009881D01*
X151804285Y-64962262D01*
X151470952Y-64962262D01*
X151280476Y-65009881D01*
X151185238Y-65105119D01*
X151137619Y-65200357D01*
X151137619Y-65390833D01*
X151185238Y-65486071D01*
X151280476Y-65581309D01*
X151470952Y-65628928D01*
X151804285Y-65628928D01*
X151994761Y-65581309D01*
X152090000Y-65486071D01*
X152137619Y-65390833D01*
X152137619Y-64533690D02*
X151328095Y-64533690D01*
X151232857Y-64486071D01*
X151185238Y-64438452D01*
X151137619Y-64343214D01*
X151137619Y-64152738D01*
X151185238Y-64057500D01*
X151232857Y-64009881D01*
X151328095Y-63962262D01*
X152137619Y-63962262D01*
X152137619Y-63628928D02*
X152137619Y-63057500D01*
X151137619Y-63343214D02*
X152137619Y-63343214D01*
X151804285Y-62295595D02*
X151137619Y-62295595D01*
X152185238Y-62533690D02*
X151470952Y-62771786D01*
X151470952Y-62152738D01*
X110175238Y-77432023D02*
X110127619Y-77289166D01*
X110127619Y-77051071D01*
X110175238Y-76955833D01*
X110222857Y-76908214D01*
X110318095Y-76860595D01*
X110413333Y-76860595D01*
X110508571Y-76908214D01*
X110556190Y-76955833D01*
X110603809Y-77051071D01*
X110651428Y-77241547D01*
X110699047Y-77336785D01*
X110746666Y-77384404D01*
X110841904Y-77432023D01*
X110937142Y-77432023D01*
X111032380Y-77384404D01*
X111080000Y-77336785D01*
X111127619Y-77241547D01*
X111127619Y-77003452D01*
X111080000Y-76860595D01*
X110222857Y-75860595D02*
X110175238Y-75908214D01*
X110127619Y-76051071D01*
X110127619Y-76146309D01*
X110175238Y-76289166D01*
X110270476Y-76384404D01*
X110365714Y-76432023D01*
X110556190Y-76479642D01*
X110699047Y-76479642D01*
X110889523Y-76432023D01*
X110984761Y-76384404D01*
X111080000Y-76289166D01*
X111127619Y-76146309D01*
X111127619Y-76051071D01*
X111080000Y-75908214D01*
X111032380Y-75860595D01*
X110127619Y-74955833D02*
X110127619Y-75432023D01*
X111127619Y-75432023D01*
X110225238Y-66486071D02*
X110177619Y-66343214D01*
X110177619Y-66105119D01*
X110225238Y-66009881D01*
X110272857Y-65962262D01*
X110368095Y-65914643D01*
X110463333Y-65914643D01*
X110558571Y-65962262D01*
X110606190Y-66009881D01*
X110653809Y-66105119D01*
X110701428Y-66295595D01*
X110749047Y-66390833D01*
X110796666Y-66438452D01*
X110891904Y-66486071D01*
X110987142Y-66486071D01*
X111082380Y-66438452D01*
X111130000Y-66390833D01*
X111177619Y-66295595D01*
X111177619Y-66057500D01*
X111130000Y-65914643D01*
X110272857Y-64914643D02*
X110225238Y-64962262D01*
X110177619Y-65105119D01*
X110177619Y-65200357D01*
X110225238Y-65343214D01*
X110320476Y-65438452D01*
X110415714Y-65486071D01*
X110606190Y-65533690D01*
X110749047Y-65533690D01*
X110939523Y-65486071D01*
X111034761Y-65438452D01*
X111130000Y-65343214D01*
X111177619Y-65200357D01*
X111177619Y-65105119D01*
X111130000Y-64962262D01*
X111082380Y-64914643D01*
X110177619Y-64009881D02*
X110177619Y-64486071D01*
X111177619Y-64486071D01*
X112775238Y-66508571D02*
X112727619Y-66365714D01*
X112727619Y-66127619D01*
X112775238Y-66032381D01*
X112822857Y-65984762D01*
X112918095Y-65937143D01*
X113013333Y-65937143D01*
X113108571Y-65984762D01*
X113156190Y-66032381D01*
X113203809Y-66127619D01*
X113251428Y-66318095D01*
X113299047Y-66413333D01*
X113346666Y-66460952D01*
X113441904Y-66508571D01*
X113537142Y-66508571D01*
X113632380Y-66460952D01*
X113680000Y-66413333D01*
X113727619Y-66318095D01*
X113727619Y-66080000D01*
X113680000Y-65937143D01*
X112727619Y-65508571D02*
X113727619Y-65508571D01*
X113727619Y-65270476D01*
X113680000Y-65127619D01*
X113584761Y-65032381D01*
X113489523Y-64984762D01*
X113299047Y-64937143D01*
X113156190Y-64937143D01*
X112965714Y-64984762D01*
X112870476Y-65032381D01*
X112775238Y-65127619D01*
X112727619Y-65270476D01*
X112727619Y-65508571D01*
X113013333Y-64556190D02*
X113013333Y-64080000D01*
X112727619Y-64651428D02*
X113727619Y-64318095D01*
X112727619Y-63984762D01*
X112645238Y-77454523D02*
X112597619Y-77311666D01*
X112597619Y-77073571D01*
X112645238Y-76978333D01*
X112692857Y-76930714D01*
X112788095Y-76883095D01*
X112883333Y-76883095D01*
X112978571Y-76930714D01*
X113026190Y-76978333D01*
X113073809Y-77073571D01*
X113121428Y-77264047D01*
X113169047Y-77359285D01*
X113216666Y-77406904D01*
X113311904Y-77454523D01*
X113407142Y-77454523D01*
X113502380Y-77406904D01*
X113550000Y-77359285D01*
X113597619Y-77264047D01*
X113597619Y-77025952D01*
X113550000Y-76883095D01*
X112597619Y-76454523D02*
X113597619Y-76454523D01*
X113597619Y-76216428D01*
X113550000Y-76073571D01*
X113454761Y-75978333D01*
X113359523Y-75930714D01*
X113169047Y-75883095D01*
X113026190Y-75883095D01*
X112835714Y-75930714D01*
X112740476Y-75978333D01*
X112645238Y-76073571D01*
X112597619Y-76216428D01*
X112597619Y-76454523D01*
X112883333Y-75502142D02*
X112883333Y-75025952D01*
X112597619Y-75597380D02*
X113597619Y-75264047D01*
X112597619Y-74930714D01*
X140037619Y-55670952D02*
X141037619Y-55670952D01*
X141037619Y-55290000D01*
X140990000Y-55194761D01*
X140942380Y-55147142D01*
X140847142Y-55099523D01*
X140704285Y-55099523D01*
X140609047Y-55147142D01*
X140561428Y-55194761D01*
X140513809Y-55290000D01*
X140513809Y-55670952D01*
X141037619Y-54766190D02*
X140037619Y-54528095D01*
X140751904Y-54337619D01*
X140037619Y-54147142D01*
X141037619Y-53909047D01*
X140037619Y-53528095D02*
X141037619Y-53528095D01*
X140323333Y-53194761D01*
X141037619Y-52861428D01*
X140037619Y-52861428D01*
X140609047Y-52242380D02*
X140656666Y-52337619D01*
X140704285Y-52385238D01*
X140799523Y-52432857D01*
X140847142Y-52432857D01*
X140942380Y-52385238D01*
X140990000Y-52337619D01*
X141037619Y-52242380D01*
X141037619Y-52051904D01*
X140990000Y-51956666D01*
X140942380Y-51909047D01*
X140847142Y-51861428D01*
X140799523Y-51861428D01*
X140704285Y-51909047D01*
X140656666Y-51956666D01*
X140609047Y-52051904D01*
X140609047Y-52242380D01*
X140561428Y-52337619D01*
X140513809Y-52385238D01*
X140418571Y-52432857D01*
X140228095Y-52432857D01*
X140132857Y-52385238D01*
X140085238Y-52337619D01*
X140037619Y-52242380D01*
X140037619Y-52051904D01*
X140085238Y-51956666D01*
X140132857Y-51909047D01*
X140228095Y-51861428D01*
X140418571Y-51861428D01*
X140513809Y-51909047D01*
X140561428Y-51956666D01*
X140609047Y-52051904D01*
X137497619Y-55670952D02*
X138497619Y-55670952D01*
X138497619Y-55290000D01*
X138450000Y-55194761D01*
X138402380Y-55147142D01*
X138307142Y-55099523D01*
X138164285Y-55099523D01*
X138069047Y-55147142D01*
X138021428Y-55194761D01*
X137973809Y-55290000D01*
X137973809Y-55670952D01*
X138497619Y-54766190D02*
X137497619Y-54528095D01*
X138211904Y-54337619D01*
X137497619Y-54147142D01*
X138497619Y-53909047D01*
X137497619Y-53528095D02*
X138497619Y-53528095D01*
X137783333Y-53194761D01*
X138497619Y-52861428D01*
X137497619Y-52861428D01*
X138497619Y-52480476D02*
X138497619Y-51813809D01*
X137497619Y-52242380D01*
X150433333Y-55572857D02*
X150433333Y-55096666D01*
X150147619Y-55668095D02*
X151147619Y-55334761D01*
X150147619Y-55001428D01*
X151147619Y-54477619D02*
X151147619Y-54287142D01*
X151100000Y-54191904D01*
X151004761Y-54096666D01*
X150814285Y-54049047D01*
X150480952Y-54049047D01*
X150290476Y-54096666D01*
X150195238Y-54191904D01*
X150147619Y-54287142D01*
X150147619Y-54477619D01*
X150195238Y-54572857D01*
X150290476Y-54668095D01*
X150480952Y-54715714D01*
X150814285Y-54715714D01*
X151004761Y-54668095D01*
X151100000Y-54572857D01*
X151147619Y-54477619D01*
X151147619Y-53620476D02*
X150338095Y-53620476D01*
X150242857Y-53572857D01*
X150195238Y-53525238D01*
X150147619Y-53430000D01*
X150147619Y-53239523D01*
X150195238Y-53144285D01*
X150242857Y-53096666D01*
X150338095Y-53049047D01*
X151147619Y-53049047D01*
X151147619Y-52715714D02*
X151147619Y-52144285D01*
X150147619Y-52430000D02*
X151147619Y-52430000D01*
X151147619Y-51906190D02*
X151147619Y-51239523D01*
X150147619Y-51668095D01*
X152903333Y-55532857D02*
X152903333Y-55056666D01*
X152617619Y-55628095D02*
X153617619Y-55294761D01*
X152617619Y-54961428D01*
X153617619Y-54437619D02*
X153617619Y-54247142D01*
X153570000Y-54151904D01*
X153474761Y-54056666D01*
X153284285Y-54009047D01*
X152950952Y-54009047D01*
X152760476Y-54056666D01*
X152665238Y-54151904D01*
X152617619Y-54247142D01*
X152617619Y-54437619D01*
X152665238Y-54532857D01*
X152760476Y-54628095D01*
X152950952Y-54675714D01*
X153284285Y-54675714D01*
X153474761Y-54628095D01*
X153570000Y-54532857D01*
X153617619Y-54437619D01*
X153617619Y-53580476D02*
X152808095Y-53580476D01*
X152712857Y-53532857D01*
X152665238Y-53485238D01*
X152617619Y-53390000D01*
X152617619Y-53199523D01*
X152665238Y-53104285D01*
X152712857Y-53056666D01*
X152808095Y-53009047D01*
X153617619Y-53009047D01*
X153617619Y-52675714D02*
X153617619Y-52104285D01*
X152617619Y-52390000D02*
X153617619Y-52390000D01*
X153189047Y-51628095D02*
X153236666Y-51723333D01*
X153284285Y-51770952D01*
X153379523Y-51818571D01*
X153427142Y-51818571D01*
X153522380Y-51770952D01*
X153570000Y-51723333D01*
X153617619Y-51628095D01*
X153617619Y-51437619D01*
X153570000Y-51342380D01*
X153522380Y-51294761D01*
X153427142Y-51247142D01*
X153379523Y-51247142D01*
X153284285Y-51294761D01*
X153236666Y-51342380D01*
X153189047Y-51437619D01*
X153189047Y-51628095D01*
X153141428Y-51723333D01*
X153093809Y-51770952D01*
X152998571Y-51818571D01*
X152808095Y-51818571D01*
X152712857Y-51770952D01*
X152665238Y-51723333D01*
X152617619Y-51628095D01*
X152617619Y-51437619D01*
X152665238Y-51342380D01*
X152712857Y-51294761D01*
X152808095Y-51247142D01*
X152998571Y-51247142D01*
X153093809Y-51294761D01*
X153141428Y-51342380D01*
X153189047Y-51437619D01*
X127737619Y-61136666D02*
X128737619Y-61136666D01*
X128737619Y-60755714D01*
X128690000Y-60660476D01*
X128642380Y-60612857D01*
X128547142Y-60565238D01*
X128404285Y-60565238D01*
X128309047Y-60612857D01*
X128261428Y-60660476D01*
X128213809Y-60755714D01*
X128213809Y-61136666D01*
X128023333Y-60184285D02*
X128023333Y-59708095D01*
X127737619Y-60279523D02*
X128737619Y-59946190D01*
X127737619Y-59612857D01*
X128737619Y-59089047D02*
X128737619Y-58993809D01*
X128690000Y-58898571D01*
X128642380Y-58850952D01*
X128547142Y-58803333D01*
X128356666Y-58755714D01*
X128118571Y-58755714D01*
X127928095Y-58803333D01*
X127832857Y-58850952D01*
X127785238Y-58898571D01*
X127737619Y-58993809D01*
X127737619Y-59089047D01*
X127785238Y-59184285D01*
X127832857Y-59231904D01*
X127928095Y-59279523D01*
X128118571Y-59327142D01*
X128356666Y-59327142D01*
X128547142Y-59279523D01*
X128642380Y-59231904D01*
X128690000Y-59184285D01*
X128737619Y-59089047D01*
X125197619Y-61136666D02*
X126197619Y-61136666D01*
X126197619Y-60755714D01*
X126150000Y-60660476D01*
X126102380Y-60612857D01*
X126007142Y-60565238D01*
X125864285Y-60565238D01*
X125769047Y-60612857D01*
X125721428Y-60660476D01*
X125673809Y-60755714D01*
X125673809Y-61136666D01*
X125483333Y-60184285D02*
X125483333Y-59708095D01*
X125197619Y-60279523D02*
X126197619Y-59946190D01*
X125197619Y-59612857D01*
X126197619Y-59089047D02*
X126197619Y-58993809D01*
X126150000Y-58898571D01*
X126102380Y-58850952D01*
X126007142Y-58803333D01*
X125816666Y-58755714D01*
X125578571Y-58755714D01*
X125388095Y-58803333D01*
X125292857Y-58850952D01*
X125245238Y-58898571D01*
X125197619Y-58993809D01*
X125197619Y-59089047D01*
X125245238Y-59184285D01*
X125292857Y-59231904D01*
X125388095Y-59279523D01*
X125578571Y-59327142D01*
X125816666Y-59327142D01*
X126007142Y-59279523D01*
X126102380Y-59231904D01*
X126150000Y-59184285D01*
X126197619Y-59089047D01*
X117577619Y-61136666D02*
X118577619Y-61136666D01*
X118577619Y-60755714D01*
X118530000Y-60660476D01*
X118482380Y-60612857D01*
X118387142Y-60565238D01*
X118244285Y-60565238D01*
X118149047Y-60612857D01*
X118101428Y-60660476D01*
X118053809Y-60755714D01*
X118053809Y-61136666D01*
X117863333Y-60184285D02*
X117863333Y-59708095D01*
X117577619Y-60279523D02*
X118577619Y-59946190D01*
X117577619Y-59612857D01*
X118577619Y-59089047D02*
X118577619Y-58993809D01*
X118530000Y-58898571D01*
X118482380Y-58850952D01*
X118387142Y-58803333D01*
X118196666Y-58755714D01*
X117958571Y-58755714D01*
X117768095Y-58803333D01*
X117672857Y-58850952D01*
X117625238Y-58898571D01*
X117577619Y-58993809D01*
X117577619Y-59089047D01*
X117625238Y-59184285D01*
X117672857Y-59231904D01*
X117768095Y-59279523D01*
X117958571Y-59327142D01*
X118196666Y-59327142D01*
X118387142Y-59279523D01*
X118482380Y-59231904D01*
X118530000Y-59184285D01*
X118577619Y-59089047D01*
X107417619Y-61136666D02*
X108417619Y-61136666D01*
X108417619Y-60755714D01*
X108370000Y-60660476D01*
X108322380Y-60612857D01*
X108227142Y-60565238D01*
X108084285Y-60565238D01*
X107989047Y-60612857D01*
X107941428Y-60660476D01*
X107893809Y-60755714D01*
X107893809Y-61136666D01*
X107703333Y-60184285D02*
X107703333Y-59708095D01*
X107417619Y-60279523D02*
X108417619Y-59946190D01*
X107417619Y-59612857D01*
X108417619Y-59089047D02*
X108417619Y-58993809D01*
X108370000Y-58898571D01*
X108322380Y-58850952D01*
X108227142Y-58803333D01*
X108036666Y-58755714D01*
X107798571Y-58755714D01*
X107608095Y-58803333D01*
X107512857Y-58850952D01*
X107465238Y-58898571D01*
X107417619Y-58993809D01*
X107417619Y-59089047D01*
X107465238Y-59184285D01*
X107512857Y-59231904D01*
X107608095Y-59279523D01*
X107798571Y-59327142D01*
X108036666Y-59327142D01*
X108227142Y-59279523D01*
X108322380Y-59231904D01*
X108370000Y-59184285D01*
X108417619Y-59089047D01*
X112497619Y-61136666D02*
X113497619Y-61136666D01*
X113497619Y-60755714D01*
X113450000Y-60660476D01*
X113402380Y-60612857D01*
X113307142Y-60565238D01*
X113164285Y-60565238D01*
X113069047Y-60612857D01*
X113021428Y-60660476D01*
X112973809Y-60755714D01*
X112973809Y-61136666D01*
X112783333Y-60184285D02*
X112783333Y-59708095D01*
X112497619Y-60279523D02*
X113497619Y-59946190D01*
X112497619Y-59612857D01*
X113497619Y-59089047D02*
X113497619Y-58993809D01*
X113450000Y-58898571D01*
X113402380Y-58850952D01*
X113307142Y-58803333D01*
X113116666Y-58755714D01*
X112878571Y-58755714D01*
X112688095Y-58803333D01*
X112592857Y-58850952D01*
X112545238Y-58898571D01*
X112497619Y-58993809D01*
X112497619Y-59089047D01*
X112545238Y-59184285D01*
X112592857Y-59231904D01*
X112688095Y-59279523D01*
X112878571Y-59327142D01*
X113116666Y-59327142D01*
X113307142Y-59279523D01*
X113402380Y-59231904D01*
X113450000Y-59184285D01*
X113497619Y-59089047D01*
X120117619Y-61136666D02*
X121117619Y-61136666D01*
X121117619Y-60755714D01*
X121070000Y-60660476D01*
X121022380Y-60612857D01*
X120927142Y-60565238D01*
X120784285Y-60565238D01*
X120689047Y-60612857D01*
X120641428Y-60660476D01*
X120593809Y-60755714D01*
X120593809Y-61136666D01*
X120403333Y-60184285D02*
X120403333Y-59708095D01*
X120117619Y-60279523D02*
X121117619Y-59946190D01*
X120117619Y-59612857D01*
X121117619Y-59089047D02*
X121117619Y-58993809D01*
X121070000Y-58898571D01*
X121022380Y-58850952D01*
X120927142Y-58803333D01*
X120736666Y-58755714D01*
X120498571Y-58755714D01*
X120308095Y-58803333D01*
X120212857Y-58850952D01*
X120165238Y-58898571D01*
X120117619Y-58993809D01*
X120117619Y-59089047D01*
X120165238Y-59184285D01*
X120212857Y-59231904D01*
X120308095Y-59279523D01*
X120498571Y-59327142D01*
X120736666Y-59327142D01*
X120927142Y-59279523D01*
X121022380Y-59231904D01*
X121070000Y-59184285D01*
X121117619Y-59089047D01*
X109957619Y-61136666D02*
X110957619Y-61136666D01*
X110957619Y-60755714D01*
X110910000Y-60660476D01*
X110862380Y-60612857D01*
X110767142Y-60565238D01*
X110624285Y-60565238D01*
X110529047Y-60612857D01*
X110481428Y-60660476D01*
X110433809Y-60755714D01*
X110433809Y-61136666D01*
X110243333Y-60184285D02*
X110243333Y-59708095D01*
X109957619Y-60279523D02*
X110957619Y-59946190D01*
X109957619Y-59612857D01*
X110957619Y-59089047D02*
X110957619Y-58993809D01*
X110910000Y-58898571D01*
X110862380Y-58850952D01*
X110767142Y-58803333D01*
X110576666Y-58755714D01*
X110338571Y-58755714D01*
X110148095Y-58803333D01*
X110052857Y-58850952D01*
X110005238Y-58898571D01*
X109957619Y-58993809D01*
X109957619Y-59089047D01*
X110005238Y-59184285D01*
X110052857Y-59231904D01*
X110148095Y-59279523D01*
X110338571Y-59327142D01*
X110576666Y-59327142D01*
X110767142Y-59279523D01*
X110862380Y-59231904D01*
X110910000Y-59184285D01*
X110957619Y-59089047D01*
X122657619Y-61136666D02*
X123657619Y-61136666D01*
X123657619Y-60755714D01*
X123610000Y-60660476D01*
X123562380Y-60612857D01*
X123467142Y-60565238D01*
X123324285Y-60565238D01*
X123229047Y-60612857D01*
X123181428Y-60660476D01*
X123133809Y-60755714D01*
X123133809Y-61136666D01*
X122943333Y-60184285D02*
X122943333Y-59708095D01*
X122657619Y-60279523D02*
X123657619Y-59946190D01*
X122657619Y-59612857D01*
X123657619Y-59089047D02*
X123657619Y-58993809D01*
X123610000Y-58898571D01*
X123562380Y-58850952D01*
X123467142Y-58803333D01*
X123276666Y-58755714D01*
X123038571Y-58755714D01*
X122848095Y-58803333D01*
X122752857Y-58850952D01*
X122705238Y-58898571D01*
X122657619Y-58993809D01*
X122657619Y-59089047D01*
X122705238Y-59184285D01*
X122752857Y-59231904D01*
X122848095Y-59279523D01*
X123038571Y-59327142D01*
X123276666Y-59327142D01*
X123467142Y-59279523D01*
X123562380Y-59231904D01*
X123610000Y-59184285D01*
X123657619Y-59089047D01*
X115037619Y-61136666D02*
X116037619Y-61136666D01*
X116037619Y-60755714D01*
X115990000Y-60660476D01*
X115942380Y-60612857D01*
X115847142Y-60565238D01*
X115704285Y-60565238D01*
X115609047Y-60612857D01*
X115561428Y-60660476D01*
X115513809Y-60755714D01*
X115513809Y-61136666D01*
X115323333Y-60184285D02*
X115323333Y-59708095D01*
X115037619Y-60279523D02*
X116037619Y-59946190D01*
X115037619Y-59612857D01*
X116037619Y-59089047D02*
X116037619Y-58993809D01*
X115990000Y-58898571D01*
X115942380Y-58850952D01*
X115847142Y-58803333D01*
X115656666Y-58755714D01*
X115418571Y-58755714D01*
X115228095Y-58803333D01*
X115132857Y-58850952D01*
X115085238Y-58898571D01*
X115037619Y-58993809D01*
X115037619Y-59089047D01*
X115085238Y-59184285D01*
X115132857Y-59231904D01*
X115228095Y-59279523D01*
X115418571Y-59327142D01*
X115656666Y-59327142D01*
X115847142Y-59279523D01*
X115942380Y-59231904D01*
X115990000Y-59184285D01*
X116037619Y-59089047D01*
X163327619Y-61168095D02*
X162327619Y-60834761D01*
X163327619Y-60501428D01*
X162327619Y-59739523D02*
X163327619Y-59739523D01*
X162375238Y-59739523D02*
X162327619Y-59834761D01*
X162327619Y-60025238D01*
X162375238Y-60120476D01*
X162422857Y-60168095D01*
X162518095Y-60215714D01*
X162803809Y-60215714D01*
X162899047Y-60168095D01*
X162946666Y-60120476D01*
X162994285Y-60025238D01*
X162994285Y-59834761D01*
X162946666Y-59739523D01*
X162327619Y-58834761D02*
X163327619Y-58834761D01*
X162375238Y-58834761D02*
X162327619Y-58930000D01*
X162327619Y-59120476D01*
X162375238Y-59215714D01*
X162422857Y-59263333D01*
X162518095Y-59310952D01*
X162803809Y-59310952D01*
X162899047Y-59263333D01*
X162946666Y-59215714D01*
X162994285Y-59120476D01*
X162994285Y-58930000D01*
X162946666Y-58834761D01*
X164867619Y-61096666D02*
X165867619Y-61096666D01*
X165867619Y-60715714D01*
X165820000Y-60620476D01*
X165772380Y-60572857D01*
X165677142Y-60525238D01*
X165534285Y-60525238D01*
X165439047Y-60572857D01*
X165391428Y-60620476D01*
X165343809Y-60715714D01*
X165343809Y-61096666D01*
X165153333Y-60144285D02*
X165153333Y-59668095D01*
X164867619Y-60239523D02*
X165867619Y-59906190D01*
X164867619Y-59572857D01*
X164867619Y-58715714D02*
X164867619Y-59287142D01*
X164867619Y-59001428D02*
X165867619Y-59001428D01*
X165724761Y-59096666D01*
X165629523Y-59191904D01*
X165581904Y-59287142D01*
X167407619Y-61096666D02*
X168407619Y-61096666D01*
X168407619Y-60715714D01*
X168360000Y-60620476D01*
X168312380Y-60572857D01*
X168217142Y-60525238D01*
X168074285Y-60525238D01*
X167979047Y-60572857D01*
X167931428Y-60620476D01*
X167883809Y-60715714D01*
X167883809Y-61096666D01*
X167693333Y-60144285D02*
X167693333Y-59668095D01*
X167407619Y-60239523D02*
X168407619Y-59906190D01*
X167407619Y-59572857D01*
X168312380Y-59287142D02*
X168360000Y-59239523D01*
X168407619Y-59144285D01*
X168407619Y-58906190D01*
X168360000Y-58810952D01*
X168312380Y-58763333D01*
X168217142Y-58715714D01*
X168121904Y-58715714D01*
X167979047Y-58763333D01*
X167407619Y-59334761D01*
X167407619Y-58715714D01*
X169947619Y-61096666D02*
X170947619Y-61096666D01*
X170947619Y-60715714D01*
X170900000Y-60620476D01*
X170852380Y-60572857D01*
X170757142Y-60525238D01*
X170614285Y-60525238D01*
X170519047Y-60572857D01*
X170471428Y-60620476D01*
X170423809Y-60715714D01*
X170423809Y-61096666D01*
X170233333Y-60144285D02*
X170233333Y-59668095D01*
X169947619Y-60239523D02*
X170947619Y-59906190D01*
X169947619Y-59572857D01*
X170947619Y-59334761D02*
X170947619Y-58715714D01*
X170566666Y-59049047D01*
X170566666Y-58906190D01*
X170519047Y-58810952D01*
X170471428Y-58763333D01*
X170376190Y-58715714D01*
X170138095Y-58715714D01*
X170042857Y-58763333D01*
X169995238Y-58810952D01*
X169947619Y-58906190D01*
X169947619Y-59191904D01*
X169995238Y-59287142D01*
X170042857Y-59334761D01*
X172487619Y-61096666D02*
X173487619Y-61096666D01*
X173487619Y-60715714D01*
X173440000Y-60620476D01*
X173392380Y-60572857D01*
X173297142Y-60525238D01*
X173154285Y-60525238D01*
X173059047Y-60572857D01*
X173011428Y-60620476D01*
X172963809Y-60715714D01*
X172963809Y-61096666D01*
X172773333Y-60144285D02*
X172773333Y-59668095D01*
X172487619Y-60239523D02*
X173487619Y-59906190D01*
X172487619Y-59572857D01*
X173154285Y-58810952D02*
X172487619Y-58810952D01*
X173535238Y-59049047D02*
X172820952Y-59287142D01*
X172820952Y-58668095D01*
X175027619Y-61096666D02*
X176027619Y-61096666D01*
X176027619Y-60715714D01*
X175980000Y-60620476D01*
X175932380Y-60572857D01*
X175837142Y-60525238D01*
X175694285Y-60525238D01*
X175599047Y-60572857D01*
X175551428Y-60620476D01*
X175503809Y-60715714D01*
X175503809Y-61096666D01*
X175313333Y-60144285D02*
X175313333Y-59668095D01*
X175027619Y-60239523D02*
X176027619Y-59906190D01*
X175027619Y-59572857D01*
X176027619Y-58763333D02*
X176027619Y-59239523D01*
X175551428Y-59287142D01*
X175599047Y-59239523D01*
X175646666Y-59144285D01*
X175646666Y-58906190D01*
X175599047Y-58810952D01*
X175551428Y-58763333D01*
X175456190Y-58715714D01*
X175218095Y-58715714D01*
X175122857Y-58763333D01*
X175075238Y-58810952D01*
X175027619Y-58906190D01*
X175027619Y-59144285D01*
X175075238Y-59239523D01*
X175122857Y-59287142D01*
X177567619Y-61096666D02*
X178567619Y-61096666D01*
X178567619Y-60715714D01*
X178520000Y-60620476D01*
X178472380Y-60572857D01*
X178377142Y-60525238D01*
X178234285Y-60525238D01*
X178139047Y-60572857D01*
X178091428Y-60620476D01*
X178043809Y-60715714D01*
X178043809Y-61096666D01*
X177853333Y-60144285D02*
X177853333Y-59668095D01*
X177567619Y-60239523D02*
X178567619Y-59906190D01*
X177567619Y-59572857D01*
X178567619Y-58810952D02*
X178567619Y-59001428D01*
X178520000Y-59096666D01*
X178472380Y-59144285D01*
X178329523Y-59239523D01*
X178139047Y-59287142D01*
X177758095Y-59287142D01*
X177662857Y-59239523D01*
X177615238Y-59191904D01*
X177567619Y-59096666D01*
X177567619Y-58906190D01*
X177615238Y-58810952D01*
X177662857Y-58763333D01*
X177758095Y-58715714D01*
X177996190Y-58715714D01*
X178091428Y-58763333D01*
X178139047Y-58810952D01*
X178186666Y-58906190D01*
X178186666Y-59096666D01*
X178139047Y-59191904D01*
X178091428Y-59239523D01*
X177996190Y-59287142D01*
X180107619Y-61096666D02*
X181107619Y-61096666D01*
X181107619Y-60715714D01*
X181060000Y-60620476D01*
X181012380Y-60572857D01*
X180917142Y-60525238D01*
X180774285Y-60525238D01*
X180679047Y-60572857D01*
X180631428Y-60620476D01*
X180583809Y-60715714D01*
X180583809Y-61096666D01*
X180393333Y-60144285D02*
X180393333Y-59668095D01*
X180107619Y-60239523D02*
X181107619Y-59906190D01*
X180107619Y-59572857D01*
X181107619Y-59334761D02*
X181107619Y-58668095D01*
X180107619Y-59096666D01*
X182647619Y-61096666D02*
X183647619Y-61096666D01*
X183647619Y-60715714D01*
X183600000Y-60620476D01*
X183552380Y-60572857D01*
X183457142Y-60525238D01*
X183314285Y-60525238D01*
X183219047Y-60572857D01*
X183171428Y-60620476D01*
X183123809Y-60715714D01*
X183123809Y-61096666D01*
X182933333Y-60144285D02*
X182933333Y-59668095D01*
X182647619Y-60239523D02*
X183647619Y-59906190D01*
X182647619Y-59572857D01*
X183219047Y-59096666D02*
X183266666Y-59191904D01*
X183314285Y-59239523D01*
X183409523Y-59287142D01*
X183457142Y-59287142D01*
X183552380Y-59239523D01*
X183600000Y-59191904D01*
X183647619Y-59096666D01*
X183647619Y-58906190D01*
X183600000Y-58810952D01*
X183552380Y-58763333D01*
X183457142Y-58715714D01*
X183409523Y-58715714D01*
X183314285Y-58763333D01*
X183266666Y-58810952D01*
X183219047Y-58906190D01*
X183219047Y-59096666D01*
X183171428Y-59191904D01*
X183123809Y-59239523D01*
X183028571Y-59287142D01*
X182838095Y-59287142D01*
X182742857Y-59239523D01*
X182695238Y-59191904D01*
X182647619Y-59096666D01*
X182647619Y-58906190D01*
X182695238Y-58810952D01*
X182742857Y-58763333D01*
X182838095Y-58715714D01*
X183028571Y-58715714D01*
X183123809Y-58763333D01*
X183171428Y-58810952D01*
X183219047Y-58906190D01*
X180977619Y-66533690D02*
X180977619Y-65914643D01*
X180596666Y-66247976D01*
X180596666Y-66105119D01*
X180549047Y-66009881D01*
X180501428Y-65962262D01*
X180406190Y-65914643D01*
X180168095Y-65914643D01*
X180072857Y-65962262D01*
X180025238Y-66009881D01*
X179977619Y-66105119D01*
X179977619Y-66390833D01*
X180025238Y-66486071D01*
X180072857Y-66533690D01*
X180072857Y-65486071D02*
X180025238Y-65438452D01*
X179977619Y-65486071D01*
X180025238Y-65533690D01*
X180072857Y-65486071D01*
X179977619Y-65486071D01*
X180977619Y-65105119D02*
X180977619Y-64486071D01*
X180596666Y-64819405D01*
X180596666Y-64676548D01*
X180549047Y-64581309D01*
X180501428Y-64533690D01*
X180406190Y-64486071D01*
X180168095Y-64486071D01*
X180072857Y-64533690D01*
X180025238Y-64581309D01*
X179977619Y-64676548D01*
X179977619Y-64962262D01*
X180025238Y-65057500D01*
X180072857Y-65105119D01*
X180644285Y-64152738D02*
X179977619Y-63914643D01*
X180644285Y-63676548D01*
X180967619Y-77479642D02*
X180967619Y-76860595D01*
X180586666Y-77193928D01*
X180586666Y-77051071D01*
X180539047Y-76955833D01*
X180491428Y-76908214D01*
X180396190Y-76860595D01*
X180158095Y-76860595D01*
X180062857Y-76908214D01*
X180015238Y-76955833D01*
X179967619Y-77051071D01*
X179967619Y-77336785D01*
X180015238Y-77432023D01*
X180062857Y-77479642D01*
X180062857Y-76432023D02*
X180015238Y-76384404D01*
X179967619Y-76432023D01*
X180015238Y-76479642D01*
X180062857Y-76432023D01*
X179967619Y-76432023D01*
X180967619Y-76051071D02*
X180967619Y-75432023D01*
X180586666Y-75765357D01*
X180586666Y-75622500D01*
X180539047Y-75527261D01*
X180491428Y-75479642D01*
X180396190Y-75432023D01*
X180158095Y-75432023D01*
X180062857Y-75479642D01*
X180015238Y-75527261D01*
X179967619Y-75622500D01*
X179967619Y-75908214D01*
X180015238Y-76003452D01*
X180062857Y-76051071D01*
X180634285Y-75098690D02*
X179967619Y-74860595D01*
X180634285Y-74622500D01*
X166557619Y-76908214D02*
X166557619Y-77384404D01*
X166081428Y-77432023D01*
X166129047Y-77384404D01*
X166176666Y-77289166D01*
X166176666Y-77051071D01*
X166129047Y-76955833D01*
X166081428Y-76908214D01*
X165986190Y-76860595D01*
X165748095Y-76860595D01*
X165652857Y-76908214D01*
X165605238Y-76955833D01*
X165557619Y-77051071D01*
X165557619Y-77289166D01*
X165605238Y-77384404D01*
X165652857Y-77432023D01*
X166224285Y-76527261D02*
X165557619Y-76289166D01*
X166224285Y-76051071D01*
X108687619Y-65962262D02*
X108687619Y-66438452D01*
X108211428Y-66486071D01*
X108259047Y-66438452D01*
X108306666Y-66343214D01*
X108306666Y-66105119D01*
X108259047Y-66009881D01*
X108211428Y-65962262D01*
X108116190Y-65914643D01*
X107878095Y-65914643D01*
X107782857Y-65962262D01*
X107735238Y-66009881D01*
X107687619Y-66105119D01*
X107687619Y-66343214D01*
X107735238Y-66438452D01*
X107782857Y-66486071D01*
X108354285Y-65581309D02*
X107687619Y-65343214D01*
X108354285Y-65105119D01*
X108687619Y-76908214D02*
X108687619Y-77384404D01*
X108211428Y-77432023D01*
X108259047Y-77384404D01*
X108306666Y-77289166D01*
X108306666Y-77051071D01*
X108259047Y-76955833D01*
X108211428Y-76908214D01*
X108116190Y-76860595D01*
X107878095Y-76860595D01*
X107782857Y-76908214D01*
X107735238Y-76955833D01*
X107687619Y-77051071D01*
X107687619Y-77289166D01*
X107735238Y-77384404D01*
X107782857Y-77432023D01*
X108354285Y-76527261D02*
X107687619Y-76289166D01*
X108354285Y-76051071D01*
X166647619Y-65962262D02*
X166647619Y-66438452D01*
X166171428Y-66486071D01*
X166219047Y-66438452D01*
X166266666Y-66343214D01*
X166266666Y-66105119D01*
X166219047Y-66009881D01*
X166171428Y-65962262D01*
X166076190Y-65914643D01*
X165838095Y-65914643D01*
X165742857Y-65962262D01*
X165695238Y-66009881D01*
X165647619Y-66105119D01*
X165647619Y-66343214D01*
X165695238Y-66438452D01*
X165742857Y-66486071D01*
X166314285Y-65581309D02*
X165647619Y-65343214D01*
X166314285Y-65105119D01*
X159610000Y-65914643D02*
X159657619Y-66009881D01*
X159657619Y-66152738D01*
X159610000Y-66295595D01*
X159514761Y-66390833D01*
X159419523Y-66438452D01*
X159229047Y-66486071D01*
X159086190Y-66486071D01*
X158895714Y-66438452D01*
X158800476Y-66390833D01*
X158705238Y-66295595D01*
X158657619Y-66152738D01*
X158657619Y-66057500D01*
X158705238Y-65914643D01*
X158752857Y-65867024D01*
X159086190Y-65867024D01*
X159086190Y-66057500D01*
X158657619Y-65438452D02*
X159657619Y-65438452D01*
X158657619Y-64867024D01*
X159657619Y-64867024D01*
X158657619Y-64390833D02*
X159657619Y-64390833D01*
X159657619Y-64152738D01*
X159610000Y-64009881D01*
X159514761Y-63914643D01*
X159419523Y-63867024D01*
X159229047Y-63819405D01*
X159086190Y-63819405D01*
X158895714Y-63867024D01*
X158800476Y-63914643D01*
X158705238Y-64009881D01*
X158657619Y-64152738D01*
X158657619Y-64390833D01*
X173800000Y-65914643D02*
X173847619Y-66009881D01*
X173847619Y-66152738D01*
X173800000Y-66295595D01*
X173704761Y-66390833D01*
X173609523Y-66438452D01*
X173419047Y-66486071D01*
X173276190Y-66486071D01*
X173085714Y-66438452D01*
X172990476Y-66390833D01*
X172895238Y-66295595D01*
X172847619Y-66152738D01*
X172847619Y-66057500D01*
X172895238Y-65914643D01*
X172942857Y-65867024D01*
X173276190Y-65867024D01*
X173276190Y-66057500D01*
X172847619Y-65438452D02*
X173847619Y-65438452D01*
X172847619Y-64867024D01*
X173847619Y-64867024D01*
X172847619Y-64390833D02*
X173847619Y-64390833D01*
X173847619Y-64152738D01*
X173800000Y-64009881D01*
X173704761Y-63914643D01*
X173609523Y-63867024D01*
X173419047Y-63819405D01*
X173276190Y-63819405D01*
X173085714Y-63867024D01*
X172990476Y-63914643D01*
X172895238Y-64009881D01*
X172847619Y-64152738D01*
X172847619Y-64390833D01*
X185700000Y-65914643D02*
X185747619Y-66009881D01*
X185747619Y-66152738D01*
X185700000Y-66295595D01*
X185604761Y-66390833D01*
X185509523Y-66438452D01*
X185319047Y-66486071D01*
X185176190Y-66486071D01*
X184985714Y-66438452D01*
X184890476Y-66390833D01*
X184795238Y-66295595D01*
X184747619Y-66152738D01*
X184747619Y-66057500D01*
X184795238Y-65914643D01*
X184842857Y-65867024D01*
X185176190Y-65867024D01*
X185176190Y-66057500D01*
X184747619Y-65438452D02*
X185747619Y-65438452D01*
X184747619Y-64867024D01*
X185747619Y-64867024D01*
X184747619Y-64390833D02*
X185747619Y-64390833D01*
X185747619Y-64152738D01*
X185700000Y-64009881D01*
X185604761Y-63914643D01*
X185509523Y-63867024D01*
X185319047Y-63819405D01*
X185176190Y-63819405D01*
X184985714Y-63867024D01*
X184890476Y-63914643D01*
X184795238Y-64009881D01*
X184747619Y-64152738D01*
X184747619Y-64390833D01*
X130630000Y-76860595D02*
X130677619Y-76955833D01*
X130677619Y-77098690D01*
X130630000Y-77241547D01*
X130534761Y-77336785D01*
X130439523Y-77384404D01*
X130249047Y-77432023D01*
X130106190Y-77432023D01*
X129915714Y-77384404D01*
X129820476Y-77336785D01*
X129725238Y-77241547D01*
X129677619Y-77098690D01*
X129677619Y-77003452D01*
X129725238Y-76860595D01*
X129772857Y-76812976D01*
X130106190Y-76812976D01*
X130106190Y-77003452D01*
X129677619Y-76384404D02*
X130677619Y-76384404D01*
X129677619Y-75812976D01*
X130677619Y-75812976D01*
X129677619Y-75336785D02*
X130677619Y-75336785D01*
X130677619Y-75098690D01*
X130630000Y-74955833D01*
X130534761Y-74860595D01*
X130439523Y-74812976D01*
X130249047Y-74765357D01*
X130106190Y-74765357D01*
X129915714Y-74812976D01*
X129820476Y-74860595D01*
X129725238Y-74955833D01*
X129677619Y-75098690D01*
X129677619Y-75336785D01*
X115970000Y-76860595D02*
X116017619Y-76955833D01*
X116017619Y-77098690D01*
X115970000Y-77241547D01*
X115874761Y-77336785D01*
X115779523Y-77384404D01*
X115589047Y-77432023D01*
X115446190Y-77432023D01*
X115255714Y-77384404D01*
X115160476Y-77336785D01*
X115065238Y-77241547D01*
X115017619Y-77098690D01*
X115017619Y-77003452D01*
X115065238Y-76860595D01*
X115112857Y-76812976D01*
X115446190Y-76812976D01*
X115446190Y-77003452D01*
X115017619Y-76384404D02*
X116017619Y-76384404D01*
X115017619Y-75812976D01*
X116017619Y-75812976D01*
X115017619Y-75336785D02*
X116017619Y-75336785D01*
X116017619Y-75098690D01*
X115970000Y-74955833D01*
X115874761Y-74860595D01*
X115779523Y-74812976D01*
X115589047Y-74765357D01*
X115446190Y-74765357D01*
X115255714Y-74812976D01*
X115160476Y-74860595D01*
X115065238Y-74955833D01*
X115017619Y-75098690D01*
X115017619Y-75336785D01*
X131160000Y-60660595D02*
X131207619Y-60755833D01*
X131207619Y-60898690D01*
X131160000Y-61041547D01*
X131064761Y-61136785D01*
X130969523Y-61184404D01*
X130779047Y-61232023D01*
X130636190Y-61232023D01*
X130445714Y-61184404D01*
X130350476Y-61136785D01*
X130255238Y-61041547D01*
X130207619Y-60898690D01*
X130207619Y-60803452D01*
X130255238Y-60660595D01*
X130302857Y-60612976D01*
X130636190Y-60612976D01*
X130636190Y-60803452D01*
X130207619Y-60184404D02*
X131207619Y-60184404D01*
X130207619Y-59612976D01*
X131207619Y-59612976D01*
X130207619Y-59136785D02*
X131207619Y-59136785D01*
X131207619Y-58898690D01*
X131160000Y-58755833D01*
X131064761Y-58660595D01*
X130969523Y-58612976D01*
X130779047Y-58565357D01*
X130636190Y-58565357D01*
X130445714Y-58612976D01*
X130350476Y-58660595D01*
X130255238Y-58755833D01*
X130207619Y-58898690D01*
X130207619Y-59136785D01*
X145200000Y-65914643D02*
X145247619Y-66009881D01*
X145247619Y-66152738D01*
X145200000Y-66295595D01*
X145104761Y-66390833D01*
X145009523Y-66438452D01*
X144819047Y-66486071D01*
X144676190Y-66486071D01*
X144485714Y-66438452D01*
X144390476Y-66390833D01*
X144295238Y-66295595D01*
X144247619Y-66152738D01*
X144247619Y-66057500D01*
X144295238Y-65914643D01*
X144342857Y-65867024D01*
X144676190Y-65867024D01*
X144676190Y-66057500D01*
X144247619Y-65438452D02*
X145247619Y-65438452D01*
X144247619Y-64867024D01*
X145247619Y-64867024D01*
X144247619Y-64390833D02*
X145247619Y-64390833D01*
X145247619Y-64152738D01*
X145200000Y-64009881D01*
X145104761Y-63914643D01*
X145009523Y-63867024D01*
X144819047Y-63819405D01*
X144676190Y-63819405D01*
X144485714Y-63867024D01*
X144390476Y-63914643D01*
X144295238Y-64009881D01*
X144247619Y-64152738D01*
X144247619Y-64390833D01*
X145150000Y-76860595D02*
X145197619Y-76955833D01*
X145197619Y-77098690D01*
X145150000Y-77241547D01*
X145054761Y-77336785D01*
X144959523Y-77384404D01*
X144769047Y-77432023D01*
X144626190Y-77432023D01*
X144435714Y-77384404D01*
X144340476Y-77336785D01*
X144245238Y-77241547D01*
X144197619Y-77098690D01*
X144197619Y-77003452D01*
X144245238Y-76860595D01*
X144292857Y-76812976D01*
X144626190Y-76812976D01*
X144626190Y-77003452D01*
X144197619Y-76384404D02*
X145197619Y-76384404D01*
X144197619Y-75812976D01*
X145197619Y-75812976D01*
X144197619Y-75336785D02*
X145197619Y-75336785D01*
X145197619Y-75098690D01*
X145150000Y-74955833D01*
X145054761Y-74860595D01*
X144959523Y-74812976D01*
X144769047Y-74765357D01*
X144626190Y-74765357D01*
X144435714Y-74812976D01*
X144340476Y-74860595D01*
X144245238Y-74955833D01*
X144197619Y-75098690D01*
X144197619Y-75336785D01*
X115930000Y-65914643D02*
X115977619Y-66009881D01*
X115977619Y-66152738D01*
X115930000Y-66295595D01*
X115834761Y-66390833D01*
X115739523Y-66438452D01*
X115549047Y-66486071D01*
X115406190Y-66486071D01*
X115215714Y-66438452D01*
X115120476Y-66390833D01*
X115025238Y-66295595D01*
X114977619Y-66152738D01*
X114977619Y-66057500D01*
X115025238Y-65914643D01*
X115072857Y-65867024D01*
X115406190Y-65867024D01*
X115406190Y-66057500D01*
X114977619Y-65438452D02*
X115977619Y-65438452D01*
X114977619Y-64867024D01*
X115977619Y-64867024D01*
X114977619Y-64390833D02*
X115977619Y-64390833D01*
X115977619Y-64152738D01*
X115930000Y-64009881D01*
X115834761Y-63914643D01*
X115739523Y-63867024D01*
X115549047Y-63819405D01*
X115406190Y-63819405D01*
X115215714Y-63867024D01*
X115120476Y-63914643D01*
X115025238Y-64009881D01*
X114977619Y-64152738D01*
X114977619Y-64390833D01*
X185960000Y-60640595D02*
X186007619Y-60735833D01*
X186007619Y-60878690D01*
X185960000Y-61021547D01*
X185864761Y-61116785D01*
X185769523Y-61164404D01*
X185579047Y-61212023D01*
X185436190Y-61212023D01*
X185245714Y-61164404D01*
X185150476Y-61116785D01*
X185055238Y-61021547D01*
X185007619Y-60878690D01*
X185007619Y-60783452D01*
X185055238Y-60640595D01*
X185102857Y-60592976D01*
X185436190Y-60592976D01*
X185436190Y-60783452D01*
X185007619Y-60164404D02*
X186007619Y-60164404D01*
X185007619Y-59592976D01*
X186007619Y-59592976D01*
X185007619Y-59116785D02*
X186007619Y-59116785D01*
X186007619Y-58878690D01*
X185960000Y-58735833D01*
X185864761Y-58640595D01*
X185769523Y-58592976D01*
X185579047Y-58545357D01*
X185436190Y-58545357D01*
X185245714Y-58592976D01*
X185150476Y-58640595D01*
X185055238Y-58735833D01*
X185007619Y-58878690D01*
X185007619Y-59116785D01*
X159490000Y-76860595D02*
X159537619Y-76955833D01*
X159537619Y-77098690D01*
X159490000Y-77241547D01*
X159394761Y-77336785D01*
X159299523Y-77384404D01*
X159109047Y-77432023D01*
X158966190Y-77432023D01*
X158775714Y-77384404D01*
X158680476Y-77336785D01*
X158585238Y-77241547D01*
X158537619Y-77098690D01*
X158537619Y-77003452D01*
X158585238Y-76860595D01*
X158632857Y-76812976D01*
X158966190Y-76812976D01*
X158966190Y-77003452D01*
X158537619Y-76384404D02*
X159537619Y-76384404D01*
X158537619Y-75812976D01*
X159537619Y-75812976D01*
X158537619Y-75336785D02*
X159537619Y-75336785D01*
X159537619Y-75098690D01*
X159490000Y-74955833D01*
X159394761Y-74860595D01*
X159299523Y-74812976D01*
X159109047Y-74765357D01*
X158966190Y-74765357D01*
X158775714Y-74812976D01*
X158680476Y-74860595D01*
X158585238Y-74955833D01*
X158537619Y-75098690D01*
X158537619Y-75336785D01*
X130620000Y-65914643D02*
X130667619Y-66009881D01*
X130667619Y-66152738D01*
X130620000Y-66295595D01*
X130524761Y-66390833D01*
X130429523Y-66438452D01*
X130239047Y-66486071D01*
X130096190Y-66486071D01*
X129905714Y-66438452D01*
X129810476Y-66390833D01*
X129715238Y-66295595D01*
X129667619Y-66152738D01*
X129667619Y-66057500D01*
X129715238Y-65914643D01*
X129762857Y-65867024D01*
X130096190Y-65867024D01*
X130096190Y-66057500D01*
X129667619Y-65438452D02*
X130667619Y-65438452D01*
X129667619Y-64867024D01*
X130667619Y-64867024D01*
X129667619Y-64390833D02*
X130667619Y-64390833D01*
X130667619Y-64152738D01*
X130620000Y-64009881D01*
X130524761Y-63914643D01*
X130429523Y-63867024D01*
X130239047Y-63819405D01*
X130096190Y-63819405D01*
X129905714Y-63867024D01*
X129810476Y-63914643D01*
X129715238Y-64009881D01*
X129667619Y-64152738D01*
X129667619Y-64390833D01*
X155970000Y-54910595D02*
X156017619Y-55005833D01*
X156017619Y-55148690D01*
X155970000Y-55291547D01*
X155874761Y-55386785D01*
X155779523Y-55434404D01*
X155589047Y-55482023D01*
X155446190Y-55482023D01*
X155255714Y-55434404D01*
X155160476Y-55386785D01*
X155065238Y-55291547D01*
X155017619Y-55148690D01*
X155017619Y-55053452D01*
X155065238Y-54910595D01*
X155112857Y-54862976D01*
X155446190Y-54862976D01*
X155446190Y-55053452D01*
X155017619Y-54434404D02*
X156017619Y-54434404D01*
X155017619Y-53862976D01*
X156017619Y-53862976D01*
X155017619Y-53386785D02*
X156017619Y-53386785D01*
X156017619Y-53148690D01*
X155970000Y-53005833D01*
X155874761Y-52910595D01*
X155779523Y-52862976D01*
X155589047Y-52815357D01*
X155446190Y-52815357D01*
X155255714Y-52862976D01*
X155160476Y-52910595D01*
X155065238Y-53005833D01*
X155017619Y-53148690D01*
X155017619Y-53386785D01*
X174110000Y-76860595D02*
X174157619Y-76955833D01*
X174157619Y-77098690D01*
X174110000Y-77241547D01*
X174014761Y-77336785D01*
X173919523Y-77384404D01*
X173729047Y-77432023D01*
X173586190Y-77432023D01*
X173395714Y-77384404D01*
X173300476Y-77336785D01*
X173205238Y-77241547D01*
X173157619Y-77098690D01*
X173157619Y-77003452D01*
X173205238Y-76860595D01*
X173252857Y-76812976D01*
X173586190Y-76812976D01*
X173586190Y-77003452D01*
X173157619Y-76384404D02*
X174157619Y-76384404D01*
X173157619Y-75812976D01*
X174157619Y-75812976D01*
X173157619Y-75336785D02*
X174157619Y-75336785D01*
X174157619Y-75098690D01*
X174110000Y-74955833D01*
X174014761Y-74860595D01*
X173919523Y-74812976D01*
X173729047Y-74765357D01*
X173586190Y-74765357D01*
X173395714Y-74812976D01*
X173300476Y-74860595D01*
X173205238Y-74955833D01*
X173157619Y-75098690D01*
X173157619Y-75336785D01*
X143610000Y-54910595D02*
X143657619Y-55005833D01*
X143657619Y-55148690D01*
X143610000Y-55291547D01*
X143514761Y-55386785D01*
X143419523Y-55434404D01*
X143229047Y-55482023D01*
X143086190Y-55482023D01*
X142895714Y-55434404D01*
X142800476Y-55386785D01*
X142705238Y-55291547D01*
X142657619Y-55148690D01*
X142657619Y-55053452D01*
X142705238Y-54910595D01*
X142752857Y-54862976D01*
X143086190Y-54862976D01*
X143086190Y-55053452D01*
X142657619Y-54434404D02*
X143657619Y-54434404D01*
X142657619Y-53862976D01*
X143657619Y-53862976D01*
X142657619Y-53386785D02*
X143657619Y-53386785D01*
X143657619Y-53148690D01*
X143610000Y-53005833D01*
X143514761Y-52910595D01*
X143419523Y-52862976D01*
X143229047Y-52815357D01*
X143086190Y-52815357D01*
X142895714Y-52862976D01*
X142800476Y-52910595D01*
X142705238Y-53005833D01*
X142657619Y-53148690D01*
X142657619Y-53386785D01*
X185940000Y-76860595D02*
X185987619Y-76955833D01*
X185987619Y-77098690D01*
X185940000Y-77241547D01*
X185844761Y-77336785D01*
X185749523Y-77384404D01*
X185559047Y-77432023D01*
X185416190Y-77432023D01*
X185225714Y-77384404D01*
X185130476Y-77336785D01*
X185035238Y-77241547D01*
X184987619Y-77098690D01*
X184987619Y-77003452D01*
X185035238Y-76860595D01*
X185082857Y-76812976D01*
X185416190Y-76812976D01*
X185416190Y-77003452D01*
X184987619Y-76384404D02*
X185987619Y-76384404D01*
X184987619Y-75812976D01*
X185987619Y-75812976D01*
X184987619Y-75336785D02*
X185987619Y-75336785D01*
X185987619Y-75098690D01*
X185940000Y-74955833D01*
X185844761Y-74860595D01*
X185749523Y-74812976D01*
X185559047Y-74765357D01*
X185416190Y-74765357D01*
X185225714Y-74812976D01*
X185130476Y-74860595D01*
X185035238Y-74955833D01*
X184987619Y-75098690D01*
X184987619Y-75336785D01*
X191458333Y-70139047D02*
X191458333Y-69662857D01*
X191172619Y-70234285D02*
X192172619Y-69900952D01*
X191172619Y-69567619D01*
X192172619Y-69377142D02*
X192172619Y-68805714D01*
X191172619Y-69091428D02*
X192172619Y-69091428D01*
X192172619Y-68281904D02*
X192172619Y-68091428D01*
X192125000Y-67996190D01*
X192029761Y-67900952D01*
X191839285Y-67853333D01*
X191505952Y-67853333D01*
X191315476Y-67900952D01*
X191220238Y-67996190D01*
X191172619Y-68091428D01*
X191172619Y-68281904D01*
X191220238Y-68377142D01*
X191315476Y-68472380D01*
X191505952Y-68520000D01*
X191839285Y-68520000D01*
X192029761Y-68472380D01*
X192125000Y-68377142D01*
X192172619Y-68281904D01*
X191172619Y-66900952D02*
X191172619Y-67472380D01*
X191172619Y-67186666D02*
X192172619Y-67186666D01*
X192029761Y-67281904D01*
X191934523Y-67377142D01*
X191886904Y-67472380D01*
X190475000Y-70520000D02*
X190522619Y-70615238D01*
X190522619Y-70758095D01*
X190475000Y-70900952D01*
X190379761Y-70996190D01*
X190284523Y-71043809D01*
X190094047Y-71091428D01*
X189951190Y-71091428D01*
X189760714Y-71043809D01*
X189665476Y-70996190D01*
X189570238Y-70900952D01*
X189522619Y-70758095D01*
X189522619Y-70662857D01*
X189570238Y-70520000D01*
X189617857Y-70472380D01*
X189951190Y-70472380D01*
X189951190Y-70662857D01*
X189522619Y-70043809D02*
X190522619Y-70043809D01*
X189522619Y-69472380D01*
X190522619Y-69472380D01*
X189522619Y-68996190D02*
X190522619Y-68996190D01*
X190522619Y-68758095D01*
X190475000Y-68615238D01*
X190379761Y-68520000D01*
X190284523Y-68472380D01*
X190094047Y-68424761D01*
X189951190Y-68424761D01*
X189760714Y-68472380D01*
X189665476Y-68520000D01*
X189570238Y-68615238D01*
X189522619Y-68758095D01*
X189522619Y-68996190D01*
X190522619Y-66758095D02*
X190522619Y-67234285D01*
X190046428Y-67281904D01*
X190094047Y-67234285D01*
X190141666Y-67139047D01*
X190141666Y-66900952D01*
X190094047Y-66805714D01*
X190046428Y-66758095D01*
X189951190Y-66710476D01*
X189713095Y-66710476D01*
X189617857Y-66758095D01*
X189570238Y-66805714D01*
X189522619Y-66900952D01*
X189522619Y-67139047D01*
X189570238Y-67234285D01*
X189617857Y-67281904D01*
X190189285Y-66377142D02*
X189522619Y-66139047D01*
X190189285Y-65900952D01*
X191328333Y-79339047D02*
X191328333Y-78862857D01*
X191042619Y-79434285D02*
X192042619Y-79100952D01*
X191042619Y-78767619D01*
X192042619Y-78577142D02*
X192042619Y-78005714D01*
X191042619Y-78291428D02*
X192042619Y-78291428D01*
X192042619Y-77481904D02*
X192042619Y-77291428D01*
X191995000Y-77196190D01*
X191899761Y-77100952D01*
X191709285Y-77053333D01*
X191375952Y-77053333D01*
X191185476Y-77100952D01*
X191090238Y-77196190D01*
X191042619Y-77291428D01*
X191042619Y-77481904D01*
X191090238Y-77577142D01*
X191185476Y-77672380D01*
X191375952Y-77720000D01*
X191709285Y-77720000D01*
X191899761Y-77672380D01*
X191995000Y-77577142D01*
X192042619Y-77481904D01*
X191947380Y-76672380D02*
X191995000Y-76624761D01*
X192042619Y-76529523D01*
X192042619Y-76291428D01*
X191995000Y-76196190D01*
X191947380Y-76148571D01*
X191852142Y-76100952D01*
X191756904Y-76100952D01*
X191614047Y-76148571D01*
X191042619Y-76720000D01*
X191042619Y-76100952D01*
X190345000Y-79720000D02*
X190392619Y-79815238D01*
X190392619Y-79958095D01*
X190345000Y-80100952D01*
X190249761Y-80196190D01*
X190154523Y-80243809D01*
X189964047Y-80291428D01*
X189821190Y-80291428D01*
X189630714Y-80243809D01*
X189535476Y-80196190D01*
X189440238Y-80100952D01*
X189392619Y-79958095D01*
X189392619Y-79862857D01*
X189440238Y-79720000D01*
X189487857Y-79672380D01*
X189821190Y-79672380D01*
X189821190Y-79862857D01*
X189392619Y-79243809D02*
X190392619Y-79243809D01*
X189392619Y-78672380D01*
X190392619Y-78672380D01*
X189392619Y-78196190D02*
X190392619Y-78196190D01*
X190392619Y-77958095D01*
X190345000Y-77815238D01*
X190249761Y-77720000D01*
X190154523Y-77672380D01*
X189964047Y-77624761D01*
X189821190Y-77624761D01*
X189630714Y-77672380D01*
X189535476Y-77720000D01*
X189440238Y-77815238D01*
X189392619Y-77958095D01*
X189392619Y-78196190D01*
X190392619Y-75958095D02*
X190392619Y-76434285D01*
X189916428Y-76481904D01*
X189964047Y-76434285D01*
X190011666Y-76339047D01*
X190011666Y-76100952D01*
X189964047Y-76005714D01*
X189916428Y-75958095D01*
X189821190Y-75910476D01*
X189583095Y-75910476D01*
X189487857Y-75958095D01*
X189440238Y-76005714D01*
X189392619Y-76100952D01*
X189392619Y-76339047D01*
X189440238Y-76434285D01*
X189487857Y-76481904D01*
X190059285Y-75577142D02*
X189392619Y-75339047D01*
X190059285Y-75100952D01*
X103750619Y-89580404D02*
X104417285Y-89580404D01*
X104226809Y-89580404D02*
X104322047Y-89532785D01*
X104369666Y-89485166D01*
X104417285Y-89389928D01*
X104417285Y-89294690D01*
X103798238Y-88580404D02*
X103750619Y-88675642D01*
X103750619Y-88866119D01*
X103798238Y-88961357D01*
X103893476Y-89008976D01*
X104274428Y-89008976D01*
X104369666Y-88961357D01*
X104417285Y-88866119D01*
X104417285Y-88675642D01*
X104369666Y-88580404D01*
X104274428Y-88532785D01*
X104179190Y-88532785D01*
X104083952Y-89008976D01*
X103798238Y-87723261D02*
X103750619Y-87818500D01*
X103750619Y-88008976D01*
X103798238Y-88104214D01*
X103893476Y-88151833D01*
X104274428Y-88151833D01*
X104369666Y-88104214D01*
X104417285Y-88008976D01*
X104417285Y-87818500D01*
X104369666Y-87723261D01*
X104274428Y-87675642D01*
X104179190Y-87675642D01*
X104083952Y-88151833D01*
X104417285Y-87389928D02*
X104417285Y-87008976D01*
X103750619Y-87247071D02*
X104607761Y-87247071D01*
X104703000Y-87199452D01*
X104750619Y-87104214D01*
X104750619Y-87008976D01*
X104131571Y-86675642D02*
X104131571Y-85913738D01*
X104417285Y-85437547D02*
X103417285Y-85437547D01*
X104369666Y-85437547D02*
X104417285Y-85342309D01*
X104417285Y-85151833D01*
X104369666Y-85056595D01*
X104322047Y-85008976D01*
X104226809Y-84961357D01*
X103941095Y-84961357D01*
X103845857Y-85008976D01*
X103798238Y-85056595D01*
X103750619Y-85151833D01*
X103750619Y-85342309D01*
X103798238Y-85437547D01*
X103750619Y-84532785D02*
X104417285Y-84532785D01*
X104750619Y-84532785D02*
X104703000Y-84580404D01*
X104655380Y-84532785D01*
X104703000Y-84485166D01*
X104750619Y-84532785D01*
X104655380Y-84532785D01*
X103798238Y-83342309D02*
X103750619Y-83247071D01*
X103750619Y-83056595D01*
X103798238Y-82961357D01*
X103893476Y-82913738D01*
X103941095Y-82913738D01*
X104036333Y-82961357D01*
X104083952Y-83056595D01*
X104083952Y-83199452D01*
X104131571Y-83294690D01*
X104226809Y-83342309D01*
X104274428Y-83342309D01*
X104369666Y-83294690D01*
X104417285Y-83199452D01*
X104417285Y-83056595D01*
X104369666Y-82961357D01*
X103750619Y-82056595D02*
X104274428Y-82056595D01*
X104369666Y-82104214D01*
X104417285Y-82199452D01*
X104417285Y-82389928D01*
X104369666Y-82485166D01*
X103798238Y-82056595D02*
X103750619Y-82151833D01*
X103750619Y-82389928D01*
X103798238Y-82485166D01*
X103893476Y-82532785D01*
X103988714Y-82532785D01*
X104083952Y-82485166D01*
X104131571Y-82389928D01*
X104131571Y-82151833D01*
X104179190Y-82056595D01*
X103750619Y-81580404D02*
X104417285Y-81580404D01*
X104750619Y-81580404D02*
X104703000Y-81628023D01*
X104655380Y-81580404D01*
X104703000Y-81532785D01*
X104750619Y-81580404D01*
X104655380Y-81580404D01*
X103750619Y-80961357D02*
X103798238Y-81056595D01*
X103893476Y-81104214D01*
X104750619Y-81104214D01*
X104417285Y-80723261D02*
X104417285Y-80342309D01*
X103750619Y-80580404D02*
X104607761Y-80580404D01*
X104703000Y-80532785D01*
X104750619Y-80437547D01*
X104750619Y-80342309D01*
X103750619Y-80008976D02*
X104417285Y-80008976D01*
X104750619Y-80008976D02*
X104703000Y-80056595D01*
X104655380Y-80008976D01*
X104703000Y-79961357D01*
X104750619Y-80008976D01*
X104655380Y-80008976D01*
X104417285Y-79532785D02*
X103750619Y-79532785D01*
X104322047Y-79532785D02*
X104369666Y-79485166D01*
X104417285Y-79389928D01*
X104417285Y-79247071D01*
X104369666Y-79151833D01*
X104274428Y-79104214D01*
X103750619Y-79104214D01*
X103750619Y-77342309D02*
X103750619Y-77913738D01*
X103750619Y-77628023D02*
X104750619Y-77628023D01*
X104607761Y-77723261D01*
X104512523Y-77818500D01*
X104464904Y-77913738D01*
X104750619Y-76723261D02*
X104750619Y-76628023D01*
X104703000Y-76532785D01*
X104655380Y-76485166D01*
X104560142Y-76437547D01*
X104369666Y-76389928D01*
X104131571Y-76389928D01*
X103941095Y-76437547D01*
X103845857Y-76485166D01*
X103798238Y-76532785D01*
X103750619Y-76628023D01*
X103750619Y-76723261D01*
X103798238Y-76818500D01*
X103845857Y-76866119D01*
X103941095Y-76913738D01*
X104131571Y-76961357D01*
X104369666Y-76961357D01*
X104560142Y-76913738D01*
X104655380Y-76866119D01*
X104703000Y-76818500D01*
X104750619Y-76723261D01*
X104750619Y-75770880D02*
X104750619Y-75675642D01*
X104703000Y-75580404D01*
X104655380Y-75532785D01*
X104560142Y-75485166D01*
X104369666Y-75437547D01*
X104131571Y-75437547D01*
X103941095Y-75485166D01*
X103845857Y-75532785D01*
X103798238Y-75580404D01*
X103750619Y-75675642D01*
X103750619Y-75770880D01*
X103798238Y-75866119D01*
X103845857Y-75913738D01*
X103941095Y-75961357D01*
X104131571Y-76008976D01*
X104369666Y-76008976D01*
X104560142Y-75961357D01*
X104655380Y-75913738D01*
X104703000Y-75866119D01*
X104750619Y-75770880D01*
X103750619Y-75008976D02*
X104417285Y-75008976D01*
X104322047Y-75008976D02*
X104369666Y-74961357D01*
X104417285Y-74866119D01*
X104417285Y-74723261D01*
X104369666Y-74628023D01*
X104274428Y-74580404D01*
X103750619Y-74580404D01*
X104274428Y-74580404D02*
X104369666Y-74532785D01*
X104417285Y-74437547D01*
X104417285Y-74294690D01*
X104369666Y-74199452D01*
X104274428Y-74151833D01*
X103750619Y-74151833D01*
X103750619Y-73675642D02*
X104417285Y-73675642D01*
X104322047Y-73675642D02*
X104369666Y-73628023D01*
X104417285Y-73532785D01*
X104417285Y-73389928D01*
X104369666Y-73294690D01*
X104274428Y-73247071D01*
X103750619Y-73247071D01*
X104274428Y-73247071D02*
X104369666Y-73199452D01*
X104417285Y-73104214D01*
X104417285Y-72961357D01*
X104369666Y-72866119D01*
X104274428Y-72818500D01*
X103750619Y-72818500D01*
X104417285Y-71723261D02*
X104417285Y-71342309D01*
X103750619Y-71580404D02*
X104607761Y-71580404D01*
X104703000Y-71532785D01*
X104750619Y-71437547D01*
X104750619Y-71342309D01*
X103750619Y-71008976D02*
X104417285Y-71008976D01*
X104226809Y-71008976D02*
X104322047Y-70961357D01*
X104369666Y-70913738D01*
X104417285Y-70818500D01*
X104417285Y-70723261D01*
X103750619Y-70247071D02*
X103798238Y-70342309D01*
X103845857Y-70389928D01*
X103941095Y-70437547D01*
X104226809Y-70437547D01*
X104322047Y-70389928D01*
X104369666Y-70342309D01*
X104417285Y-70247071D01*
X104417285Y-70104214D01*
X104369666Y-70008976D01*
X104322047Y-69961357D01*
X104226809Y-69913738D01*
X103941095Y-69913738D01*
X103845857Y-69961357D01*
X103798238Y-70008976D01*
X103750619Y-70104214D01*
X103750619Y-70247071D01*
X104417285Y-69485166D02*
X103750619Y-69485166D01*
X104322047Y-69485166D02*
X104369666Y-69437547D01*
X104417285Y-69342309D01*
X104417285Y-69199452D01*
X104369666Y-69104214D01*
X104274428Y-69056595D01*
X103750619Y-69056595D01*
X104417285Y-68723261D02*
X104417285Y-68342309D01*
X104750619Y-68580404D02*
X103893476Y-68580404D01*
X103798238Y-68532785D01*
X103750619Y-68437547D01*
X103750619Y-68342309D01*
X104417285Y-67247071D02*
X103417285Y-67247071D01*
X104369666Y-67247071D02*
X104417285Y-67151833D01*
X104417285Y-66961357D01*
X104369666Y-66866119D01*
X104322047Y-66818500D01*
X104226809Y-66770880D01*
X103941095Y-66770880D01*
X103845857Y-66818500D01*
X103798238Y-66866119D01*
X103750619Y-66961357D01*
X103750619Y-67151833D01*
X103798238Y-67247071D01*
X103750619Y-65913738D02*
X104274428Y-65913738D01*
X104369666Y-65961357D01*
X104417285Y-66056595D01*
X104417285Y-66247071D01*
X104369666Y-66342309D01*
X103798238Y-65913738D02*
X103750619Y-66008976D01*
X103750619Y-66247071D01*
X103798238Y-66342309D01*
X103893476Y-66389928D01*
X103988714Y-66389928D01*
X104083952Y-66342309D01*
X104131571Y-66247071D01*
X104131571Y-66008976D01*
X104179190Y-65913738D01*
X104417285Y-65437547D02*
X103750619Y-65437547D01*
X104322047Y-65437547D02*
X104369666Y-65389928D01*
X104417285Y-65294690D01*
X104417285Y-65151833D01*
X104369666Y-65056595D01*
X104274428Y-65008976D01*
X103750619Y-65008976D01*
X103798238Y-64151833D02*
X103750619Y-64247071D01*
X103750619Y-64437547D01*
X103798238Y-64532785D01*
X103893476Y-64580404D01*
X104274428Y-64580404D01*
X104369666Y-64532785D01*
X104417285Y-64437547D01*
X104417285Y-64247071D01*
X104369666Y-64151833D01*
X104274428Y-64104214D01*
X104179190Y-64104214D01*
X104083952Y-64580404D01*
X103750619Y-63532785D02*
X103798238Y-63628023D01*
X103893476Y-63675642D01*
X104750619Y-63675642D01*
X102767285Y-89151833D02*
X101957761Y-89151833D01*
X101862523Y-89199452D01*
X101814904Y-89247071D01*
X101767285Y-89342309D01*
X101767285Y-89485166D01*
X101814904Y-89580404D01*
X102148238Y-89151833D02*
X102100619Y-89247071D01*
X102100619Y-89437547D01*
X102148238Y-89532785D01*
X102195857Y-89580404D01*
X102291095Y-89628023D01*
X102576809Y-89628023D01*
X102672047Y-89580404D01*
X102719666Y-89532785D01*
X102767285Y-89437547D01*
X102767285Y-89247071D01*
X102719666Y-89151833D01*
X102100619Y-88675642D02*
X102767285Y-88675642D01*
X103100619Y-88675642D02*
X103053000Y-88723261D01*
X103005380Y-88675642D01*
X103053000Y-88628023D01*
X103100619Y-88675642D01*
X103005380Y-88675642D01*
X102767285Y-88342309D02*
X102767285Y-87961357D01*
X103100619Y-88199452D02*
X102243476Y-88199452D01*
X102148238Y-88151833D01*
X102100619Y-88056595D01*
X102100619Y-87961357D01*
X102100619Y-87628023D02*
X103100619Y-87628023D01*
X102100619Y-87199452D02*
X102624428Y-87199452D01*
X102719666Y-87247071D01*
X102767285Y-87342309D01*
X102767285Y-87485166D01*
X102719666Y-87580404D01*
X102672047Y-87628023D01*
X102767285Y-86294690D02*
X102100619Y-86294690D01*
X102767285Y-86723261D02*
X102243476Y-86723261D01*
X102148238Y-86675642D01*
X102100619Y-86580404D01*
X102100619Y-86437547D01*
X102148238Y-86342309D01*
X102195857Y-86294690D01*
X102100619Y-85818500D02*
X103100619Y-85818500D01*
X102719666Y-85818500D02*
X102767285Y-85723261D01*
X102767285Y-85532785D01*
X102719666Y-85437547D01*
X102672047Y-85389928D01*
X102576809Y-85342309D01*
X102291095Y-85342309D01*
X102195857Y-85389928D01*
X102148238Y-85437547D01*
X102100619Y-85532785D01*
X102100619Y-85723261D01*
X102148238Y-85818500D01*
X102195857Y-84913738D02*
X102148238Y-84866119D01*
X102100619Y-84913738D01*
X102148238Y-84961357D01*
X102195857Y-84913738D01*
X102100619Y-84913738D01*
X102148238Y-84008976D02*
X102100619Y-84104214D01*
X102100619Y-84294690D01*
X102148238Y-84389928D01*
X102195857Y-84437547D01*
X102291095Y-84485166D01*
X102576809Y-84485166D01*
X102672047Y-84437547D01*
X102719666Y-84389928D01*
X102767285Y-84294690D01*
X102767285Y-84104214D01*
X102719666Y-84008976D01*
X102100619Y-83437547D02*
X102148238Y-83532785D01*
X102195857Y-83580404D01*
X102291095Y-83628023D01*
X102576809Y-83628023D01*
X102672047Y-83580404D01*
X102719666Y-83532785D01*
X102767285Y-83437547D01*
X102767285Y-83294690D01*
X102719666Y-83199452D01*
X102672047Y-83151833D01*
X102576809Y-83104214D01*
X102291095Y-83104214D01*
X102195857Y-83151833D01*
X102148238Y-83199452D01*
X102100619Y-83294690D01*
X102100619Y-83437547D01*
X102100619Y-82675642D02*
X102767285Y-82675642D01*
X102672047Y-82675642D02*
X102719666Y-82628023D01*
X102767285Y-82532785D01*
X102767285Y-82389928D01*
X102719666Y-82294690D01*
X102624428Y-82247071D01*
X102100619Y-82247071D01*
X102624428Y-82247071D02*
X102719666Y-82199452D01*
X102767285Y-82104214D01*
X102767285Y-81961357D01*
X102719666Y-81866119D01*
X102624428Y-81818500D01*
X102100619Y-81818500D01*
X103148238Y-80628023D02*
X101862523Y-81485166D01*
X102100619Y-80294690D02*
X102767285Y-80294690D01*
X102576809Y-80294690D02*
X102672047Y-80247071D01*
X102719666Y-80199452D01*
X102767285Y-80104214D01*
X102767285Y-80008976D01*
X102100619Y-79247071D02*
X102624428Y-79247071D01*
X102719666Y-79294690D01*
X102767285Y-79389928D01*
X102767285Y-79580404D01*
X102719666Y-79675642D01*
X102148238Y-79247071D02*
X102100619Y-79342309D01*
X102100619Y-79580404D01*
X102148238Y-79675642D01*
X102243476Y-79723261D01*
X102338714Y-79723261D01*
X102433952Y-79675642D01*
X102481571Y-79580404D01*
X102481571Y-79342309D01*
X102529190Y-79247071D01*
X102767285Y-78770880D02*
X102100619Y-78770880D01*
X102672047Y-78770880D02*
X102719666Y-78723261D01*
X102767285Y-78628023D01*
X102767285Y-78485166D01*
X102719666Y-78389928D01*
X102624428Y-78342309D01*
X102100619Y-78342309D01*
X102767285Y-78008976D02*
X102767285Y-77628023D01*
X103100619Y-77866119D02*
X102243476Y-77866119D01*
X102148238Y-77818500D01*
X102100619Y-77723261D01*
X102100619Y-77628023D01*
X102100619Y-77294690D02*
X103100619Y-77294690D01*
X102100619Y-76866119D02*
X102624428Y-76866119D01*
X102719666Y-76913738D01*
X102767285Y-77008976D01*
X102767285Y-77151833D01*
X102719666Y-77247071D01*
X102672047Y-77294690D01*
X102100619Y-75961357D02*
X102624428Y-75961357D01*
X102719666Y-76008976D01*
X102767285Y-76104214D01*
X102767285Y-76294690D01*
X102719666Y-76389928D01*
X102148238Y-75961357D02*
X102100619Y-76056595D01*
X102100619Y-76294690D01*
X102148238Y-76389928D01*
X102243476Y-76437547D01*
X102338714Y-76437547D01*
X102433952Y-76389928D01*
X102481571Y-76294690D01*
X102481571Y-76056595D01*
X102529190Y-75961357D01*
X102100619Y-75342309D02*
X102148238Y-75437547D01*
X102243476Y-75485166D01*
X103100619Y-75485166D01*
X102100619Y-74961357D02*
X102767285Y-74961357D01*
X103100619Y-74961357D02*
X103053000Y-75008976D01*
X103005380Y-74961357D01*
X103053000Y-74913738D01*
X103100619Y-74961357D01*
X103005380Y-74961357D01*
X102100619Y-74342309D02*
X102148238Y-74437547D01*
X102195857Y-74485166D01*
X102291095Y-74532785D01*
X102576809Y-74532785D01*
X102672047Y-74485166D01*
X102719666Y-74437547D01*
X102767285Y-74342309D01*
X102767285Y-74199452D01*
X102719666Y-74104214D01*
X102672047Y-74056595D01*
X102576809Y-74008976D01*
X102291095Y-74008976D01*
X102195857Y-74056595D01*
X102148238Y-74104214D01*
X102100619Y-74199452D01*
X102100619Y-74342309D01*
X102767285Y-73580404D02*
X102100619Y-73580404D01*
X102672047Y-73580404D02*
X102719666Y-73532785D01*
X102767285Y-73437547D01*
X102767285Y-73294690D01*
X102719666Y-73199452D01*
X102624428Y-73151833D01*
X102100619Y-73151833D01*
X103148238Y-71961357D02*
X101862523Y-72818500D01*
X102148238Y-71675642D02*
X102100619Y-71580404D01*
X102100619Y-71389928D01*
X102148238Y-71294690D01*
X102243476Y-71247071D01*
X102291095Y-71247071D01*
X102386333Y-71294690D01*
X102433952Y-71389928D01*
X102433952Y-71532785D01*
X102481571Y-71628023D01*
X102576809Y-71675642D01*
X102624428Y-71675642D01*
X102719666Y-71628023D01*
X102767285Y-71532785D01*
X102767285Y-71389928D01*
X102719666Y-71294690D01*
X102100619Y-70389928D02*
X102624428Y-70389928D01*
X102719666Y-70437547D01*
X102767285Y-70532785D01*
X102767285Y-70723261D01*
X102719666Y-70818500D01*
X102148238Y-70389928D02*
X102100619Y-70485166D01*
X102100619Y-70723261D01*
X102148238Y-70818500D01*
X102243476Y-70866119D01*
X102338714Y-70866119D01*
X102433952Y-70818500D01*
X102481571Y-70723261D01*
X102481571Y-70485166D01*
X102529190Y-70389928D01*
X102100619Y-69913738D02*
X102767285Y-69913738D01*
X103100619Y-69913738D02*
X103053000Y-69961357D01*
X103005380Y-69913738D01*
X103053000Y-69866119D01*
X103100619Y-69913738D01*
X103005380Y-69913738D01*
X102100619Y-69294690D02*
X102148238Y-69389928D01*
X102243476Y-69437547D01*
X103100619Y-69437547D01*
X102767285Y-69056595D02*
X102767285Y-68675642D01*
X102100619Y-68913738D02*
X102957761Y-68913738D01*
X103053000Y-68866119D01*
X103100619Y-68770880D01*
X103100619Y-68675642D01*
X102100619Y-68342309D02*
X102767285Y-68342309D01*
X103100619Y-68342309D02*
X103053000Y-68389928D01*
X103005380Y-68342309D01*
X103053000Y-68294690D01*
X103100619Y-68342309D01*
X103005380Y-68342309D01*
X102100619Y-67866119D02*
X102767285Y-67866119D01*
X103100619Y-67866119D02*
X103053000Y-67913738D01*
X103005380Y-67866119D01*
X103053000Y-67818500D01*
X103100619Y-67866119D01*
X103005380Y-67866119D01*
X102767285Y-67389928D02*
X102100619Y-67389928D01*
X102672047Y-67389928D02*
X102719666Y-67342309D01*
X102767285Y-67247071D01*
X102767285Y-67104214D01*
X102719666Y-67008976D01*
X102624428Y-66961357D01*
X102100619Y-66961357D01*
X103148238Y-65770880D02*
X101862523Y-66628023D01*
X102767285Y-65580404D02*
X102767285Y-65199452D01*
X102100619Y-65437547D02*
X102957761Y-65437547D01*
X103053000Y-65389928D01*
X103100619Y-65294690D01*
X103100619Y-65199452D01*
X102100619Y-64866119D02*
X102767285Y-64866119D01*
X102576809Y-64866119D02*
X102672047Y-64818500D01*
X102719666Y-64770880D01*
X102767285Y-64675642D01*
X102767285Y-64580404D01*
X102100619Y-64104214D02*
X102148238Y-64199452D01*
X102195857Y-64247071D01*
X102291095Y-64294690D01*
X102576809Y-64294690D01*
X102672047Y-64247071D01*
X102719666Y-64199452D01*
X102767285Y-64104214D01*
X102767285Y-63961357D01*
X102719666Y-63866119D01*
X102672047Y-63818500D01*
X102576809Y-63770880D01*
X102291095Y-63770880D01*
X102195857Y-63818500D01*
X102148238Y-63866119D01*
X102100619Y-63961357D01*
X102100619Y-64104214D01*
X102767285Y-63342309D02*
X102100619Y-63342309D01*
X102672047Y-63342309D02*
X102719666Y-63294690D01*
X102767285Y-63199452D01*
X102767285Y-63056595D01*
X102719666Y-62961357D01*
X102624428Y-62913738D01*
X102100619Y-62913738D01*
X102767285Y-62580404D02*
X102767285Y-62199452D01*
X103100619Y-62437547D02*
X102243476Y-62437547D01*
X102148238Y-62389928D01*
X102100619Y-62294690D01*
X102100619Y-62199452D01*
X102100619Y-61866119D02*
X103100619Y-61866119D01*
X103100619Y-61485166D01*
X103053000Y-61389928D01*
X103005380Y-61342309D01*
X102910142Y-61294690D01*
X102767285Y-61294690D01*
X102672047Y-61342309D01*
X102624428Y-61389928D01*
X102576809Y-61485166D01*
X102576809Y-61866119D01*
X102100619Y-60437547D02*
X102624428Y-60437547D01*
X102719666Y-60485166D01*
X102767285Y-60580404D01*
X102767285Y-60770880D01*
X102719666Y-60866119D01*
X102148238Y-60437547D02*
X102100619Y-60532785D01*
X102100619Y-60770880D01*
X102148238Y-60866119D01*
X102243476Y-60913738D01*
X102338714Y-60913738D01*
X102433952Y-60866119D01*
X102481571Y-60770880D01*
X102481571Y-60532785D01*
X102529190Y-60437547D01*
X102767285Y-59961357D02*
X102100619Y-59961357D01*
X102672047Y-59961357D02*
X102719666Y-59913738D01*
X102767285Y-59818500D01*
X102767285Y-59675642D01*
X102719666Y-59580404D01*
X102624428Y-59532785D01*
X102100619Y-59532785D01*
X102148238Y-58675642D02*
X102100619Y-58770880D01*
X102100619Y-58961357D01*
X102148238Y-59056595D01*
X102243476Y-59104214D01*
X102624428Y-59104214D01*
X102719666Y-59056595D01*
X102767285Y-58961357D01*
X102767285Y-58770880D01*
X102719666Y-58675642D01*
X102624428Y-58628023D01*
X102529190Y-58628023D01*
X102433952Y-59104214D01*
X102100619Y-58056595D02*
X102148238Y-58151833D01*
X102243476Y-58199452D01*
X103100619Y-58199452D01*
X102481571Y-57675642D02*
X102481571Y-56913738D01*
X102100619Y-55913738D02*
X102100619Y-56485166D01*
X102100619Y-56199452D02*
X103100619Y-56199452D01*
X102957761Y-56294690D01*
X102862523Y-56389928D01*
X102814904Y-56485166D01*
X103100619Y-55294690D02*
X103100619Y-55199452D01*
X103053000Y-55104214D01*
X103005380Y-55056595D01*
X102910142Y-55008976D01*
X102719666Y-54961357D01*
X102481571Y-54961357D01*
X102291095Y-55008976D01*
X102195857Y-55056595D01*
X102148238Y-55104214D01*
X102100619Y-55199452D01*
X102100619Y-55294690D01*
X102148238Y-55389928D01*
X102195857Y-55437547D01*
X102291095Y-55485166D01*
X102481571Y-55532785D01*
X102719666Y-55532785D01*
X102910142Y-55485166D01*
X103005380Y-55437547D01*
X103053000Y-55389928D01*
X103100619Y-55294690D01*
X103100619Y-54342309D02*
X103100619Y-54247071D01*
X103053000Y-54151833D01*
X103005380Y-54104214D01*
X102910142Y-54056595D01*
X102719666Y-54008976D01*
X102481571Y-54008976D01*
X102291095Y-54056595D01*
X102195857Y-54104214D01*
X102148238Y-54151833D01*
X102100619Y-54247071D01*
X102100619Y-54342309D01*
X102148238Y-54437547D01*
X102195857Y-54485166D01*
X102291095Y-54532785D01*
X102481571Y-54580404D01*
X102719666Y-54580404D01*
X102910142Y-54532785D01*
X103005380Y-54485166D01*
X103053000Y-54437547D01*
X103100619Y-54342309D01*
X102100619Y-53580404D02*
X102767285Y-53580404D01*
X102672047Y-53580404D02*
X102719666Y-53532785D01*
X102767285Y-53437547D01*
X102767285Y-53294690D01*
X102719666Y-53199452D01*
X102624428Y-53151833D01*
X102100619Y-53151833D01*
X102624428Y-53151833D02*
X102719666Y-53104214D01*
X102767285Y-53008976D01*
X102767285Y-52866119D01*
X102719666Y-52770880D01*
X102624428Y-52723261D01*
X102100619Y-52723261D01*
X102100619Y-52247071D02*
X102767285Y-52247071D01*
X102672047Y-52247071D02*
X102719666Y-52199452D01*
X102767285Y-52104214D01*
X102767285Y-51961357D01*
X102719666Y-51866119D01*
X102624428Y-51818500D01*
X102100619Y-51818500D01*
X102624428Y-51818500D02*
X102719666Y-51770880D01*
X102767285Y-51675642D01*
X102767285Y-51532785D01*
X102719666Y-51437547D01*
X102624428Y-51389928D01*
X102100619Y-51389928D01*
D11*
G04 #@! TO.C,J1*
X115510000Y-91050000D02*
X115510000Y-92410000D01*
X177990000Y-85850000D02*
X178560000Y-85850000D01*
X175450000Y-85850000D02*
X176470000Y-85850000D01*
X172910000Y-85850000D02*
X173930000Y-85850000D01*
X170370000Y-85850000D02*
X171390000Y-85850000D01*
X167830000Y-85850000D02*
X168850000Y-85850000D01*
X165290000Y-85850000D02*
X166310000Y-85850000D01*
X162750000Y-85850000D02*
X163770000Y-85850000D01*
X160210000Y-85850000D02*
X161230000Y-85850000D01*
X157670000Y-85850000D02*
X158690000Y-85850000D01*
X155130000Y-85850000D02*
X156150000Y-85850000D01*
X152590000Y-85850000D02*
X153610000Y-85850000D01*
X150050000Y-85850000D02*
X151070000Y-85850000D01*
X147510000Y-85850000D02*
X148530000Y-85850000D01*
X144970000Y-85850000D02*
X145990000Y-85850000D01*
X142430000Y-85850000D02*
X143450000Y-85850000D01*
X139890000Y-85850000D02*
X140910000Y-85850000D01*
X137350000Y-85850000D02*
X138370000Y-85850000D01*
X134810000Y-85850000D02*
X135830000Y-85850000D01*
X132270000Y-85850000D02*
X133290000Y-85850000D01*
X129730000Y-85850000D02*
X130750000Y-85850000D01*
X127190000Y-85850000D02*
X128210000Y-85850000D01*
X124650000Y-85850000D02*
X125670000Y-85850000D01*
X122110000Y-85850000D02*
X123130000Y-85850000D01*
X119570000Y-85850000D02*
X120590000Y-85850000D01*
X117030000Y-85850000D02*
X118050000Y-85850000D01*
X114940000Y-85850000D02*
X115510000Y-85850000D01*
X178560000Y-85850000D02*
X178560000Y-91050000D01*
X177990000Y-91050000D02*
X178560000Y-91050000D01*
X175450000Y-91050000D02*
X176470000Y-91050000D01*
X172910000Y-91050000D02*
X173930000Y-91050000D01*
X170370000Y-91050000D02*
X171390000Y-91050000D01*
X167830000Y-91050000D02*
X168850000Y-91050000D01*
X165290000Y-91050000D02*
X166310000Y-91050000D01*
X162750000Y-91050000D02*
X163770000Y-91050000D01*
X160210000Y-91050000D02*
X161230000Y-91050000D01*
X157670000Y-91050000D02*
X158690000Y-91050000D01*
X155130000Y-91050000D02*
X156150000Y-91050000D01*
X152590000Y-91050000D02*
X153610000Y-91050000D01*
X150050000Y-91050000D02*
X151070000Y-91050000D01*
X147510000Y-91050000D02*
X148530000Y-91050000D01*
X144970000Y-91050000D02*
X145990000Y-91050000D01*
X142430000Y-91050000D02*
X143450000Y-91050000D01*
X139890000Y-91050000D02*
X140910000Y-91050000D01*
X137350000Y-91050000D02*
X138370000Y-91050000D01*
X134810000Y-91050000D02*
X135830000Y-91050000D01*
X132270000Y-91050000D02*
X133290000Y-91050000D01*
X129730000Y-91050000D02*
X130750000Y-91050000D01*
X127190000Y-91050000D02*
X128210000Y-91050000D01*
X124650000Y-91050000D02*
X125670000Y-91050000D01*
X122110000Y-91050000D02*
X123130000Y-91050000D01*
X119570000Y-91050000D02*
X120590000Y-91050000D01*
X117030000Y-91050000D02*
X118050000Y-91050000D01*
X114940000Y-91050000D02*
X115510000Y-91050000D01*
X114940000Y-85850000D02*
X114940000Y-91050000D01*
G04 #@! TO.C,PA Vdd*
X187570000Y-52165000D02*
G75*
G03X186870000Y-51465000I-700000J0D01*
G01*
X186870000Y-53465000D02*
G75*
G03X187570000Y-52765000I0J700000D01*
G01*
X183470000Y-52765000D02*
G75*
G03X184170000Y-53465000I700000J0D01*
G01*
X184170000Y-51465000D02*
G75*
G03X183470000Y-52165000I0J-700000D01*
G01*
X186920000Y-51465000D02*
X184120000Y-51465000D01*
X183470000Y-52165000D02*
X183470000Y-52765000D01*
X184120000Y-53465000D02*
X186920000Y-53465000D01*
X187570000Y-52765000D02*
X187570000Y-52165000D01*
X186720000Y-53665000D02*
X187020000Y-53965000D01*
X187020000Y-53965000D02*
X186420000Y-53965000D01*
X186720000Y-53665000D02*
X186420000Y-53965000D01*
G04 #@! TO.C,PB Vdd*
X106940000Y-51550000D02*
X107240000Y-51250000D01*
X106640000Y-51250000D02*
X107240000Y-51250000D01*
X106940000Y-51550000D02*
X106640000Y-51250000D01*
X106090000Y-52450000D02*
X106090000Y-53050000D01*
X109540000Y-51750000D02*
X106740000Y-51750000D01*
X110190000Y-53050000D02*
X110190000Y-52450000D01*
X106740000Y-53750000D02*
X109540000Y-53750000D01*
X109490000Y-53750000D02*
G75*
G03X110190000Y-53050000I0J700000D01*
G01*
X110190000Y-52450000D02*
G75*
G03X109490000Y-51750000I-700000J0D01*
G01*
X106790000Y-51750000D02*
G75*
G03X106090000Y-52450000I0J-700000D01*
G01*
X106090000Y-53050000D02*
G75*
G03X106790000Y-53750000I700000J0D01*
G01*
G04 #@! TO.C,R1*
X188376779Y-64620000D02*
X188051221Y-64620000D01*
X188376779Y-65640000D02*
X188051221Y-65640000D01*
G04 #@! TO.C,R2*
X188047221Y-73890000D02*
X188372779Y-73890000D01*
X188047221Y-74910000D02*
X188372779Y-74910000D01*
G04 #@! TO.C,JP3*
X188514000Y-70360000D02*
G75*
G03X189214000Y-69660000I0J700000D01*
G01*
X187214000Y-69660000D02*
G75*
G03X187914000Y-70360000I700000J0D01*
G01*
X187914000Y-66260000D02*
G75*
G03X187214000Y-66960000I0J-700000D01*
G01*
X189214000Y-66960000D02*
G75*
G03X188514000Y-66260000I-700000J0D01*
G01*
X189214000Y-69710000D02*
X189214000Y-66910000D01*
X188514000Y-66260000D02*
X187914000Y-66260000D01*
X187214000Y-66910000D02*
X187214000Y-69710000D01*
X187914000Y-70360000D02*
X188514000Y-70360000D01*
X187014000Y-69510000D02*
X186714000Y-69810000D01*
X186714000Y-69810000D02*
X186714000Y-69210000D01*
X187014000Y-69510000D02*
X186714000Y-69210000D01*
G04 #@! TO.C,JP4*
X187014000Y-78670000D02*
X186714000Y-78370000D01*
X186714000Y-78970000D02*
X186714000Y-78370000D01*
X187014000Y-78670000D02*
X186714000Y-78970000D01*
X187914000Y-79520000D02*
X188514000Y-79520000D01*
X187214000Y-76070000D02*
X187214000Y-78870000D01*
X188514000Y-75420000D02*
X187914000Y-75420000D01*
X189214000Y-78870000D02*
X189214000Y-76070000D01*
X189214000Y-76120000D02*
G75*
G03X188514000Y-75420000I-700000J0D01*
G01*
X187914000Y-75420000D02*
G75*
G03X187214000Y-76120000I0J-700000D01*
G01*
X187214000Y-78820000D02*
G75*
G03X187914000Y-79520000I700000J0D01*
G01*
X188514000Y-79520000D02*
G75*
G03X189214000Y-78820000I0J700000D01*
G01*
D12*
G04 #@! TO.C,G\002A\002A\002A*
G36*
X111576254Y-83636985D02*
X111114381Y-83603521D01*
X110360402Y-83678128D01*
X109327252Y-83859905D01*
X108714098Y-83989799D01*
X107586668Y-84162389D01*
X106719050Y-84123423D01*
X106111902Y-83873140D01*
X105765881Y-83411784D01*
X105677457Y-82875135D01*
X105746161Y-82505130D01*
X105927862Y-81944164D01*
X106185944Y-81302603D01*
X106237087Y-81188391D01*
X106600938Y-80329240D01*
X106840403Y-79633864D01*
X106945280Y-79141200D01*
X106905369Y-78890186D01*
X106845456Y-78866158D01*
X106655744Y-79003218D01*
X106575646Y-79160529D01*
X106467916Y-79437234D01*
X106261220Y-79938385D01*
X105990537Y-80579822D01*
X105823972Y-80969101D01*
X105412572Y-82050503D01*
X105211758Y-82905254D01*
X105216660Y-83565083D01*
X105363327Y-83970330D01*
X105717627Y-84306327D01*
X106292945Y-84576340D01*
X106974449Y-84734055D01*
X107312120Y-84756308D01*
X107737488Y-84725253D01*
X108394507Y-84639089D01*
X109185593Y-84511887D01*
X109840702Y-84391724D01*
X110729718Y-84205474D01*
X111318655Y-84047144D01*
X111641595Y-83905708D01*
X111733086Y-83779421D01*
X111576254Y-83636985D01*
X111576254Y-83636985D01*
G37*
X111576254Y-83636985D02*
X111114381Y-83603521D01*
X110360402Y-83678128D01*
X109327252Y-83859905D01*
X108714098Y-83989799D01*
X107586668Y-84162389D01*
X106719050Y-84123423D01*
X106111902Y-83873140D01*
X105765881Y-83411784D01*
X105677457Y-82875135D01*
X105746161Y-82505130D01*
X105927862Y-81944164D01*
X106185944Y-81302603D01*
X106237087Y-81188391D01*
X106600938Y-80329240D01*
X106840403Y-79633864D01*
X106945280Y-79141200D01*
X106905369Y-78890186D01*
X106845456Y-78866158D01*
X106655744Y-79003218D01*
X106575646Y-79160529D01*
X106467916Y-79437234D01*
X106261220Y-79938385D01*
X105990537Y-80579822D01*
X105823972Y-80969101D01*
X105412572Y-82050503D01*
X105211758Y-82905254D01*
X105216660Y-83565083D01*
X105363327Y-83970330D01*
X105717627Y-84306327D01*
X106292945Y-84576340D01*
X106974449Y-84734055D01*
X107312120Y-84756308D01*
X107737488Y-84725253D01*
X108394507Y-84639089D01*
X109185593Y-84511887D01*
X109840702Y-84391724D01*
X110729718Y-84205474D01*
X111318655Y-84047144D01*
X111641595Y-83905708D01*
X111733086Y-83779421D01*
X111576254Y-83636985D01*
G36*
X112373159Y-85537799D02*
X112247497Y-85440536D01*
X111987944Y-85367038D01*
X111553495Y-85311990D01*
X110903146Y-85270079D01*
X109995892Y-85235991D01*
X108873483Y-85206364D01*
X107922168Y-85176755D01*
X107074418Y-85137148D01*
X106393778Y-85091542D01*
X105943795Y-85043934D01*
X105803616Y-85013183D01*
X105563461Y-84976300D01*
X105509245Y-85045002D01*
X105674025Y-85273918D01*
X106158774Y-85462225D01*
X106949107Y-85606560D01*
X108030636Y-85703563D01*
X108410900Y-85722983D01*
X109181230Y-85765531D01*
X109811182Y-85817483D01*
X110235105Y-85872218D01*
X110387391Y-85922349D01*
X110239351Y-86023714D01*
X109859236Y-86162260D01*
X109528960Y-86255679D01*
X108868042Y-86465501D01*
X108152141Y-86757109D01*
X107457653Y-87091167D01*
X106860975Y-87428337D01*
X106438503Y-87729282D01*
X106271469Y-87932996D01*
X106239353Y-88334705D01*
X106277406Y-88506895D01*
X106540379Y-88825704D01*
X107031340Y-89146408D01*
X107647163Y-89411367D01*
X108121236Y-89537400D01*
X108472758Y-89623679D01*
X108589202Y-89713136D01*
X108451938Y-89812196D01*
X108042336Y-89927284D01*
X107341766Y-90064827D01*
X106331598Y-90231247D01*
X105929775Y-90293195D01*
X105047327Y-90429266D01*
X104258660Y-90553959D01*
X103636331Y-90655581D01*
X103252899Y-90722437D01*
X103196331Y-90733744D01*
X102929705Y-90882340D01*
X102816342Y-91104664D01*
X102890988Y-91280763D01*
X103028119Y-91314476D01*
X103288025Y-91283656D01*
X103844910Y-91194516D01*
X104665517Y-91052940D01*
X105716584Y-90864815D01*
X106964852Y-90636027D01*
X108377061Y-90372461D01*
X108773535Y-90297727D01*
X109495753Y-90147832D01*
X110098058Y-89997751D01*
X110500213Y-89868845D01*
X110615455Y-89807365D01*
X110704993Y-89579736D01*
X110475100Y-89390316D01*
X109920546Y-89236780D01*
X109068216Y-89120013D01*
X108206600Y-89011272D01*
X107606281Y-88873506D01*
X107192157Y-88681740D01*
X106889128Y-88410996D01*
X106870792Y-88389232D01*
X106840516Y-88141155D01*
X107127840Y-87848481D01*
X107736278Y-87509318D01*
X108669346Y-87121774D01*
X109930559Y-86683955D01*
X110196036Y-86598600D01*
X111184480Y-86267243D01*
X111892369Y-85992625D01*
X112302899Y-85781852D01*
X112405934Y-85664140D01*
X112373159Y-85537799D01*
X112373159Y-85537799D01*
G37*
X112373159Y-85537799D02*
X112247497Y-85440536D01*
X111987944Y-85367038D01*
X111553495Y-85311990D01*
X110903146Y-85270079D01*
X109995892Y-85235991D01*
X108873483Y-85206364D01*
X107922168Y-85176755D01*
X107074418Y-85137148D01*
X106393778Y-85091542D01*
X105943795Y-85043934D01*
X105803616Y-85013183D01*
X105563461Y-84976300D01*
X105509245Y-85045002D01*
X105674025Y-85273918D01*
X106158774Y-85462225D01*
X106949107Y-85606560D01*
X108030636Y-85703563D01*
X108410900Y-85722983D01*
X109181230Y-85765531D01*
X109811182Y-85817483D01*
X110235105Y-85872218D01*
X110387391Y-85922349D01*
X110239351Y-86023714D01*
X109859236Y-86162260D01*
X109528960Y-86255679D01*
X108868042Y-86465501D01*
X108152141Y-86757109D01*
X107457653Y-87091167D01*
X106860975Y-87428337D01*
X106438503Y-87729282D01*
X106271469Y-87932996D01*
X106239353Y-88334705D01*
X106277406Y-88506895D01*
X106540379Y-88825704D01*
X107031340Y-89146408D01*
X107647163Y-89411367D01*
X108121236Y-89537400D01*
X108472758Y-89623679D01*
X108589202Y-89713136D01*
X108451938Y-89812196D01*
X108042336Y-89927284D01*
X107341766Y-90064827D01*
X106331598Y-90231247D01*
X105929775Y-90293195D01*
X105047327Y-90429266D01*
X104258660Y-90553959D01*
X103636331Y-90655581D01*
X103252899Y-90722437D01*
X103196331Y-90733744D01*
X102929705Y-90882340D01*
X102816342Y-91104664D01*
X102890988Y-91280763D01*
X103028119Y-91314476D01*
X103288025Y-91283656D01*
X103844910Y-91194516D01*
X104665517Y-91052940D01*
X105716584Y-90864815D01*
X106964852Y-90636027D01*
X108377061Y-90372461D01*
X108773535Y-90297727D01*
X109495753Y-90147832D01*
X110098058Y-89997751D01*
X110500213Y-89868845D01*
X110615455Y-89807365D01*
X110704993Y-89579736D01*
X110475100Y-89390316D01*
X109920546Y-89236780D01*
X109068216Y-89120013D01*
X108206600Y-89011272D01*
X107606281Y-88873506D01*
X107192157Y-88681740D01*
X106889128Y-88410996D01*
X106870792Y-88389232D01*
X106840516Y-88141155D01*
X107127840Y-87848481D01*
X107736278Y-87509318D01*
X108669346Y-87121774D01*
X109930559Y-86683955D01*
X110196036Y-86598600D01*
X111184480Y-86267243D01*
X111892369Y-85992625D01*
X112302899Y-85781852D01*
X112405934Y-85664140D01*
X112373159Y-85537799D01*
G04 #@! TO.C,PA Vdd*
D10*
X183094761Y-52912380D02*
X183094761Y-51912380D01*
X182713809Y-51912380D01*
X182618571Y-51960000D01*
X182570952Y-52007619D01*
X182523333Y-52102857D01*
X182523333Y-52245714D01*
X182570952Y-52340952D01*
X182618571Y-52388571D01*
X182713809Y-52436190D01*
X183094761Y-52436190D01*
X182142380Y-52626666D02*
X181666190Y-52626666D01*
X182237619Y-52912380D02*
X181904285Y-51912380D01*
X181570952Y-52912380D01*
X180618571Y-51912380D02*
X180285238Y-52912380D01*
X179951904Y-51912380D01*
X179190000Y-52912380D02*
X179190000Y-51912380D01*
X179190000Y-52864761D02*
X179285238Y-52912380D01*
X179475714Y-52912380D01*
X179570952Y-52864761D01*
X179618571Y-52817142D01*
X179666190Y-52721904D01*
X179666190Y-52436190D01*
X179618571Y-52340952D01*
X179570952Y-52293333D01*
X179475714Y-52245714D01*
X179285238Y-52245714D01*
X179190000Y-52293333D01*
X178285238Y-52912380D02*
X178285238Y-51912380D01*
X178285238Y-52864761D02*
X178380476Y-52912380D01*
X178570952Y-52912380D01*
X178666190Y-52864761D01*
X178713809Y-52817142D01*
X178761428Y-52721904D01*
X178761428Y-52436190D01*
X178713809Y-52340952D01*
X178666190Y-52293333D01*
X178570952Y-52245714D01*
X178380476Y-52245714D01*
X178285238Y-52293333D01*
G04 #@! TO.C,PB Vdd*
X115546190Y-53182380D02*
X115546190Y-52182380D01*
X115165238Y-52182380D01*
X115070000Y-52230000D01*
X115022380Y-52277619D01*
X114974761Y-52372857D01*
X114974761Y-52515714D01*
X115022380Y-52610952D01*
X115070000Y-52658571D01*
X115165238Y-52706190D01*
X115546190Y-52706190D01*
X114212857Y-52658571D02*
X114070000Y-52706190D01*
X114022380Y-52753809D01*
X113974761Y-52849047D01*
X113974761Y-52991904D01*
X114022380Y-53087142D01*
X114070000Y-53134761D01*
X114165238Y-53182380D01*
X114546190Y-53182380D01*
X114546190Y-52182380D01*
X114212857Y-52182380D01*
X114117619Y-52230000D01*
X114070000Y-52277619D01*
X114022380Y-52372857D01*
X114022380Y-52468095D01*
X114070000Y-52563333D01*
X114117619Y-52610952D01*
X114212857Y-52658571D01*
X114546190Y-52658571D01*
X112927142Y-52182380D02*
X112593809Y-53182380D01*
X112260476Y-52182380D01*
X111498571Y-53182380D02*
X111498571Y-52182380D01*
X111498571Y-53134761D02*
X111593809Y-53182380D01*
X111784285Y-53182380D01*
X111879523Y-53134761D01*
X111927142Y-53087142D01*
X111974761Y-52991904D01*
X111974761Y-52706190D01*
X111927142Y-52610952D01*
X111879523Y-52563333D01*
X111784285Y-52515714D01*
X111593809Y-52515714D01*
X111498571Y-52563333D01*
X110593809Y-53182380D02*
X110593809Y-52182380D01*
X110593809Y-53134761D02*
X110689047Y-53182380D01*
X110879523Y-53182380D01*
X110974761Y-53134761D01*
X111022380Y-53087142D01*
X111070000Y-52991904D01*
X111070000Y-52706190D01*
X111022380Y-52610952D01*
X110974761Y-52563333D01*
X110879523Y-52515714D01*
X110689047Y-52515714D01*
X110593809Y-52563333D01*
G04 #@! TO.C,R1*
X188396666Y-64172380D02*
X188730000Y-63696190D01*
X188968095Y-64172380D02*
X188968095Y-63172380D01*
X188587142Y-63172380D01*
X188491904Y-63220000D01*
X188444285Y-63267619D01*
X188396666Y-63362857D01*
X188396666Y-63505714D01*
X188444285Y-63600952D01*
X188491904Y-63648571D01*
X188587142Y-63696190D01*
X188968095Y-63696190D01*
X187444285Y-64172380D02*
X188015714Y-64172380D01*
X187730000Y-64172380D02*
X187730000Y-63172380D01*
X187825238Y-63315238D01*
X187920476Y-63410476D01*
X188015714Y-63458095D01*
G04 #@! TO.C,R2*
X188376666Y-73576380D02*
X188710000Y-73100190D01*
X188948095Y-73576380D02*
X188948095Y-72576380D01*
X188567142Y-72576380D01*
X188471904Y-72624000D01*
X188424285Y-72671619D01*
X188376666Y-72766857D01*
X188376666Y-72909714D01*
X188424285Y-73004952D01*
X188471904Y-73052571D01*
X188567142Y-73100190D01*
X188948095Y-73100190D01*
X187995714Y-72671619D02*
X187948095Y-72624000D01*
X187852857Y-72576380D01*
X187614761Y-72576380D01*
X187519523Y-72624000D01*
X187471904Y-72671619D01*
X187424285Y-72766857D01*
X187424285Y-72862095D01*
X187471904Y-73004952D01*
X188043333Y-73576380D01*
X187424285Y-73576380D01*
G04 #@! TD*
M02*
