M48
;DRILL file {KiCad (5.0.1)-3} date 4/19/2020 11:53:30 AM
;FORMAT={-:-/ absolute / inch / decimal}
FMAT,2
INCH,TZ
T1C0.0157
T2C0.0236
T3C0.0315
T4C0.0374
T5C0.0394
T6C0.0511
%
G90
G05
M72
T1
X0.7248Y-7.0024
X0.7508Y-4.5515
X0.7508Y-4.6515
X0.7508Y-4.7515
X0.7508Y-4.8515
X0.7508Y-4.9515
X0.7508Y-5.0515
X0.7508Y-5.1515
X0.7508Y-5.2515
X0.7508Y-6.0515
X0.7508Y-6.1515
X0.7508Y-6.2515
X0.7508Y-6.3515
X0.7508Y-6.4515
X0.7508Y-6.5515
X0.7508Y-6.6515
X0.7508Y-6.7515
X0.7508Y-6.8515
X0.8035Y-7.0024
X0.8744Y-5.65
X0.8776Y-5.7476
X0.8783Y-5.9594
X0.8803Y-5.5015
X0.8803Y-5.6015
X0.8803Y-5.7015
X0.8803Y-5.8015
X0.8803Y-5.9015
X0.8823Y-7.0024
X0.8843Y-5.4035
X1.0165Y-6.5626
X1.0209Y-4.3949
X1.1047Y-4.3921
X1.2146Y-4.9937
X1.263Y-4.3823
X1.263Y-4.4242
X1.3063Y-6.8799
X1.3583Y-6.0425
X1.3831Y-6.3047
X1.4055Y-4.6575
X1.4083Y-4.7161
X1.4248Y-4.465
X1.4374Y-4.5335
X1.4449Y-7.161
X1.4547Y-4.6575
X1.478Y-4.5335
X1.4909Y-7.2957
X1.5039Y-4.6575
X1.5173Y-7.2205
X1.5252Y-4.5335
X1.5512Y-4.465
X1.5531Y-4.6575
X1.5902Y-4.6717
X1.6181Y-4.637
X1.726Y-4.465
X1.7795Y-4.4941
X1.7906Y-7.0839
X1.8488Y-4.465
X1.8591Y-4.5772
X1.9835Y-6.628
X1.9886Y-4.5287
X1.9945Y-4.676
X2.011Y-4.7768
X2.0299Y-4.465
X2.0319Y-4.6256
X2.0748Y-4.5319
X2.0854Y-4.7504
X2.0858Y-4.8374
X2.0858Y-4.8864
X2.0858Y-4.9374
X2.1004Y-4.628
X2.1457Y-4.6984
X2.1504Y-4.465
X2.1531Y-4.5299
X2.1748Y-5.9409
X2.1811Y-5.1689
X2.1925Y-4.9409
X2.2138Y-5.8937
X2.2287Y-5.0039
X2.2307Y-5.0661
X2.2579Y-5.1728
X2.2587Y-5.0965
X2.2591Y-5.0335
X2.2634Y-6.502
X2.2894Y-6.0878
X2.2921Y-4.9409
X2.3323Y-4.465
X2.3394Y-4.5697
X2.34Y-5.38
X2.3555Y-4.7283
X2.38Y-5.37
X2.3894Y-4.8248
X2.3898Y-6.052
X2.3909Y-6.0965
X2.3945Y-6.8953
X2.4287Y-5.3657
X2.4563Y-4.465
X2.4819Y-4.9469
X2.498Y-4.7929
X2.5114Y-6.3071
X2.5138Y-6.1831
X2.5138Y-6.2484
X2.6272Y-7.0638
X2.635Y-4.465
X2.6638Y-6.1409
X2.678Y-7.0638
X2.6846Y-4.9291
X2.69Y-4.51
X2.71Y-4.81
X2.7291Y-7.0638
X2.7394Y-6.748
X2.7543Y-4.465
X2.7551Y-6.1409
X2.76Y-4.81
X2.7783Y-7.0638
X2.7909Y-5.7114
X2.8033Y-6.748
X2.81Y-4.81
X2.8201Y-4.976
X2.8287Y-7.0638
X2.8469Y-6.1409
X2.8504Y-5.6941
X2.8671Y-6.748
X2.878Y-7.0638
X2.88Y-4.47
X2.8854Y-4.6374
X2.8882Y-4.6874
X2.8921Y-4.7382
X2.911Y-5.6768
X2.9264Y-7.0638
X2.9283Y-4.5291
X2.9309Y-6.748
X2.9374Y-4.465
X2.9382Y-6.1409
X2.9567Y-5.4213
X2.9626Y-5.6705
X2.9909Y-5.0386
X2.9948Y-6.748
X2.9957Y-4.5165
X3.0193Y-5.4213
X3.0295Y-6.1409
X3.0586Y-6.748
X3.0587Y-4.465
X3.0776Y-7.0638
X3.0827Y-5.4213
X3.1209Y-6.1409
X3.1224Y-6.748
X3.1278Y-7.0638
X3.1457Y-5.4213
X3.1646Y-4.5394
X3.178Y-7.0638
X3.2075Y-5.4213
X3.2075Y-5.6713
X3.2118Y-6.1409
X3.228Y-7.0638
X3.2374Y-4.465
X3.2528Y-4.687
X3.2673Y-5.1996
X3.2697Y-5.4213
X3.2717Y-5.6783
X3.278Y-7.0638
X3.2787Y-4.6169
X3.2799Y-4.5283
X3.3Y-6.1409
X3.3087Y-4.6831
X3.3157Y-4.7579
X3.3232Y-5.6902
X3.328Y-7.0638
X3.3319Y-6.7484
X3.352Y-4.6827
X3.3606Y-4.465
X3.3661Y-7.1551
X3.3717Y-5.2071
X3.3717Y-5.2778
X3.3717Y-5.3484
X3.378Y-7.0638
X3.3957Y-4.6787
X3.4209Y-5.0724
X3.428Y-7.0638
X3.4366Y-4.6776
X3.4673Y-6.3319
X3.4689Y-4.9665
X3.4697Y-6.285
X3.4803Y-7.0646
X3.5134Y-5.5634
X3.5134Y-5.6421
X3.5134Y-5.7209
X3.5205Y-4.5252
X3.538Y-5.0724
X3.5449Y-4.465
X3.5827Y-4.5236
X3.6063Y-6.2008
X3.6165Y-6.3862
X3.6551Y-5.0724
X3.6598Y-4.524
X3.6622Y-4.465
X3.6701Y-6.1988
X3.7079Y-4.672
X3.7102Y-6.6236
X3.7102Y-6.701
X3.7102Y-6.7785
X3.7102Y-6.8559
X3.7146Y-6.022
X3.7146Y-6.1415
X3.8217Y-6.4272
X3.8396Y-6.022
X3.8396Y-6.1415
X3.9142Y-4.7969
X3.9646Y-6.022
X3.9646Y-6.1415
X3.9646Y-6.3004
X3.965Y-7.0382
X4.013Y-4.0118
X4.013Y-4.0984
X4.013Y-4.185
X4.113Y-6.5949
X4.1161Y-6.6756
X4.1268Y-6.9366
X4.1382Y-6.7909
X4.1437Y-7.0146
X4.1684Y-5.9452
X4.1692Y-5.7286
X4.1692Y-5.8369
X4.1697Y-4.0118
X4.1697Y-4.0984
X4.1697Y-4.185
X4.17Y-5.6203
X4.17Y-6.0535
X4.17Y-6.1618
X4.1988Y-4.6917
X4.2244Y-7.065
X4.3295Y-7.1079
T2
X0.7567Y-4.4114
X0.8878Y-4.5015
X1.602Y-7.0866
X2.1327Y-6.5201
X2.1819Y-5.3008
X3.0933Y-5.1547
X3.2161Y-5.1984
X3.7768Y-5.5929
X3.7783Y-4.4917
X4.0512Y-6.4209
X4.1181Y-6.4193
T3
X3.52Y-4.72
X3.6184Y-4.72
T4
X1.4429Y-5.9931
X1.5413Y-5.9931
X1.6398Y-5.9931
X1.7382Y-5.9931
X1.5413Y-5.3678
X1.6398Y-5.3678
X1.7382Y-5.3678
X1.5413Y-5.0551
X1.6398Y-5.0551
X1.7382Y-5.0551
X1.4429Y-6.6185
X1.5413Y-6.6185
X1.6398Y-6.6185
X1.7382Y-6.6185
X1.4429Y-5.6805
X1.5413Y-5.6805
X1.6398Y-5.6805
X1.7382Y-5.6805
X1.5413Y-6.3058
X1.6398Y-6.3058
X1.7382Y-6.3058
T5
X3.2488Y-4.2407
X3.3488Y-4.2407
X1.7342Y-4.0407
X1.8342Y-4.0407
X2.9463Y-4.2407
X3.0463Y-4.2407
X1.4409Y-4.1413
X1.5409Y-4.1413
X2.6495Y-4.0407
X2.7495Y-4.0407
X3.2488Y-4.1407
X3.3488Y-4.1407
X2.0394Y-4.2407
X2.1394Y-4.2407
X3.5471Y-4.0407
X3.6471Y-4.0407
X1.4405Y-4.0407
X1.5405Y-4.0407
X2.3394Y-4.2406
X2.4394Y-4.2406
X2.6496Y-4.1407
X2.7496Y-4.1407
X1.7342Y-4.1407
X1.8342Y-4.1407
X2.3397Y-4.0407
X2.4397Y-4.0407
X2.9463Y-4.0407
X3.0463Y-4.0407
X2.6496Y-4.2407
X2.7496Y-4.2407
X2.0393Y-4.0407
X2.1393Y-4.0407
X1.4409Y-4.2413
X1.5409Y-4.2413
X2.3397Y-4.1407
X2.4397Y-4.1407
X3.2487Y-4.0407
X3.3487Y-4.0407
X3.5471Y-4.2407
X3.6471Y-4.2407
X3.5471Y-4.1407
X3.6471Y-4.1407
X1.7342Y-4.2407
X1.8342Y-4.2407
X2.178Y-7.2299
X2.178Y-7.3299
X2.278Y-7.2299
X2.278Y-7.3299
X2.378Y-7.2299
X2.378Y-7.3299
X2.478Y-7.2299
X2.478Y-7.3299
X2.578Y-7.2299
X2.578Y-7.3299
X2.678Y-7.2299
X2.678Y-7.3299
X2.778Y-7.2299
X2.778Y-7.3299
X2.878Y-7.2299
X2.878Y-7.3299
X2.978Y-7.2299
X2.978Y-7.3299
X3.078Y-7.2299
X3.078Y-7.3299
X3.178Y-7.2299
X3.178Y-7.3299
X3.278Y-7.2299
X3.278Y-7.3299
X3.378Y-7.2299
X3.378Y-7.3299
X3.478Y-7.2299
X3.478Y-7.3299
X3.578Y-7.2299
X3.578Y-7.3299
X3.678Y-7.2299
X3.678Y-7.3299
X3.778Y-7.2299
X3.778Y-7.3299
X3.878Y-7.2299
X3.878Y-7.3299
X3.978Y-7.2299
X3.978Y-7.3299
X4.078Y-7.2299
X4.078Y-7.3299
X2.9465Y-4.1407
X3.0465Y-4.1407
X2.0394Y-4.1407
X2.1394Y-4.1407
T6
X4.26Y-4.2969
X4.26Y-4.4937
T5
X4.0091Y-5.0382G85X4.0091Y-4.9594
G05
X4.1665Y-4.8138G85X4.0878Y-4.8138
G05
X4.2453Y-5.0382G85X4.2453Y-4.9594
G05
T0
M30
