G04 #@! TF.GenerationSoftware,KiCad,Pcbnew,(5.0.1)-3*
G04 #@! TF.CreationDate,2020-04-19T11:53:27-04:00*
G04 #@! TF.ProjectId,sailfin,7361696C66696E2E6B696361645F7063,rev?*
G04 #@! TF.SameCoordinates,Original*
G04 #@! TF.FileFunction,Legend,Bot*
G04 #@! TF.FilePolarity,Positive*
%FSLAX46Y46*%
G04 Gerber Fmt 4.6, Leading zero omitted, Abs format (unit mm)*
G04 Created by KiCad (PCBNEW (5.0.1)-3) date 4/19/2020 11:53:27 AM*
%MOMM*%
%LPD*%
G01*
G04 APERTURE LIST*
%ADD10C,0.100000*%
%ADD11C,0.150000*%
%ADD12C,0.120000*%
G04 APERTURE END LIST*
D10*
X23724758Y-166141149D02*
X23724758Y-124631149D01*
X29204758Y-166141149D02*
X29204758Y-124641149D01*
X23744758Y-131591149D02*
X29200000Y-131591149D01*
X23734758Y-136511149D02*
X29200000Y-136511149D01*
X23754758Y-129921149D02*
X29190000Y-129921149D01*
X23734758Y-134881149D02*
X29200000Y-134881149D01*
X23724758Y-128281149D02*
X29180000Y-128281149D01*
X29200000Y-166141149D02*
X23724758Y-166141149D01*
X23744758Y-138181149D02*
X29200000Y-138181149D01*
X23744758Y-133221149D02*
X29190000Y-133221149D01*
X29200000Y-126641149D02*
X23734758Y-126641149D01*
X23724758Y-124631149D02*
X29200000Y-124631149D01*
X23724758Y-152991149D02*
X29190000Y-152991149D01*
X23724758Y-161271149D02*
X29200000Y-161271149D01*
X23724758Y-154681149D02*
X29200000Y-154681149D01*
X23734758Y-164601149D02*
X29190000Y-164601149D01*
X23734758Y-151381149D02*
X29190000Y-151381149D01*
X23734758Y-162951149D02*
X29200000Y-162951149D01*
X23744758Y-139871149D02*
X29200000Y-139871149D01*
X23744758Y-141491149D02*
X29190000Y-141491149D01*
X23724758Y-157991149D02*
X29190000Y-157991149D01*
X23734758Y-143131149D02*
X29200000Y-143131149D01*
X23744758Y-144801149D02*
X29200000Y-144801149D01*
X23734758Y-146411149D02*
X29200000Y-146411149D01*
X23724758Y-159641149D02*
X29200000Y-159641149D01*
X23734758Y-148091149D02*
X29200000Y-148091149D01*
X23744758Y-156311149D02*
X29200000Y-156311149D01*
X23734758Y-149741149D02*
X29200000Y-149741149D01*
D11*
X27665234Y-125313529D02*
X27046186Y-125313529D01*
X27379519Y-125694482D01*
X27236662Y-125694482D01*
X27141424Y-125742101D01*
X27093805Y-125789720D01*
X27046186Y-125884958D01*
X27046186Y-126123053D01*
X27093805Y-126218291D01*
X27141424Y-126265910D01*
X27236662Y-126313529D01*
X27522377Y-126313529D01*
X27617615Y-126265910D01*
X27665234Y-126218291D01*
X26712853Y-125646863D02*
X26474758Y-126313529D01*
X26236662Y-125646863D01*
X25950948Y-125313529D02*
X25331900Y-125313529D01*
X25665234Y-125694482D01*
X25522377Y-125694482D01*
X25427138Y-125742101D01*
X25379519Y-125789720D01*
X25331900Y-125884958D01*
X25331900Y-126123053D01*
X25379519Y-126218291D01*
X25427138Y-126265910D01*
X25522377Y-126313529D01*
X25808091Y-126313529D01*
X25903329Y-126265910D01*
X25950948Y-126218291D01*
X28617615Y-127677815D02*
X28141424Y-127677815D01*
X28712853Y-127963529D02*
X28379519Y-126963529D01*
X28046186Y-127963529D01*
X27522377Y-126963529D02*
X27331900Y-126963529D01*
X27236662Y-127011149D01*
X27141424Y-127106387D01*
X27093805Y-127296863D01*
X27093805Y-127630196D01*
X27141424Y-127820672D01*
X27236662Y-127915910D01*
X27331900Y-127963529D01*
X27522377Y-127963529D01*
X27617615Y-127915910D01*
X27712853Y-127820672D01*
X27760472Y-127630196D01*
X27760472Y-127296863D01*
X27712853Y-127106387D01*
X27617615Y-127011149D01*
X27522377Y-126963529D01*
X26665234Y-126963529D02*
X26665234Y-127773053D01*
X26617615Y-127868291D01*
X26569996Y-127915910D01*
X26474758Y-127963529D01*
X26284281Y-127963529D01*
X26189043Y-127915910D01*
X26141424Y-127868291D01*
X26093805Y-127773053D01*
X26093805Y-126963529D01*
X25760472Y-126963529D02*
X25189043Y-126963529D01*
X25474758Y-127963529D02*
X25474758Y-126963529D01*
X24903329Y-127058768D02*
X24855710Y-127011149D01*
X24760472Y-126963529D01*
X24522377Y-126963529D01*
X24427138Y-127011149D01*
X24379519Y-127058768D01*
X24331900Y-127154006D01*
X24331900Y-127249244D01*
X24379519Y-127392101D01*
X24950948Y-127963529D01*
X24331900Y-127963529D01*
X28617615Y-129327815D02*
X28141424Y-129327815D01*
X28712853Y-129613529D02*
X28379519Y-128613529D01*
X28046186Y-129613529D01*
X27522377Y-128613529D02*
X27331900Y-128613529D01*
X27236662Y-128661149D01*
X27141424Y-128756387D01*
X27093805Y-128946863D01*
X27093805Y-129280196D01*
X27141424Y-129470672D01*
X27236662Y-129565910D01*
X27331900Y-129613529D01*
X27522377Y-129613529D01*
X27617615Y-129565910D01*
X27712853Y-129470672D01*
X27760472Y-129280196D01*
X27760472Y-128946863D01*
X27712853Y-128756387D01*
X27617615Y-128661149D01*
X27522377Y-128613529D01*
X26665234Y-128613529D02*
X26665234Y-129423053D01*
X26617615Y-129518291D01*
X26569996Y-129565910D01*
X26474758Y-129613529D01*
X26284281Y-129613529D01*
X26189043Y-129565910D01*
X26141424Y-129518291D01*
X26093805Y-129423053D01*
X26093805Y-128613529D01*
X25760472Y-128613529D02*
X25189043Y-128613529D01*
X25474758Y-129613529D02*
X25474758Y-128613529D01*
X24427138Y-128946863D02*
X24427138Y-129613529D01*
X24665234Y-128565910D02*
X24903329Y-129280196D01*
X24284281Y-129280196D01*
X28617615Y-130977815D02*
X28141424Y-130977815D01*
X28712853Y-131263529D02*
X28379519Y-130263529D01*
X28046186Y-131263529D01*
X27522377Y-130263529D02*
X27331900Y-130263529D01*
X27236662Y-130311149D01*
X27141424Y-130406387D01*
X27093805Y-130596863D01*
X27093805Y-130930196D01*
X27141424Y-131120672D01*
X27236662Y-131215910D01*
X27331900Y-131263529D01*
X27522377Y-131263529D01*
X27617615Y-131215910D01*
X27712853Y-131120672D01*
X27760472Y-130930196D01*
X27760472Y-130596863D01*
X27712853Y-130406387D01*
X27617615Y-130311149D01*
X27522377Y-130263529D01*
X26665234Y-130263529D02*
X26665234Y-131073053D01*
X26617615Y-131168291D01*
X26569996Y-131215910D01*
X26474758Y-131263529D01*
X26284281Y-131263529D01*
X26189043Y-131215910D01*
X26141424Y-131168291D01*
X26093805Y-131073053D01*
X26093805Y-130263529D01*
X25760472Y-130263529D02*
X25189043Y-130263529D01*
X25474758Y-131263529D02*
X25474758Y-130263529D01*
X24427138Y-130263529D02*
X24617615Y-130263529D01*
X24712853Y-130311149D01*
X24760472Y-130358768D01*
X24855710Y-130501625D01*
X24903329Y-130692101D01*
X24903329Y-131073053D01*
X24855710Y-131168291D01*
X24808091Y-131215910D01*
X24712853Y-131263529D01*
X24522377Y-131263529D01*
X24427138Y-131215910D01*
X24379519Y-131168291D01*
X24331900Y-131073053D01*
X24331900Y-130834958D01*
X24379519Y-130739720D01*
X24427138Y-130692101D01*
X24522377Y-130644482D01*
X24712853Y-130644482D01*
X24808091Y-130692101D01*
X24855710Y-130739720D01*
X24903329Y-130834958D01*
X28617615Y-132627815D02*
X28141424Y-132627815D01*
X28712853Y-132913529D02*
X28379519Y-131913529D01*
X28046186Y-132913529D01*
X27522377Y-131913529D02*
X27331900Y-131913529D01*
X27236662Y-131961149D01*
X27141424Y-132056387D01*
X27093805Y-132246863D01*
X27093805Y-132580196D01*
X27141424Y-132770672D01*
X27236662Y-132865910D01*
X27331900Y-132913529D01*
X27522377Y-132913529D01*
X27617615Y-132865910D01*
X27712853Y-132770672D01*
X27760472Y-132580196D01*
X27760472Y-132246863D01*
X27712853Y-132056387D01*
X27617615Y-131961149D01*
X27522377Y-131913529D01*
X26665234Y-131913529D02*
X26665234Y-132723053D01*
X26617615Y-132818291D01*
X26569996Y-132865910D01*
X26474758Y-132913529D01*
X26284281Y-132913529D01*
X26189043Y-132865910D01*
X26141424Y-132818291D01*
X26093805Y-132723053D01*
X26093805Y-131913529D01*
X25760472Y-131913529D02*
X25189043Y-131913529D01*
X25474758Y-132913529D02*
X25474758Y-131913529D01*
X24712853Y-132342101D02*
X24808091Y-132294482D01*
X24855710Y-132246863D01*
X24903329Y-132151625D01*
X24903329Y-132104006D01*
X24855710Y-132008768D01*
X24808091Y-131961149D01*
X24712853Y-131913529D01*
X24522377Y-131913529D01*
X24427138Y-131961149D01*
X24379519Y-132008768D01*
X24331900Y-132104006D01*
X24331900Y-132151625D01*
X24379519Y-132246863D01*
X24427138Y-132294482D01*
X24522377Y-132342101D01*
X24712853Y-132342101D01*
X24808091Y-132389720D01*
X24855710Y-132437339D01*
X24903329Y-132532577D01*
X24903329Y-132723053D01*
X24855710Y-132818291D01*
X24808091Y-132865910D01*
X24712853Y-132913529D01*
X24522377Y-132913529D01*
X24427138Y-132865910D01*
X24379519Y-132818291D01*
X24331900Y-132723053D01*
X24331900Y-132532577D01*
X24379519Y-132437339D01*
X24427138Y-132389720D01*
X24522377Y-132342101D01*
X28355710Y-134563529D02*
X28355710Y-133563529D01*
X27974758Y-133563529D01*
X27879519Y-133611149D01*
X27831900Y-133658768D01*
X27784281Y-133754006D01*
X27784281Y-133896863D01*
X27831900Y-133992101D01*
X27879519Y-134039720D01*
X27974758Y-134087339D01*
X28355710Y-134087339D01*
X27450948Y-133563529D02*
X27212853Y-134563529D01*
X27022377Y-133849244D01*
X26831900Y-134563529D01*
X26593805Y-133563529D01*
X26212853Y-134563529D02*
X26212853Y-133563529D01*
X25879519Y-134277815D01*
X25546186Y-133563529D01*
X25546186Y-134563529D01*
X25165234Y-133563529D02*
X24498567Y-133563529D01*
X24927138Y-134563529D01*
X28355710Y-136213529D02*
X28355710Y-135213529D01*
X27974758Y-135213529D01*
X27879519Y-135261149D01*
X27831900Y-135308768D01*
X27784281Y-135404006D01*
X27784281Y-135546863D01*
X27831900Y-135642101D01*
X27879519Y-135689720D01*
X27974758Y-135737339D01*
X28355710Y-135737339D01*
X27450948Y-135213529D02*
X27212853Y-136213529D01*
X27022377Y-135499244D01*
X26831900Y-136213529D01*
X26593805Y-135213529D01*
X26212853Y-136213529D02*
X26212853Y-135213529D01*
X25879519Y-135927815D01*
X25546186Y-135213529D01*
X25546186Y-136213529D01*
X24593805Y-135213529D02*
X25069996Y-135213529D01*
X25117615Y-135689720D01*
X25069996Y-135642101D01*
X24974758Y-135594482D01*
X24736662Y-135594482D01*
X24641424Y-135642101D01*
X24593805Y-135689720D01*
X24546186Y-135784958D01*
X24546186Y-136023053D01*
X24593805Y-136118291D01*
X24641424Y-136165910D01*
X24736662Y-136213529D01*
X24974758Y-136213529D01*
X25069996Y-136165910D01*
X25117615Y-136118291D01*
X28355710Y-137863529D02*
X28355710Y-136863529D01*
X27974758Y-136863529D01*
X27879519Y-136911149D01*
X27831900Y-136958768D01*
X27784281Y-137054006D01*
X27784281Y-137196863D01*
X27831900Y-137292101D01*
X27879519Y-137339720D01*
X27974758Y-137387339D01*
X28355710Y-137387339D01*
X27450948Y-136863529D02*
X27212853Y-137863529D01*
X27022377Y-137149244D01*
X26831900Y-137863529D01*
X26593805Y-136863529D01*
X26212853Y-137863529D02*
X26212853Y-136863529D01*
X25879519Y-137577815D01*
X25546186Y-136863529D01*
X25546186Y-137863529D01*
X25165234Y-136863529D02*
X24546186Y-136863529D01*
X24879519Y-137244482D01*
X24736662Y-137244482D01*
X24641424Y-137292101D01*
X24593805Y-137339720D01*
X24546186Y-137434958D01*
X24546186Y-137673053D01*
X24593805Y-137768291D01*
X24641424Y-137815910D01*
X24736662Y-137863529D01*
X25022377Y-137863529D01*
X25117615Y-137815910D01*
X25165234Y-137768291D01*
X28355710Y-139513529D02*
X28355710Y-138513529D01*
X27974758Y-138513529D01*
X27879519Y-138561149D01*
X27831900Y-138608768D01*
X27784281Y-138704006D01*
X27784281Y-138846863D01*
X27831900Y-138942101D01*
X27879519Y-138989720D01*
X27974758Y-139037339D01*
X28355710Y-139037339D01*
X27450948Y-138513529D02*
X27212853Y-139513529D01*
X27022377Y-138799244D01*
X26831900Y-139513529D01*
X26593805Y-138513529D01*
X26212853Y-139513529D02*
X26212853Y-138513529D01*
X25879519Y-139227815D01*
X25546186Y-138513529D01*
X25546186Y-139513529D01*
X24546186Y-139513529D02*
X25117615Y-139513529D01*
X24831900Y-139513529D02*
X24831900Y-138513529D01*
X24927138Y-138656387D01*
X25022377Y-138751625D01*
X25117615Y-138799244D01*
X27236662Y-140211149D02*
X27331900Y-140163529D01*
X27474758Y-140163529D01*
X27617615Y-140211149D01*
X27712853Y-140306387D01*
X27760472Y-140401625D01*
X27808091Y-140592101D01*
X27808091Y-140734958D01*
X27760472Y-140925434D01*
X27712853Y-141020672D01*
X27617615Y-141115910D01*
X27474758Y-141163529D01*
X27379519Y-141163529D01*
X27236662Y-141115910D01*
X27189043Y-141068291D01*
X27189043Y-140734958D01*
X27379519Y-140734958D01*
X26760472Y-141163529D02*
X26760472Y-140163529D01*
X26189043Y-141163529D01*
X26189043Y-140163529D01*
X25712853Y-141163529D02*
X25712853Y-140163529D01*
X25474758Y-140163529D01*
X25331900Y-140211149D01*
X25236662Y-140306387D01*
X25189043Y-140401625D01*
X25141424Y-140592101D01*
X25141424Y-140734958D01*
X25189043Y-140925434D01*
X25236662Y-141020672D01*
X25331900Y-141115910D01*
X25474758Y-141163529D01*
X25712853Y-141163529D01*
X27760472Y-142527815D02*
X27284281Y-142527815D01*
X27855710Y-142813529D02*
X27522377Y-141813529D01*
X27189043Y-142813529D01*
X26998567Y-141813529D02*
X26665234Y-142813529D01*
X26331900Y-141813529D01*
X25998567Y-142432577D02*
X25236662Y-142432577D01*
X25617615Y-142813529D02*
X25617615Y-142051625D01*
X27950948Y-144177815D02*
X27474758Y-144177815D01*
X28046186Y-144463529D02*
X27712853Y-143463529D01*
X27379519Y-144463529D01*
X27046186Y-144463529D02*
X27046186Y-143463529D01*
X26569996Y-144463529D02*
X26569996Y-143463529D01*
X25998567Y-144463529D01*
X25998567Y-143463529D01*
X25617615Y-143463529D02*
X24998567Y-143463529D01*
X25331900Y-143844482D01*
X25189043Y-143844482D01*
X25093805Y-143892101D01*
X25046186Y-143939720D01*
X24998567Y-144034958D01*
X24998567Y-144273053D01*
X25046186Y-144368291D01*
X25093805Y-144415910D01*
X25189043Y-144463529D01*
X25474758Y-144463529D01*
X25569996Y-144415910D01*
X25617615Y-144368291D01*
X27236662Y-145161149D02*
X27331900Y-145113529D01*
X27474758Y-145113529D01*
X27617615Y-145161149D01*
X27712853Y-145256387D01*
X27760472Y-145351625D01*
X27808091Y-145542101D01*
X27808091Y-145684958D01*
X27760472Y-145875434D01*
X27712853Y-145970672D01*
X27617615Y-146065910D01*
X27474758Y-146113529D01*
X27379519Y-146113529D01*
X27236662Y-146065910D01*
X27189043Y-146018291D01*
X27189043Y-145684958D01*
X27379519Y-145684958D01*
X26760472Y-146113529D02*
X26760472Y-145113529D01*
X26189043Y-146113529D01*
X26189043Y-145113529D01*
X25712853Y-146113529D02*
X25712853Y-145113529D01*
X25474758Y-145113529D01*
X25331900Y-145161149D01*
X25236662Y-145256387D01*
X25189043Y-145351625D01*
X25141424Y-145542101D01*
X25141424Y-145684958D01*
X25189043Y-145875434D01*
X25236662Y-145970672D01*
X25331900Y-146065910D01*
X25474758Y-146113529D01*
X25712853Y-146113529D01*
X27665234Y-147715910D02*
X27522377Y-147763529D01*
X27284281Y-147763529D01*
X27189043Y-147715910D01*
X27141424Y-147668291D01*
X27093805Y-147573053D01*
X27093805Y-147477815D01*
X27141424Y-147382577D01*
X27189043Y-147334958D01*
X27284281Y-147287339D01*
X27474758Y-147239720D01*
X27569996Y-147192101D01*
X27617615Y-147144482D01*
X27665234Y-147049244D01*
X27665234Y-146954006D01*
X27617615Y-146858768D01*
X27569996Y-146811149D01*
X27474758Y-146763529D01*
X27236662Y-146763529D01*
X27093805Y-146811149D01*
X26093805Y-147668291D02*
X26141424Y-147715910D01*
X26284281Y-147763529D01*
X26379519Y-147763529D01*
X26522377Y-147715910D01*
X26617615Y-147620672D01*
X26665234Y-147525434D01*
X26712853Y-147334958D01*
X26712853Y-147192101D01*
X26665234Y-147001625D01*
X26617615Y-146906387D01*
X26522377Y-146811149D01*
X26379519Y-146763529D01*
X26284281Y-146763529D01*
X26141424Y-146811149D01*
X26093805Y-146858768D01*
X25189043Y-147763529D02*
X25665234Y-147763529D01*
X25665234Y-146763529D01*
X27236662Y-148461149D02*
X27331900Y-148413529D01*
X27474758Y-148413529D01*
X27617615Y-148461149D01*
X27712853Y-148556387D01*
X27760472Y-148651625D01*
X27808091Y-148842101D01*
X27808091Y-148984958D01*
X27760472Y-149175434D01*
X27712853Y-149270672D01*
X27617615Y-149365910D01*
X27474758Y-149413529D01*
X27379519Y-149413529D01*
X27236662Y-149365910D01*
X27189043Y-149318291D01*
X27189043Y-148984958D01*
X27379519Y-148984958D01*
X26760472Y-149413529D02*
X26760472Y-148413529D01*
X26189043Y-149413529D01*
X26189043Y-148413529D01*
X25712853Y-149413529D02*
X25712853Y-148413529D01*
X25474758Y-148413529D01*
X25331900Y-148461149D01*
X25236662Y-148556387D01*
X25189043Y-148651625D01*
X25141424Y-148842101D01*
X25141424Y-148984958D01*
X25189043Y-149175434D01*
X25236662Y-149270672D01*
X25331900Y-149365910D01*
X25474758Y-149413529D01*
X25712853Y-149413529D01*
X27712853Y-151063529D02*
X27712853Y-150063529D01*
X27331900Y-150063529D01*
X27236662Y-150111149D01*
X27189043Y-150158768D01*
X27141424Y-150254006D01*
X27141424Y-150396863D01*
X27189043Y-150492101D01*
X27236662Y-150539720D01*
X27331900Y-150587339D01*
X27712853Y-150587339D01*
X26379519Y-150539720D02*
X26236662Y-150587339D01*
X26189043Y-150634958D01*
X26141424Y-150730196D01*
X26141424Y-150873053D01*
X26189043Y-150968291D01*
X26236662Y-151015910D01*
X26331900Y-151063529D01*
X26712853Y-151063529D01*
X26712853Y-150063529D01*
X26379519Y-150063529D01*
X26284281Y-150111149D01*
X26236662Y-150158768D01*
X26189043Y-150254006D01*
X26189043Y-150349244D01*
X26236662Y-150444482D01*
X26284281Y-150492101D01*
X26379519Y-150539720D01*
X26712853Y-150539720D01*
X25569996Y-150492101D02*
X25665234Y-150444482D01*
X25712853Y-150396863D01*
X25760472Y-150301625D01*
X25760472Y-150254006D01*
X25712853Y-150158768D01*
X25665234Y-150111149D01*
X25569996Y-150063529D01*
X25379519Y-150063529D01*
X25284281Y-150111149D01*
X25236662Y-150158768D01*
X25189043Y-150254006D01*
X25189043Y-150301625D01*
X25236662Y-150396863D01*
X25284281Y-150444482D01*
X25379519Y-150492101D01*
X25569996Y-150492101D01*
X25665234Y-150539720D01*
X25712853Y-150587339D01*
X25760472Y-150682577D01*
X25760472Y-150873053D01*
X25712853Y-150968291D01*
X25665234Y-151015910D01*
X25569996Y-151063529D01*
X25379519Y-151063529D01*
X25284281Y-151015910D01*
X25236662Y-150968291D01*
X25189043Y-150873053D01*
X25189043Y-150682577D01*
X25236662Y-150587339D01*
X25284281Y-150539720D01*
X25379519Y-150492101D01*
X27712853Y-152713529D02*
X27712853Y-151713529D01*
X27331900Y-151713529D01*
X27236662Y-151761149D01*
X27189043Y-151808768D01*
X27141424Y-151904006D01*
X27141424Y-152046863D01*
X27189043Y-152142101D01*
X27236662Y-152189720D01*
X27331900Y-152237339D01*
X27712853Y-152237339D01*
X26379519Y-152189720D02*
X26236662Y-152237339D01*
X26189043Y-152284958D01*
X26141424Y-152380196D01*
X26141424Y-152523053D01*
X26189043Y-152618291D01*
X26236662Y-152665910D01*
X26331900Y-152713529D01*
X26712853Y-152713529D01*
X26712853Y-151713529D01*
X26379519Y-151713529D01*
X26284281Y-151761149D01*
X26236662Y-151808768D01*
X26189043Y-151904006D01*
X26189043Y-151999244D01*
X26236662Y-152094482D01*
X26284281Y-152142101D01*
X26379519Y-152189720D01*
X26712853Y-152189720D01*
X25284281Y-151713529D02*
X25474758Y-151713529D01*
X25569996Y-151761149D01*
X25617615Y-151808768D01*
X25712853Y-151951625D01*
X25760472Y-152142101D01*
X25760472Y-152523053D01*
X25712853Y-152618291D01*
X25665234Y-152665910D01*
X25569996Y-152713529D01*
X25379519Y-152713529D01*
X25284281Y-152665910D01*
X25236662Y-152618291D01*
X25189043Y-152523053D01*
X25189043Y-152284958D01*
X25236662Y-152189720D01*
X25284281Y-152142101D01*
X25379519Y-152094482D01*
X25569996Y-152094482D01*
X25665234Y-152142101D01*
X25712853Y-152189720D01*
X25760472Y-152284958D01*
X27712853Y-154363529D02*
X27712853Y-153363529D01*
X27331900Y-153363529D01*
X27236662Y-153411149D01*
X27189043Y-153458768D01*
X27141424Y-153554006D01*
X27141424Y-153696863D01*
X27189043Y-153792101D01*
X27236662Y-153839720D01*
X27331900Y-153887339D01*
X27712853Y-153887339D01*
X26379519Y-153839720D02*
X26236662Y-153887339D01*
X26189043Y-153934958D01*
X26141424Y-154030196D01*
X26141424Y-154173053D01*
X26189043Y-154268291D01*
X26236662Y-154315910D01*
X26331900Y-154363529D01*
X26712853Y-154363529D01*
X26712853Y-153363529D01*
X26379519Y-153363529D01*
X26284281Y-153411149D01*
X26236662Y-153458768D01*
X26189043Y-153554006D01*
X26189043Y-153649244D01*
X26236662Y-153744482D01*
X26284281Y-153792101D01*
X26379519Y-153839720D01*
X26712853Y-153839720D01*
X25284281Y-153696863D02*
X25284281Y-154363529D01*
X25522377Y-153315910D02*
X25760472Y-154030196D01*
X25141424Y-154030196D01*
X27712853Y-156013529D02*
X27712853Y-155013529D01*
X27331900Y-155013529D01*
X27236662Y-155061149D01*
X27189043Y-155108768D01*
X27141424Y-155204006D01*
X27141424Y-155346863D01*
X27189043Y-155442101D01*
X27236662Y-155489720D01*
X27331900Y-155537339D01*
X27712853Y-155537339D01*
X26379519Y-155489720D02*
X26236662Y-155537339D01*
X26189043Y-155584958D01*
X26141424Y-155680196D01*
X26141424Y-155823053D01*
X26189043Y-155918291D01*
X26236662Y-155965910D01*
X26331900Y-156013529D01*
X26712853Y-156013529D01*
X26712853Y-155013529D01*
X26379519Y-155013529D01*
X26284281Y-155061149D01*
X26236662Y-155108768D01*
X26189043Y-155204006D01*
X26189043Y-155299244D01*
X26236662Y-155394482D01*
X26284281Y-155442101D01*
X26379519Y-155489720D01*
X26712853Y-155489720D01*
X25760472Y-155108768D02*
X25712853Y-155061149D01*
X25617615Y-155013529D01*
X25379519Y-155013529D01*
X25284281Y-155061149D01*
X25236662Y-155108768D01*
X25189043Y-155204006D01*
X25189043Y-155299244D01*
X25236662Y-155442101D01*
X25808091Y-156013529D01*
X25189043Y-156013529D01*
X28093805Y-157377815D02*
X27617615Y-157377815D01*
X28189043Y-157663529D02*
X27855710Y-156663529D01*
X27522377Y-157663529D01*
X27331900Y-156663529D02*
X26760472Y-156663529D01*
X27046186Y-157663529D02*
X27046186Y-156663529D01*
X26236662Y-156663529D02*
X26046186Y-156663529D01*
X25950948Y-156711149D01*
X25855710Y-156806387D01*
X25808091Y-156996863D01*
X25808091Y-157330196D01*
X25855710Y-157520672D01*
X25950948Y-157615910D01*
X26046186Y-157663529D01*
X26236662Y-157663529D01*
X26331900Y-157615910D01*
X26427138Y-157520672D01*
X26474758Y-157330196D01*
X26474758Y-156996863D01*
X26427138Y-156806387D01*
X26331900Y-156711149D01*
X26236662Y-156663529D01*
X25427138Y-156758768D02*
X25379519Y-156711149D01*
X25284281Y-156663529D01*
X25046186Y-156663529D01*
X24950948Y-156711149D01*
X24903329Y-156758768D01*
X24855710Y-156854006D01*
X24855710Y-156949244D01*
X24903329Y-157092101D01*
X25474758Y-157663529D01*
X24855710Y-157663529D01*
X27641424Y-159313529D02*
X27641424Y-158313529D01*
X27260472Y-158313529D01*
X27165234Y-158361149D01*
X27117615Y-158408768D01*
X27069996Y-158504006D01*
X27069996Y-158646863D01*
X27117615Y-158742101D01*
X27165234Y-158789720D01*
X27260472Y-158837339D01*
X27641424Y-158837339D01*
X26689043Y-159027815D02*
X26212853Y-159027815D01*
X26784281Y-159313529D02*
X26450948Y-158313529D01*
X26117615Y-159313529D01*
X25641424Y-158742101D02*
X25736662Y-158694482D01*
X25784281Y-158646863D01*
X25831900Y-158551625D01*
X25831900Y-158504006D01*
X25784281Y-158408768D01*
X25736662Y-158361149D01*
X25641424Y-158313529D01*
X25450948Y-158313529D01*
X25355710Y-158361149D01*
X25308091Y-158408768D01*
X25260472Y-158504006D01*
X25260472Y-158551625D01*
X25308091Y-158646863D01*
X25355710Y-158694482D01*
X25450948Y-158742101D01*
X25641424Y-158742101D01*
X25736662Y-158789720D01*
X25784281Y-158837339D01*
X25831900Y-158932577D01*
X25831900Y-159123053D01*
X25784281Y-159218291D01*
X25736662Y-159265910D01*
X25641424Y-159313529D01*
X25450948Y-159313529D01*
X25355710Y-159265910D01*
X25308091Y-159218291D01*
X25260472Y-159123053D01*
X25260472Y-158932577D01*
X25308091Y-158837339D01*
X25355710Y-158789720D01*
X25450948Y-158742101D01*
X27641424Y-160963529D02*
X27641424Y-159963529D01*
X27260472Y-159963529D01*
X27165234Y-160011149D01*
X27117615Y-160058768D01*
X27069996Y-160154006D01*
X27069996Y-160296863D01*
X27117615Y-160392101D01*
X27165234Y-160439720D01*
X27260472Y-160487339D01*
X27641424Y-160487339D01*
X26689043Y-160677815D02*
X26212853Y-160677815D01*
X26784281Y-160963529D02*
X26450948Y-159963529D01*
X26117615Y-160963529D01*
X25355710Y-159963529D02*
X25546186Y-159963529D01*
X25641424Y-160011149D01*
X25689043Y-160058768D01*
X25784281Y-160201625D01*
X25831900Y-160392101D01*
X25831900Y-160773053D01*
X25784281Y-160868291D01*
X25736662Y-160915910D01*
X25641424Y-160963529D01*
X25450948Y-160963529D01*
X25355710Y-160915910D01*
X25308091Y-160868291D01*
X25260472Y-160773053D01*
X25260472Y-160534958D01*
X25308091Y-160439720D01*
X25355710Y-160392101D01*
X25450948Y-160344482D01*
X25641424Y-160344482D01*
X25736662Y-160392101D01*
X25784281Y-160439720D01*
X25831900Y-160534958D01*
X27641424Y-162613529D02*
X27641424Y-161613529D01*
X27260472Y-161613529D01*
X27165234Y-161661149D01*
X27117615Y-161708768D01*
X27069996Y-161804006D01*
X27069996Y-161946863D01*
X27117615Y-162042101D01*
X27165234Y-162089720D01*
X27260472Y-162137339D01*
X27641424Y-162137339D01*
X26689043Y-162327815D02*
X26212853Y-162327815D01*
X26784281Y-162613529D02*
X26450948Y-161613529D01*
X26117615Y-162613529D01*
X25355710Y-161946863D02*
X25355710Y-162613529D01*
X25593805Y-161565910D02*
X25831900Y-162280196D01*
X25212853Y-162280196D01*
X27641424Y-164263529D02*
X27641424Y-163263529D01*
X27260472Y-163263529D01*
X27165234Y-163311149D01*
X27117615Y-163358768D01*
X27069996Y-163454006D01*
X27069996Y-163596863D01*
X27117615Y-163692101D01*
X27165234Y-163739720D01*
X27260472Y-163787339D01*
X27641424Y-163787339D01*
X26689043Y-163977815D02*
X26212853Y-163977815D01*
X26784281Y-164263529D02*
X26450948Y-163263529D01*
X26117615Y-164263529D01*
X25831900Y-163358768D02*
X25784281Y-163311149D01*
X25689043Y-163263529D01*
X25450948Y-163263529D01*
X25355710Y-163311149D01*
X25308091Y-163358768D01*
X25260472Y-163454006D01*
X25260472Y-163549244D01*
X25308091Y-163692101D01*
X25879519Y-164263529D01*
X25260472Y-164263529D01*
X27236662Y-164961149D02*
X27331900Y-164913529D01*
X27474758Y-164913529D01*
X27617615Y-164961149D01*
X27712853Y-165056387D01*
X27760472Y-165151625D01*
X27808091Y-165342101D01*
X27808091Y-165484958D01*
X27760472Y-165675434D01*
X27712853Y-165770672D01*
X27617615Y-165865910D01*
X27474758Y-165913529D01*
X27379519Y-165913529D01*
X27236662Y-165865910D01*
X27189043Y-165818291D01*
X27189043Y-165484958D01*
X27379519Y-165484958D01*
X26760472Y-165913529D02*
X26760472Y-164913529D01*
X26189043Y-165913529D01*
X26189043Y-164913529D01*
X25712853Y-165913529D02*
X25712853Y-164913529D01*
X25474758Y-164913529D01*
X25331900Y-164961149D01*
X25236662Y-165056387D01*
X25189043Y-165151625D01*
X25141424Y-165342101D01*
X25141424Y-165484958D01*
X25189043Y-165675434D01*
X25236662Y-165770672D01*
X25331900Y-165865910D01*
X25474758Y-165913529D01*
X25712853Y-165913529D01*
X41190000Y-170117142D02*
X41142380Y-170021904D01*
X41142380Y-169879047D01*
X41190000Y-169736190D01*
X41285238Y-169640952D01*
X41380476Y-169593333D01*
X41570952Y-169545714D01*
X41713809Y-169545714D01*
X41904285Y-169593333D01*
X41999523Y-169640952D01*
X42094761Y-169736190D01*
X42142380Y-169879047D01*
X42142380Y-169974285D01*
X42094761Y-170117142D01*
X42047142Y-170164761D01*
X41713809Y-170164761D01*
X41713809Y-169974285D01*
X42142380Y-170593333D02*
X41142380Y-170593333D01*
X42142380Y-171164761D01*
X41142380Y-171164761D01*
X42142380Y-171640952D02*
X41142380Y-171640952D01*
X41142380Y-171879047D01*
X41190000Y-172021904D01*
X41285238Y-172117142D01*
X41380476Y-172164761D01*
X41570952Y-172212380D01*
X41713809Y-172212380D01*
X41904285Y-172164761D01*
X41999523Y-172117142D01*
X42094761Y-172021904D01*
X42142380Y-171879047D01*
X42142380Y-171640952D01*
X41094761Y-173355238D02*
X42380476Y-172498095D01*
X41142380Y-174164761D02*
X41142380Y-173688571D01*
X41618571Y-173640952D01*
X41570952Y-173688571D01*
X41523333Y-173783809D01*
X41523333Y-174021904D01*
X41570952Y-174117142D01*
X41618571Y-174164761D01*
X41713809Y-174212380D01*
X41951904Y-174212380D01*
X42047142Y-174164761D01*
X42094761Y-174117142D01*
X42142380Y-174021904D01*
X42142380Y-173783809D01*
X42094761Y-173688571D01*
X42047142Y-173640952D01*
X41475714Y-174545714D02*
X42142380Y-174783809D01*
X41475714Y-175021904D01*
X39256666Y-169580952D02*
X39256666Y-170057142D01*
X39542380Y-169485714D02*
X38542380Y-169819047D01*
X39542380Y-170152380D01*
X38542380Y-170342857D02*
X38542380Y-170914285D01*
X39542380Y-170628571D02*
X38542380Y-170628571D01*
X38542380Y-171438095D02*
X38542380Y-171628571D01*
X38590000Y-171723809D01*
X38685238Y-171819047D01*
X38875714Y-171866666D01*
X39209047Y-171866666D01*
X39399523Y-171819047D01*
X39494761Y-171723809D01*
X39542380Y-171628571D01*
X39542380Y-171438095D01*
X39494761Y-171342857D01*
X39399523Y-171247619D01*
X39209047Y-171200000D01*
X38875714Y-171200000D01*
X38685238Y-171247619D01*
X38590000Y-171342857D01*
X38542380Y-171438095D01*
X38637619Y-172247619D02*
X38590000Y-172295238D01*
X38542380Y-172390476D01*
X38542380Y-172628571D01*
X38590000Y-172723809D01*
X38637619Y-172771428D01*
X38732857Y-172819047D01*
X38828095Y-172819047D01*
X38970952Y-172771428D01*
X39542380Y-172200000D01*
X39542380Y-172819047D01*
X36092380Y-170107142D02*
X36092380Y-169630952D01*
X36568571Y-169583333D01*
X36520952Y-169630952D01*
X36473333Y-169726190D01*
X36473333Y-169964285D01*
X36520952Y-170059523D01*
X36568571Y-170107142D01*
X36663809Y-170154761D01*
X36901904Y-170154761D01*
X36997142Y-170107142D01*
X37044761Y-170059523D01*
X37092380Y-169964285D01*
X37092380Y-169726190D01*
X37044761Y-169630952D01*
X36997142Y-169583333D01*
X36425714Y-170488095D02*
X37092380Y-170726190D01*
X36425714Y-170964285D01*
X43780000Y-170068095D02*
X43732380Y-169972857D01*
X43732380Y-169830000D01*
X43780000Y-169687142D01*
X43875238Y-169591904D01*
X43970476Y-169544285D01*
X44160952Y-169496666D01*
X44303809Y-169496666D01*
X44494285Y-169544285D01*
X44589523Y-169591904D01*
X44684761Y-169687142D01*
X44732380Y-169830000D01*
X44732380Y-169925238D01*
X44684761Y-170068095D01*
X44637142Y-170115714D01*
X44303809Y-170115714D01*
X44303809Y-169925238D01*
X44732380Y-170544285D02*
X43732380Y-170544285D01*
X44732380Y-171115714D01*
X43732380Y-171115714D01*
X44732380Y-171591904D02*
X43732380Y-171591904D01*
X43732380Y-171830000D01*
X43780000Y-171972857D01*
X43875238Y-172068095D01*
X43970476Y-172115714D01*
X44160952Y-172163333D01*
X44303809Y-172163333D01*
X44494285Y-172115714D01*
X44589523Y-172068095D01*
X44684761Y-171972857D01*
X44732380Y-171830000D01*
X44732380Y-171591904D01*
X39572380Y-162083809D02*
X39572380Y-161512380D01*
X39572380Y-161798095D02*
X38572380Y-161798095D01*
X38715238Y-161702857D01*
X38810476Y-161607619D01*
X38858095Y-161512380D01*
X38572380Y-162417142D02*
X39572380Y-162655238D01*
X38858095Y-162845714D01*
X39572380Y-163036190D01*
X38572380Y-163274285D01*
X39572380Y-163655238D02*
X38572380Y-163655238D01*
X39572380Y-164702857D02*
X39096190Y-164369523D01*
X39572380Y-164131428D02*
X38572380Y-164131428D01*
X38572380Y-164512380D01*
X38620000Y-164607619D01*
X38667619Y-164655238D01*
X38762857Y-164702857D01*
X38905714Y-164702857D01*
X39000952Y-164655238D01*
X39048571Y-164607619D01*
X39096190Y-164512380D01*
X39096190Y-164131428D01*
X39048571Y-165131428D02*
X39048571Y-165464761D01*
X39572380Y-165607619D02*
X39572380Y-165131428D01*
X38572380Y-165131428D01*
X38572380Y-165607619D01*
X41170000Y-161958095D02*
X41122380Y-161862857D01*
X41122380Y-161720000D01*
X41170000Y-161577142D01*
X41265238Y-161481904D01*
X41360476Y-161434285D01*
X41550952Y-161386666D01*
X41693809Y-161386666D01*
X41884285Y-161434285D01*
X41979523Y-161481904D01*
X42074761Y-161577142D01*
X42122380Y-161720000D01*
X42122380Y-161815238D01*
X42074761Y-161958095D01*
X42027142Y-162005714D01*
X41693809Y-162005714D01*
X41693809Y-161815238D01*
X42122380Y-162434285D02*
X41122380Y-162434285D01*
X42122380Y-163005714D01*
X41122380Y-163005714D01*
X42122380Y-163481904D02*
X41122380Y-163481904D01*
X41122380Y-163720000D01*
X41170000Y-163862857D01*
X41265238Y-163958095D01*
X41360476Y-164005714D01*
X41550952Y-164053333D01*
X41693809Y-164053333D01*
X41884285Y-164005714D01*
X41979523Y-163958095D01*
X42074761Y-163862857D01*
X42122380Y-163720000D01*
X42122380Y-163481904D01*
X43592380Y-161641428D02*
X43592380Y-162260476D01*
X43973333Y-161927142D01*
X43973333Y-162070000D01*
X44020952Y-162165238D01*
X44068571Y-162212857D01*
X44163809Y-162260476D01*
X44401904Y-162260476D01*
X44497142Y-162212857D01*
X44544761Y-162165238D01*
X44592380Y-162070000D01*
X44592380Y-161784285D01*
X44544761Y-161689047D01*
X44497142Y-161641428D01*
X44497142Y-162689047D02*
X44544761Y-162736666D01*
X44592380Y-162689047D01*
X44544761Y-162641428D01*
X44497142Y-162689047D01*
X44592380Y-162689047D01*
X43592380Y-163070000D02*
X43592380Y-163689047D01*
X43973333Y-163355714D01*
X43973333Y-163498571D01*
X44020952Y-163593809D01*
X44068571Y-163641428D01*
X44163809Y-163689047D01*
X44401904Y-163689047D01*
X44497142Y-163641428D01*
X44544761Y-163593809D01*
X44592380Y-163498571D01*
X44592380Y-163212857D01*
X44544761Y-163117619D01*
X44497142Y-163070000D01*
X43925714Y-164022380D02*
X44592380Y-164260476D01*
X43925714Y-164498571D01*
X36062380Y-154137142D02*
X36062380Y-153660952D01*
X36538571Y-153613333D01*
X36490952Y-153660952D01*
X36443333Y-153756190D01*
X36443333Y-153994285D01*
X36490952Y-154089523D01*
X36538571Y-154137142D01*
X36633809Y-154184761D01*
X36871904Y-154184761D01*
X36967142Y-154137142D01*
X37014761Y-154089523D01*
X37062380Y-153994285D01*
X37062380Y-153756190D01*
X37014761Y-153660952D01*
X36967142Y-153613333D01*
X36395714Y-154518095D02*
X37062380Y-154756190D01*
X36395714Y-154994285D01*
X39604761Y-153779523D02*
X39652380Y-153922380D01*
X39652380Y-154160476D01*
X39604761Y-154255714D01*
X39557142Y-154303333D01*
X39461904Y-154350952D01*
X39366666Y-154350952D01*
X39271428Y-154303333D01*
X39223809Y-154255714D01*
X39176190Y-154160476D01*
X39128571Y-153970000D01*
X39080952Y-153874761D01*
X39033333Y-153827142D01*
X38938095Y-153779523D01*
X38842857Y-153779523D01*
X38747619Y-153827142D01*
X38700000Y-153874761D01*
X38652380Y-153970000D01*
X38652380Y-154208095D01*
X38700000Y-154350952D01*
X39557142Y-155350952D02*
X39604761Y-155303333D01*
X39652380Y-155160476D01*
X39652380Y-155065238D01*
X39604761Y-154922380D01*
X39509523Y-154827142D01*
X39414285Y-154779523D01*
X39223809Y-154731904D01*
X39080952Y-154731904D01*
X38890476Y-154779523D01*
X38795238Y-154827142D01*
X38700000Y-154922380D01*
X38652380Y-155065238D01*
X38652380Y-155160476D01*
X38700000Y-155303333D01*
X38747619Y-155350952D01*
X39652380Y-156255714D02*
X39652380Y-155779523D01*
X38652380Y-155779523D01*
X42104761Y-153605714D02*
X42152380Y-153748571D01*
X42152380Y-153986666D01*
X42104761Y-154081904D01*
X42057142Y-154129523D01*
X41961904Y-154177142D01*
X41866666Y-154177142D01*
X41771428Y-154129523D01*
X41723809Y-154081904D01*
X41676190Y-153986666D01*
X41628571Y-153796190D01*
X41580952Y-153700952D01*
X41533333Y-153653333D01*
X41438095Y-153605714D01*
X41342857Y-153605714D01*
X41247619Y-153653333D01*
X41200000Y-153700952D01*
X41152380Y-153796190D01*
X41152380Y-154034285D01*
X41200000Y-154177142D01*
X42152380Y-154605714D02*
X41152380Y-154605714D01*
X41152380Y-154843809D01*
X41200000Y-154986666D01*
X41295238Y-155081904D01*
X41390476Y-155129523D01*
X41580952Y-155177142D01*
X41723809Y-155177142D01*
X41914285Y-155129523D01*
X42009523Y-155081904D01*
X42104761Y-154986666D01*
X42152380Y-154843809D01*
X42152380Y-154605714D01*
X41866666Y-155558095D02*
X41866666Y-156034285D01*
X42152380Y-155462857D02*
X41152380Y-155796190D01*
X42152380Y-156129523D01*
X43690000Y-154168095D02*
X43642380Y-154072857D01*
X43642380Y-153930000D01*
X43690000Y-153787142D01*
X43785238Y-153691904D01*
X43880476Y-153644285D01*
X44070952Y-153596666D01*
X44213809Y-153596666D01*
X44404285Y-153644285D01*
X44499523Y-153691904D01*
X44594761Y-153787142D01*
X44642380Y-153930000D01*
X44642380Y-154025238D01*
X44594761Y-154168095D01*
X44547142Y-154215714D01*
X44213809Y-154215714D01*
X44213809Y-154025238D01*
X44642380Y-154644285D02*
X43642380Y-154644285D01*
X44642380Y-155215714D01*
X43642380Y-155215714D01*
X44642380Y-155691904D02*
X43642380Y-155691904D01*
X43642380Y-155930000D01*
X43690000Y-156072857D01*
X43785238Y-156168095D01*
X43880476Y-156215714D01*
X44070952Y-156263333D01*
X44213809Y-156263333D01*
X44404285Y-156215714D01*
X44499523Y-156168095D01*
X44594761Y-156072857D01*
X44642380Y-155930000D01*
X44642380Y-155691904D01*
X36866666Y-145723809D02*
X36866666Y-146200000D01*
X37152380Y-145628571D02*
X36152380Y-145961904D01*
X37152380Y-146295238D01*
X37152380Y-146628571D02*
X36152380Y-146628571D01*
X37152380Y-147104761D02*
X36152380Y-147104761D01*
X37152380Y-147676190D01*
X36152380Y-147676190D01*
X36152380Y-148057142D02*
X36152380Y-148676190D01*
X36533333Y-148342857D01*
X36533333Y-148485714D01*
X36580952Y-148580952D01*
X36628571Y-148628571D01*
X36723809Y-148676190D01*
X36961904Y-148676190D01*
X37057142Y-148628571D01*
X37104761Y-148580952D01*
X37152380Y-148485714D01*
X37152380Y-148200000D01*
X37104761Y-148104761D01*
X37057142Y-148057142D01*
X39316666Y-145773809D02*
X39316666Y-146250000D01*
X39602380Y-145678571D02*
X38602380Y-146011904D01*
X39602380Y-146345238D01*
X39602380Y-146678571D02*
X38602380Y-146678571D01*
X39602380Y-147154761D02*
X38602380Y-147154761D01*
X39602380Y-147726190D01*
X38602380Y-147726190D01*
X38935714Y-148630952D02*
X39602380Y-148630952D01*
X38554761Y-148392857D02*
X39269047Y-148154761D01*
X39269047Y-148773809D01*
X41886666Y-145844285D02*
X41886666Y-146320476D01*
X42172380Y-145749047D02*
X41172380Y-146082380D01*
X42172380Y-146415714D01*
X41172380Y-146606190D02*
X42172380Y-146939523D01*
X41172380Y-147272857D01*
X41791428Y-147606190D02*
X41791428Y-148368095D01*
X42172380Y-147987142D02*
X41410476Y-147987142D01*
X43720000Y-146238095D02*
X43672380Y-146142857D01*
X43672380Y-146000000D01*
X43720000Y-145857142D01*
X43815238Y-145761904D01*
X43910476Y-145714285D01*
X44100952Y-145666666D01*
X44243809Y-145666666D01*
X44434285Y-145714285D01*
X44529523Y-145761904D01*
X44624761Y-145857142D01*
X44672380Y-146000000D01*
X44672380Y-146095238D01*
X44624761Y-146238095D01*
X44577142Y-146285714D01*
X44243809Y-146285714D01*
X44243809Y-146095238D01*
X44672380Y-146714285D02*
X43672380Y-146714285D01*
X44672380Y-147285714D01*
X43672380Y-147285714D01*
X44672380Y-147761904D02*
X43672380Y-147761904D01*
X43672380Y-148000000D01*
X43720000Y-148142857D01*
X43815238Y-148238095D01*
X43910476Y-148285714D01*
X44100952Y-148333333D01*
X44243809Y-148333333D01*
X44434285Y-148285714D01*
X44529523Y-148238095D01*
X44624761Y-148142857D01*
X44672380Y-148000000D01*
X44672380Y-147761904D01*
X39256666Y-129897142D02*
X39256666Y-130373333D01*
X39542380Y-129801904D02*
X38542380Y-130135238D01*
X39542380Y-130468571D01*
X38542380Y-130992380D02*
X38542380Y-131182857D01*
X38590000Y-131278095D01*
X38685238Y-131373333D01*
X38875714Y-131420952D01*
X39209047Y-131420952D01*
X39399523Y-131373333D01*
X39494761Y-131278095D01*
X39542380Y-131182857D01*
X39542380Y-130992380D01*
X39494761Y-130897142D01*
X39399523Y-130801904D01*
X39209047Y-130754285D01*
X38875714Y-130754285D01*
X38685238Y-130801904D01*
X38590000Y-130897142D01*
X38542380Y-130992380D01*
X38542380Y-131849523D02*
X39351904Y-131849523D01*
X39447142Y-131897142D01*
X39494761Y-131944761D01*
X39542380Y-132040000D01*
X39542380Y-132230476D01*
X39494761Y-132325714D01*
X39447142Y-132373333D01*
X39351904Y-132420952D01*
X38542380Y-132420952D01*
X38542380Y-132754285D02*
X38542380Y-133325714D01*
X39542380Y-133040000D02*
X38542380Y-133040000D01*
X38875714Y-134087619D02*
X39542380Y-134087619D01*
X38494761Y-133849523D02*
X39209047Y-133611428D01*
X39209047Y-134230476D01*
X41210000Y-130398095D02*
X41162380Y-130302857D01*
X41162380Y-130160000D01*
X41210000Y-130017142D01*
X41305238Y-129921904D01*
X41400476Y-129874285D01*
X41590952Y-129826666D01*
X41733809Y-129826666D01*
X41924285Y-129874285D01*
X42019523Y-129921904D01*
X42114761Y-130017142D01*
X42162380Y-130160000D01*
X42162380Y-130255238D01*
X42114761Y-130398095D01*
X42067142Y-130445714D01*
X41733809Y-130445714D01*
X41733809Y-130255238D01*
X42162380Y-130874285D02*
X41162380Y-130874285D01*
X42162380Y-131445714D01*
X41162380Y-131445714D01*
X42162380Y-131921904D02*
X41162380Y-131921904D01*
X41162380Y-132160000D01*
X41210000Y-132302857D01*
X41305238Y-132398095D01*
X41400476Y-132445714D01*
X41590952Y-132493333D01*
X41733809Y-132493333D01*
X41924285Y-132445714D01*
X42019523Y-132398095D01*
X42114761Y-132302857D01*
X42162380Y-132160000D01*
X42162380Y-131921904D01*
X44762380Y-137699047D02*
X43762380Y-137699047D01*
X43762380Y-138080000D01*
X43810000Y-138175238D01*
X43857619Y-138222857D01*
X43952857Y-138270476D01*
X44095714Y-138270476D01*
X44190952Y-138222857D01*
X44238571Y-138175238D01*
X44286190Y-138080000D01*
X44286190Y-137699047D01*
X43762380Y-138603809D02*
X44762380Y-138841904D01*
X44048095Y-139032380D01*
X44762380Y-139222857D01*
X43762380Y-139460952D01*
X44762380Y-139841904D02*
X43762380Y-139841904D01*
X44476666Y-140175238D01*
X43762380Y-140508571D01*
X44762380Y-140508571D01*
X44762380Y-141032380D02*
X44762380Y-141222857D01*
X44714761Y-141318095D01*
X44667142Y-141365714D01*
X44524285Y-141460952D01*
X44333809Y-141508571D01*
X43952857Y-141508571D01*
X43857619Y-141460952D01*
X43810000Y-141413333D01*
X43762380Y-141318095D01*
X43762380Y-141127619D01*
X43810000Y-141032380D01*
X43857619Y-140984761D01*
X43952857Y-140937142D01*
X44190952Y-140937142D01*
X44286190Y-140984761D01*
X44333809Y-141032380D01*
X44381428Y-141127619D01*
X44381428Y-141318095D01*
X44333809Y-141413333D01*
X44286190Y-141460952D01*
X44190952Y-141508571D01*
X41240000Y-138248095D02*
X41192380Y-138152857D01*
X41192380Y-138010000D01*
X41240000Y-137867142D01*
X41335238Y-137771904D01*
X41430476Y-137724285D01*
X41620952Y-137676666D01*
X41763809Y-137676666D01*
X41954285Y-137724285D01*
X42049523Y-137771904D01*
X42144761Y-137867142D01*
X42192380Y-138010000D01*
X42192380Y-138105238D01*
X42144761Y-138248095D01*
X42097142Y-138295714D01*
X41763809Y-138295714D01*
X41763809Y-138105238D01*
X42192380Y-138724285D02*
X41192380Y-138724285D01*
X42192380Y-139295714D01*
X41192380Y-139295714D01*
X42192380Y-139771904D02*
X41192380Y-139771904D01*
X41192380Y-140010000D01*
X41240000Y-140152857D01*
X41335238Y-140248095D01*
X41430476Y-140295714D01*
X41620952Y-140343333D01*
X41763809Y-140343333D01*
X41954285Y-140295714D01*
X42049523Y-140248095D01*
X42144761Y-140152857D01*
X42192380Y-140010000D01*
X42192380Y-139771904D01*
X39652380Y-137739047D02*
X38652380Y-137739047D01*
X38652380Y-138120000D01*
X38700000Y-138215238D01*
X38747619Y-138262857D01*
X38842857Y-138310476D01*
X38985714Y-138310476D01*
X39080952Y-138262857D01*
X39128571Y-138215238D01*
X39176190Y-138120000D01*
X39176190Y-137739047D01*
X38652380Y-138643809D02*
X39652380Y-138881904D01*
X38938095Y-139072380D01*
X39652380Y-139262857D01*
X38652380Y-139500952D01*
X39652380Y-139881904D02*
X38652380Y-139881904D01*
X39366666Y-140215238D01*
X38652380Y-140548571D01*
X39652380Y-140548571D01*
X38652380Y-140929523D02*
X38652380Y-141596190D01*
X39652380Y-141167619D01*
X44326666Y-129847142D02*
X44326666Y-130323333D01*
X44612380Y-129751904D02*
X43612380Y-130085238D01*
X44612380Y-130418571D01*
X43612380Y-130942380D02*
X43612380Y-131132857D01*
X43660000Y-131228095D01*
X43755238Y-131323333D01*
X43945714Y-131370952D01*
X44279047Y-131370952D01*
X44469523Y-131323333D01*
X44564761Y-131228095D01*
X44612380Y-131132857D01*
X44612380Y-130942380D01*
X44564761Y-130847142D01*
X44469523Y-130751904D01*
X44279047Y-130704285D01*
X43945714Y-130704285D01*
X43755238Y-130751904D01*
X43660000Y-130847142D01*
X43612380Y-130942380D01*
X43612380Y-131799523D02*
X44421904Y-131799523D01*
X44517142Y-131847142D01*
X44564761Y-131894761D01*
X44612380Y-131990000D01*
X44612380Y-132180476D01*
X44564761Y-132275714D01*
X44517142Y-132323333D01*
X44421904Y-132370952D01*
X43612380Y-132370952D01*
X43612380Y-132704285D02*
X43612380Y-133275714D01*
X44612380Y-132990000D02*
X43612380Y-132990000D01*
X43612380Y-134085238D02*
X43612380Y-133609047D01*
X44088571Y-133561428D01*
X44040952Y-133609047D01*
X43993333Y-133704285D01*
X43993333Y-133942380D01*
X44040952Y-134037619D01*
X44088571Y-134085238D01*
X44183809Y-134132857D01*
X44421904Y-134132857D01*
X44517142Y-134085238D01*
X44564761Y-134037619D01*
X44612380Y-133942380D01*
X44612380Y-133704285D01*
X44564761Y-133609047D01*
X44517142Y-133561428D01*
G04 #@! TO.C,U2*
X76411000Y-126035000D02*
X75036000Y-126035000D01*
X76411000Y-117160000D02*
X80561000Y-117160000D01*
X76411000Y-126060000D02*
X80561000Y-126060000D01*
X76411000Y-117160000D02*
X76411000Y-117275000D01*
X80561000Y-117160000D02*
X80561000Y-117275000D01*
X80561000Y-126060000D02*
X80561000Y-125945000D01*
X76411000Y-126060000D02*
X76411000Y-126035000D01*
G04 #@! TO.C,U3*
X43265000Y-126035000D02*
X41890000Y-126035000D01*
X43265000Y-117160000D02*
X47415000Y-117160000D01*
X43265000Y-126060000D02*
X47415000Y-126060000D01*
X43265000Y-117160000D02*
X43265000Y-117275000D01*
X47415000Y-117160000D02*
X47415000Y-117275000D01*
X47415000Y-126060000D02*
X47415000Y-125945000D01*
X43265000Y-126060000D02*
X43265000Y-126035000D01*
D12*
G04 #@! TO.C,U5*
X93690000Y-142620000D02*
X91260000Y-142620000D01*
X91930000Y-139550000D02*
X93690000Y-139550000D01*
G04 #@! TO.C,D3*
X96170000Y-137140000D02*
X96170000Y-131740000D01*
X92870000Y-137140000D02*
X92870000Y-131740000D01*
X96170000Y-137140000D02*
X92870000Y-137140000D01*
G04 #@! TO.C,D7*
X76122000Y-172778528D02*
X76122000Y-177078528D01*
X74122000Y-172778528D02*
X76122000Y-172778528D01*
X74122000Y-177078528D02*
X74122000Y-172778528D01*
G04 #@! TO.C,R8*
X82570000Y-139807221D02*
X82570000Y-140132779D01*
X83590000Y-139807221D02*
X83590000Y-140132779D01*
G04 #@! TO.C,R29*
X78716699Y-110887353D02*
X78716699Y-111212911D01*
X79736699Y-110887353D02*
X79736699Y-111212911D01*
G04 #@! TO.C,R41*
X35226658Y-111212911D02*
X35226658Y-110887353D01*
X34206658Y-111212911D02*
X34206658Y-110887353D01*
G04 #@! TO.C,R44*
X39831145Y-110887353D02*
X39831145Y-111212911D01*
X38811145Y-110887353D02*
X38811145Y-111212911D01*
G04 #@! TO.C,R46*
X55179435Y-110887353D02*
X55179435Y-111212911D01*
X54159435Y-110887353D02*
X54159435Y-111212911D01*
G04 #@! TO.C,R21*
X65923238Y-111212911D02*
X65923238Y-110887353D01*
X64903238Y-111212911D02*
X64903238Y-110887353D01*
G04 #@! TO.C,R22*
X80251528Y-111212911D02*
X80251528Y-110887353D01*
X81271528Y-111212911D02*
X81271528Y-110887353D01*
G04 #@! TO.C,R20*
X87410844Y-110887353D02*
X87410844Y-111212911D01*
X86390844Y-110887353D02*
X86390844Y-111212911D01*
G04 #@! TO.C,R23*
X67458067Y-110887353D02*
X67458067Y-111212911D01*
X66438067Y-110887353D02*
X66438067Y-111212911D01*
G04 #@! TO.C,R25*
X81786357Y-110887353D02*
X81786357Y-111212911D01*
X82806357Y-110887353D02*
X82806357Y-111212911D01*
G04 #@! TO.C,R24*
X70527725Y-110887353D02*
X70527725Y-111212911D01*
X69507725Y-110887353D02*
X69507725Y-111212911D01*
G04 #@! TO.C,R26*
X84860000Y-110887353D02*
X84860000Y-111212911D01*
X85880000Y-110887353D02*
X85880000Y-111212911D01*
G04 #@! TO.C,R19*
X71042554Y-110887353D02*
X71042554Y-111212911D01*
X72062554Y-110887353D02*
X72062554Y-111212911D01*
G04 #@! TO.C,R30*
X95085000Y-110887353D02*
X95085000Y-111212911D01*
X94065000Y-110887353D02*
X94065000Y-111212911D01*
G04 #@! TO.C,R31*
X72577383Y-111212911D02*
X72577383Y-110887353D01*
X73597383Y-111212911D02*
X73597383Y-110887353D01*
G04 #@! TO.C,R33*
X74112212Y-110887353D02*
X74112212Y-111212911D01*
X75132212Y-110887353D02*
X75132212Y-111212911D01*
G04 #@! TO.C,R34*
X77181870Y-110887353D02*
X77181870Y-111212911D01*
X78201870Y-110887353D02*
X78201870Y-111212911D01*
G04 #@! TO.C,R35*
X89460502Y-110887353D02*
X89460502Y-111212911D01*
X90480502Y-110887353D02*
X90480502Y-111212911D01*
G04 #@! TO.C,R32*
X87925673Y-111212911D02*
X87925673Y-110887353D01*
X88945673Y-111212911D02*
X88945673Y-110887353D01*
G04 #@! TO.C,R36*
X93550160Y-110887353D02*
X93550160Y-111212911D01*
X92530160Y-110887353D02*
X92530160Y-111212911D01*
G04 #@! TO.C,R39*
X40345974Y-110887353D02*
X40345974Y-111212911D01*
X41365974Y-110887353D02*
X41365974Y-111212911D01*
G04 #@! TO.C,R40*
X55694264Y-110887353D02*
X55694264Y-111212911D01*
X56714264Y-110887353D02*
X56714264Y-111212911D01*
G04 #@! TO.C,R42*
X50574948Y-111212911D02*
X50574948Y-110887353D01*
X49554948Y-111212911D02*
X49554948Y-110887353D01*
G04 #@! TO.C,R43*
X35741487Y-110887353D02*
X35741487Y-111212911D01*
X36761487Y-110887353D02*
X36761487Y-111212911D01*
G04 #@! TO.C,R45*
X52109777Y-110887353D02*
X52109777Y-111212911D01*
X51089777Y-110887353D02*
X51089777Y-111212911D01*
G04 #@! TO.C,R51*
X42900803Y-111212911D02*
X42900803Y-110887353D01*
X41880803Y-111212911D02*
X41880803Y-110887353D01*
G04 #@! TO.C,R50*
X64388409Y-110887353D02*
X64388409Y-111212911D01*
X63368409Y-110887353D02*
X63368409Y-111212911D01*
G04 #@! TO.C,R52*
X57229093Y-111212911D02*
X57229093Y-110887353D01*
X58249093Y-111212911D02*
X58249093Y-110887353D01*
G04 #@! TO.C,R53*
X44435632Y-110887353D02*
X44435632Y-111212911D01*
X43415632Y-110887353D02*
X43415632Y-111212911D01*
G04 #@! TO.C,R54*
X47510000Y-110887353D02*
X47510000Y-111212911D01*
X46490000Y-110887353D02*
X46490000Y-111212911D01*
G04 #@! TO.C,R55*
X58763922Y-110887353D02*
X58763922Y-111212911D01*
X59783922Y-110887353D02*
X59783922Y-111212911D01*
G04 #@! TO.C,R56*
X61833580Y-110887353D02*
X61833580Y-111212911D01*
X62853580Y-110887353D02*
X62853580Y-111212911D01*
G04 #@! TO.C,R49*
X48020119Y-110887353D02*
X48020119Y-111212911D01*
X49040119Y-110887353D02*
X49040119Y-111212911D01*
G04 #@! TO.C,C11*
X61318751Y-110887353D02*
X61318751Y-111212911D01*
X60298751Y-110887353D02*
X60298751Y-111212911D01*
G04 #@! TO.C,C5*
X75647041Y-110887353D02*
X75647041Y-111212911D01*
X76667041Y-110887353D02*
X76667041Y-111212911D01*
G04 #@! TO.C,C6*
X90995331Y-110887353D02*
X90995331Y-111212911D01*
X92015331Y-110887353D02*
X92015331Y-111212911D01*
G04 #@! TO.C,C10*
X44970000Y-110887353D02*
X44970000Y-111212911D01*
X45990000Y-110887353D02*
X45990000Y-111212911D01*
G04 #@! TO.C,C8*
X53644606Y-110887353D02*
X53644606Y-111212911D01*
X52624606Y-110887353D02*
X52624606Y-111212911D01*
G04 #@! TO.C,C3*
X84340000Y-110887353D02*
X84340000Y-111212911D01*
X83320000Y-110887353D02*
X83320000Y-111212911D01*
G04 #@! TO.C,C2*
X67972896Y-110887353D02*
X67972896Y-111212911D01*
X68992896Y-110887353D02*
X68992896Y-111212911D01*
G04 #@! TO.C,C7*
X38296316Y-110887353D02*
X38296316Y-111212911D01*
X37276316Y-110887353D02*
X37276316Y-111212911D01*
G04 #@! TO.C,J3*
X53990000Y-182310000D02*
X53990000Y-183640000D01*
X55320000Y-182310000D02*
X53990000Y-182310000D01*
X53990000Y-184910000D02*
X53990000Y-187510000D01*
X56590000Y-184910000D02*
X53990000Y-184910000D01*
X56590000Y-182310000D02*
X56590000Y-184910000D01*
X53990000Y-187510000D02*
X104910000Y-187510000D01*
X56590000Y-182310000D02*
X104910000Y-182310000D01*
X104910000Y-182310000D02*
X104910000Y-187510000D01*
D11*
G04 #@! TO.C,U4*
X93415000Y-163905000D02*
X93240000Y-163905000D01*
X93415000Y-160655000D02*
X93140000Y-160655000D01*
X90165000Y-160655000D02*
X90440000Y-160655000D01*
X90165000Y-163905000D02*
X90440000Y-163905000D01*
X93415000Y-163905000D02*
X93415000Y-160655000D01*
X90165000Y-163905000D02*
X90165000Y-160655000D01*
X93240000Y-163905000D02*
X93240000Y-164980000D01*
D12*
G04 #@! TO.C,C1*
X57914000Y-134020779D02*
X57914000Y-133695221D01*
X56894000Y-134020779D02*
X56894000Y-133695221D01*
G04 #@! TO.C,C4*
X44849721Y-116610000D02*
X45175279Y-116610000D01*
X44849721Y-115590000D02*
X45175279Y-115590000D01*
G04 #@! TO.C,C9*
X78617221Y-126810000D02*
X78942779Y-126810000D01*
X78617221Y-127830000D02*
X78942779Y-127830000D01*
G04 #@! TO.C,C12*
X95320000Y-160882779D02*
X95320000Y-160557221D01*
X94300000Y-160882779D02*
X94300000Y-160557221D01*
G04 #@! TO.C,C13*
X90595279Y-134486667D02*
X90269721Y-134486667D01*
X90595279Y-133466667D02*
X90269721Y-133466667D01*
G04 #@! TO.C,C14*
X90595279Y-131703334D02*
X90269721Y-131703334D01*
X90595279Y-132723334D02*
X90269721Y-132723334D01*
G04 #@! TO.C,C15*
X90595279Y-135230000D02*
X90269721Y-135230000D01*
X90595279Y-136250000D02*
X90269721Y-136250000D01*
G04 #@! TO.C,C16*
X93112779Y-144760000D02*
X92787221Y-144760000D01*
X93112779Y-143740000D02*
X92787221Y-143740000D01*
G04 #@! TO.C,C17*
X91091058Y-123405098D02*
X91091058Y-123730656D01*
X92111058Y-123405098D02*
X92111058Y-123730656D01*
G04 #@! TO.C,C18*
X93820942Y-123405098D02*
X93820942Y-123730656D01*
X92800942Y-123405098D02*
X92800942Y-123730656D01*
G04 #@! TO.C,C19*
X95598942Y-123405098D02*
X95598942Y-123730656D01*
X94578942Y-123405098D02*
X94578942Y-123730656D01*
G04 #@! TO.C,D1*
X87530000Y-172780000D02*
X87530000Y-177080000D01*
X85530000Y-172780000D02*
X87530000Y-172780000D01*
X85530000Y-177080000D02*
X85530000Y-172780000D01*
G04 #@! TO.C,D2*
X89810000Y-172780000D02*
X89810000Y-177080000D01*
X87810000Y-172780000D02*
X89810000Y-172780000D01*
X87810000Y-177080000D02*
X87810000Y-172780000D01*
G04 #@! TO.C,D4*
X69264000Y-172778528D02*
X69264000Y-177078528D01*
X67264000Y-172778528D02*
X69264000Y-172778528D01*
X67264000Y-177078528D02*
X67264000Y-172778528D01*
G04 #@! TO.C,D5*
X69550000Y-177078528D02*
X69550000Y-172778528D01*
X69550000Y-172778528D02*
X71550000Y-172778528D01*
X71550000Y-172778528D02*
X71550000Y-177078528D01*
G04 #@! TO.C,D6*
X71836000Y-177078528D02*
X71836000Y-172778528D01*
X71836000Y-172778528D02*
X73836000Y-172778528D01*
X73836000Y-172778528D02*
X73836000Y-177078528D01*
G04 #@! TO.C,D8*
X76408000Y-177078528D02*
X76408000Y-172778528D01*
X76408000Y-172778528D02*
X78408000Y-172778528D01*
X78408000Y-172778528D02*
X78408000Y-177078528D01*
G04 #@! TO.C,D9*
X80694000Y-172778528D02*
X80694000Y-177078528D01*
X78694000Y-172778528D02*
X80694000Y-172778528D01*
X78694000Y-177078528D02*
X78694000Y-172778528D01*
G04 #@! TO.C,10*
X80980000Y-177080000D02*
X80980000Y-172780000D01*
X80980000Y-172780000D02*
X82980000Y-172780000D01*
X82980000Y-172780000D02*
X82980000Y-177080000D01*
G04 #@! TO.C,11*
X85255000Y-172780000D02*
X85255000Y-177080000D01*
X83255000Y-172780000D02*
X85255000Y-172780000D01*
X83255000Y-177080000D02*
X83255000Y-172780000D01*
G04 #@! TO.C,12*
X66663341Y-160977804D02*
X66663341Y-156677804D01*
X66663341Y-156677804D02*
X68663341Y-156677804D01*
X68663341Y-156677804D02*
X68663341Y-160977804D01*
G04 #@! TO.C,13*
X68982868Y-160977804D02*
X68982868Y-156677804D01*
X68982868Y-156677804D02*
X70982868Y-156677804D01*
X70982868Y-156677804D02*
X70982868Y-160977804D01*
G04 #@! TO.C,14*
X71302390Y-160977804D02*
X71302390Y-156677804D01*
X71302390Y-156677804D02*
X73302390Y-156677804D01*
X73302390Y-156677804D02*
X73302390Y-160977804D01*
G04 #@! TO.C,15*
X75621912Y-156677804D02*
X75621912Y-160977804D01*
X73621912Y-156677804D02*
X75621912Y-156677804D01*
X73621912Y-160977804D02*
X73621912Y-156677804D01*
G04 #@! TO.C,16*
X75941434Y-160977804D02*
X75941434Y-156677804D01*
X75941434Y-156677804D02*
X77941434Y-156677804D01*
X77941434Y-156677804D02*
X77941434Y-160977804D01*
G04 #@! TO.C,17*
X80260956Y-156677804D02*
X80260956Y-160977804D01*
X78260956Y-156677804D02*
X80260956Y-156677804D01*
X78260956Y-160977804D02*
X78260956Y-156677804D01*
G04 #@! TO.C,18*
X80580478Y-160977804D02*
X80580478Y-156677804D01*
X80580478Y-156677804D02*
X82580478Y-156677804D01*
X82580478Y-156677804D02*
X82580478Y-160977804D01*
G04 #@! TO.C,19*
X84820000Y-156680000D02*
X84820000Y-160980000D01*
X82820000Y-156680000D02*
X84820000Y-156680000D01*
X82820000Y-160980000D02*
X82820000Y-156680000D01*
G04 #@! TO.C,R1*
X80410000Y-169560279D02*
X80410000Y-169234721D01*
X81430000Y-169560279D02*
X81430000Y-169234721D01*
G04 #@! TO.C,R2*
X91310000Y-175535279D02*
X91310000Y-175209721D01*
X90290000Y-175535279D02*
X90290000Y-175209721D01*
G04 #@! TO.C,R3*
X54862000Y-159141279D02*
X54862000Y-158815721D01*
X55882000Y-159141279D02*
X55882000Y-158815721D01*
G04 #@! TO.C,R4*
X77203332Y-139807221D02*
X77203332Y-140132779D01*
X76183332Y-139807221D02*
X76183332Y-140132779D01*
G04 #@! TO.C,R5*
X77779998Y-139807221D02*
X77779998Y-140132779D01*
X78799998Y-139807221D02*
X78799998Y-140132779D01*
G04 #@! TO.C,R6*
X80396664Y-139807221D02*
X80396664Y-140132779D01*
X79376664Y-139807221D02*
X79376664Y-140132779D01*
G04 #@! TO.C,R7*
X80973330Y-139807221D02*
X80973330Y-140132779D01*
X81993330Y-139807221D02*
X81993330Y-140132779D01*
G04 #@! TO.C,R9*
X75606666Y-139807221D02*
X75606666Y-140132779D01*
X74586666Y-139807221D02*
X74586666Y-140132779D01*
G04 #@! TO.C,R10*
X74010000Y-140132779D02*
X74010000Y-139807221D01*
X72990000Y-140132779D02*
X72990000Y-139807221D01*
G04 #@! TO.C,R11*
X71372000Y-140142279D02*
X71372000Y-139816721D01*
X72392000Y-140142279D02*
X72392000Y-139816721D01*
G04 #@! TO.C,R12*
X70772750Y-140142279D02*
X70772750Y-139816721D01*
X69752750Y-140142279D02*
X69752750Y-139816721D01*
G04 #@! TO.C,R13*
X68133500Y-140142279D02*
X68133500Y-139816721D01*
X69153500Y-140142279D02*
X69153500Y-139816721D01*
G04 #@! TO.C,R14*
X66514250Y-140142279D02*
X66514250Y-139816721D01*
X67534250Y-140142279D02*
X67534250Y-139816721D01*
G04 #@! TO.C,R15*
X64895000Y-140142279D02*
X64895000Y-139816721D01*
X65915000Y-140142279D02*
X65915000Y-139816721D01*
G04 #@! TO.C,R16*
X64295750Y-140142279D02*
X64295750Y-139816721D01*
X63275750Y-140142279D02*
X63275750Y-139816721D01*
G04 #@! TO.C,R17*
X61656500Y-140142279D02*
X61656500Y-139816721D01*
X62676500Y-140142279D02*
X62676500Y-139816721D01*
G04 #@! TO.C,R18*
X61057250Y-140142279D02*
X61057250Y-139816721D01*
X60037250Y-140142279D02*
X60037250Y-139816721D01*
G04 #@! TO.C,R27*
X49814721Y-126630000D02*
X50140279Y-126630000D01*
X49814721Y-127650000D02*
X50140279Y-127650000D01*
G04 #@! TO.C,R28*
X49814721Y-130610000D02*
X50140279Y-130610000D01*
X49814721Y-129590000D02*
X50140279Y-129590000D01*
G04 #@! TO.C,R37*
X49814721Y-128110000D02*
X50140279Y-128110000D01*
X49814721Y-129130000D02*
X50140279Y-129130000D01*
G04 #@! TO.C,R38*
X49814721Y-132090000D02*
X50140279Y-132090000D01*
X49814721Y-131070000D02*
X50140279Y-131070000D01*
G04 #@! TO.C,R47*
X33087221Y-119340000D02*
X33412779Y-119340000D01*
X33087221Y-118320000D02*
X33412779Y-118320000D01*
G04 #@! TO.C,R48*
X33087221Y-121430000D02*
X33412779Y-121430000D01*
X33087221Y-122450000D02*
X33412779Y-122450000D01*
G04 #@! TO.C,R57*
X33087221Y-119910000D02*
X33412779Y-119910000D01*
X33087221Y-120930000D02*
X33412779Y-120930000D01*
G04 #@! TO.C,R58*
X33087221Y-123970000D02*
X33412779Y-123970000D01*
X33087221Y-122950000D02*
X33412779Y-122950000D01*
G04 #@! TO.C,R59*
X90333058Y-123405098D02*
X90333058Y-123730656D01*
X89313058Y-123405098D02*
X89313058Y-123730656D01*
G04 #@! TO.C,R60*
X88648000Y-123730656D02*
X88648000Y-123405098D01*
X87628000Y-123730656D02*
X87628000Y-123405098D01*
G04 #@! TO.C,R61*
X100006942Y-135184902D02*
X100006942Y-134859344D01*
X98986942Y-135184902D02*
X98986942Y-134859344D01*
G04 #@! TO.C,R62*
X101018942Y-135184902D02*
X101018942Y-134859344D01*
X102038942Y-135184902D02*
X102038942Y-134859344D01*
G04 #@! TO.C,R63*
X67450000Y-169556307D02*
X67450000Y-169230749D01*
X68470000Y-169556307D02*
X68470000Y-169230749D01*
G04 #@! TO.C,R64*
X70091432Y-169556307D02*
X70091432Y-169230749D01*
X69071432Y-169556307D02*
X69071432Y-169230749D01*
G04 #@! TO.C,R65*
X70692860Y-169556307D02*
X70692860Y-169230749D01*
X71712860Y-169556307D02*
X71712860Y-169230749D01*
G04 #@! TO.C,R66*
X73334288Y-169556307D02*
X73334288Y-169230749D01*
X72314288Y-169556307D02*
X72314288Y-169230749D01*
G04 #@! TO.C,R67*
X73935716Y-169556307D02*
X73935716Y-169230749D01*
X74955716Y-169556307D02*
X74955716Y-169230749D01*
G04 #@! TO.C,R68*
X76577144Y-169556307D02*
X76577144Y-169230749D01*
X75557144Y-169556307D02*
X75557144Y-169230749D01*
G04 #@! TO.C,R69*
X77178572Y-169556307D02*
X77178572Y-169230749D01*
X78198572Y-169556307D02*
X78198572Y-169230749D01*
G04 #@! TO.C,R70*
X79820000Y-169556307D02*
X79820000Y-169230749D01*
X78800000Y-169556307D02*
X78800000Y-169230749D01*
G04 #@! TO.C,R71*
X67540000Y-153925279D02*
X67540000Y-153599721D01*
X68560000Y-153925279D02*
X68560000Y-153599721D01*
G04 #@! TO.C,R72*
X70134290Y-153925279D02*
X70134290Y-153599721D01*
X69114290Y-153925279D02*
X69114290Y-153599721D01*
G04 #@! TO.C,R73*
X70688575Y-153925279D02*
X70688575Y-153599721D01*
X71708575Y-153925279D02*
X71708575Y-153599721D01*
G04 #@! TO.C,R74*
X73282860Y-153925279D02*
X73282860Y-153599721D01*
X72262860Y-153925279D02*
X72262860Y-153599721D01*
G04 #@! TO.C,R75*
X73837145Y-153925279D02*
X73837145Y-153599721D01*
X74857145Y-153925279D02*
X74857145Y-153599721D01*
G04 #@! TO.C,R76*
X76431430Y-153925279D02*
X76431430Y-153599721D01*
X75411430Y-153925279D02*
X75411430Y-153599721D01*
G04 #@! TO.C,R77*
X76985715Y-153925279D02*
X76985715Y-153599721D01*
X78005715Y-153925279D02*
X78005715Y-153599721D01*
G04 #@! TO.C,R78*
X79580000Y-153925279D02*
X79580000Y-153599721D01*
X78560000Y-153925279D02*
X78560000Y-153599721D01*
D11*
G04 #@! TO.C,U1*
X58525000Y-129501000D02*
X58750000Y-129501000D01*
X58525000Y-134151000D02*
X58850000Y-134151000D01*
X68475000Y-134151000D02*
X68150000Y-134151000D01*
X68475000Y-129501000D02*
X68150000Y-129501000D01*
X58525000Y-129501000D02*
X58525000Y-134151000D01*
X68475000Y-129501000D02*
X68475000Y-134151000D01*
X58750000Y-129501000D02*
X58750000Y-128426000D01*
D12*
G04 #@! TO.C,U6*
X99612942Y-136942623D02*
X101412942Y-136942623D01*
X101412942Y-140162623D02*
X98962942Y-140162623D01*
G04 #@! TO.C,Q1*
X102092942Y-143376623D02*
X101162942Y-143376623D01*
X98932942Y-143376623D02*
X99862942Y-143376623D01*
X98932942Y-143376623D02*
X98932942Y-141216623D01*
X102092942Y-143376623D02*
X102092942Y-141916623D01*
G04 #@! TO.C,R79*
X43522779Y-179420000D02*
X43197221Y-179420000D01*
X43522779Y-180440000D02*
X43197221Y-180440000D01*
G04 #@! TO.C,C21*
X98340000Y-160900279D02*
X98340000Y-160574721D01*
X97320000Y-160900279D02*
X97320000Y-160574721D01*
G04 #@! TO.C,FB1*
X95830000Y-160910279D02*
X95830000Y-160584721D01*
X96850000Y-160910279D02*
X96850000Y-160584721D01*
G04 #@! TO.C,FB2*
X93342779Y-166090000D02*
X93017221Y-166090000D01*
X93342779Y-167110000D02*
X93017221Y-167110000D01*
G04 #@! TO.C,U2*
D11*
X79311904Y-121092380D02*
X79311904Y-121901904D01*
X79264285Y-121997142D01*
X79216666Y-122044761D01*
X79121428Y-122092380D01*
X78930952Y-122092380D01*
X78835714Y-122044761D01*
X78788095Y-121997142D01*
X78740476Y-121901904D01*
X78740476Y-121092380D01*
X78311904Y-121187619D02*
X78264285Y-121140000D01*
X78169047Y-121092380D01*
X77930952Y-121092380D01*
X77835714Y-121140000D01*
X77788095Y-121187619D01*
X77740476Y-121282857D01*
X77740476Y-121378095D01*
X77788095Y-121520952D01*
X78359523Y-122092380D01*
X77740476Y-122092380D01*
G04 #@! TO.C,U3*
X46191904Y-121042380D02*
X46191904Y-121851904D01*
X46144285Y-121947142D01*
X46096666Y-121994761D01*
X46001428Y-122042380D01*
X45810952Y-122042380D01*
X45715714Y-121994761D01*
X45668095Y-121947142D01*
X45620476Y-121851904D01*
X45620476Y-121042380D01*
X45239523Y-121042380D02*
X44620476Y-121042380D01*
X44953809Y-121423333D01*
X44810952Y-121423333D01*
X44715714Y-121470952D01*
X44668095Y-121518571D01*
X44620476Y-121613809D01*
X44620476Y-121851904D01*
X44668095Y-121947142D01*
X44715714Y-121994761D01*
X44810952Y-122042380D01*
X45096666Y-122042380D01*
X45191904Y-121994761D01*
X45239523Y-121947142D01*
G04 #@! TO.C,U5*
X93371904Y-138282380D02*
X93371904Y-139091904D01*
X93324285Y-139187142D01*
X93276666Y-139234761D01*
X93181428Y-139282380D01*
X92990952Y-139282380D01*
X92895714Y-139234761D01*
X92848095Y-139187142D01*
X92800476Y-139091904D01*
X92800476Y-138282380D01*
X91848095Y-138282380D02*
X92324285Y-138282380D01*
X92371904Y-138758571D01*
X92324285Y-138710952D01*
X92229047Y-138663333D01*
X91990952Y-138663333D01*
X91895714Y-138710952D01*
X91848095Y-138758571D01*
X91800476Y-138853809D01*
X91800476Y-139091904D01*
X91848095Y-139187142D01*
X91895714Y-139234761D01*
X91990952Y-139282380D01*
X92229047Y-139282380D01*
X92324285Y-139234761D01*
X92371904Y-139187142D01*
G04 #@! TO.C,D3*
X97472380Y-133001904D02*
X96472380Y-133001904D01*
X96472380Y-133240000D01*
X96520000Y-133382857D01*
X96615238Y-133478095D01*
X96710476Y-133525714D01*
X96900952Y-133573333D01*
X97043809Y-133573333D01*
X97234285Y-133525714D01*
X97329523Y-133478095D01*
X97424761Y-133382857D01*
X97472380Y-133240000D01*
X97472380Y-133001904D01*
X96472380Y-133906666D02*
X96472380Y-134525714D01*
X96853333Y-134192380D01*
X96853333Y-134335238D01*
X96900952Y-134430476D01*
X96948571Y-134478095D01*
X97043809Y-134525714D01*
X97281904Y-134525714D01*
X97377142Y-134478095D01*
X97424761Y-134430476D01*
X97472380Y-134335238D01*
X97472380Y-134049523D01*
X97424761Y-133954285D01*
X97377142Y-133906666D01*
G04 #@! TO.C,D7*
X75636380Y-174590432D02*
X74636380Y-174590432D01*
X74636380Y-174828528D01*
X74684000Y-174971385D01*
X74779238Y-175066623D01*
X74874476Y-175114242D01*
X75064952Y-175161861D01*
X75207809Y-175161861D01*
X75398285Y-175114242D01*
X75493523Y-175066623D01*
X75588761Y-174971385D01*
X75636380Y-174828528D01*
X75636380Y-174590432D01*
X74636380Y-175495194D02*
X74636380Y-176161861D01*
X75636380Y-175733289D01*
G04 #@! TO.C,R8*
X83542374Y-142037143D02*
X83066184Y-141703810D01*
X83542374Y-141465714D02*
X82542374Y-141465714D01*
X82542374Y-141846667D01*
X82589994Y-141941905D01*
X82637613Y-141989524D01*
X82732851Y-142037143D01*
X82875708Y-142037143D01*
X82970946Y-141989524D01*
X83018565Y-141941905D01*
X83066184Y-141846667D01*
X83066184Y-141465714D01*
X82970946Y-142608571D02*
X82923327Y-142513333D01*
X82875708Y-142465714D01*
X82780470Y-142418095D01*
X82732851Y-142418095D01*
X82637613Y-142465714D01*
X82589994Y-142513333D01*
X82542374Y-142608571D01*
X82542374Y-142799048D01*
X82589994Y-142894286D01*
X82637613Y-142941905D01*
X82732851Y-142989524D01*
X82780470Y-142989524D01*
X82875708Y-142941905D01*
X82923327Y-142894286D01*
X82970946Y-142799048D01*
X82970946Y-142608571D01*
X83018565Y-142513333D01*
X83066184Y-142465714D01*
X83161422Y-142418095D01*
X83351898Y-142418095D01*
X83447136Y-142465714D01*
X83494755Y-142513333D01*
X83542374Y-142608571D01*
X83542374Y-142799048D01*
X83494755Y-142894286D01*
X83447136Y-142941905D01*
X83351898Y-142989524D01*
X83161422Y-142989524D01*
X83066184Y-142941905D01*
X83018565Y-142894286D01*
X82970946Y-142799048D01*
G04 #@! TO.C,R29*
X79679079Y-113480774D02*
X79202889Y-113147441D01*
X79679079Y-112909346D02*
X78679079Y-112909346D01*
X78679079Y-113290298D01*
X78726699Y-113385536D01*
X78774318Y-113433155D01*
X78869556Y-113480774D01*
X79012413Y-113480774D01*
X79107651Y-113433155D01*
X79155270Y-113385536D01*
X79202889Y-113290298D01*
X79202889Y-112909346D01*
X78774318Y-113861727D02*
X78726699Y-113909346D01*
X78679079Y-114004584D01*
X78679079Y-114242679D01*
X78726699Y-114337917D01*
X78774318Y-114385536D01*
X78869556Y-114433155D01*
X78964794Y-114433155D01*
X79107651Y-114385536D01*
X79679079Y-113814108D01*
X79679079Y-114433155D01*
X79679079Y-114909346D02*
X79679079Y-115099822D01*
X79631460Y-115195060D01*
X79583841Y-115242679D01*
X79440984Y-115337917D01*
X79250508Y-115385536D01*
X78869556Y-115385536D01*
X78774318Y-115337917D01*
X78726699Y-115290298D01*
X78679079Y-115195060D01*
X78679079Y-115004584D01*
X78726699Y-114909346D01*
X78774318Y-114861727D01*
X78869556Y-114814108D01*
X79107651Y-114814108D01*
X79202889Y-114861727D01*
X79250508Y-114909346D01*
X79298127Y-115004584D01*
X79298127Y-115195060D01*
X79250508Y-115290298D01*
X79202889Y-115337917D01*
X79107651Y-115385536D01*
G04 #@! TO.C,R41*
X35169038Y-113429774D02*
X34692848Y-113096441D01*
X35169038Y-112858346D02*
X34169038Y-112858346D01*
X34169038Y-113239298D01*
X34216658Y-113334536D01*
X34264277Y-113382155D01*
X34359515Y-113429774D01*
X34502372Y-113429774D01*
X34597610Y-113382155D01*
X34645229Y-113334536D01*
X34692848Y-113239298D01*
X34692848Y-112858346D01*
X34502372Y-114286917D02*
X35169038Y-114286917D01*
X34121419Y-114048822D02*
X34835705Y-113810727D01*
X34835705Y-114429774D01*
X35169038Y-115334536D02*
X35169038Y-114763108D01*
X35169038Y-115048822D02*
X34169038Y-115048822D01*
X34311896Y-114953584D01*
X34407134Y-114858346D01*
X34454753Y-114763108D01*
G04 #@! TO.C,R44*
X39773525Y-113480774D02*
X39297335Y-113147441D01*
X39773525Y-112909346D02*
X38773525Y-112909346D01*
X38773525Y-113290298D01*
X38821145Y-113385536D01*
X38868764Y-113433155D01*
X38964002Y-113480774D01*
X39106859Y-113480774D01*
X39202097Y-113433155D01*
X39249716Y-113385536D01*
X39297335Y-113290298D01*
X39297335Y-112909346D01*
X39106859Y-114337917D02*
X39773525Y-114337917D01*
X38725906Y-114099822D02*
X39440192Y-113861727D01*
X39440192Y-114480774D01*
X39106859Y-115290298D02*
X39773525Y-115290298D01*
X38725906Y-115052203D02*
X39440192Y-114814108D01*
X39440192Y-115433155D01*
G04 #@! TO.C,R46*
X55121815Y-113455274D02*
X54645625Y-113121941D01*
X55121815Y-112883846D02*
X54121815Y-112883846D01*
X54121815Y-113264798D01*
X54169435Y-113360036D01*
X54217054Y-113407655D01*
X54312292Y-113455274D01*
X54455149Y-113455274D01*
X54550387Y-113407655D01*
X54598006Y-113360036D01*
X54645625Y-113264798D01*
X54645625Y-112883846D01*
X54455149Y-114312417D02*
X55121815Y-114312417D01*
X54074196Y-114074322D02*
X54788482Y-113836227D01*
X54788482Y-114455274D01*
X54121815Y-115264798D02*
X54121815Y-115074322D01*
X54169435Y-114979084D01*
X54217054Y-114931465D01*
X54359911Y-114836227D01*
X54550387Y-114788608D01*
X54931339Y-114788608D01*
X55026577Y-114836227D01*
X55074196Y-114883846D01*
X55121815Y-114979084D01*
X55121815Y-115169560D01*
X55074196Y-115264798D01*
X55026577Y-115312417D01*
X54931339Y-115360036D01*
X54693244Y-115360036D01*
X54598006Y-115312417D01*
X54550387Y-115264798D01*
X54502768Y-115169560D01*
X54502768Y-114979084D01*
X54550387Y-114883846D01*
X54598006Y-114836227D01*
X54693244Y-114788608D01*
G04 #@! TO.C,R21*
X66020619Y-113706275D02*
X65544429Y-113372942D01*
X66020619Y-113134847D02*
X65020619Y-113134847D01*
X65020619Y-113515799D01*
X65068239Y-113611037D01*
X65115858Y-113658656D01*
X65211096Y-113706275D01*
X65353953Y-113706275D01*
X65449191Y-113658656D01*
X65496810Y-113611037D01*
X65544429Y-113515799D01*
X65544429Y-113134847D01*
X65115858Y-114087228D02*
X65068239Y-114134847D01*
X65020619Y-114230085D01*
X65020619Y-114468180D01*
X65068239Y-114563418D01*
X65115858Y-114611037D01*
X65211096Y-114658656D01*
X65306334Y-114658656D01*
X65449191Y-114611037D01*
X66020619Y-114039609D01*
X66020619Y-114658656D01*
X66020619Y-115611037D02*
X66020619Y-115039609D01*
X66020619Y-115325323D02*
X65020619Y-115325323D01*
X65163477Y-115230085D01*
X65258715Y-115134847D01*
X65306334Y-115039609D01*
G04 #@! TO.C,R22*
X81213908Y-113429774D02*
X80737718Y-113096441D01*
X81213908Y-112858346D02*
X80213908Y-112858346D01*
X80213908Y-113239298D01*
X80261528Y-113334536D01*
X80309147Y-113382155D01*
X80404385Y-113429774D01*
X80547242Y-113429774D01*
X80642480Y-113382155D01*
X80690099Y-113334536D01*
X80737718Y-113239298D01*
X80737718Y-112858346D01*
X80309147Y-113810727D02*
X80261528Y-113858346D01*
X80213908Y-113953584D01*
X80213908Y-114191679D01*
X80261528Y-114286917D01*
X80309147Y-114334536D01*
X80404385Y-114382155D01*
X80499623Y-114382155D01*
X80642480Y-114334536D01*
X81213908Y-113763108D01*
X81213908Y-114382155D01*
X80309147Y-114763108D02*
X80261528Y-114810727D01*
X80213908Y-114905965D01*
X80213908Y-115144060D01*
X80261528Y-115239298D01*
X80309147Y-115286917D01*
X80404385Y-115334536D01*
X80499623Y-115334536D01*
X80642480Y-115286917D01*
X81213908Y-114715489D01*
X81213908Y-115334536D01*
G04 #@! TO.C,R20*
X87353224Y-113455274D02*
X86877034Y-113121941D01*
X87353224Y-112883846D02*
X86353224Y-112883846D01*
X86353224Y-113264798D01*
X86400844Y-113360036D01*
X86448463Y-113407655D01*
X86543701Y-113455274D01*
X86686558Y-113455274D01*
X86781796Y-113407655D01*
X86829415Y-113360036D01*
X86877034Y-113264798D01*
X86877034Y-112883846D01*
X86448463Y-113836227D02*
X86400844Y-113883846D01*
X86353224Y-113979084D01*
X86353224Y-114217179D01*
X86400844Y-114312417D01*
X86448463Y-114360036D01*
X86543701Y-114407655D01*
X86638939Y-114407655D01*
X86781796Y-114360036D01*
X87353224Y-113788608D01*
X87353224Y-114407655D01*
X86353224Y-115026703D02*
X86353224Y-115121941D01*
X86400844Y-115217179D01*
X86448463Y-115264798D01*
X86543701Y-115312417D01*
X86734177Y-115360036D01*
X86972272Y-115360036D01*
X87162748Y-115312417D01*
X87257986Y-115264798D01*
X87305605Y-115217179D01*
X87353224Y-115121941D01*
X87353224Y-115026703D01*
X87305605Y-114931465D01*
X87257986Y-114883846D01*
X87162748Y-114836227D01*
X86972272Y-114788608D01*
X86734177Y-114788608D01*
X86543701Y-114836227D01*
X86448463Y-114883846D01*
X86400844Y-114931465D01*
X86353224Y-115026703D01*
G04 #@! TO.C,R23*
X67400447Y-113455274D02*
X66924257Y-113121941D01*
X67400447Y-112883846D02*
X66400447Y-112883846D01*
X66400447Y-113264798D01*
X66448067Y-113360036D01*
X66495686Y-113407655D01*
X66590924Y-113455274D01*
X66733781Y-113455274D01*
X66829019Y-113407655D01*
X66876638Y-113360036D01*
X66924257Y-113264798D01*
X66924257Y-112883846D01*
X66495686Y-113836227D02*
X66448067Y-113883846D01*
X66400447Y-113979084D01*
X66400447Y-114217179D01*
X66448067Y-114312417D01*
X66495686Y-114360036D01*
X66590924Y-114407655D01*
X66686162Y-114407655D01*
X66829019Y-114360036D01*
X67400447Y-113788608D01*
X67400447Y-114407655D01*
X66400447Y-114740989D02*
X66400447Y-115360036D01*
X66781400Y-115026703D01*
X66781400Y-115169560D01*
X66829019Y-115264798D01*
X66876638Y-115312417D01*
X66971876Y-115360036D01*
X67209971Y-115360036D01*
X67305209Y-115312417D01*
X67352828Y-115264798D01*
X67400447Y-115169560D01*
X67400447Y-114883846D01*
X67352828Y-114788608D01*
X67305209Y-114740989D01*
G04 #@! TO.C,R25*
X82748737Y-113455274D02*
X82272547Y-113121941D01*
X82748737Y-112883846D02*
X81748737Y-112883846D01*
X81748737Y-113264798D01*
X81796357Y-113360036D01*
X81843976Y-113407655D01*
X81939214Y-113455274D01*
X82082071Y-113455274D01*
X82177309Y-113407655D01*
X82224928Y-113360036D01*
X82272547Y-113264798D01*
X82272547Y-112883846D01*
X81843976Y-113836227D02*
X81796357Y-113883846D01*
X81748737Y-113979084D01*
X81748737Y-114217179D01*
X81796357Y-114312417D01*
X81843976Y-114360036D01*
X81939214Y-114407655D01*
X82034452Y-114407655D01*
X82177309Y-114360036D01*
X82748737Y-113788608D01*
X82748737Y-114407655D01*
X81748737Y-115312417D02*
X81748737Y-114836227D01*
X82224928Y-114788608D01*
X82177309Y-114836227D01*
X82129690Y-114931465D01*
X82129690Y-115169560D01*
X82177309Y-115264798D01*
X82224928Y-115312417D01*
X82320166Y-115360036D01*
X82558261Y-115360036D01*
X82653499Y-115312417D01*
X82701118Y-115264798D01*
X82748737Y-115169560D01*
X82748737Y-114931465D01*
X82701118Y-114836227D01*
X82653499Y-114788608D01*
G04 #@! TO.C,R24*
X70470105Y-113429774D02*
X69993915Y-113096441D01*
X70470105Y-112858346D02*
X69470105Y-112858346D01*
X69470105Y-113239298D01*
X69517725Y-113334536D01*
X69565344Y-113382155D01*
X69660582Y-113429774D01*
X69803439Y-113429774D01*
X69898677Y-113382155D01*
X69946296Y-113334536D01*
X69993915Y-113239298D01*
X69993915Y-112858346D01*
X69565344Y-113810727D02*
X69517725Y-113858346D01*
X69470105Y-113953584D01*
X69470105Y-114191679D01*
X69517725Y-114286917D01*
X69565344Y-114334536D01*
X69660582Y-114382155D01*
X69755820Y-114382155D01*
X69898677Y-114334536D01*
X70470105Y-113763108D01*
X70470105Y-114382155D01*
X69803439Y-115239298D02*
X70470105Y-115239298D01*
X69422486Y-115001203D02*
X70136772Y-114763108D01*
X70136772Y-115382155D01*
G04 #@! TO.C,R26*
X85822380Y-113480774D02*
X85346190Y-113147441D01*
X85822380Y-112909346D02*
X84822380Y-112909346D01*
X84822380Y-113290298D01*
X84870000Y-113385536D01*
X84917619Y-113433155D01*
X85012857Y-113480774D01*
X85155714Y-113480774D01*
X85250952Y-113433155D01*
X85298571Y-113385536D01*
X85346190Y-113290298D01*
X85346190Y-112909346D01*
X84917619Y-113861727D02*
X84870000Y-113909346D01*
X84822380Y-114004584D01*
X84822380Y-114242679D01*
X84870000Y-114337917D01*
X84917619Y-114385536D01*
X85012857Y-114433155D01*
X85108095Y-114433155D01*
X85250952Y-114385536D01*
X85822380Y-113814108D01*
X85822380Y-114433155D01*
X84822380Y-115290298D02*
X84822380Y-115099822D01*
X84870000Y-115004584D01*
X84917619Y-114956965D01*
X85060476Y-114861727D01*
X85250952Y-114814108D01*
X85631904Y-114814108D01*
X85727142Y-114861727D01*
X85774761Y-114909346D01*
X85822380Y-115004584D01*
X85822380Y-115195060D01*
X85774761Y-115290298D01*
X85727142Y-115337917D01*
X85631904Y-115385536D01*
X85393809Y-115385536D01*
X85298571Y-115337917D01*
X85250952Y-115290298D01*
X85203333Y-115195060D01*
X85203333Y-115004584D01*
X85250952Y-114909346D01*
X85298571Y-114861727D01*
X85393809Y-114814108D01*
G04 #@! TO.C,R19*
X72004934Y-113480774D02*
X71528744Y-113147441D01*
X72004934Y-112909346D02*
X71004934Y-112909346D01*
X71004934Y-113290298D01*
X71052554Y-113385536D01*
X71100173Y-113433155D01*
X71195411Y-113480774D01*
X71338268Y-113480774D01*
X71433506Y-113433155D01*
X71481125Y-113385536D01*
X71528744Y-113290298D01*
X71528744Y-112909346D01*
X72004934Y-114433155D02*
X72004934Y-113861727D01*
X72004934Y-114147441D02*
X71004934Y-114147441D01*
X71147792Y-114052203D01*
X71243030Y-113956965D01*
X71290649Y-113861727D01*
X72004934Y-114909346D02*
X72004934Y-115099822D01*
X71957315Y-115195060D01*
X71909696Y-115242679D01*
X71766839Y-115337917D01*
X71576363Y-115385536D01*
X71195411Y-115385536D01*
X71100173Y-115337917D01*
X71052554Y-115290298D01*
X71004934Y-115195060D01*
X71004934Y-115004584D01*
X71052554Y-114909346D01*
X71100173Y-114861727D01*
X71195411Y-114814108D01*
X71433506Y-114814108D01*
X71528744Y-114861727D01*
X71576363Y-114909346D01*
X71623982Y-115004584D01*
X71623982Y-115195060D01*
X71576363Y-115290298D01*
X71528744Y-115337917D01*
X71433506Y-115385536D01*
G04 #@! TO.C,R30*
X95027380Y-113455274D02*
X94551190Y-113121941D01*
X95027380Y-112883846D02*
X94027380Y-112883846D01*
X94027380Y-113264798D01*
X94075000Y-113360036D01*
X94122619Y-113407655D01*
X94217857Y-113455274D01*
X94360714Y-113455274D01*
X94455952Y-113407655D01*
X94503571Y-113360036D01*
X94551190Y-113264798D01*
X94551190Y-112883846D01*
X94027380Y-113788608D02*
X94027380Y-114407655D01*
X94408333Y-114074322D01*
X94408333Y-114217179D01*
X94455952Y-114312417D01*
X94503571Y-114360036D01*
X94598809Y-114407655D01*
X94836904Y-114407655D01*
X94932142Y-114360036D01*
X94979761Y-114312417D01*
X95027380Y-114217179D01*
X95027380Y-113931465D01*
X94979761Y-113836227D01*
X94932142Y-113788608D01*
X94027380Y-115026703D02*
X94027380Y-115121941D01*
X94075000Y-115217179D01*
X94122619Y-115264798D01*
X94217857Y-115312417D01*
X94408333Y-115360036D01*
X94646428Y-115360036D01*
X94836904Y-115312417D01*
X94932142Y-115264798D01*
X94979761Y-115217179D01*
X95027380Y-115121941D01*
X95027380Y-115026703D01*
X94979761Y-114931465D01*
X94932142Y-114883846D01*
X94836904Y-114836227D01*
X94646428Y-114788608D01*
X94408333Y-114788608D01*
X94217857Y-114836227D01*
X94122619Y-114883846D01*
X94075000Y-114931465D01*
X94027380Y-115026703D01*
G04 #@! TO.C,R31*
X73539763Y-113455274D02*
X73063573Y-113121941D01*
X73539763Y-112883846D02*
X72539763Y-112883846D01*
X72539763Y-113264798D01*
X72587383Y-113360036D01*
X72635002Y-113407655D01*
X72730240Y-113455274D01*
X72873097Y-113455274D01*
X72968335Y-113407655D01*
X73015954Y-113360036D01*
X73063573Y-113264798D01*
X73063573Y-112883846D01*
X72539763Y-113788608D02*
X72539763Y-114407655D01*
X72920716Y-114074322D01*
X72920716Y-114217179D01*
X72968335Y-114312417D01*
X73015954Y-114360036D01*
X73111192Y-114407655D01*
X73349287Y-114407655D01*
X73444525Y-114360036D01*
X73492144Y-114312417D01*
X73539763Y-114217179D01*
X73539763Y-113931465D01*
X73492144Y-113836227D01*
X73444525Y-113788608D01*
X73539763Y-115360036D02*
X73539763Y-114788608D01*
X73539763Y-115074322D02*
X72539763Y-115074322D01*
X72682621Y-114979084D01*
X72777859Y-114883846D01*
X72825478Y-114788608D01*
G04 #@! TO.C,R33*
X75073093Y-113480774D02*
X74596903Y-113147441D01*
X75073093Y-112909346D02*
X74073093Y-112909346D01*
X74073093Y-113290298D01*
X74120713Y-113385536D01*
X74168332Y-113433155D01*
X74263570Y-113480774D01*
X74406427Y-113480774D01*
X74501665Y-113433155D01*
X74549284Y-113385536D01*
X74596903Y-113290298D01*
X74596903Y-112909346D01*
X74073093Y-113814108D02*
X74073093Y-114433155D01*
X74454046Y-114099822D01*
X74454046Y-114242679D01*
X74501665Y-114337917D01*
X74549284Y-114385536D01*
X74644522Y-114433155D01*
X74882617Y-114433155D01*
X74977855Y-114385536D01*
X75025474Y-114337917D01*
X75073093Y-114242679D01*
X75073093Y-113956965D01*
X75025474Y-113861727D01*
X74977855Y-113814108D01*
X74073093Y-114766489D02*
X74073093Y-115385536D01*
X74454046Y-115052203D01*
X74454046Y-115195060D01*
X74501665Y-115290298D01*
X74549284Y-115337917D01*
X74644522Y-115385536D01*
X74882617Y-115385536D01*
X74977855Y-115337917D01*
X75025474Y-115290298D01*
X75073093Y-115195060D01*
X75073093Y-114909346D01*
X75025474Y-114814108D01*
X74977855Y-114766489D01*
G04 #@! TO.C,R34*
X78144250Y-113455274D02*
X77668060Y-113121941D01*
X78144250Y-112883846D02*
X77144250Y-112883846D01*
X77144250Y-113264798D01*
X77191870Y-113360036D01*
X77239489Y-113407655D01*
X77334727Y-113455274D01*
X77477584Y-113455274D01*
X77572822Y-113407655D01*
X77620441Y-113360036D01*
X77668060Y-113264798D01*
X77668060Y-112883846D01*
X77144250Y-113788608D02*
X77144250Y-114407655D01*
X77525203Y-114074322D01*
X77525203Y-114217179D01*
X77572822Y-114312417D01*
X77620441Y-114360036D01*
X77715679Y-114407655D01*
X77953774Y-114407655D01*
X78049012Y-114360036D01*
X78096631Y-114312417D01*
X78144250Y-114217179D01*
X78144250Y-113931465D01*
X78096631Y-113836227D01*
X78049012Y-113788608D01*
X77477584Y-115264798D02*
X78144250Y-115264798D01*
X77096631Y-115026703D02*
X77810917Y-114788608D01*
X77810917Y-115407655D01*
G04 #@! TO.C,R35*
X90422882Y-113455274D02*
X89946692Y-113121941D01*
X90422882Y-112883846D02*
X89422882Y-112883846D01*
X89422882Y-113264798D01*
X89470502Y-113360036D01*
X89518121Y-113407655D01*
X89613359Y-113455274D01*
X89756216Y-113455274D01*
X89851454Y-113407655D01*
X89899073Y-113360036D01*
X89946692Y-113264798D01*
X89946692Y-112883846D01*
X89422882Y-113788608D02*
X89422882Y-114407655D01*
X89803835Y-114074322D01*
X89803835Y-114217179D01*
X89851454Y-114312417D01*
X89899073Y-114360036D01*
X89994311Y-114407655D01*
X90232406Y-114407655D01*
X90327644Y-114360036D01*
X90375263Y-114312417D01*
X90422882Y-114217179D01*
X90422882Y-113931465D01*
X90375263Y-113836227D01*
X90327644Y-113788608D01*
X89422882Y-115312417D02*
X89422882Y-114836227D01*
X89899073Y-114788608D01*
X89851454Y-114836227D01*
X89803835Y-114931465D01*
X89803835Y-115169560D01*
X89851454Y-115264798D01*
X89899073Y-115312417D01*
X89994311Y-115360036D01*
X90232406Y-115360036D01*
X90327644Y-115312417D01*
X90375263Y-115264798D01*
X90422882Y-115169560D01*
X90422882Y-114931465D01*
X90375263Y-114836227D01*
X90327644Y-114788608D01*
G04 #@! TO.C,R32*
X88888053Y-113455274D02*
X88411863Y-113121941D01*
X88888053Y-112883846D02*
X87888053Y-112883846D01*
X87888053Y-113264798D01*
X87935673Y-113360036D01*
X87983292Y-113407655D01*
X88078530Y-113455274D01*
X88221387Y-113455274D01*
X88316625Y-113407655D01*
X88364244Y-113360036D01*
X88411863Y-113264798D01*
X88411863Y-112883846D01*
X87888053Y-113788608D02*
X87888053Y-114407655D01*
X88269006Y-114074322D01*
X88269006Y-114217179D01*
X88316625Y-114312417D01*
X88364244Y-114360036D01*
X88459482Y-114407655D01*
X88697577Y-114407655D01*
X88792815Y-114360036D01*
X88840434Y-114312417D01*
X88888053Y-114217179D01*
X88888053Y-113931465D01*
X88840434Y-113836227D01*
X88792815Y-113788608D01*
X87983292Y-114788608D02*
X87935673Y-114836227D01*
X87888053Y-114931465D01*
X87888053Y-115169560D01*
X87935673Y-115264798D01*
X87983292Y-115312417D01*
X88078530Y-115360036D01*
X88173768Y-115360036D01*
X88316625Y-115312417D01*
X88888053Y-114740989D01*
X88888053Y-115360036D01*
G04 #@! TO.C,R36*
X93238540Y-113429774D02*
X92762350Y-113096441D01*
X93238540Y-112858346D02*
X92238540Y-112858346D01*
X92238540Y-113239298D01*
X92286160Y-113334536D01*
X92333779Y-113382155D01*
X92429017Y-113429774D01*
X92571874Y-113429774D01*
X92667112Y-113382155D01*
X92714731Y-113334536D01*
X92762350Y-113239298D01*
X92762350Y-112858346D01*
X92238540Y-113763108D02*
X92238540Y-114382155D01*
X92619493Y-114048822D01*
X92619493Y-114191679D01*
X92667112Y-114286917D01*
X92714731Y-114334536D01*
X92809969Y-114382155D01*
X93048064Y-114382155D01*
X93143302Y-114334536D01*
X93190921Y-114286917D01*
X93238540Y-114191679D01*
X93238540Y-113905965D01*
X93190921Y-113810727D01*
X93143302Y-113763108D01*
X92238540Y-115239298D02*
X92238540Y-115048822D01*
X92286160Y-114953584D01*
X92333779Y-114905965D01*
X92476636Y-114810727D01*
X92667112Y-114763108D01*
X93048064Y-114763108D01*
X93143302Y-114810727D01*
X93190921Y-114858346D01*
X93238540Y-114953584D01*
X93238540Y-115144060D01*
X93190921Y-115239298D01*
X93143302Y-115286917D01*
X93048064Y-115334536D01*
X92809969Y-115334536D01*
X92714731Y-115286917D01*
X92667112Y-115239298D01*
X92619493Y-115144060D01*
X92619493Y-114953584D01*
X92667112Y-114858346D01*
X92714731Y-114810727D01*
X92809969Y-114763108D01*
G04 #@! TO.C,R39*
X41308354Y-113480774D02*
X40832164Y-113147441D01*
X41308354Y-112909346D02*
X40308354Y-112909346D01*
X40308354Y-113290298D01*
X40355974Y-113385536D01*
X40403593Y-113433155D01*
X40498831Y-113480774D01*
X40641688Y-113480774D01*
X40736926Y-113433155D01*
X40784545Y-113385536D01*
X40832164Y-113290298D01*
X40832164Y-112909346D01*
X40308354Y-113814108D02*
X40308354Y-114433155D01*
X40689307Y-114099822D01*
X40689307Y-114242679D01*
X40736926Y-114337917D01*
X40784545Y-114385536D01*
X40879783Y-114433155D01*
X41117878Y-114433155D01*
X41213116Y-114385536D01*
X41260735Y-114337917D01*
X41308354Y-114242679D01*
X41308354Y-113956965D01*
X41260735Y-113861727D01*
X41213116Y-113814108D01*
X41308354Y-114909346D02*
X41308354Y-115099822D01*
X41260735Y-115195060D01*
X41213116Y-115242679D01*
X41070259Y-115337917D01*
X40879783Y-115385536D01*
X40498831Y-115385536D01*
X40403593Y-115337917D01*
X40355974Y-115290298D01*
X40308354Y-115195060D01*
X40308354Y-115004584D01*
X40355974Y-114909346D01*
X40403593Y-114861727D01*
X40498831Y-114814108D01*
X40736926Y-114814108D01*
X40832164Y-114861727D01*
X40879783Y-114909346D01*
X40927402Y-115004584D01*
X40927402Y-115195060D01*
X40879783Y-115290298D01*
X40832164Y-115337917D01*
X40736926Y-115385536D01*
G04 #@! TO.C,R40*
X56656644Y-113429774D02*
X56180454Y-113096441D01*
X56656644Y-112858346D02*
X55656644Y-112858346D01*
X55656644Y-113239298D01*
X55704264Y-113334536D01*
X55751883Y-113382155D01*
X55847121Y-113429774D01*
X55989978Y-113429774D01*
X56085216Y-113382155D01*
X56132835Y-113334536D01*
X56180454Y-113239298D01*
X56180454Y-112858346D01*
X55989978Y-114286917D02*
X56656644Y-114286917D01*
X55609025Y-114048822D02*
X56323311Y-113810727D01*
X56323311Y-114429774D01*
X55656644Y-115001203D02*
X55656644Y-115096441D01*
X55704264Y-115191679D01*
X55751883Y-115239298D01*
X55847121Y-115286917D01*
X56037597Y-115334536D01*
X56275692Y-115334536D01*
X56466168Y-115286917D01*
X56561406Y-115239298D01*
X56609025Y-115191679D01*
X56656644Y-115096441D01*
X56656644Y-115001203D01*
X56609025Y-114905965D01*
X56561406Y-114858346D01*
X56466168Y-114810727D01*
X56275692Y-114763108D01*
X56037597Y-114763108D01*
X55847121Y-114810727D01*
X55751883Y-114858346D01*
X55704264Y-114905965D01*
X55656644Y-115001203D01*
G04 #@! TO.C,R42*
X50517328Y-113429774D02*
X50041138Y-113096441D01*
X50517328Y-112858346D02*
X49517328Y-112858346D01*
X49517328Y-113239298D01*
X49564948Y-113334536D01*
X49612567Y-113382155D01*
X49707805Y-113429774D01*
X49850662Y-113429774D01*
X49945900Y-113382155D01*
X49993519Y-113334536D01*
X50041138Y-113239298D01*
X50041138Y-112858346D01*
X49850662Y-114286917D02*
X50517328Y-114286917D01*
X49469709Y-114048822D02*
X50183995Y-113810727D01*
X50183995Y-114429774D01*
X49612567Y-114763108D02*
X49564948Y-114810727D01*
X49517328Y-114905965D01*
X49517328Y-115144060D01*
X49564948Y-115239298D01*
X49612567Y-115286917D01*
X49707805Y-115334536D01*
X49803043Y-115334536D01*
X49945900Y-115286917D01*
X50517328Y-114715489D01*
X50517328Y-115334536D01*
G04 #@! TO.C,R43*
X36703867Y-113480774D02*
X36227677Y-113147441D01*
X36703867Y-112909346D02*
X35703867Y-112909346D01*
X35703867Y-113290298D01*
X35751487Y-113385536D01*
X35799106Y-113433155D01*
X35894344Y-113480774D01*
X36037201Y-113480774D01*
X36132439Y-113433155D01*
X36180058Y-113385536D01*
X36227677Y-113290298D01*
X36227677Y-112909346D01*
X36037201Y-114337917D02*
X36703867Y-114337917D01*
X35656248Y-114099822D02*
X36370534Y-113861727D01*
X36370534Y-114480774D01*
X35703867Y-114766489D02*
X35703867Y-115385536D01*
X36084820Y-115052203D01*
X36084820Y-115195060D01*
X36132439Y-115290298D01*
X36180058Y-115337917D01*
X36275296Y-115385536D01*
X36513391Y-115385536D01*
X36608629Y-115337917D01*
X36656248Y-115290298D01*
X36703867Y-115195060D01*
X36703867Y-114909346D01*
X36656248Y-114814108D01*
X36608629Y-114766489D01*
G04 #@! TO.C,R45*
X52052157Y-113480774D02*
X51575967Y-113147441D01*
X52052157Y-112909346D02*
X51052157Y-112909346D01*
X51052157Y-113290298D01*
X51099777Y-113385536D01*
X51147396Y-113433155D01*
X51242634Y-113480774D01*
X51385491Y-113480774D01*
X51480729Y-113433155D01*
X51528348Y-113385536D01*
X51575967Y-113290298D01*
X51575967Y-112909346D01*
X51385491Y-114337917D02*
X52052157Y-114337917D01*
X51004538Y-114099822D02*
X51718824Y-113861727D01*
X51718824Y-114480774D01*
X51052157Y-115337917D02*
X51052157Y-114861727D01*
X51528348Y-114814108D01*
X51480729Y-114861727D01*
X51433110Y-114956965D01*
X51433110Y-115195060D01*
X51480729Y-115290298D01*
X51528348Y-115337917D01*
X51623586Y-115385536D01*
X51861681Y-115385536D01*
X51956919Y-115337917D01*
X52004538Y-115290298D01*
X52052157Y-115195060D01*
X52052157Y-114956965D01*
X52004538Y-114861727D01*
X51956919Y-114814108D01*
G04 #@! TO.C,R51*
X42843183Y-113455274D02*
X42366993Y-113121941D01*
X42843183Y-112883846D02*
X41843183Y-112883846D01*
X41843183Y-113264798D01*
X41890803Y-113360036D01*
X41938422Y-113407655D01*
X42033660Y-113455274D01*
X42176517Y-113455274D01*
X42271755Y-113407655D01*
X42319374Y-113360036D01*
X42366993Y-113264798D01*
X42366993Y-112883846D01*
X41843183Y-114360036D02*
X41843183Y-113883846D01*
X42319374Y-113836227D01*
X42271755Y-113883846D01*
X42224136Y-113979084D01*
X42224136Y-114217179D01*
X42271755Y-114312417D01*
X42319374Y-114360036D01*
X42414612Y-114407655D01*
X42652707Y-114407655D01*
X42747945Y-114360036D01*
X42795564Y-114312417D01*
X42843183Y-114217179D01*
X42843183Y-113979084D01*
X42795564Y-113883846D01*
X42747945Y-113836227D01*
X42843183Y-115360036D02*
X42843183Y-114788608D01*
X42843183Y-115074322D02*
X41843183Y-115074322D01*
X41986041Y-114979084D01*
X42081279Y-114883846D01*
X42128898Y-114788608D01*
G04 #@! TO.C,R50*
X64330789Y-113455274D02*
X63854599Y-113121941D01*
X64330789Y-112883846D02*
X63330789Y-112883846D01*
X63330789Y-113264798D01*
X63378409Y-113360036D01*
X63426028Y-113407655D01*
X63521266Y-113455274D01*
X63664123Y-113455274D01*
X63759361Y-113407655D01*
X63806980Y-113360036D01*
X63854599Y-113264798D01*
X63854599Y-112883846D01*
X63330789Y-114360036D02*
X63330789Y-113883846D01*
X63806980Y-113836227D01*
X63759361Y-113883846D01*
X63711742Y-113979084D01*
X63711742Y-114217179D01*
X63759361Y-114312417D01*
X63806980Y-114360036D01*
X63902218Y-114407655D01*
X64140313Y-114407655D01*
X64235551Y-114360036D01*
X64283170Y-114312417D01*
X64330789Y-114217179D01*
X64330789Y-113979084D01*
X64283170Y-113883846D01*
X64235551Y-113836227D01*
X63330789Y-115026703D02*
X63330789Y-115121941D01*
X63378409Y-115217179D01*
X63426028Y-115264798D01*
X63521266Y-115312417D01*
X63711742Y-115360036D01*
X63949837Y-115360036D01*
X64140313Y-115312417D01*
X64235551Y-115264798D01*
X64283170Y-115217179D01*
X64330789Y-115121941D01*
X64330789Y-115026703D01*
X64283170Y-114931465D01*
X64235551Y-114883846D01*
X64140313Y-114836227D01*
X63949837Y-114788608D01*
X63711742Y-114788608D01*
X63521266Y-114836227D01*
X63426028Y-114883846D01*
X63378409Y-114931465D01*
X63330789Y-115026703D01*
G04 #@! TO.C,R52*
X58191473Y-113480774D02*
X57715283Y-113147441D01*
X58191473Y-112909346D02*
X57191473Y-112909346D01*
X57191473Y-113290298D01*
X57239093Y-113385536D01*
X57286712Y-113433155D01*
X57381950Y-113480774D01*
X57524807Y-113480774D01*
X57620045Y-113433155D01*
X57667664Y-113385536D01*
X57715283Y-113290298D01*
X57715283Y-112909346D01*
X57191473Y-114385536D02*
X57191473Y-113909346D01*
X57667664Y-113861727D01*
X57620045Y-113909346D01*
X57572426Y-114004584D01*
X57572426Y-114242679D01*
X57620045Y-114337917D01*
X57667664Y-114385536D01*
X57762902Y-114433155D01*
X58000997Y-114433155D01*
X58096235Y-114385536D01*
X58143854Y-114337917D01*
X58191473Y-114242679D01*
X58191473Y-114004584D01*
X58143854Y-113909346D01*
X58096235Y-113861727D01*
X57286712Y-114814108D02*
X57239093Y-114861727D01*
X57191473Y-114956965D01*
X57191473Y-115195060D01*
X57239093Y-115290298D01*
X57286712Y-115337917D01*
X57381950Y-115385536D01*
X57477188Y-115385536D01*
X57620045Y-115337917D01*
X58191473Y-114766489D01*
X58191473Y-115385536D01*
G04 #@! TO.C,R53*
X44378012Y-113480774D02*
X43901822Y-113147441D01*
X44378012Y-112909346D02*
X43378012Y-112909346D01*
X43378012Y-113290298D01*
X43425632Y-113385536D01*
X43473251Y-113433155D01*
X43568489Y-113480774D01*
X43711346Y-113480774D01*
X43806584Y-113433155D01*
X43854203Y-113385536D01*
X43901822Y-113290298D01*
X43901822Y-112909346D01*
X43378012Y-114385536D02*
X43378012Y-113909346D01*
X43854203Y-113861727D01*
X43806584Y-113909346D01*
X43758965Y-114004584D01*
X43758965Y-114242679D01*
X43806584Y-114337917D01*
X43854203Y-114385536D01*
X43949441Y-114433155D01*
X44187536Y-114433155D01*
X44282774Y-114385536D01*
X44330393Y-114337917D01*
X44378012Y-114242679D01*
X44378012Y-114004584D01*
X44330393Y-113909346D01*
X44282774Y-113861727D01*
X43378012Y-114766489D02*
X43378012Y-115385536D01*
X43758965Y-115052203D01*
X43758965Y-115195060D01*
X43806584Y-115290298D01*
X43854203Y-115337917D01*
X43949441Y-115385536D01*
X44187536Y-115385536D01*
X44282774Y-115337917D01*
X44330393Y-115290298D01*
X44378012Y-115195060D01*
X44378012Y-114909346D01*
X44330393Y-114814108D01*
X44282774Y-114766489D01*
G04 #@! TO.C,R54*
X47452380Y-113429774D02*
X46976190Y-113096441D01*
X47452380Y-112858346D02*
X46452380Y-112858346D01*
X46452380Y-113239298D01*
X46500000Y-113334536D01*
X46547619Y-113382155D01*
X46642857Y-113429774D01*
X46785714Y-113429774D01*
X46880952Y-113382155D01*
X46928571Y-113334536D01*
X46976190Y-113239298D01*
X46976190Y-112858346D01*
X46452380Y-114334536D02*
X46452380Y-113858346D01*
X46928571Y-113810727D01*
X46880952Y-113858346D01*
X46833333Y-113953584D01*
X46833333Y-114191679D01*
X46880952Y-114286917D01*
X46928571Y-114334536D01*
X47023809Y-114382155D01*
X47261904Y-114382155D01*
X47357142Y-114334536D01*
X47404761Y-114286917D01*
X47452380Y-114191679D01*
X47452380Y-113953584D01*
X47404761Y-113858346D01*
X47357142Y-113810727D01*
X46785714Y-115239298D02*
X47452380Y-115239298D01*
X46404761Y-115001203D02*
X47119047Y-114763108D01*
X47119047Y-115382155D01*
G04 #@! TO.C,R55*
X59726302Y-113455274D02*
X59250112Y-113121941D01*
X59726302Y-112883846D02*
X58726302Y-112883846D01*
X58726302Y-113264798D01*
X58773922Y-113360036D01*
X58821541Y-113407655D01*
X58916779Y-113455274D01*
X59059636Y-113455274D01*
X59154874Y-113407655D01*
X59202493Y-113360036D01*
X59250112Y-113264798D01*
X59250112Y-112883846D01*
X58726302Y-114360036D02*
X58726302Y-113883846D01*
X59202493Y-113836227D01*
X59154874Y-113883846D01*
X59107255Y-113979084D01*
X59107255Y-114217179D01*
X59154874Y-114312417D01*
X59202493Y-114360036D01*
X59297731Y-114407655D01*
X59535826Y-114407655D01*
X59631064Y-114360036D01*
X59678683Y-114312417D01*
X59726302Y-114217179D01*
X59726302Y-113979084D01*
X59678683Y-113883846D01*
X59631064Y-113836227D01*
X58726302Y-115312417D02*
X58726302Y-114836227D01*
X59202493Y-114788608D01*
X59154874Y-114836227D01*
X59107255Y-114931465D01*
X59107255Y-115169560D01*
X59154874Y-115264798D01*
X59202493Y-115312417D01*
X59297731Y-115360036D01*
X59535826Y-115360036D01*
X59631064Y-115312417D01*
X59678683Y-115264798D01*
X59726302Y-115169560D01*
X59726302Y-114931465D01*
X59678683Y-114836227D01*
X59631064Y-114788608D01*
G04 #@! TO.C,R56*
X62795960Y-113429774D02*
X62319770Y-113096441D01*
X62795960Y-112858346D02*
X61795960Y-112858346D01*
X61795960Y-113239298D01*
X61843580Y-113334536D01*
X61891199Y-113382155D01*
X61986437Y-113429774D01*
X62129294Y-113429774D01*
X62224532Y-113382155D01*
X62272151Y-113334536D01*
X62319770Y-113239298D01*
X62319770Y-112858346D01*
X61795960Y-114334536D02*
X61795960Y-113858346D01*
X62272151Y-113810727D01*
X62224532Y-113858346D01*
X62176913Y-113953584D01*
X62176913Y-114191679D01*
X62224532Y-114286917D01*
X62272151Y-114334536D01*
X62367389Y-114382155D01*
X62605484Y-114382155D01*
X62700722Y-114334536D01*
X62748341Y-114286917D01*
X62795960Y-114191679D01*
X62795960Y-113953584D01*
X62748341Y-113858346D01*
X62700722Y-113810727D01*
X61795960Y-115239298D02*
X61795960Y-115048822D01*
X61843580Y-114953584D01*
X61891199Y-114905965D01*
X62034056Y-114810727D01*
X62224532Y-114763108D01*
X62605484Y-114763108D01*
X62700722Y-114810727D01*
X62748341Y-114858346D01*
X62795960Y-114953584D01*
X62795960Y-115144060D01*
X62748341Y-115239298D01*
X62700722Y-115286917D01*
X62605484Y-115334536D01*
X62367389Y-115334536D01*
X62272151Y-115286917D01*
X62224532Y-115239298D01*
X62176913Y-115144060D01*
X62176913Y-114953584D01*
X62224532Y-114858346D01*
X62272151Y-114810727D01*
X62367389Y-114763108D01*
G04 #@! TO.C,R49*
X48982499Y-113429774D02*
X48506309Y-113096441D01*
X48982499Y-112858346D02*
X47982499Y-112858346D01*
X47982499Y-113239298D01*
X48030119Y-113334536D01*
X48077738Y-113382155D01*
X48172976Y-113429774D01*
X48315833Y-113429774D01*
X48411071Y-113382155D01*
X48458690Y-113334536D01*
X48506309Y-113239298D01*
X48506309Y-112858346D01*
X48315833Y-114286917D02*
X48982499Y-114286917D01*
X47934880Y-114048822D02*
X48649166Y-113810727D01*
X48649166Y-114429774D01*
X48982499Y-114858346D02*
X48982499Y-115048822D01*
X48934880Y-115144060D01*
X48887261Y-115191679D01*
X48744404Y-115286917D01*
X48553928Y-115334536D01*
X48172976Y-115334536D01*
X48077738Y-115286917D01*
X48030119Y-115239298D01*
X47982499Y-115144060D01*
X47982499Y-114953584D01*
X48030119Y-114858346D01*
X48077738Y-114810727D01*
X48172976Y-114763108D01*
X48411071Y-114763108D01*
X48506309Y-114810727D01*
X48553928Y-114858346D01*
X48601547Y-114953584D01*
X48601547Y-115144060D01*
X48553928Y-115239298D01*
X48506309Y-115286917D01*
X48411071Y-115334536D01*
G04 #@! TO.C,C11*
X61165893Y-113480774D02*
X61213512Y-113433155D01*
X61261131Y-113290298D01*
X61261131Y-113195060D01*
X61213512Y-113052203D01*
X61118274Y-112956965D01*
X61023036Y-112909346D01*
X60832560Y-112861727D01*
X60689703Y-112861727D01*
X60499227Y-112909346D01*
X60403989Y-112956965D01*
X60308751Y-113052203D01*
X60261131Y-113195060D01*
X60261131Y-113290298D01*
X60308751Y-113433155D01*
X60356370Y-113480774D01*
X61261131Y-114433155D02*
X61261131Y-113861727D01*
X61261131Y-114147441D02*
X60261131Y-114147441D01*
X60403989Y-114052203D01*
X60499227Y-113956965D01*
X60546846Y-113861727D01*
X61261131Y-115385536D02*
X61261131Y-114814108D01*
X61261131Y-115099822D02*
X60261131Y-115099822D01*
X60403989Y-115004584D01*
X60499227Y-114909346D01*
X60546846Y-114814108D01*
G04 #@! TO.C,C5*
X76514183Y-113448965D02*
X76561802Y-113401346D01*
X76609421Y-113258489D01*
X76609421Y-113163251D01*
X76561802Y-113020393D01*
X76466564Y-112925155D01*
X76371326Y-112877536D01*
X76180850Y-112829917D01*
X76037993Y-112829917D01*
X75847517Y-112877536D01*
X75752279Y-112925155D01*
X75657041Y-113020393D01*
X75609421Y-113163251D01*
X75609421Y-113258489D01*
X75657041Y-113401346D01*
X75704660Y-113448965D01*
X75609421Y-114353727D02*
X75609421Y-113877536D01*
X76085612Y-113829917D01*
X76037993Y-113877536D01*
X75990374Y-113972774D01*
X75990374Y-114210870D01*
X76037993Y-114306108D01*
X76085612Y-114353727D01*
X76180850Y-114401346D01*
X76418945Y-114401346D01*
X76514183Y-114353727D01*
X76561802Y-114306108D01*
X76609421Y-114210870D01*
X76609421Y-113972774D01*
X76561802Y-113877536D01*
X76514183Y-113829917D01*
G04 #@! TO.C,C6*
X91862473Y-113677465D02*
X91910092Y-113629846D01*
X91957711Y-113486989D01*
X91957711Y-113391751D01*
X91910092Y-113248893D01*
X91814854Y-113153655D01*
X91719616Y-113106036D01*
X91529140Y-113058417D01*
X91386283Y-113058417D01*
X91195807Y-113106036D01*
X91100569Y-113153655D01*
X91005331Y-113248893D01*
X90957711Y-113391751D01*
X90957711Y-113486989D01*
X91005331Y-113629846D01*
X91052950Y-113677465D01*
X90957711Y-114534608D02*
X90957711Y-114344132D01*
X91005331Y-114248893D01*
X91052950Y-114201274D01*
X91195807Y-114106036D01*
X91386283Y-114058417D01*
X91767235Y-114058417D01*
X91862473Y-114106036D01*
X91910092Y-114153655D01*
X91957711Y-114248893D01*
X91957711Y-114439370D01*
X91910092Y-114534608D01*
X91862473Y-114582227D01*
X91767235Y-114629846D01*
X91529140Y-114629846D01*
X91433902Y-114582227D01*
X91386283Y-114534608D01*
X91338664Y-114439370D01*
X91338664Y-114248893D01*
X91386283Y-114153655D01*
X91433902Y-114106036D01*
X91529140Y-114058417D01*
G04 #@! TO.C,C10*
X45837142Y-113429774D02*
X45884761Y-113382155D01*
X45932380Y-113239298D01*
X45932380Y-113144060D01*
X45884761Y-113001203D01*
X45789523Y-112905965D01*
X45694285Y-112858346D01*
X45503809Y-112810727D01*
X45360952Y-112810727D01*
X45170476Y-112858346D01*
X45075238Y-112905965D01*
X44980000Y-113001203D01*
X44932380Y-113144060D01*
X44932380Y-113239298D01*
X44980000Y-113382155D01*
X45027619Y-113429774D01*
X45932380Y-114382155D02*
X45932380Y-113810727D01*
X45932380Y-114096441D02*
X44932380Y-114096441D01*
X45075238Y-114001203D01*
X45170476Y-113905965D01*
X45218095Y-113810727D01*
X44932380Y-115001203D02*
X44932380Y-115096441D01*
X44980000Y-115191679D01*
X45027619Y-115239298D01*
X45122857Y-115286917D01*
X45313333Y-115334536D01*
X45551428Y-115334536D01*
X45741904Y-115286917D01*
X45837142Y-115239298D01*
X45884761Y-115191679D01*
X45932380Y-115096441D01*
X45932380Y-115001203D01*
X45884761Y-114905965D01*
X45837142Y-114858346D01*
X45741904Y-114810727D01*
X45551428Y-114763108D01*
X45313333Y-114763108D01*
X45122857Y-114810727D01*
X45027619Y-114858346D01*
X44980000Y-114905965D01*
X44932380Y-115001203D01*
G04 #@! TO.C,C8*
X53491748Y-113423465D02*
X53539367Y-113375846D01*
X53586986Y-113232989D01*
X53586986Y-113137751D01*
X53539367Y-112994893D01*
X53444129Y-112899655D01*
X53348891Y-112852036D01*
X53158415Y-112804417D01*
X53015558Y-112804417D01*
X52825082Y-112852036D01*
X52729844Y-112899655D01*
X52634606Y-112994893D01*
X52586986Y-113137751D01*
X52586986Y-113232989D01*
X52634606Y-113375846D01*
X52682225Y-113423465D01*
X53015558Y-113994893D02*
X52967939Y-113899655D01*
X52920320Y-113852036D01*
X52825082Y-113804417D01*
X52777463Y-113804417D01*
X52682225Y-113852036D01*
X52634606Y-113899655D01*
X52586986Y-113994893D01*
X52586986Y-114185370D01*
X52634606Y-114280608D01*
X52682225Y-114328227D01*
X52777463Y-114375846D01*
X52825082Y-114375846D01*
X52920320Y-114328227D01*
X52967939Y-114280608D01*
X53015558Y-114185370D01*
X53015558Y-113994893D01*
X53063177Y-113899655D01*
X53110796Y-113852036D01*
X53206034Y-113804417D01*
X53396510Y-113804417D01*
X53491748Y-113852036D01*
X53539367Y-113899655D01*
X53586986Y-113994893D01*
X53586986Y-114185370D01*
X53539367Y-114280608D01*
X53491748Y-114328227D01*
X53396510Y-114375846D01*
X53206034Y-114375846D01*
X53110796Y-114328227D01*
X53063177Y-114280608D01*
X53015558Y-114185370D01*
G04 #@! TO.C,C3*
X84187142Y-113651965D02*
X84234761Y-113604346D01*
X84282380Y-113461489D01*
X84282380Y-113366251D01*
X84234761Y-113223393D01*
X84139523Y-113128155D01*
X84044285Y-113080536D01*
X83853809Y-113032917D01*
X83710952Y-113032917D01*
X83520476Y-113080536D01*
X83425238Y-113128155D01*
X83330000Y-113223393D01*
X83282380Y-113366251D01*
X83282380Y-113461489D01*
X83330000Y-113604346D01*
X83377619Y-113651965D01*
X83282380Y-113985298D02*
X83282380Y-114604346D01*
X83663333Y-114271012D01*
X83663333Y-114413870D01*
X83710952Y-114509108D01*
X83758571Y-114556727D01*
X83853809Y-114604346D01*
X84091904Y-114604346D01*
X84187142Y-114556727D01*
X84234761Y-114509108D01*
X84282380Y-114413870D01*
X84282380Y-114128155D01*
X84234761Y-114032917D01*
X84187142Y-113985298D01*
G04 #@! TO.C,C2*
X68840038Y-113423465D02*
X68887657Y-113375846D01*
X68935276Y-113232989D01*
X68935276Y-113137751D01*
X68887657Y-112994893D01*
X68792419Y-112899655D01*
X68697181Y-112852036D01*
X68506705Y-112804417D01*
X68363848Y-112804417D01*
X68173372Y-112852036D01*
X68078134Y-112899655D01*
X67982896Y-112994893D01*
X67935276Y-113137751D01*
X67935276Y-113232989D01*
X67982896Y-113375846D01*
X68030515Y-113423465D01*
X68030515Y-113804417D02*
X67982896Y-113852036D01*
X67935276Y-113947274D01*
X67935276Y-114185370D01*
X67982896Y-114280608D01*
X68030515Y-114328227D01*
X68125753Y-114375846D01*
X68220991Y-114375846D01*
X68363848Y-114328227D01*
X68935276Y-113756798D01*
X68935276Y-114375846D01*
G04 #@! TO.C,C7*
X38143458Y-113397965D02*
X38191077Y-113350346D01*
X38238696Y-113207489D01*
X38238696Y-113112251D01*
X38191077Y-112969393D01*
X38095839Y-112874155D01*
X38000601Y-112826536D01*
X37810125Y-112778917D01*
X37667268Y-112778917D01*
X37476792Y-112826536D01*
X37381554Y-112874155D01*
X37286316Y-112969393D01*
X37238696Y-113112251D01*
X37238696Y-113207489D01*
X37286316Y-113350346D01*
X37333935Y-113397965D01*
X37238696Y-113731298D02*
X37238696Y-114397965D01*
X38238696Y-113969393D01*
G04 #@! TO.C,U4*
X88772380Y-161518095D02*
X89581904Y-161518095D01*
X89677142Y-161565714D01*
X89724761Y-161613333D01*
X89772380Y-161708571D01*
X89772380Y-161899047D01*
X89724761Y-161994285D01*
X89677142Y-162041904D01*
X89581904Y-162089523D01*
X88772380Y-162089523D01*
X89105714Y-162994285D02*
X89772380Y-162994285D01*
X88724761Y-162756190D02*
X89439047Y-162518095D01*
X89439047Y-163137142D01*
G04 #@! TO.C,C1*
X56237142Y-133691333D02*
X56284761Y-133643714D01*
X56332380Y-133500857D01*
X56332380Y-133405619D01*
X56284761Y-133262761D01*
X56189523Y-133167523D01*
X56094285Y-133119904D01*
X55903809Y-133072285D01*
X55760952Y-133072285D01*
X55570476Y-133119904D01*
X55475238Y-133167523D01*
X55380000Y-133262761D01*
X55332380Y-133405619D01*
X55332380Y-133500857D01*
X55380000Y-133643714D01*
X55427619Y-133691333D01*
X56332380Y-134643714D02*
X56332380Y-134072285D01*
X56332380Y-134358000D02*
X55332380Y-134358000D01*
X55475238Y-134262761D01*
X55570476Y-134167523D01*
X55618095Y-134072285D01*
G04 #@! TO.C,C4*
X42616666Y-116587142D02*
X42664285Y-116634761D01*
X42807142Y-116682380D01*
X42902380Y-116682380D01*
X43045238Y-116634761D01*
X43140476Y-116539523D01*
X43188095Y-116444285D01*
X43235714Y-116253809D01*
X43235714Y-116110952D01*
X43188095Y-115920476D01*
X43140476Y-115825238D01*
X43045238Y-115730000D01*
X42902380Y-115682380D01*
X42807142Y-115682380D01*
X42664285Y-115730000D01*
X42616666Y-115777619D01*
X41759523Y-116015714D02*
X41759523Y-116682380D01*
X41997619Y-115634761D02*
X42235714Y-116349047D01*
X41616666Y-116349047D01*
G04 #@! TO.C,C9*
X78946666Y-129107142D02*
X78994285Y-129154761D01*
X79137142Y-129202380D01*
X79232380Y-129202380D01*
X79375238Y-129154761D01*
X79470476Y-129059523D01*
X79518095Y-128964285D01*
X79565714Y-128773809D01*
X79565714Y-128630952D01*
X79518095Y-128440476D01*
X79470476Y-128345238D01*
X79375238Y-128250000D01*
X79232380Y-128202380D01*
X79137142Y-128202380D01*
X78994285Y-128250000D01*
X78946666Y-128297619D01*
X78470476Y-129202380D02*
X78280000Y-129202380D01*
X78184761Y-129154761D01*
X78137142Y-129107142D01*
X78041904Y-128964285D01*
X77994285Y-128773809D01*
X77994285Y-128392857D01*
X78041904Y-128297619D01*
X78089523Y-128250000D01*
X78184761Y-128202380D01*
X78375238Y-128202380D01*
X78470476Y-128250000D01*
X78518095Y-128297619D01*
X78565714Y-128392857D01*
X78565714Y-128630952D01*
X78518095Y-128726190D01*
X78470476Y-128773809D01*
X78375238Y-128821428D01*
X78184761Y-128821428D01*
X78089523Y-128773809D01*
X78041904Y-128726190D01*
X77994285Y-128630952D01*
G04 #@! TO.C,C12*
X95127142Y-157117142D02*
X95174761Y-157069523D01*
X95222380Y-156926666D01*
X95222380Y-156831428D01*
X95174761Y-156688571D01*
X95079523Y-156593333D01*
X94984285Y-156545714D01*
X94793809Y-156498095D01*
X94650952Y-156498095D01*
X94460476Y-156545714D01*
X94365238Y-156593333D01*
X94270000Y-156688571D01*
X94222380Y-156831428D01*
X94222380Y-156926666D01*
X94270000Y-157069523D01*
X94317619Y-157117142D01*
X95222380Y-158069523D02*
X95222380Y-157498095D01*
X95222380Y-157783809D02*
X94222380Y-157783809D01*
X94365238Y-157688571D01*
X94460476Y-157593333D01*
X94508095Y-157498095D01*
X94317619Y-158450476D02*
X94270000Y-158498095D01*
X94222380Y-158593333D01*
X94222380Y-158831428D01*
X94270000Y-158926666D01*
X94317619Y-158974285D01*
X94412857Y-159021904D01*
X94508095Y-159021904D01*
X94650952Y-158974285D01*
X95222380Y-158402857D01*
X95222380Y-159021904D01*
G04 #@! TO.C,C13*
X88272857Y-134297142D02*
X88320476Y-134344761D01*
X88463333Y-134392380D01*
X88558571Y-134392380D01*
X88701428Y-134344761D01*
X88796666Y-134249523D01*
X88844285Y-134154285D01*
X88891904Y-133963809D01*
X88891904Y-133820952D01*
X88844285Y-133630476D01*
X88796666Y-133535238D01*
X88701428Y-133440000D01*
X88558571Y-133392380D01*
X88463333Y-133392380D01*
X88320476Y-133440000D01*
X88272857Y-133487619D01*
X87320476Y-134392380D02*
X87891904Y-134392380D01*
X87606190Y-134392380D02*
X87606190Y-133392380D01*
X87701428Y-133535238D01*
X87796666Y-133630476D01*
X87891904Y-133678095D01*
X86987142Y-133392380D02*
X86368095Y-133392380D01*
X86701428Y-133773333D01*
X86558571Y-133773333D01*
X86463333Y-133820952D01*
X86415714Y-133868571D01*
X86368095Y-133963809D01*
X86368095Y-134201904D01*
X86415714Y-134297142D01*
X86463333Y-134344761D01*
X86558571Y-134392380D01*
X86844285Y-134392380D01*
X86939523Y-134344761D01*
X86987142Y-134297142D01*
G04 #@! TO.C,C14*
X88272857Y-132691142D02*
X88320476Y-132738761D01*
X88463333Y-132786380D01*
X88558571Y-132786380D01*
X88701428Y-132738761D01*
X88796666Y-132643523D01*
X88844285Y-132548285D01*
X88891904Y-132357809D01*
X88891904Y-132214952D01*
X88844285Y-132024476D01*
X88796666Y-131929238D01*
X88701428Y-131834000D01*
X88558571Y-131786380D01*
X88463333Y-131786380D01*
X88320476Y-131834000D01*
X88272857Y-131881619D01*
X87320476Y-132786380D02*
X87891904Y-132786380D01*
X87606190Y-132786380D02*
X87606190Y-131786380D01*
X87701428Y-131929238D01*
X87796666Y-132024476D01*
X87891904Y-132072095D01*
X86463333Y-132119714D02*
X86463333Y-132786380D01*
X86701428Y-131738761D02*
X86939523Y-132453047D01*
X86320476Y-132453047D01*
G04 #@! TO.C,C15*
X88272857Y-136147142D02*
X88320476Y-136194761D01*
X88463333Y-136242380D01*
X88558571Y-136242380D01*
X88701428Y-136194761D01*
X88796666Y-136099523D01*
X88844285Y-136004285D01*
X88891904Y-135813809D01*
X88891904Y-135670952D01*
X88844285Y-135480476D01*
X88796666Y-135385238D01*
X88701428Y-135290000D01*
X88558571Y-135242380D01*
X88463333Y-135242380D01*
X88320476Y-135290000D01*
X88272857Y-135337619D01*
X87320476Y-136242380D02*
X87891904Y-136242380D01*
X87606190Y-136242380D02*
X87606190Y-135242380D01*
X87701428Y-135385238D01*
X87796666Y-135480476D01*
X87891904Y-135528095D01*
X86415714Y-135242380D02*
X86891904Y-135242380D01*
X86939523Y-135718571D01*
X86891904Y-135670952D01*
X86796666Y-135623333D01*
X86558571Y-135623333D01*
X86463333Y-135670952D01*
X86415714Y-135718571D01*
X86368095Y-135813809D01*
X86368095Y-136051904D01*
X86415714Y-136147142D01*
X86463333Y-136194761D01*
X86558571Y-136242380D01*
X86796666Y-136242380D01*
X86891904Y-136194761D01*
X86939523Y-136147142D01*
G04 #@! TO.C,C16*
X93602857Y-146037142D02*
X93650476Y-146084761D01*
X93793333Y-146132380D01*
X93888571Y-146132380D01*
X94031428Y-146084761D01*
X94126666Y-145989523D01*
X94174285Y-145894285D01*
X94221904Y-145703809D01*
X94221904Y-145560952D01*
X94174285Y-145370476D01*
X94126666Y-145275238D01*
X94031428Y-145180000D01*
X93888571Y-145132380D01*
X93793333Y-145132380D01*
X93650476Y-145180000D01*
X93602857Y-145227619D01*
X92650476Y-146132380D02*
X93221904Y-146132380D01*
X92936190Y-146132380D02*
X92936190Y-145132380D01*
X93031428Y-145275238D01*
X93126666Y-145370476D01*
X93221904Y-145418095D01*
X91793333Y-145132380D02*
X91983809Y-145132380D01*
X92079047Y-145180000D01*
X92126666Y-145227619D01*
X92221904Y-145370476D01*
X92269523Y-145560952D01*
X92269523Y-145941904D01*
X92221904Y-146037142D01*
X92174285Y-146084761D01*
X92079047Y-146132380D01*
X91888571Y-146132380D01*
X91793333Y-146084761D01*
X91745714Y-146037142D01*
X91698095Y-145941904D01*
X91698095Y-145703809D01*
X91745714Y-145608571D01*
X91793333Y-145560952D01*
X91888571Y-145513333D01*
X92079047Y-145513333D01*
X92174285Y-145560952D01*
X92221904Y-145608571D01*
X92269523Y-145703809D01*
G04 #@! TO.C,C17*
X91927142Y-125807142D02*
X91974761Y-125759523D01*
X92022380Y-125616666D01*
X92022380Y-125521428D01*
X91974761Y-125378571D01*
X91879523Y-125283333D01*
X91784285Y-125235714D01*
X91593809Y-125188095D01*
X91450952Y-125188095D01*
X91260476Y-125235714D01*
X91165238Y-125283333D01*
X91070000Y-125378571D01*
X91022380Y-125521428D01*
X91022380Y-125616666D01*
X91070000Y-125759523D01*
X91117619Y-125807142D01*
X92022380Y-126759523D02*
X92022380Y-126188095D01*
X92022380Y-126473809D02*
X91022380Y-126473809D01*
X91165238Y-126378571D01*
X91260476Y-126283333D01*
X91308095Y-126188095D01*
X91022380Y-127092857D02*
X91022380Y-127759523D01*
X92022380Y-127330952D01*
G04 #@! TO.C,C18*
X93797142Y-125807142D02*
X93844761Y-125759523D01*
X93892380Y-125616666D01*
X93892380Y-125521428D01*
X93844761Y-125378571D01*
X93749523Y-125283333D01*
X93654285Y-125235714D01*
X93463809Y-125188095D01*
X93320952Y-125188095D01*
X93130476Y-125235714D01*
X93035238Y-125283333D01*
X92940000Y-125378571D01*
X92892380Y-125521428D01*
X92892380Y-125616666D01*
X92940000Y-125759523D01*
X92987619Y-125807142D01*
X93892380Y-126759523D02*
X93892380Y-126188095D01*
X93892380Y-126473809D02*
X92892380Y-126473809D01*
X93035238Y-126378571D01*
X93130476Y-126283333D01*
X93178095Y-126188095D01*
X93320952Y-127330952D02*
X93273333Y-127235714D01*
X93225714Y-127188095D01*
X93130476Y-127140476D01*
X93082857Y-127140476D01*
X92987619Y-127188095D01*
X92940000Y-127235714D01*
X92892380Y-127330952D01*
X92892380Y-127521428D01*
X92940000Y-127616666D01*
X92987619Y-127664285D01*
X93082857Y-127711904D01*
X93130476Y-127711904D01*
X93225714Y-127664285D01*
X93273333Y-127616666D01*
X93320952Y-127521428D01*
X93320952Y-127330952D01*
X93368571Y-127235714D01*
X93416190Y-127188095D01*
X93511428Y-127140476D01*
X93701904Y-127140476D01*
X93797142Y-127188095D01*
X93844761Y-127235714D01*
X93892380Y-127330952D01*
X93892380Y-127521428D01*
X93844761Y-127616666D01*
X93797142Y-127664285D01*
X93701904Y-127711904D01*
X93511428Y-127711904D01*
X93416190Y-127664285D01*
X93368571Y-127616666D01*
X93320952Y-127521428D01*
G04 #@! TO.C,C19*
X95607142Y-125807142D02*
X95654761Y-125759523D01*
X95702380Y-125616666D01*
X95702380Y-125521428D01*
X95654761Y-125378571D01*
X95559523Y-125283333D01*
X95464285Y-125235714D01*
X95273809Y-125188095D01*
X95130952Y-125188095D01*
X94940476Y-125235714D01*
X94845238Y-125283333D01*
X94750000Y-125378571D01*
X94702380Y-125521428D01*
X94702380Y-125616666D01*
X94750000Y-125759523D01*
X94797619Y-125807142D01*
X95702380Y-126759523D02*
X95702380Y-126188095D01*
X95702380Y-126473809D02*
X94702380Y-126473809D01*
X94845238Y-126378571D01*
X94940476Y-126283333D01*
X94988095Y-126188095D01*
X95702380Y-127235714D02*
X95702380Y-127426190D01*
X95654761Y-127521428D01*
X95607142Y-127569047D01*
X95464285Y-127664285D01*
X95273809Y-127711904D01*
X94892857Y-127711904D01*
X94797619Y-127664285D01*
X94750000Y-127616666D01*
X94702380Y-127521428D01*
X94702380Y-127330952D01*
X94750000Y-127235714D01*
X94797619Y-127188095D01*
X94892857Y-127140476D01*
X95130952Y-127140476D01*
X95226190Y-127188095D01*
X95273809Y-127235714D01*
X95321428Y-127330952D01*
X95321428Y-127521428D01*
X95273809Y-127616666D01*
X95226190Y-127664285D01*
X95130952Y-127711904D01*
G04 #@! TO.C,D1*
X87066380Y-174591904D02*
X86066380Y-174591904D01*
X86066380Y-174830000D01*
X86114000Y-174972857D01*
X86209238Y-175068095D01*
X86304476Y-175115714D01*
X86494952Y-175163333D01*
X86637809Y-175163333D01*
X86828285Y-175115714D01*
X86923523Y-175068095D01*
X87018761Y-174972857D01*
X87066380Y-174830000D01*
X87066380Y-174591904D01*
X87066380Y-176115714D02*
X87066380Y-175544285D01*
X87066380Y-175830000D02*
X86066380Y-175830000D01*
X86209238Y-175734761D01*
X86304476Y-175639523D01*
X86352095Y-175544285D01*
G04 #@! TO.C,D2*
X89352380Y-174591904D02*
X88352380Y-174591904D01*
X88352380Y-174830000D01*
X88400000Y-174972857D01*
X88495238Y-175068095D01*
X88590476Y-175115714D01*
X88780952Y-175163333D01*
X88923809Y-175163333D01*
X89114285Y-175115714D01*
X89209523Y-175068095D01*
X89304761Y-174972857D01*
X89352380Y-174830000D01*
X89352380Y-174591904D01*
X88447619Y-175544285D02*
X88400000Y-175591904D01*
X88352380Y-175687142D01*
X88352380Y-175925238D01*
X88400000Y-176020476D01*
X88447619Y-176068095D01*
X88542857Y-176115714D01*
X88638095Y-176115714D01*
X88780952Y-176068095D01*
X89352380Y-175496666D01*
X89352380Y-176115714D01*
G04 #@! TO.C,D4*
X68722380Y-174571904D02*
X67722380Y-174571904D01*
X67722380Y-174810000D01*
X67770000Y-174952857D01*
X67865238Y-175048095D01*
X67960476Y-175095714D01*
X68150952Y-175143333D01*
X68293809Y-175143333D01*
X68484285Y-175095714D01*
X68579523Y-175048095D01*
X68674761Y-174952857D01*
X68722380Y-174810000D01*
X68722380Y-174571904D01*
X68055714Y-176000476D02*
X68722380Y-176000476D01*
X67674761Y-175762380D02*
X68389047Y-175524285D01*
X68389047Y-176143333D01*
G04 #@! TO.C,D5*
X71064380Y-174590432D02*
X70064380Y-174590432D01*
X70064380Y-174828528D01*
X70112000Y-174971385D01*
X70207238Y-175066623D01*
X70302476Y-175114242D01*
X70492952Y-175161861D01*
X70635809Y-175161861D01*
X70826285Y-175114242D01*
X70921523Y-175066623D01*
X71016761Y-174971385D01*
X71064380Y-174828528D01*
X71064380Y-174590432D01*
X70064380Y-176066623D02*
X70064380Y-175590432D01*
X70540571Y-175542813D01*
X70492952Y-175590432D01*
X70445333Y-175685670D01*
X70445333Y-175923766D01*
X70492952Y-176019004D01*
X70540571Y-176066623D01*
X70635809Y-176114242D01*
X70873904Y-176114242D01*
X70969142Y-176066623D01*
X71016761Y-176019004D01*
X71064380Y-175923766D01*
X71064380Y-175685670D01*
X71016761Y-175590432D01*
X70969142Y-175542813D01*
G04 #@! TO.C,D6*
X73350380Y-174590432D02*
X72350380Y-174590432D01*
X72350380Y-174828528D01*
X72398000Y-174971385D01*
X72493238Y-175066623D01*
X72588476Y-175114242D01*
X72778952Y-175161861D01*
X72921809Y-175161861D01*
X73112285Y-175114242D01*
X73207523Y-175066623D01*
X73302761Y-174971385D01*
X73350380Y-174828528D01*
X73350380Y-174590432D01*
X72350380Y-176019004D02*
X72350380Y-175828528D01*
X72398000Y-175733289D01*
X72445619Y-175685670D01*
X72588476Y-175590432D01*
X72778952Y-175542813D01*
X73159904Y-175542813D01*
X73255142Y-175590432D01*
X73302761Y-175638051D01*
X73350380Y-175733289D01*
X73350380Y-175923766D01*
X73302761Y-176019004D01*
X73255142Y-176066623D01*
X73159904Y-176114242D01*
X72921809Y-176114242D01*
X72826571Y-176066623D01*
X72778952Y-176019004D01*
X72731333Y-175923766D01*
X72731333Y-175733289D01*
X72778952Y-175638051D01*
X72826571Y-175590432D01*
X72921809Y-175542813D01*
G04 #@! TO.C,D8*
X77922380Y-174590432D02*
X76922380Y-174590432D01*
X76922380Y-174828528D01*
X76970000Y-174971385D01*
X77065238Y-175066623D01*
X77160476Y-175114242D01*
X77350952Y-175161861D01*
X77493809Y-175161861D01*
X77684285Y-175114242D01*
X77779523Y-175066623D01*
X77874761Y-174971385D01*
X77922380Y-174828528D01*
X77922380Y-174590432D01*
X77350952Y-175733289D02*
X77303333Y-175638051D01*
X77255714Y-175590432D01*
X77160476Y-175542813D01*
X77112857Y-175542813D01*
X77017619Y-175590432D01*
X76970000Y-175638051D01*
X76922380Y-175733289D01*
X76922380Y-175923766D01*
X76970000Y-176019004D01*
X77017619Y-176066623D01*
X77112857Y-176114242D01*
X77160476Y-176114242D01*
X77255714Y-176066623D01*
X77303333Y-176019004D01*
X77350952Y-175923766D01*
X77350952Y-175733289D01*
X77398571Y-175638051D01*
X77446190Y-175590432D01*
X77541428Y-175542813D01*
X77731904Y-175542813D01*
X77827142Y-175590432D01*
X77874761Y-175638051D01*
X77922380Y-175733289D01*
X77922380Y-175923766D01*
X77874761Y-176019004D01*
X77827142Y-176066623D01*
X77731904Y-176114242D01*
X77541428Y-176114242D01*
X77446190Y-176066623D01*
X77398571Y-176019004D01*
X77350952Y-175923766D01*
G04 #@! TO.C,D9*
X80208380Y-174590432D02*
X79208380Y-174590432D01*
X79208380Y-174828528D01*
X79256000Y-174971385D01*
X79351238Y-175066623D01*
X79446476Y-175114242D01*
X79636952Y-175161861D01*
X79779809Y-175161861D01*
X79970285Y-175114242D01*
X80065523Y-175066623D01*
X80160761Y-174971385D01*
X80208380Y-174828528D01*
X80208380Y-174590432D01*
X80208380Y-175638051D02*
X80208380Y-175828528D01*
X80160761Y-175923766D01*
X80113142Y-175971385D01*
X79970285Y-176066623D01*
X79779809Y-176114242D01*
X79398857Y-176114242D01*
X79303619Y-176066623D01*
X79256000Y-176019004D01*
X79208380Y-175923766D01*
X79208380Y-175733289D01*
X79256000Y-175638051D01*
X79303619Y-175590432D01*
X79398857Y-175542813D01*
X79636952Y-175542813D01*
X79732190Y-175590432D01*
X79779809Y-175638051D01*
X79827428Y-175733289D01*
X79827428Y-175923766D01*
X79779809Y-176019004D01*
X79732190Y-176066623D01*
X79636952Y-176114242D01*
G04 #@! TO.C,10*
X82494380Y-175139523D02*
X82494380Y-174568095D01*
X82494380Y-174853809D02*
X81494380Y-174853809D01*
X81637238Y-174758571D01*
X81732476Y-174663333D01*
X81780095Y-174568095D01*
X81494380Y-175758571D02*
X81494380Y-175853809D01*
X81542000Y-175949047D01*
X81589619Y-175996666D01*
X81684857Y-176044285D01*
X81875333Y-176091904D01*
X82113428Y-176091904D01*
X82303904Y-176044285D01*
X82399142Y-175996666D01*
X82446761Y-175949047D01*
X82494380Y-175853809D01*
X82494380Y-175758571D01*
X82446761Y-175663333D01*
X82399142Y-175615714D01*
X82303904Y-175568095D01*
X82113428Y-175520476D01*
X81875333Y-175520476D01*
X81684857Y-175568095D01*
X81589619Y-175615714D01*
X81542000Y-175663333D01*
X81494380Y-175758571D01*
G04 #@! TO.C,11*
X84780380Y-175139523D02*
X84780380Y-174568095D01*
X84780380Y-174853809D02*
X83780380Y-174853809D01*
X83923238Y-174758571D01*
X84018476Y-174663333D01*
X84066095Y-174568095D01*
X84780380Y-176091904D02*
X84780380Y-175520476D01*
X84780380Y-175806190D02*
X83780380Y-175806190D01*
X83923238Y-175710952D01*
X84018476Y-175615714D01*
X84066095Y-175520476D01*
G04 #@! TO.C,12*
X68270380Y-159037327D02*
X68270380Y-158465899D01*
X68270380Y-158751613D02*
X67270380Y-158751613D01*
X67413238Y-158656375D01*
X67508476Y-158561137D01*
X67556095Y-158465899D01*
X67365619Y-159418280D02*
X67318000Y-159465899D01*
X67270380Y-159561137D01*
X67270380Y-159799232D01*
X67318000Y-159894470D01*
X67365619Y-159942089D01*
X67460857Y-159989708D01*
X67556095Y-159989708D01*
X67698952Y-159942089D01*
X68270380Y-159370661D01*
X68270380Y-159989708D01*
G04 #@! TO.C,13*
X70556380Y-159067523D02*
X70556380Y-158496095D01*
X70556380Y-158781809D02*
X69556380Y-158781809D01*
X69699238Y-158686571D01*
X69794476Y-158591333D01*
X69842095Y-158496095D01*
X69556380Y-159400857D02*
X69556380Y-160019904D01*
X69937333Y-159686571D01*
X69937333Y-159829428D01*
X69984952Y-159924666D01*
X70032571Y-159972285D01*
X70127809Y-160019904D01*
X70365904Y-160019904D01*
X70461142Y-159972285D01*
X70508761Y-159924666D01*
X70556380Y-159829428D01*
X70556380Y-159543714D01*
X70508761Y-159448476D01*
X70461142Y-159400857D01*
G04 #@! TO.C,14*
X72842380Y-159067523D02*
X72842380Y-158496095D01*
X72842380Y-158781809D02*
X71842380Y-158781809D01*
X71985238Y-158686571D01*
X72080476Y-158591333D01*
X72128095Y-158496095D01*
X72175714Y-159924666D02*
X72842380Y-159924666D01*
X71794761Y-159686571D02*
X72509047Y-159448476D01*
X72509047Y-160067523D01*
G04 #@! TO.C,15*
X75128380Y-159067523D02*
X75128380Y-158496095D01*
X75128380Y-158781809D02*
X74128380Y-158781809D01*
X74271238Y-158686571D01*
X74366476Y-158591333D01*
X74414095Y-158496095D01*
X74128380Y-159972285D02*
X74128380Y-159496095D01*
X74604571Y-159448476D01*
X74556952Y-159496095D01*
X74509333Y-159591333D01*
X74509333Y-159829428D01*
X74556952Y-159924666D01*
X74604571Y-159972285D01*
X74699809Y-160019904D01*
X74937904Y-160019904D01*
X75033142Y-159972285D01*
X75080761Y-159924666D01*
X75128380Y-159829428D01*
X75128380Y-159591333D01*
X75080761Y-159496095D01*
X75033142Y-159448476D01*
G04 #@! TO.C,16*
X77414380Y-159067523D02*
X77414380Y-158496095D01*
X77414380Y-158781809D02*
X76414380Y-158781809D01*
X76557238Y-158686571D01*
X76652476Y-158591333D01*
X76700095Y-158496095D01*
X76414380Y-159924666D02*
X76414380Y-159734190D01*
X76462000Y-159638952D01*
X76509619Y-159591333D01*
X76652476Y-159496095D01*
X76842952Y-159448476D01*
X77223904Y-159448476D01*
X77319142Y-159496095D01*
X77366761Y-159543714D01*
X77414380Y-159638952D01*
X77414380Y-159829428D01*
X77366761Y-159924666D01*
X77319142Y-159972285D01*
X77223904Y-160019904D01*
X76985809Y-160019904D01*
X76890571Y-159972285D01*
X76842952Y-159924666D01*
X76795333Y-159829428D01*
X76795333Y-159638952D01*
X76842952Y-159543714D01*
X76890571Y-159496095D01*
X76985809Y-159448476D01*
G04 #@! TO.C,17*
X79700380Y-159037327D02*
X79700380Y-158465899D01*
X79700380Y-158751613D02*
X78700380Y-158751613D01*
X78843238Y-158656375D01*
X78938476Y-158561137D01*
X78986095Y-158465899D01*
X78700380Y-159370661D02*
X78700380Y-160037327D01*
X79700380Y-159608756D01*
G04 #@! TO.C,18*
X81986380Y-159067523D02*
X81986380Y-158496095D01*
X81986380Y-158781809D02*
X80986380Y-158781809D01*
X81129238Y-158686571D01*
X81224476Y-158591333D01*
X81272095Y-158496095D01*
X81414952Y-159638952D02*
X81367333Y-159543714D01*
X81319714Y-159496095D01*
X81224476Y-159448476D01*
X81176857Y-159448476D01*
X81081619Y-159496095D01*
X81034000Y-159543714D01*
X80986380Y-159638952D01*
X80986380Y-159829428D01*
X81034000Y-159924666D01*
X81081619Y-159972285D01*
X81176857Y-160019904D01*
X81224476Y-160019904D01*
X81319714Y-159972285D01*
X81367333Y-159924666D01*
X81414952Y-159829428D01*
X81414952Y-159638952D01*
X81462571Y-159543714D01*
X81510190Y-159496095D01*
X81605428Y-159448476D01*
X81795904Y-159448476D01*
X81891142Y-159496095D01*
X81938761Y-159543714D01*
X81986380Y-159638952D01*
X81986380Y-159829428D01*
X81938761Y-159924666D01*
X81891142Y-159972285D01*
X81795904Y-160019904D01*
X81605428Y-160019904D01*
X81510190Y-159972285D01*
X81462571Y-159924666D01*
X81414952Y-159829428D01*
G04 #@! TO.C,19*
X84272380Y-159039523D02*
X84272380Y-158468095D01*
X84272380Y-158753809D02*
X83272380Y-158753809D01*
X83415238Y-158658571D01*
X83510476Y-158563333D01*
X83558095Y-158468095D01*
X84272380Y-159515714D02*
X84272380Y-159706190D01*
X84224761Y-159801428D01*
X84177142Y-159849047D01*
X84034285Y-159944285D01*
X83843809Y-159991904D01*
X83462857Y-159991904D01*
X83367619Y-159944285D01*
X83320000Y-159896666D01*
X83272380Y-159801428D01*
X83272380Y-159610952D01*
X83320000Y-159515714D01*
X83367619Y-159468095D01*
X83462857Y-159420476D01*
X83700952Y-159420476D01*
X83796190Y-159468095D01*
X83843809Y-159515714D01*
X83891428Y-159610952D01*
X83891428Y-159801428D01*
X83843809Y-159896666D01*
X83796190Y-159944285D01*
X83700952Y-159991904D01*
G04 #@! TO.C,R1*
X81372380Y-166883333D02*
X80896190Y-166550000D01*
X81372380Y-166311904D02*
X80372380Y-166311904D01*
X80372380Y-166692857D01*
X80420000Y-166788095D01*
X80467619Y-166835714D01*
X80562857Y-166883333D01*
X80705714Y-166883333D01*
X80800952Y-166835714D01*
X80848571Y-166788095D01*
X80896190Y-166692857D01*
X80896190Y-166311904D01*
X81372380Y-167835714D02*
X81372380Y-167264285D01*
X81372380Y-167550000D02*
X80372380Y-167550000D01*
X80515238Y-167454761D01*
X80610476Y-167359523D01*
X80658095Y-167264285D01*
G04 #@! TO.C,R2*
X92682380Y-175205833D02*
X92206190Y-174872500D01*
X92682380Y-174634404D02*
X91682380Y-174634404D01*
X91682380Y-175015357D01*
X91730000Y-175110595D01*
X91777619Y-175158214D01*
X91872857Y-175205833D01*
X92015714Y-175205833D01*
X92110952Y-175158214D01*
X92158571Y-175110595D01*
X92206190Y-175015357D01*
X92206190Y-174634404D01*
X91777619Y-175586785D02*
X91730000Y-175634404D01*
X91682380Y-175729642D01*
X91682380Y-175967738D01*
X91730000Y-176062976D01*
X91777619Y-176110595D01*
X91872857Y-176158214D01*
X91968095Y-176158214D01*
X92110952Y-176110595D01*
X92682380Y-175539166D01*
X92682380Y-176158214D01*
G04 #@! TO.C,R3*
X57254380Y-158811833D02*
X56778190Y-158478500D01*
X57254380Y-158240404D02*
X56254380Y-158240404D01*
X56254380Y-158621357D01*
X56302000Y-158716595D01*
X56349619Y-158764214D01*
X56444857Y-158811833D01*
X56587714Y-158811833D01*
X56682952Y-158764214D01*
X56730571Y-158716595D01*
X56778190Y-158621357D01*
X56778190Y-158240404D01*
X56254380Y-159145166D02*
X56254380Y-159764214D01*
X56635333Y-159430880D01*
X56635333Y-159573738D01*
X56682952Y-159668976D01*
X56730571Y-159716595D01*
X56825809Y-159764214D01*
X57063904Y-159764214D01*
X57159142Y-159716595D01*
X57206761Y-159668976D01*
X57254380Y-159573738D01*
X57254380Y-159288023D01*
X57206761Y-159192785D01*
X57159142Y-159145166D01*
G04 #@! TO.C,R4*
X77108090Y-142037143D02*
X76631900Y-141703810D01*
X77108090Y-141465714D02*
X76108090Y-141465714D01*
X76108090Y-141846667D01*
X76155710Y-141941905D01*
X76203329Y-141989524D01*
X76298567Y-142037143D01*
X76441424Y-142037143D01*
X76536662Y-141989524D01*
X76584281Y-141941905D01*
X76631900Y-141846667D01*
X76631900Y-141465714D01*
X76441424Y-142894286D02*
X77108090Y-142894286D01*
X76060471Y-142656190D02*
X76774757Y-142418095D01*
X76774757Y-143037143D01*
G04 #@! TO.C,R5*
X78716661Y-142037143D02*
X78240471Y-141703810D01*
X78716661Y-141465714D02*
X77716661Y-141465714D01*
X77716661Y-141846667D01*
X77764281Y-141941905D01*
X77811900Y-141989524D01*
X77907138Y-142037143D01*
X78049995Y-142037143D01*
X78145233Y-141989524D01*
X78192852Y-141941905D01*
X78240471Y-141846667D01*
X78240471Y-141465714D01*
X77716661Y-142941905D02*
X77716661Y-142465714D01*
X78192852Y-142418095D01*
X78145233Y-142465714D01*
X78097614Y-142560952D01*
X78097614Y-142799048D01*
X78145233Y-142894286D01*
X78192852Y-142941905D01*
X78288090Y-142989524D01*
X78526185Y-142989524D01*
X78621423Y-142941905D01*
X78669042Y-142894286D01*
X78716661Y-142799048D01*
X78716661Y-142560952D01*
X78669042Y-142465714D01*
X78621423Y-142418095D01*
G04 #@! TO.C,R6*
X80325232Y-142037143D02*
X79849042Y-141703810D01*
X80325232Y-141465714D02*
X79325232Y-141465714D01*
X79325232Y-141846667D01*
X79372852Y-141941905D01*
X79420471Y-141989524D01*
X79515709Y-142037143D01*
X79658566Y-142037143D01*
X79753804Y-141989524D01*
X79801423Y-141941905D01*
X79849042Y-141846667D01*
X79849042Y-141465714D01*
X79325232Y-142894286D02*
X79325232Y-142703810D01*
X79372852Y-142608571D01*
X79420471Y-142560952D01*
X79563328Y-142465714D01*
X79753804Y-142418095D01*
X80134756Y-142418095D01*
X80229994Y-142465714D01*
X80277613Y-142513333D01*
X80325232Y-142608571D01*
X80325232Y-142799048D01*
X80277613Y-142894286D01*
X80229994Y-142941905D01*
X80134756Y-142989524D01*
X79896661Y-142989524D01*
X79801423Y-142941905D01*
X79753804Y-142894286D01*
X79706185Y-142799048D01*
X79706185Y-142608571D01*
X79753804Y-142513333D01*
X79801423Y-142465714D01*
X79896661Y-142418095D01*
G04 #@! TO.C,R7*
X81933803Y-142037143D02*
X81457613Y-141703810D01*
X81933803Y-141465714D02*
X80933803Y-141465714D01*
X80933803Y-141846667D01*
X80981423Y-141941905D01*
X81029042Y-141989524D01*
X81124280Y-142037143D01*
X81267137Y-142037143D01*
X81362375Y-141989524D01*
X81409994Y-141941905D01*
X81457613Y-141846667D01*
X81457613Y-141465714D01*
X80933803Y-142370476D02*
X80933803Y-143037143D01*
X81933803Y-142608571D01*
G04 #@! TO.C,R9*
X75499519Y-142037143D02*
X75023329Y-141703810D01*
X75499519Y-141465714D02*
X74499519Y-141465714D01*
X74499519Y-141846667D01*
X74547139Y-141941905D01*
X74594758Y-141989524D01*
X74689996Y-142037143D01*
X74832853Y-142037143D01*
X74928091Y-141989524D01*
X74975710Y-141941905D01*
X75023329Y-141846667D01*
X75023329Y-141465714D01*
X75499519Y-142513333D02*
X75499519Y-142703810D01*
X75451900Y-142799048D01*
X75404281Y-142846667D01*
X75261424Y-142941905D01*
X75070948Y-142989524D01*
X74689996Y-142989524D01*
X74594758Y-142941905D01*
X74547139Y-142894286D01*
X74499519Y-142799048D01*
X74499519Y-142608571D01*
X74547139Y-142513333D01*
X74594758Y-142465714D01*
X74689996Y-142418095D01*
X74928091Y-142418095D01*
X75023329Y-142465714D01*
X75070948Y-142513333D01*
X75118567Y-142608571D01*
X75118567Y-142799048D01*
X75070948Y-142894286D01*
X75023329Y-142941905D01*
X74928091Y-142989524D01*
G04 #@! TO.C,R10*
X73890948Y-142037142D02*
X73414758Y-141703809D01*
X73890948Y-141465714D02*
X72890948Y-141465714D01*
X72890948Y-141846666D01*
X72938568Y-141941904D01*
X72986187Y-141989523D01*
X73081425Y-142037142D01*
X73224282Y-142037142D01*
X73319520Y-141989523D01*
X73367139Y-141941904D01*
X73414758Y-141846666D01*
X73414758Y-141465714D01*
X73890948Y-142989523D02*
X73890948Y-142418095D01*
X73890948Y-142703809D02*
X72890948Y-142703809D01*
X73033806Y-142608571D01*
X73129044Y-142513333D01*
X73176663Y-142418095D01*
X72890948Y-143608571D02*
X72890948Y-143703809D01*
X72938568Y-143799047D01*
X72986187Y-143846666D01*
X73081425Y-143894285D01*
X73271901Y-143941904D01*
X73509996Y-143941904D01*
X73700472Y-143894285D01*
X73795710Y-143846666D01*
X73843329Y-143799047D01*
X73890948Y-143703809D01*
X73890948Y-143608571D01*
X73843329Y-143513333D01*
X73795710Y-143465714D01*
X73700472Y-143418095D01*
X73509996Y-143370476D01*
X73271901Y-143370476D01*
X73081425Y-143418095D01*
X72986187Y-143465714D01*
X72938568Y-143513333D01*
X72890948Y-143608571D01*
G04 #@! TO.C,R11*
X72282377Y-142037142D02*
X71806187Y-141703809D01*
X72282377Y-141465714D02*
X71282377Y-141465714D01*
X71282377Y-141846666D01*
X71329997Y-141941904D01*
X71377616Y-141989523D01*
X71472854Y-142037142D01*
X71615711Y-142037142D01*
X71710949Y-141989523D01*
X71758568Y-141941904D01*
X71806187Y-141846666D01*
X71806187Y-141465714D01*
X72282377Y-142989523D02*
X72282377Y-142418095D01*
X72282377Y-142703809D02*
X71282377Y-142703809D01*
X71425235Y-142608571D01*
X71520473Y-142513333D01*
X71568092Y-142418095D01*
X72282377Y-143941904D02*
X72282377Y-143370476D01*
X72282377Y-143656190D02*
X71282377Y-143656190D01*
X71425235Y-143560952D01*
X71520473Y-143465714D01*
X71568092Y-143370476D01*
G04 #@! TO.C,R12*
X70673806Y-142037142D02*
X70197616Y-141703809D01*
X70673806Y-141465714D02*
X69673806Y-141465714D01*
X69673806Y-141846666D01*
X69721426Y-141941904D01*
X69769045Y-141989523D01*
X69864283Y-142037142D01*
X70007140Y-142037142D01*
X70102378Y-141989523D01*
X70149997Y-141941904D01*
X70197616Y-141846666D01*
X70197616Y-141465714D01*
X70673806Y-142989523D02*
X70673806Y-142418095D01*
X70673806Y-142703809D02*
X69673806Y-142703809D01*
X69816664Y-142608571D01*
X69911902Y-142513333D01*
X69959521Y-142418095D01*
X69769045Y-143370476D02*
X69721426Y-143418095D01*
X69673806Y-143513333D01*
X69673806Y-143751428D01*
X69721426Y-143846666D01*
X69769045Y-143894285D01*
X69864283Y-143941904D01*
X69959521Y-143941904D01*
X70102378Y-143894285D01*
X70673806Y-143322857D01*
X70673806Y-143941904D01*
G04 #@! TO.C,R13*
X69065235Y-142037142D02*
X68589045Y-141703809D01*
X69065235Y-141465714D02*
X68065235Y-141465714D01*
X68065235Y-141846666D01*
X68112855Y-141941904D01*
X68160474Y-141989523D01*
X68255712Y-142037142D01*
X68398569Y-142037142D01*
X68493807Y-141989523D01*
X68541426Y-141941904D01*
X68589045Y-141846666D01*
X68589045Y-141465714D01*
X69065235Y-142989523D02*
X69065235Y-142418095D01*
X69065235Y-142703809D02*
X68065235Y-142703809D01*
X68208093Y-142608571D01*
X68303331Y-142513333D01*
X68350950Y-142418095D01*
X68065235Y-143322857D02*
X68065235Y-143941904D01*
X68446188Y-143608571D01*
X68446188Y-143751428D01*
X68493807Y-143846666D01*
X68541426Y-143894285D01*
X68636664Y-143941904D01*
X68874759Y-143941904D01*
X68969997Y-143894285D01*
X69017616Y-143846666D01*
X69065235Y-143751428D01*
X69065235Y-143465714D01*
X69017616Y-143370476D01*
X68969997Y-143322857D01*
G04 #@! TO.C,R14*
X67456664Y-142037142D02*
X66980474Y-141703809D01*
X67456664Y-141465714D02*
X66456664Y-141465714D01*
X66456664Y-141846666D01*
X66504284Y-141941904D01*
X66551903Y-141989523D01*
X66647141Y-142037142D01*
X66789998Y-142037142D01*
X66885236Y-141989523D01*
X66932855Y-141941904D01*
X66980474Y-141846666D01*
X66980474Y-141465714D01*
X67456664Y-142989523D02*
X67456664Y-142418095D01*
X67456664Y-142703809D02*
X66456664Y-142703809D01*
X66599522Y-142608571D01*
X66694760Y-142513333D01*
X66742379Y-142418095D01*
X66789998Y-143846666D02*
X67456664Y-143846666D01*
X66409045Y-143608571D02*
X67123331Y-143370476D01*
X67123331Y-143989523D01*
G04 #@! TO.C,R15*
X65848093Y-142037142D02*
X65371903Y-141703809D01*
X65848093Y-141465714D02*
X64848093Y-141465714D01*
X64848093Y-141846666D01*
X64895713Y-141941904D01*
X64943332Y-141989523D01*
X65038570Y-142037142D01*
X65181427Y-142037142D01*
X65276665Y-141989523D01*
X65324284Y-141941904D01*
X65371903Y-141846666D01*
X65371903Y-141465714D01*
X65848093Y-142989523D02*
X65848093Y-142418095D01*
X65848093Y-142703809D02*
X64848093Y-142703809D01*
X64990951Y-142608571D01*
X65086189Y-142513333D01*
X65133808Y-142418095D01*
X64848093Y-143894285D02*
X64848093Y-143418095D01*
X65324284Y-143370476D01*
X65276665Y-143418095D01*
X65229046Y-143513333D01*
X65229046Y-143751428D01*
X65276665Y-143846666D01*
X65324284Y-143894285D01*
X65419522Y-143941904D01*
X65657617Y-143941904D01*
X65752855Y-143894285D01*
X65800474Y-143846666D01*
X65848093Y-143751428D01*
X65848093Y-143513333D01*
X65800474Y-143418095D01*
X65752855Y-143370476D01*
G04 #@! TO.C,R16*
X64239522Y-142037142D02*
X63763332Y-141703809D01*
X64239522Y-141465714D02*
X63239522Y-141465714D01*
X63239522Y-141846666D01*
X63287142Y-141941904D01*
X63334761Y-141989523D01*
X63429999Y-142037142D01*
X63572856Y-142037142D01*
X63668094Y-141989523D01*
X63715713Y-141941904D01*
X63763332Y-141846666D01*
X63763332Y-141465714D01*
X64239522Y-142989523D02*
X64239522Y-142418095D01*
X64239522Y-142703809D02*
X63239522Y-142703809D01*
X63382380Y-142608571D01*
X63477618Y-142513333D01*
X63525237Y-142418095D01*
X63239522Y-143846666D02*
X63239522Y-143656190D01*
X63287142Y-143560952D01*
X63334761Y-143513333D01*
X63477618Y-143418095D01*
X63668094Y-143370476D01*
X64049046Y-143370476D01*
X64144284Y-143418095D01*
X64191903Y-143465714D01*
X64239522Y-143560952D01*
X64239522Y-143751428D01*
X64191903Y-143846666D01*
X64144284Y-143894285D01*
X64049046Y-143941904D01*
X63810951Y-143941904D01*
X63715713Y-143894285D01*
X63668094Y-143846666D01*
X63620475Y-143751428D01*
X63620475Y-143560952D01*
X63668094Y-143465714D01*
X63715713Y-143418095D01*
X63810951Y-143370476D01*
G04 #@! TO.C,R17*
X62630951Y-142037142D02*
X62154761Y-141703809D01*
X62630951Y-141465714D02*
X61630951Y-141465714D01*
X61630951Y-141846666D01*
X61678571Y-141941904D01*
X61726190Y-141989523D01*
X61821428Y-142037142D01*
X61964285Y-142037142D01*
X62059523Y-141989523D01*
X62107142Y-141941904D01*
X62154761Y-141846666D01*
X62154761Y-141465714D01*
X62630951Y-142989523D02*
X62630951Y-142418095D01*
X62630951Y-142703809D02*
X61630951Y-142703809D01*
X61773809Y-142608571D01*
X61869047Y-142513333D01*
X61916666Y-142418095D01*
X61630951Y-143322857D02*
X61630951Y-143989523D01*
X62630951Y-143560952D01*
G04 #@! TO.C,R18*
X61022380Y-142037142D02*
X60546190Y-141703809D01*
X61022380Y-141465714D02*
X60022380Y-141465714D01*
X60022380Y-141846666D01*
X60070000Y-141941904D01*
X60117619Y-141989523D01*
X60212857Y-142037142D01*
X60355714Y-142037142D01*
X60450952Y-141989523D01*
X60498571Y-141941904D01*
X60546190Y-141846666D01*
X60546190Y-141465714D01*
X61022380Y-142989523D02*
X61022380Y-142418095D01*
X61022380Y-142703809D02*
X60022380Y-142703809D01*
X60165238Y-142608571D01*
X60260476Y-142513333D01*
X60308095Y-142418095D01*
X60450952Y-143560952D02*
X60403333Y-143465714D01*
X60355714Y-143418095D01*
X60260476Y-143370476D01*
X60212857Y-143370476D01*
X60117619Y-143418095D01*
X60070000Y-143465714D01*
X60022380Y-143560952D01*
X60022380Y-143751428D01*
X60070000Y-143846666D01*
X60117619Y-143894285D01*
X60212857Y-143941904D01*
X60260476Y-143941904D01*
X60355714Y-143894285D01*
X60403333Y-143846666D01*
X60450952Y-143751428D01*
X60450952Y-143560952D01*
X60498571Y-143465714D01*
X60546190Y-143418095D01*
X60641428Y-143370476D01*
X60831904Y-143370476D01*
X60927142Y-143418095D01*
X60974761Y-143465714D01*
X61022380Y-143560952D01*
X61022380Y-143751428D01*
X60974761Y-143846666D01*
X60927142Y-143894285D01*
X60831904Y-143941904D01*
X60641428Y-143941904D01*
X60546190Y-143894285D01*
X60498571Y-143846666D01*
X60450952Y-143751428D01*
G04 #@! TO.C,R27*
X53422857Y-127592380D02*
X53756190Y-127116190D01*
X53994285Y-127592380D02*
X53994285Y-126592380D01*
X53613333Y-126592380D01*
X53518095Y-126640000D01*
X53470476Y-126687619D01*
X53422857Y-126782857D01*
X53422857Y-126925714D01*
X53470476Y-127020952D01*
X53518095Y-127068571D01*
X53613333Y-127116190D01*
X53994285Y-127116190D01*
X53041904Y-126687619D02*
X52994285Y-126640000D01*
X52899047Y-126592380D01*
X52660952Y-126592380D01*
X52565714Y-126640000D01*
X52518095Y-126687619D01*
X52470476Y-126782857D01*
X52470476Y-126878095D01*
X52518095Y-127020952D01*
X53089523Y-127592380D01*
X52470476Y-127592380D01*
X52137142Y-126592380D02*
X51470476Y-126592380D01*
X51899047Y-127592380D01*
G04 #@! TO.C,R28*
X53422857Y-130402380D02*
X53756190Y-129926190D01*
X53994285Y-130402380D02*
X53994285Y-129402380D01*
X53613333Y-129402380D01*
X53518095Y-129450000D01*
X53470476Y-129497619D01*
X53422857Y-129592857D01*
X53422857Y-129735714D01*
X53470476Y-129830952D01*
X53518095Y-129878571D01*
X53613333Y-129926190D01*
X53994285Y-129926190D01*
X53041904Y-129497619D02*
X52994285Y-129450000D01*
X52899047Y-129402380D01*
X52660952Y-129402380D01*
X52565714Y-129450000D01*
X52518095Y-129497619D01*
X52470476Y-129592857D01*
X52470476Y-129688095D01*
X52518095Y-129830952D01*
X53089523Y-130402380D01*
X52470476Y-130402380D01*
X51899047Y-129830952D02*
X51994285Y-129783333D01*
X52041904Y-129735714D01*
X52089523Y-129640476D01*
X52089523Y-129592857D01*
X52041904Y-129497619D01*
X51994285Y-129450000D01*
X51899047Y-129402380D01*
X51708571Y-129402380D01*
X51613333Y-129450000D01*
X51565714Y-129497619D01*
X51518095Y-129592857D01*
X51518095Y-129640476D01*
X51565714Y-129735714D01*
X51613333Y-129783333D01*
X51708571Y-129830952D01*
X51899047Y-129830952D01*
X51994285Y-129878571D01*
X52041904Y-129926190D01*
X52089523Y-130021428D01*
X52089523Y-130211904D01*
X52041904Y-130307142D01*
X51994285Y-130354761D01*
X51899047Y-130402380D01*
X51708571Y-130402380D01*
X51613333Y-130354761D01*
X51565714Y-130307142D01*
X51518095Y-130211904D01*
X51518095Y-130021428D01*
X51565714Y-129926190D01*
X51613333Y-129878571D01*
X51708571Y-129830952D01*
G04 #@! TO.C,R37*
X53422857Y-128912380D02*
X53756190Y-128436190D01*
X53994285Y-128912380D02*
X53994285Y-127912380D01*
X53613333Y-127912380D01*
X53518095Y-127960000D01*
X53470476Y-128007619D01*
X53422857Y-128102857D01*
X53422857Y-128245714D01*
X53470476Y-128340952D01*
X53518095Y-128388571D01*
X53613333Y-128436190D01*
X53994285Y-128436190D01*
X53089523Y-127912380D02*
X52470476Y-127912380D01*
X52803809Y-128293333D01*
X52660952Y-128293333D01*
X52565714Y-128340952D01*
X52518095Y-128388571D01*
X52470476Y-128483809D01*
X52470476Y-128721904D01*
X52518095Y-128817142D01*
X52565714Y-128864761D01*
X52660952Y-128912380D01*
X52946666Y-128912380D01*
X53041904Y-128864761D01*
X53089523Y-128817142D01*
X52137142Y-127912380D02*
X51470476Y-127912380D01*
X51899047Y-128912380D01*
G04 #@! TO.C,R38*
X53422857Y-131982380D02*
X53756190Y-131506190D01*
X53994285Y-131982380D02*
X53994285Y-130982380D01*
X53613333Y-130982380D01*
X53518095Y-131030000D01*
X53470476Y-131077619D01*
X53422857Y-131172857D01*
X53422857Y-131315714D01*
X53470476Y-131410952D01*
X53518095Y-131458571D01*
X53613333Y-131506190D01*
X53994285Y-131506190D01*
X53089523Y-130982380D02*
X52470476Y-130982380D01*
X52803809Y-131363333D01*
X52660952Y-131363333D01*
X52565714Y-131410952D01*
X52518095Y-131458571D01*
X52470476Y-131553809D01*
X52470476Y-131791904D01*
X52518095Y-131887142D01*
X52565714Y-131934761D01*
X52660952Y-131982380D01*
X52946666Y-131982380D01*
X53041904Y-131934761D01*
X53089523Y-131887142D01*
X51899047Y-131410952D02*
X51994285Y-131363333D01*
X52041904Y-131315714D01*
X52089523Y-131220476D01*
X52089523Y-131172857D01*
X52041904Y-131077619D01*
X51994285Y-131030000D01*
X51899047Y-130982380D01*
X51708571Y-130982380D01*
X51613333Y-131030000D01*
X51565714Y-131077619D01*
X51518095Y-131172857D01*
X51518095Y-131220476D01*
X51565714Y-131315714D01*
X51613333Y-131363333D01*
X51708571Y-131410952D01*
X51899047Y-131410952D01*
X51994285Y-131458571D01*
X52041904Y-131506190D01*
X52089523Y-131601428D01*
X52089523Y-131791904D01*
X52041904Y-131887142D01*
X51994285Y-131934761D01*
X51899047Y-131982380D01*
X51708571Y-131982380D01*
X51613333Y-131934761D01*
X51565714Y-131887142D01*
X51518095Y-131791904D01*
X51518095Y-131601428D01*
X51565714Y-131506190D01*
X51613333Y-131458571D01*
X51708571Y-131410952D01*
G04 #@! TO.C,R47*
X37194857Y-119536380D02*
X37528190Y-119060190D01*
X37766285Y-119536380D02*
X37766285Y-118536380D01*
X37385333Y-118536380D01*
X37290095Y-118584000D01*
X37242476Y-118631619D01*
X37194857Y-118726857D01*
X37194857Y-118869714D01*
X37242476Y-118964952D01*
X37290095Y-119012571D01*
X37385333Y-119060190D01*
X37766285Y-119060190D01*
X36337714Y-118869714D02*
X36337714Y-119536380D01*
X36575809Y-118488761D02*
X36813904Y-119203047D01*
X36194857Y-119203047D01*
X35909142Y-118536380D02*
X35242476Y-118536380D01*
X35671047Y-119536380D01*
G04 #@! TO.C,R48*
X37194857Y-122392380D02*
X37528190Y-121916190D01*
X37766285Y-122392380D02*
X37766285Y-121392380D01*
X37385333Y-121392380D01*
X37290095Y-121440000D01*
X37242476Y-121487619D01*
X37194857Y-121582857D01*
X37194857Y-121725714D01*
X37242476Y-121820952D01*
X37290095Y-121868571D01*
X37385333Y-121916190D01*
X37766285Y-121916190D01*
X36337714Y-121725714D02*
X36337714Y-122392380D01*
X36575809Y-121344761D02*
X36813904Y-122059047D01*
X36194857Y-122059047D01*
X35671047Y-121820952D02*
X35766285Y-121773333D01*
X35813904Y-121725714D01*
X35861523Y-121630476D01*
X35861523Y-121582857D01*
X35813904Y-121487619D01*
X35766285Y-121440000D01*
X35671047Y-121392380D01*
X35480571Y-121392380D01*
X35385333Y-121440000D01*
X35337714Y-121487619D01*
X35290095Y-121582857D01*
X35290095Y-121630476D01*
X35337714Y-121725714D01*
X35385333Y-121773333D01*
X35480571Y-121820952D01*
X35671047Y-121820952D01*
X35766285Y-121868571D01*
X35813904Y-121916190D01*
X35861523Y-122011428D01*
X35861523Y-122201904D01*
X35813904Y-122297142D01*
X35766285Y-122344761D01*
X35671047Y-122392380D01*
X35480571Y-122392380D01*
X35385333Y-122344761D01*
X35337714Y-122297142D01*
X35290095Y-122201904D01*
X35290095Y-122011428D01*
X35337714Y-121916190D01*
X35385333Y-121868571D01*
X35480571Y-121820952D01*
G04 #@! TO.C,R57*
X37194857Y-121126380D02*
X37528190Y-120650190D01*
X37766285Y-121126380D02*
X37766285Y-120126380D01*
X37385333Y-120126380D01*
X37290095Y-120174000D01*
X37242476Y-120221619D01*
X37194857Y-120316857D01*
X37194857Y-120459714D01*
X37242476Y-120554952D01*
X37290095Y-120602571D01*
X37385333Y-120650190D01*
X37766285Y-120650190D01*
X36290095Y-120126380D02*
X36766285Y-120126380D01*
X36813904Y-120602571D01*
X36766285Y-120554952D01*
X36671047Y-120507333D01*
X36432952Y-120507333D01*
X36337714Y-120554952D01*
X36290095Y-120602571D01*
X36242476Y-120697809D01*
X36242476Y-120935904D01*
X36290095Y-121031142D01*
X36337714Y-121078761D01*
X36432952Y-121126380D01*
X36671047Y-121126380D01*
X36766285Y-121078761D01*
X36813904Y-121031142D01*
X35909142Y-120126380D02*
X35242476Y-120126380D01*
X35671047Y-121126380D01*
G04 #@! TO.C,R58*
X37194857Y-123912380D02*
X37528190Y-123436190D01*
X37766285Y-123912380D02*
X37766285Y-122912380D01*
X37385333Y-122912380D01*
X37290095Y-122960000D01*
X37242476Y-123007619D01*
X37194857Y-123102857D01*
X37194857Y-123245714D01*
X37242476Y-123340952D01*
X37290095Y-123388571D01*
X37385333Y-123436190D01*
X37766285Y-123436190D01*
X36290095Y-122912380D02*
X36766285Y-122912380D01*
X36813904Y-123388571D01*
X36766285Y-123340952D01*
X36671047Y-123293333D01*
X36432952Y-123293333D01*
X36337714Y-123340952D01*
X36290095Y-123388571D01*
X36242476Y-123483809D01*
X36242476Y-123721904D01*
X36290095Y-123817142D01*
X36337714Y-123864761D01*
X36432952Y-123912380D01*
X36671047Y-123912380D01*
X36766285Y-123864761D01*
X36813904Y-123817142D01*
X35671047Y-123340952D02*
X35766285Y-123293333D01*
X35813904Y-123245714D01*
X35861523Y-123150476D01*
X35861523Y-123102857D01*
X35813904Y-123007619D01*
X35766285Y-122960000D01*
X35671047Y-122912380D01*
X35480571Y-122912380D01*
X35385333Y-122960000D01*
X35337714Y-123007619D01*
X35290095Y-123102857D01*
X35290095Y-123150476D01*
X35337714Y-123245714D01*
X35385333Y-123293333D01*
X35480571Y-123340952D01*
X35671047Y-123340952D01*
X35766285Y-123388571D01*
X35813904Y-123436190D01*
X35861523Y-123531428D01*
X35861523Y-123721904D01*
X35813904Y-123817142D01*
X35766285Y-123864761D01*
X35671047Y-123912380D01*
X35480571Y-123912380D01*
X35385333Y-123864761D01*
X35337714Y-123817142D01*
X35290095Y-123721904D01*
X35290095Y-123531428D01*
X35337714Y-123436190D01*
X35385333Y-123388571D01*
X35480571Y-123340952D01*
G04 #@! TO.C,R59*
X90262380Y-125807142D02*
X89786190Y-125473809D01*
X90262380Y-125235714D02*
X89262380Y-125235714D01*
X89262380Y-125616666D01*
X89310000Y-125711904D01*
X89357619Y-125759523D01*
X89452857Y-125807142D01*
X89595714Y-125807142D01*
X89690952Y-125759523D01*
X89738571Y-125711904D01*
X89786190Y-125616666D01*
X89786190Y-125235714D01*
X89262380Y-126711904D02*
X89262380Y-126235714D01*
X89738571Y-126188095D01*
X89690952Y-126235714D01*
X89643333Y-126330952D01*
X89643333Y-126569047D01*
X89690952Y-126664285D01*
X89738571Y-126711904D01*
X89833809Y-126759523D01*
X90071904Y-126759523D01*
X90167142Y-126711904D01*
X90214761Y-126664285D01*
X90262380Y-126569047D01*
X90262380Y-126330952D01*
X90214761Y-126235714D01*
X90167142Y-126188095D01*
X90262380Y-127235714D02*
X90262380Y-127426190D01*
X90214761Y-127521428D01*
X90167142Y-127569047D01*
X90024285Y-127664285D01*
X89833809Y-127711904D01*
X89452857Y-127711904D01*
X89357619Y-127664285D01*
X89310000Y-127616666D01*
X89262380Y-127521428D01*
X89262380Y-127330952D01*
X89310000Y-127235714D01*
X89357619Y-127188095D01*
X89452857Y-127140476D01*
X89690952Y-127140476D01*
X89786190Y-127188095D01*
X89833809Y-127235714D01*
X89881428Y-127330952D01*
X89881428Y-127521428D01*
X89833809Y-127616666D01*
X89786190Y-127664285D01*
X89690952Y-127711904D01*
G04 #@! TO.C,R60*
X88602380Y-125807142D02*
X88126190Y-125473809D01*
X88602380Y-125235714D02*
X87602380Y-125235714D01*
X87602380Y-125616666D01*
X87650000Y-125711904D01*
X87697619Y-125759523D01*
X87792857Y-125807142D01*
X87935714Y-125807142D01*
X88030952Y-125759523D01*
X88078571Y-125711904D01*
X88126190Y-125616666D01*
X88126190Y-125235714D01*
X87602380Y-126664285D02*
X87602380Y-126473809D01*
X87650000Y-126378571D01*
X87697619Y-126330952D01*
X87840476Y-126235714D01*
X88030952Y-126188095D01*
X88411904Y-126188095D01*
X88507142Y-126235714D01*
X88554761Y-126283333D01*
X88602380Y-126378571D01*
X88602380Y-126569047D01*
X88554761Y-126664285D01*
X88507142Y-126711904D01*
X88411904Y-126759523D01*
X88173809Y-126759523D01*
X88078571Y-126711904D01*
X88030952Y-126664285D01*
X87983333Y-126569047D01*
X87983333Y-126378571D01*
X88030952Y-126283333D01*
X88078571Y-126235714D01*
X88173809Y-126188095D01*
X87602380Y-127378571D02*
X87602380Y-127473809D01*
X87650000Y-127569047D01*
X87697619Y-127616666D01*
X87792857Y-127664285D01*
X87983333Y-127711904D01*
X88221428Y-127711904D01*
X88411904Y-127664285D01*
X88507142Y-127616666D01*
X88554761Y-127569047D01*
X88602380Y-127473809D01*
X88602380Y-127378571D01*
X88554761Y-127283333D01*
X88507142Y-127235714D01*
X88411904Y-127188095D01*
X88221428Y-127140476D01*
X87983333Y-127140476D01*
X87792857Y-127188095D01*
X87697619Y-127235714D01*
X87650000Y-127283333D01*
X87602380Y-127378571D01*
G04 #@! TO.C,R61*
X100020380Y-131437142D02*
X99544190Y-131103809D01*
X100020380Y-130865714D02*
X99020380Y-130865714D01*
X99020380Y-131246666D01*
X99068000Y-131341904D01*
X99115619Y-131389523D01*
X99210857Y-131437142D01*
X99353714Y-131437142D01*
X99448952Y-131389523D01*
X99496571Y-131341904D01*
X99544190Y-131246666D01*
X99544190Y-130865714D01*
X99020380Y-132294285D02*
X99020380Y-132103809D01*
X99068000Y-132008571D01*
X99115619Y-131960952D01*
X99258476Y-131865714D01*
X99448952Y-131818095D01*
X99829904Y-131818095D01*
X99925142Y-131865714D01*
X99972761Y-131913333D01*
X100020380Y-132008571D01*
X100020380Y-132199047D01*
X99972761Y-132294285D01*
X99925142Y-132341904D01*
X99829904Y-132389523D01*
X99591809Y-132389523D01*
X99496571Y-132341904D01*
X99448952Y-132294285D01*
X99401333Y-132199047D01*
X99401333Y-132008571D01*
X99448952Y-131913333D01*
X99496571Y-131865714D01*
X99591809Y-131818095D01*
X100020380Y-133341904D02*
X100020380Y-132770476D01*
X100020380Y-133056190D02*
X99020380Y-133056190D01*
X99163238Y-132960952D01*
X99258476Y-132865714D01*
X99306095Y-132770476D01*
G04 #@! TO.C,R62*
X102052380Y-131437142D02*
X101576190Y-131103809D01*
X102052380Y-130865714D02*
X101052380Y-130865714D01*
X101052380Y-131246666D01*
X101100000Y-131341904D01*
X101147619Y-131389523D01*
X101242857Y-131437142D01*
X101385714Y-131437142D01*
X101480952Y-131389523D01*
X101528571Y-131341904D01*
X101576190Y-131246666D01*
X101576190Y-130865714D01*
X101052380Y-132294285D02*
X101052380Y-132103809D01*
X101100000Y-132008571D01*
X101147619Y-131960952D01*
X101290476Y-131865714D01*
X101480952Y-131818095D01*
X101861904Y-131818095D01*
X101957142Y-131865714D01*
X102004761Y-131913333D01*
X102052380Y-132008571D01*
X102052380Y-132199047D01*
X102004761Y-132294285D01*
X101957142Y-132341904D01*
X101861904Y-132389523D01*
X101623809Y-132389523D01*
X101528571Y-132341904D01*
X101480952Y-132294285D01*
X101433333Y-132199047D01*
X101433333Y-132008571D01*
X101480952Y-131913333D01*
X101528571Y-131865714D01*
X101623809Y-131818095D01*
X101147619Y-132770476D02*
X101100000Y-132818095D01*
X101052380Y-132913333D01*
X101052380Y-133151428D01*
X101100000Y-133246666D01*
X101147619Y-133294285D01*
X101242857Y-133341904D01*
X101338095Y-133341904D01*
X101480952Y-133294285D01*
X102052380Y-132722857D01*
X102052380Y-133341904D01*
G04 #@! TO.C,R63*
X68412380Y-165930951D02*
X67936190Y-165597618D01*
X68412380Y-165359523D02*
X67412380Y-165359523D01*
X67412380Y-165740475D01*
X67460000Y-165835713D01*
X67507619Y-165883332D01*
X67602857Y-165930951D01*
X67745714Y-165930951D01*
X67840952Y-165883332D01*
X67888571Y-165835713D01*
X67936190Y-165740475D01*
X67936190Y-165359523D01*
X67412380Y-166788094D02*
X67412380Y-166597618D01*
X67460000Y-166502380D01*
X67507619Y-166454761D01*
X67650476Y-166359523D01*
X67840952Y-166311904D01*
X68221904Y-166311904D01*
X68317142Y-166359523D01*
X68364761Y-166407142D01*
X68412380Y-166502380D01*
X68412380Y-166692856D01*
X68364761Y-166788094D01*
X68317142Y-166835713D01*
X68221904Y-166883332D01*
X67983809Y-166883332D01*
X67888571Y-166835713D01*
X67840952Y-166788094D01*
X67793333Y-166692856D01*
X67793333Y-166502380D01*
X67840952Y-166407142D01*
X67888571Y-166359523D01*
X67983809Y-166311904D01*
X67412380Y-167216666D02*
X67412380Y-167835713D01*
X67793333Y-167502380D01*
X67793333Y-167645237D01*
X67840952Y-167740475D01*
X67888571Y-167788094D01*
X67983809Y-167835713D01*
X68221904Y-167835713D01*
X68317142Y-167788094D01*
X68364761Y-167740475D01*
X68412380Y-167645237D01*
X68412380Y-167359523D01*
X68364761Y-167264285D01*
X68317142Y-167216666D01*
G04 #@! TO.C,R64*
X70032380Y-165930951D02*
X69556190Y-165597618D01*
X70032380Y-165359523D02*
X69032380Y-165359523D01*
X69032380Y-165740475D01*
X69080000Y-165835713D01*
X69127619Y-165883332D01*
X69222857Y-165930951D01*
X69365714Y-165930951D01*
X69460952Y-165883332D01*
X69508571Y-165835713D01*
X69556190Y-165740475D01*
X69556190Y-165359523D01*
X69032380Y-166788094D02*
X69032380Y-166597618D01*
X69080000Y-166502380D01*
X69127619Y-166454761D01*
X69270476Y-166359523D01*
X69460952Y-166311904D01*
X69841904Y-166311904D01*
X69937142Y-166359523D01*
X69984761Y-166407142D01*
X70032380Y-166502380D01*
X70032380Y-166692856D01*
X69984761Y-166788094D01*
X69937142Y-166835713D01*
X69841904Y-166883332D01*
X69603809Y-166883332D01*
X69508571Y-166835713D01*
X69460952Y-166788094D01*
X69413333Y-166692856D01*
X69413333Y-166502380D01*
X69460952Y-166407142D01*
X69508571Y-166359523D01*
X69603809Y-166311904D01*
X69365714Y-167740475D02*
X70032380Y-167740475D01*
X68984761Y-167502380D02*
X69699047Y-167264285D01*
X69699047Y-167883332D01*
G04 #@! TO.C,R65*
X71652380Y-165930951D02*
X71176190Y-165597618D01*
X71652380Y-165359523D02*
X70652380Y-165359523D01*
X70652380Y-165740475D01*
X70700000Y-165835713D01*
X70747619Y-165883332D01*
X70842857Y-165930951D01*
X70985714Y-165930951D01*
X71080952Y-165883332D01*
X71128571Y-165835713D01*
X71176190Y-165740475D01*
X71176190Y-165359523D01*
X70652380Y-166788094D02*
X70652380Y-166597618D01*
X70700000Y-166502380D01*
X70747619Y-166454761D01*
X70890476Y-166359523D01*
X71080952Y-166311904D01*
X71461904Y-166311904D01*
X71557142Y-166359523D01*
X71604761Y-166407142D01*
X71652380Y-166502380D01*
X71652380Y-166692856D01*
X71604761Y-166788094D01*
X71557142Y-166835713D01*
X71461904Y-166883332D01*
X71223809Y-166883332D01*
X71128571Y-166835713D01*
X71080952Y-166788094D01*
X71033333Y-166692856D01*
X71033333Y-166502380D01*
X71080952Y-166407142D01*
X71128571Y-166359523D01*
X71223809Y-166311904D01*
X70652380Y-167788094D02*
X70652380Y-167311904D01*
X71128571Y-167264285D01*
X71080952Y-167311904D01*
X71033333Y-167407142D01*
X71033333Y-167645237D01*
X71080952Y-167740475D01*
X71128571Y-167788094D01*
X71223809Y-167835713D01*
X71461904Y-167835713D01*
X71557142Y-167788094D01*
X71604761Y-167740475D01*
X71652380Y-167645237D01*
X71652380Y-167407142D01*
X71604761Y-167311904D01*
X71557142Y-167264285D01*
G04 #@! TO.C,R66*
X73272380Y-165930951D02*
X72796190Y-165597618D01*
X73272380Y-165359523D02*
X72272380Y-165359523D01*
X72272380Y-165740475D01*
X72320000Y-165835713D01*
X72367619Y-165883332D01*
X72462857Y-165930951D01*
X72605714Y-165930951D01*
X72700952Y-165883332D01*
X72748571Y-165835713D01*
X72796190Y-165740475D01*
X72796190Y-165359523D01*
X72272380Y-166788094D02*
X72272380Y-166597618D01*
X72320000Y-166502380D01*
X72367619Y-166454761D01*
X72510476Y-166359523D01*
X72700952Y-166311904D01*
X73081904Y-166311904D01*
X73177142Y-166359523D01*
X73224761Y-166407142D01*
X73272380Y-166502380D01*
X73272380Y-166692856D01*
X73224761Y-166788094D01*
X73177142Y-166835713D01*
X73081904Y-166883332D01*
X72843809Y-166883332D01*
X72748571Y-166835713D01*
X72700952Y-166788094D01*
X72653333Y-166692856D01*
X72653333Y-166502380D01*
X72700952Y-166407142D01*
X72748571Y-166359523D01*
X72843809Y-166311904D01*
X72272380Y-167740475D02*
X72272380Y-167549999D01*
X72320000Y-167454761D01*
X72367619Y-167407142D01*
X72510476Y-167311904D01*
X72700952Y-167264285D01*
X73081904Y-167264285D01*
X73177142Y-167311904D01*
X73224761Y-167359523D01*
X73272380Y-167454761D01*
X73272380Y-167645237D01*
X73224761Y-167740475D01*
X73177142Y-167788094D01*
X73081904Y-167835713D01*
X72843809Y-167835713D01*
X72748571Y-167788094D01*
X72700952Y-167740475D01*
X72653333Y-167645237D01*
X72653333Y-167454761D01*
X72700952Y-167359523D01*
X72748571Y-167311904D01*
X72843809Y-167264285D01*
G04 #@! TO.C,R67*
X74892380Y-165930951D02*
X74416190Y-165597618D01*
X74892380Y-165359523D02*
X73892380Y-165359523D01*
X73892380Y-165740475D01*
X73940000Y-165835713D01*
X73987619Y-165883332D01*
X74082857Y-165930951D01*
X74225714Y-165930951D01*
X74320952Y-165883332D01*
X74368571Y-165835713D01*
X74416190Y-165740475D01*
X74416190Y-165359523D01*
X73892380Y-166788094D02*
X73892380Y-166597618D01*
X73940000Y-166502380D01*
X73987619Y-166454761D01*
X74130476Y-166359523D01*
X74320952Y-166311904D01*
X74701904Y-166311904D01*
X74797142Y-166359523D01*
X74844761Y-166407142D01*
X74892380Y-166502380D01*
X74892380Y-166692856D01*
X74844761Y-166788094D01*
X74797142Y-166835713D01*
X74701904Y-166883332D01*
X74463809Y-166883332D01*
X74368571Y-166835713D01*
X74320952Y-166788094D01*
X74273333Y-166692856D01*
X74273333Y-166502380D01*
X74320952Y-166407142D01*
X74368571Y-166359523D01*
X74463809Y-166311904D01*
X73892380Y-167216666D02*
X73892380Y-167883332D01*
X74892380Y-167454761D01*
G04 #@! TO.C,R68*
X76512380Y-165930951D02*
X76036190Y-165597618D01*
X76512380Y-165359523D02*
X75512380Y-165359523D01*
X75512380Y-165740475D01*
X75560000Y-165835713D01*
X75607619Y-165883332D01*
X75702857Y-165930951D01*
X75845714Y-165930951D01*
X75940952Y-165883332D01*
X75988571Y-165835713D01*
X76036190Y-165740475D01*
X76036190Y-165359523D01*
X75512380Y-166788094D02*
X75512380Y-166597618D01*
X75560000Y-166502380D01*
X75607619Y-166454761D01*
X75750476Y-166359523D01*
X75940952Y-166311904D01*
X76321904Y-166311904D01*
X76417142Y-166359523D01*
X76464761Y-166407142D01*
X76512380Y-166502380D01*
X76512380Y-166692856D01*
X76464761Y-166788094D01*
X76417142Y-166835713D01*
X76321904Y-166883332D01*
X76083809Y-166883332D01*
X75988571Y-166835713D01*
X75940952Y-166788094D01*
X75893333Y-166692856D01*
X75893333Y-166502380D01*
X75940952Y-166407142D01*
X75988571Y-166359523D01*
X76083809Y-166311904D01*
X75940952Y-167454761D02*
X75893333Y-167359523D01*
X75845714Y-167311904D01*
X75750476Y-167264285D01*
X75702857Y-167264285D01*
X75607619Y-167311904D01*
X75560000Y-167359523D01*
X75512380Y-167454761D01*
X75512380Y-167645237D01*
X75560000Y-167740475D01*
X75607619Y-167788094D01*
X75702857Y-167835713D01*
X75750476Y-167835713D01*
X75845714Y-167788094D01*
X75893333Y-167740475D01*
X75940952Y-167645237D01*
X75940952Y-167454761D01*
X75988571Y-167359523D01*
X76036190Y-167311904D01*
X76131428Y-167264285D01*
X76321904Y-167264285D01*
X76417142Y-167311904D01*
X76464761Y-167359523D01*
X76512380Y-167454761D01*
X76512380Y-167645237D01*
X76464761Y-167740475D01*
X76417142Y-167788094D01*
X76321904Y-167835713D01*
X76131428Y-167835713D01*
X76036190Y-167788094D01*
X75988571Y-167740475D01*
X75940952Y-167645237D01*
G04 #@! TO.C,R69*
X78132380Y-165930951D02*
X77656190Y-165597618D01*
X78132380Y-165359523D02*
X77132380Y-165359523D01*
X77132380Y-165740475D01*
X77180000Y-165835713D01*
X77227619Y-165883332D01*
X77322857Y-165930951D01*
X77465714Y-165930951D01*
X77560952Y-165883332D01*
X77608571Y-165835713D01*
X77656190Y-165740475D01*
X77656190Y-165359523D01*
X77132380Y-166788094D02*
X77132380Y-166597618D01*
X77180000Y-166502380D01*
X77227619Y-166454761D01*
X77370476Y-166359523D01*
X77560952Y-166311904D01*
X77941904Y-166311904D01*
X78037142Y-166359523D01*
X78084761Y-166407142D01*
X78132380Y-166502380D01*
X78132380Y-166692856D01*
X78084761Y-166788094D01*
X78037142Y-166835713D01*
X77941904Y-166883332D01*
X77703809Y-166883332D01*
X77608571Y-166835713D01*
X77560952Y-166788094D01*
X77513333Y-166692856D01*
X77513333Y-166502380D01*
X77560952Y-166407142D01*
X77608571Y-166359523D01*
X77703809Y-166311904D01*
X78132380Y-167359523D02*
X78132380Y-167549999D01*
X78084761Y-167645237D01*
X78037142Y-167692856D01*
X77894285Y-167788094D01*
X77703809Y-167835713D01*
X77322857Y-167835713D01*
X77227619Y-167788094D01*
X77180000Y-167740475D01*
X77132380Y-167645237D01*
X77132380Y-167454761D01*
X77180000Y-167359523D01*
X77227619Y-167311904D01*
X77322857Y-167264285D01*
X77560952Y-167264285D01*
X77656190Y-167311904D01*
X77703809Y-167359523D01*
X77751428Y-167454761D01*
X77751428Y-167645237D01*
X77703809Y-167740475D01*
X77656190Y-167788094D01*
X77560952Y-167835713D01*
G04 #@! TO.C,R70*
X79752380Y-165930951D02*
X79276190Y-165597618D01*
X79752380Y-165359523D02*
X78752380Y-165359523D01*
X78752380Y-165740475D01*
X78800000Y-165835713D01*
X78847619Y-165883332D01*
X78942857Y-165930951D01*
X79085714Y-165930951D01*
X79180952Y-165883332D01*
X79228571Y-165835713D01*
X79276190Y-165740475D01*
X79276190Y-165359523D01*
X78752380Y-166264285D02*
X78752380Y-166930951D01*
X79752380Y-166502380D01*
X78752380Y-167502380D02*
X78752380Y-167597618D01*
X78800000Y-167692856D01*
X78847619Y-167740475D01*
X78942857Y-167788094D01*
X79133333Y-167835713D01*
X79371428Y-167835713D01*
X79561904Y-167788094D01*
X79657142Y-167740475D01*
X79704761Y-167692856D01*
X79752380Y-167597618D01*
X79752380Y-167502380D01*
X79704761Y-167407142D01*
X79657142Y-167359523D01*
X79561904Y-167311904D01*
X79371428Y-167264285D01*
X79133333Y-167264285D01*
X78942857Y-167311904D01*
X78847619Y-167359523D01*
X78800000Y-167407142D01*
X78752380Y-167502380D01*
G04 #@! TO.C,R71*
X68432380Y-150337142D02*
X67956190Y-150003809D01*
X68432380Y-149765714D02*
X67432380Y-149765714D01*
X67432380Y-150146666D01*
X67480000Y-150241904D01*
X67527619Y-150289523D01*
X67622857Y-150337142D01*
X67765714Y-150337142D01*
X67860952Y-150289523D01*
X67908571Y-150241904D01*
X67956190Y-150146666D01*
X67956190Y-149765714D01*
X67432380Y-150670476D02*
X67432380Y-151337142D01*
X68432380Y-150908571D01*
X68432380Y-152241904D02*
X68432380Y-151670476D01*
X68432380Y-151956190D02*
X67432380Y-151956190D01*
X67575238Y-151860952D01*
X67670476Y-151765714D01*
X67718095Y-151670476D01*
G04 #@! TO.C,R72*
X70102380Y-150337142D02*
X69626190Y-150003809D01*
X70102380Y-149765714D02*
X69102380Y-149765714D01*
X69102380Y-150146666D01*
X69150000Y-150241904D01*
X69197619Y-150289523D01*
X69292857Y-150337142D01*
X69435714Y-150337142D01*
X69530952Y-150289523D01*
X69578571Y-150241904D01*
X69626190Y-150146666D01*
X69626190Y-149765714D01*
X69102380Y-150670476D02*
X69102380Y-151337142D01*
X70102380Y-150908571D01*
X69197619Y-151670476D02*
X69150000Y-151718095D01*
X69102380Y-151813333D01*
X69102380Y-152051428D01*
X69150000Y-152146666D01*
X69197619Y-152194285D01*
X69292857Y-152241904D01*
X69388095Y-152241904D01*
X69530952Y-152194285D01*
X70102380Y-151622857D01*
X70102380Y-152241904D01*
G04 #@! TO.C,R73*
X71762380Y-150337142D02*
X71286190Y-150003809D01*
X71762380Y-149765714D02*
X70762380Y-149765714D01*
X70762380Y-150146666D01*
X70810000Y-150241904D01*
X70857619Y-150289523D01*
X70952857Y-150337142D01*
X71095714Y-150337142D01*
X71190952Y-150289523D01*
X71238571Y-150241904D01*
X71286190Y-150146666D01*
X71286190Y-149765714D01*
X70762380Y-150670476D02*
X70762380Y-151337142D01*
X71762380Y-150908571D01*
X70762380Y-151622857D02*
X70762380Y-152241904D01*
X71143333Y-151908571D01*
X71143333Y-152051428D01*
X71190952Y-152146666D01*
X71238571Y-152194285D01*
X71333809Y-152241904D01*
X71571904Y-152241904D01*
X71667142Y-152194285D01*
X71714761Y-152146666D01*
X71762380Y-152051428D01*
X71762380Y-151765714D01*
X71714761Y-151670476D01*
X71667142Y-151622857D01*
G04 #@! TO.C,R74*
X73342380Y-150337142D02*
X72866190Y-150003809D01*
X73342380Y-149765714D02*
X72342380Y-149765714D01*
X72342380Y-150146666D01*
X72390000Y-150241904D01*
X72437619Y-150289523D01*
X72532857Y-150337142D01*
X72675714Y-150337142D01*
X72770952Y-150289523D01*
X72818571Y-150241904D01*
X72866190Y-150146666D01*
X72866190Y-149765714D01*
X72342380Y-150670476D02*
X72342380Y-151337142D01*
X73342380Y-150908571D01*
X72675714Y-152146666D02*
X73342380Y-152146666D01*
X72294761Y-151908571D02*
X73009047Y-151670476D01*
X73009047Y-152289523D01*
G04 #@! TO.C,R75*
X74842380Y-150337142D02*
X74366190Y-150003809D01*
X74842380Y-149765714D02*
X73842380Y-149765714D01*
X73842380Y-150146666D01*
X73890000Y-150241904D01*
X73937619Y-150289523D01*
X74032857Y-150337142D01*
X74175714Y-150337142D01*
X74270952Y-150289523D01*
X74318571Y-150241904D01*
X74366190Y-150146666D01*
X74366190Y-149765714D01*
X73842380Y-150670476D02*
X73842380Y-151337142D01*
X74842380Y-150908571D01*
X73842380Y-152194285D02*
X73842380Y-151718095D01*
X74318571Y-151670476D01*
X74270952Y-151718095D01*
X74223333Y-151813333D01*
X74223333Y-152051428D01*
X74270952Y-152146666D01*
X74318571Y-152194285D01*
X74413809Y-152241904D01*
X74651904Y-152241904D01*
X74747142Y-152194285D01*
X74794761Y-152146666D01*
X74842380Y-152051428D01*
X74842380Y-151813333D01*
X74794761Y-151718095D01*
X74747142Y-151670476D01*
G04 #@! TO.C,R76*
X76392380Y-150337142D02*
X75916190Y-150003809D01*
X76392380Y-149765714D02*
X75392380Y-149765714D01*
X75392380Y-150146666D01*
X75440000Y-150241904D01*
X75487619Y-150289523D01*
X75582857Y-150337142D01*
X75725714Y-150337142D01*
X75820952Y-150289523D01*
X75868571Y-150241904D01*
X75916190Y-150146666D01*
X75916190Y-149765714D01*
X75392380Y-150670476D02*
X75392380Y-151337142D01*
X76392380Y-150908571D01*
X75392380Y-152146666D02*
X75392380Y-151956190D01*
X75440000Y-151860952D01*
X75487619Y-151813333D01*
X75630476Y-151718095D01*
X75820952Y-151670476D01*
X76201904Y-151670476D01*
X76297142Y-151718095D01*
X76344761Y-151765714D01*
X76392380Y-151860952D01*
X76392380Y-152051428D01*
X76344761Y-152146666D01*
X76297142Y-152194285D01*
X76201904Y-152241904D01*
X75963809Y-152241904D01*
X75868571Y-152194285D01*
X75820952Y-152146666D01*
X75773333Y-152051428D01*
X75773333Y-151860952D01*
X75820952Y-151765714D01*
X75868571Y-151718095D01*
X75963809Y-151670476D01*
G04 #@! TO.C,R77*
X78062380Y-150337142D02*
X77586190Y-150003809D01*
X78062380Y-149765714D02*
X77062380Y-149765714D01*
X77062380Y-150146666D01*
X77110000Y-150241904D01*
X77157619Y-150289523D01*
X77252857Y-150337142D01*
X77395714Y-150337142D01*
X77490952Y-150289523D01*
X77538571Y-150241904D01*
X77586190Y-150146666D01*
X77586190Y-149765714D01*
X77062380Y-150670476D02*
X77062380Y-151337142D01*
X78062380Y-150908571D01*
X77062380Y-151622857D02*
X77062380Y-152289523D01*
X78062380Y-151860952D01*
G04 #@! TO.C,R78*
X79552380Y-150337142D02*
X79076190Y-150003809D01*
X79552380Y-149765714D02*
X78552380Y-149765714D01*
X78552380Y-150146666D01*
X78600000Y-150241904D01*
X78647619Y-150289523D01*
X78742857Y-150337142D01*
X78885714Y-150337142D01*
X78980952Y-150289523D01*
X79028571Y-150241904D01*
X79076190Y-150146666D01*
X79076190Y-149765714D01*
X78552380Y-150670476D02*
X78552380Y-151337142D01*
X79552380Y-150908571D01*
X78980952Y-151860952D02*
X78933333Y-151765714D01*
X78885714Y-151718095D01*
X78790476Y-151670476D01*
X78742857Y-151670476D01*
X78647619Y-151718095D01*
X78600000Y-151765714D01*
X78552380Y-151860952D01*
X78552380Y-152051428D01*
X78600000Y-152146666D01*
X78647619Y-152194285D01*
X78742857Y-152241904D01*
X78790476Y-152241904D01*
X78885714Y-152194285D01*
X78933333Y-152146666D01*
X78980952Y-152051428D01*
X78980952Y-151860952D01*
X79028571Y-151765714D01*
X79076190Y-151718095D01*
X79171428Y-151670476D01*
X79361904Y-151670476D01*
X79457142Y-151718095D01*
X79504761Y-151765714D01*
X79552380Y-151860952D01*
X79552380Y-152051428D01*
X79504761Y-152146666D01*
X79457142Y-152194285D01*
X79361904Y-152241904D01*
X79171428Y-152241904D01*
X79076190Y-152194285D01*
X79028571Y-152146666D01*
X78980952Y-152051428D01*
G04 #@! TO.C,U1*
X62972380Y-131058095D02*
X63781904Y-131058095D01*
X63877142Y-131105714D01*
X63924761Y-131153333D01*
X63972380Y-131248571D01*
X63972380Y-131439047D01*
X63924761Y-131534285D01*
X63877142Y-131581904D01*
X63781904Y-131629523D01*
X62972380Y-131629523D01*
X63972380Y-132629523D02*
X63972380Y-132058095D01*
X63972380Y-132343809D02*
X62972380Y-132343809D01*
X63115238Y-132248571D01*
X63210476Y-132153333D01*
X63258095Y-132058095D01*
G04 #@! TO.C,U6*
X97242380Y-137922095D02*
X98051904Y-137922095D01*
X98147142Y-137969714D01*
X98194761Y-138017333D01*
X98242380Y-138112571D01*
X98242380Y-138303047D01*
X98194761Y-138398285D01*
X98147142Y-138445904D01*
X98051904Y-138493523D01*
X97242380Y-138493523D01*
X97242380Y-139398285D02*
X97242380Y-139207809D01*
X97290000Y-139112571D01*
X97337619Y-139064952D01*
X97480476Y-138969714D01*
X97670952Y-138922095D01*
X98051904Y-138922095D01*
X98147142Y-138969714D01*
X98194761Y-139017333D01*
X98242380Y-139112571D01*
X98242380Y-139303047D01*
X98194761Y-139398285D01*
X98147142Y-139445904D01*
X98051904Y-139493523D01*
X97813809Y-139493523D01*
X97718571Y-139445904D01*
X97670952Y-139398285D01*
X97623333Y-139303047D01*
X97623333Y-139112571D01*
X97670952Y-139017333D01*
X97718571Y-138969714D01*
X97813809Y-138922095D01*
G04 #@! TO.C,Q1*
X98560561Y-142521384D02*
X98512942Y-142426146D01*
X98417703Y-142330908D01*
X98274846Y-142188051D01*
X98227227Y-142092813D01*
X98227227Y-141997575D01*
X98465322Y-142045194D02*
X98417703Y-141949956D01*
X98322465Y-141854718D01*
X98131989Y-141807099D01*
X97798656Y-141807099D01*
X97608180Y-141854718D01*
X97512942Y-141949956D01*
X97465322Y-142045194D01*
X97465322Y-142235670D01*
X97512942Y-142330908D01*
X97608180Y-142426146D01*
X97798656Y-142473765D01*
X98131989Y-142473765D01*
X98322465Y-142426146D01*
X98417703Y-142330908D01*
X98465322Y-142235670D01*
X98465322Y-142045194D01*
X98465322Y-143426146D02*
X98465322Y-142854718D01*
X98465322Y-143140432D02*
X97465322Y-143140432D01*
X97608180Y-143045194D01*
X97703418Y-142949956D01*
X97751037Y-142854718D01*
G04 #@! TO.C,R79*
X43972857Y-181812380D02*
X44306190Y-181336190D01*
X44544285Y-181812380D02*
X44544285Y-180812380D01*
X44163333Y-180812380D01*
X44068095Y-180860000D01*
X44020476Y-180907619D01*
X43972857Y-181002857D01*
X43972857Y-181145714D01*
X44020476Y-181240952D01*
X44068095Y-181288571D01*
X44163333Y-181336190D01*
X44544285Y-181336190D01*
X43639523Y-180812380D02*
X42972857Y-180812380D01*
X43401428Y-181812380D01*
X42544285Y-181812380D02*
X42353809Y-181812380D01*
X42258571Y-181764761D01*
X42210952Y-181717142D01*
X42115714Y-181574285D01*
X42068095Y-181383809D01*
X42068095Y-181002857D01*
X42115714Y-180907619D01*
X42163333Y-180860000D01*
X42258571Y-180812380D01*
X42449047Y-180812380D01*
X42544285Y-180860000D01*
X42591904Y-180907619D01*
X42639523Y-181002857D01*
X42639523Y-181240952D01*
X42591904Y-181336190D01*
X42544285Y-181383809D01*
X42449047Y-181431428D01*
X42258571Y-181431428D01*
X42163333Y-181383809D01*
X42115714Y-181336190D01*
X42068095Y-181240952D01*
G04 #@! TO.C,C21*
X98187142Y-157537142D02*
X98234761Y-157489523D01*
X98282380Y-157346666D01*
X98282380Y-157251428D01*
X98234761Y-157108571D01*
X98139523Y-157013333D01*
X98044285Y-156965714D01*
X97853809Y-156918095D01*
X97710952Y-156918095D01*
X97520476Y-156965714D01*
X97425238Y-157013333D01*
X97330000Y-157108571D01*
X97282380Y-157251428D01*
X97282380Y-157346666D01*
X97330000Y-157489523D01*
X97377619Y-157537142D01*
X97377619Y-157918095D02*
X97330000Y-157965714D01*
X97282380Y-158060952D01*
X97282380Y-158299047D01*
X97330000Y-158394285D01*
X97377619Y-158441904D01*
X97472857Y-158489523D01*
X97568095Y-158489523D01*
X97710952Y-158441904D01*
X98282380Y-157870476D01*
X98282380Y-158489523D01*
X98282380Y-159441904D02*
X98282380Y-158870476D01*
X98282380Y-159156190D02*
X97282380Y-159156190D01*
X97425238Y-159060952D01*
X97520476Y-158965714D01*
X97568095Y-158870476D01*
G04 #@! TO.C,FB1*
X96218571Y-157086666D02*
X96218571Y-156753333D01*
X96742380Y-156753333D02*
X95742380Y-156753333D01*
X95742380Y-157229523D01*
X96218571Y-157943809D02*
X96266190Y-158086666D01*
X96313809Y-158134285D01*
X96409047Y-158181904D01*
X96551904Y-158181904D01*
X96647142Y-158134285D01*
X96694761Y-158086666D01*
X96742380Y-157991428D01*
X96742380Y-157610476D01*
X95742380Y-157610476D01*
X95742380Y-157943809D01*
X95790000Y-158039047D01*
X95837619Y-158086666D01*
X95932857Y-158134285D01*
X96028095Y-158134285D01*
X96123333Y-158086666D01*
X96170952Y-158039047D01*
X96218571Y-157943809D01*
X96218571Y-157610476D01*
X96742380Y-159134285D02*
X96742380Y-158562857D01*
X96742380Y-158848571D02*
X95742380Y-158848571D01*
X95885238Y-158753333D01*
X95980476Y-158658095D01*
X96028095Y-158562857D01*
G04 #@! TO.C,FB2*
X94043333Y-167918571D02*
X94376666Y-167918571D01*
X94376666Y-168442380D02*
X94376666Y-167442380D01*
X93900476Y-167442380D01*
X93186190Y-167918571D02*
X93043333Y-167966190D01*
X92995714Y-168013809D01*
X92948095Y-168109047D01*
X92948095Y-168251904D01*
X92995714Y-168347142D01*
X93043333Y-168394761D01*
X93138571Y-168442380D01*
X93519523Y-168442380D01*
X93519523Y-167442380D01*
X93186190Y-167442380D01*
X93090952Y-167490000D01*
X93043333Y-167537619D01*
X92995714Y-167632857D01*
X92995714Y-167728095D01*
X93043333Y-167823333D01*
X93090952Y-167870952D01*
X93186190Y-167918571D01*
X93519523Y-167918571D01*
X92567142Y-167537619D02*
X92519523Y-167490000D01*
X92424285Y-167442380D01*
X92186190Y-167442380D01*
X92090952Y-167490000D01*
X92043333Y-167537619D01*
X91995714Y-167632857D01*
X91995714Y-167728095D01*
X92043333Y-167870952D01*
X92614761Y-168442380D01*
X91995714Y-168442380D01*
G04 #@! TD*
M02*
